<svg width="89.72" height="11.20" viewBox="0 0 2243 280" fill="none" xmlns="http://www.w3.org/2000/svg">
<path d="M167.2 164.8H60.8V279.2H0V0H60.8V111.2H167.2V0H228V279.2H167.2V164.8Z" fill="black"/>
<path d="M461.453 279.2L441.453 212.8H348.253L328.253 279.2H266.653L358.653 0H433.853L524.653 279.2H461.453ZM395.453 55.2H393.453L362.653 161.2H426.653L395.453 55.2Z" fill="black"/>
<path d="M772.081 96H770.881L750.481 136.8L696.081 235.6L642.881 137.2L621.681 93.2H620.481V279.2H563.281V0H627.681L696.081 130.8H696.881L764.481 0H829.281V279.2H772.081V96Z" fill="black"/>
<path d="M1099.82 96H1098.62L1078.22 136.8L1023.82 235.6L970.616 137.2L949.416 93.2H948.216V279.2H891.016V0H955.416L1023.82 130.8H1024.62L1092.22 0H1157.02V279.2H1099.82V96Z" fill="black"/>
<path d="M1218.75 279.2V0H1408.75V54H1279.55V111.2H1390.35V164.8H1279.55V225.2H1408.75V279.2H1218.75Z" fill="black"/>
<path d="M1522.52 279.2H1461.72V0H1594.12C1606.92 0 1618.52 2.13333 1628.92 6.39999C1639.32 10.6667 1648.12 16.8 1655.32 24.8C1662.79 32.5333 1668.52 41.8667 1672.52 52.8C1676.52 63.7333 1678.52 75.8667 1678.52 89.2C1678.52 108.133 1674.25 124.667 1665.72 138.8C1657.45 152.933 1644.79 163.2 1627.72 169.6L1682.52 279.2H1614.92L1566.12 176.8H1522.52V279.2ZM1586.52 125.6C1595.59 125.6 1602.65 123.333 1607.72 118.8C1613.05 114 1615.72 107.067 1615.72 98V80.4C1615.72 71.3333 1613.05 64.5333 1607.72 60C1602.65 55.2 1595.59 52.8 1586.52 52.8H1522.52V125.6H1586.52Z" fill="black"/>
<path d="M1867.38 279.2L1798.58 69.2H1856.98L1882.98 154L1902.58 230H1905.78L1925.38 154L1950.58 69.2H2006.58L1937.78 279.2H1867.38Z" fill="black"/>
<path d="M2047.82 279.2V230.8H2123.02V43.6H2119.42L2062.62 118L2024.22 88L2091.02 0H2183.02V230.8H2242.22V279.2H2047.82Z" fill="black"/>
</svg>
