0
SECTION
2
HEADER
9
$INSUNITS
70
4
9
$ACADVER
1
AC1014
9
$HANDSEED
5
FFFF
0
ENDSEC
0
SECTION
2
TABLES
0
TABLE
2
VPORT
5
8
100
AcDbSymbolTable
0
ENDTAB
0
TABLE
2
LTYPE
5
5
100
AcDbSymbolTable
0
LTYPE
5
14
100
AcDbSymbolTableRecord
100
AcDbLinetypeTableRecord
2
BYBLOCK
70
0
0
LTYPE
5
15
100
AcDbSymbolTableRecord
100
AcDbLinetypeTableRecord
2
BYLAYER
70
0
0
ENDTAB
0
TABLE
2
LAYER
5
2
100
AcDbSymbolTable
70
2
0
LAYER
5
50
100
AcDbSymbolTableRecord
100
AcDbLayerTableRecord
2
0
70
0
6
CONTINUOUS
0
ENDTAB
0
TABLE
2
STYLE
5
3
100
AcDbSymbolTable
70
1
0
STYLE
5
11
100
AcDbSymbolTableRecord
100
AcDbTextStyleTableRecord
2
STANDARD
70
0
0
ENDTAB
0
TABLE
2
VIEW
5
6
100
AcDbSymbolTable
70
0
0
ENDTAB
0
TABLE
2
UCS
5
7
100
AcDbSymbolTable
70
0
0
ENDTAB
0
TABLE
2
APPID
5
9
100
AcDbSymbolTable
70
2
0
APPID
5
12
100
AcDbSymbolTableRecord
100
AcDbRegAppTableRecord
2
ACAD
70
0
0
ENDTAB
0
TABLE
2
DIMSTYLE
5
A
100
AcDbSymbolTable
70
1
0
ENDTAB
0
TABLE
2
BLOCK_RECORD
5
1
100
AcDbSymbolTable
70
1
0
BLOCK_RECORD
5
1F
100
AcDbSymbolTableRecord
100
AcDbBlockTableRecord
2
*MODEL_SPACE
0
BLOCK_RECORD
5
1B
100
AcDbSymbolTableRecord
100
AcDbBlockTableRecord
2
*PAPER_SPACE
0
ENDTAB
0
ENDSEC
0
SECTION
2
BLOCKS
0
BLOCK
5
20
100
AcDbEntity
100
AcDbBlockBegin
2
*MODEL_SPACE
0
ENDBLK
5
21
100
AcDbEntity
100
AcDbBlockEnd
0
BLOCK
5
1C
100
AcDbEntity
100
AcDbBlockBegin
2
*PAPER_SPACE
0
ENDBLK
5
1D
100
AcDbEntity
100
AcDbBlockEnd
0
ENDSEC
0
SECTION
2
ENTITIES
0
ARC
5
100
100
AcDbEntity
8
0
100
AcDbCircle
10
1.0682695610619142
20
27.983438338188577
30
0
40
11.999999999999993
210
-2.503708927705278e-33
220
-1.0014835710813158e-32
230
1
100
AcDbArc
50
89.999999999989285
51
194.04742768621057
0
LINE
5
101
100
AcDbEntity
8
0
100
AcDbLine
10
-10.572872099270487
20
25.070738414737271
30
-5.8316241511918943e-32
11
3.0818594709881442
21
-29.502844963123074
31
-4.9303806576313238e-31
0
ARC
5
102
100
AcDbEntity
8
0
100
AcDbCircle
10
17.633285508641464
20
-25.861965911203725
30
0
40
15.000000000000004
210
-2.9081421904894833e-32
220
-1.9188197368829151e-32
230
1
100
AcDbArc
50
194.04744401727422
51
260.54658449290639
0
SPLINE
5
103
100
AcDbEntity
8
0
100
AcDbSpline
70
0
71
3
72
8
73
4
74
0
42
0.000000001
43
0.0000000001
44
0.0000000001
40
0
40
0
40
0
40
0
40
1
40
1
40
1
40
1
10
15.169600771473943
20
-40.658257930349883
30
0
10
17.950420290509438
20
-40.88619352415482
30
0
10
20.737208164074829
20
-41.041310776707391
30
0
10
23.526145893869284
20
-41.123397144035081
30
0
0
SPLINE
5
104
100
AcDbEntity
8
0
100
AcDbSpline
70
0
71
3
72
17
73
13
74
0
42
0.000000001
43
0.0000000001
44
0.0000000001
40
-1
40
-1
40
-1
40
-1
40
-0.72671872854608166
40
-0.72671872854608166
40
-0.72671872854608166
40
-0.44667898094727748
40
-0.44667898094727748
40
-0.44667898094727748
40
-0.25614449047363874
40
-0.25614449047363874
40
-0.25614449047363874
40
0
40
0
40
0
40
0
10
23.52614589386927
20
-41.123397144035103
30
0
10
37.545196241978644
20
-41.536017656915838
30
0
10
51.61774030019351
20
-40.093153842633591
30
0
10
65.261374742152839
20
-36.844266715530757
30
0
10
79.242427761737147
20
-33.515031871845906
30
0
10
92.770595600509125
20
-28.289367428316787
30
0
10
105.35916551409133
20
-21.355280919505113
30
0
10
113.92422377757912
20
-16.637441215730824
30
0
10
122.05504201564725
20
-11.131637687928011
30
0
10
129.61541289459501
20
-4.9301034664464005
30
0
10
139.77917559060802
20
3.4069111043408107
30
0
10
148.90879554476081
20
13.00338679190876
30
0
10
156.72898713437917
20
23.569960862819748
30
0
0
ARC
5
105
100
AcDbEntity
8
0
100
AcDbCircle
10
144.67186432475731
20
32.493289252703036
30
0
40
15.000000000000016
210
-5.4994257118966183e-33
220
-7.4307756359056221e-33
230
1
100
AcDbArc
50
-36.504688154305128
51
35.247411355146454
0
LINE
5
106
100
AcDbEntity
8
0
100
AcDbLine
10
156.92187877422916
20
41.14991365183986
30
1.0998315505293141e-31
11
121.7980175293516
21
90.853792199914238
31
6.7792734042430702e-31
0
ARC
5
107
100
AcDbEntity
8
0
100
AcDbCircle
10
111.99800596977411
20
83.928492680604762
30
0
40
12.000000000000007
210
-4.0801719512152177e-32
220
-4.0152778486944718e-32
230
1
100
AcDbArc
50
35.247411355146497
51
157.47410859501028
0
SPLINE
5
108
100
AcDbEntity
8
0
100
AcDbSpline
70
0
71
3
72
23
73
19
74
0
42
0.000000001
43
0.0000000001
44
0.0000000001
40
0
40
0
40
0
40
0
40
0.025000231446485565
40
0.025000231446485565
40
0.025000231446485565
40
0.061744542079074829
40
0.061744542079074829
40
0.061744542079074829
40
0.097602065928716411
40
0.097602065928716411
40
0.097602065928716411
40
0.32874632495586958
40
0.32874632495586958
40
0.32874632495586958
40
0.66847263800275702
40
0.66847263800275702
40
0.66847263800275702
40
1
40
1
40
1
40
1
10
100.91352788254403
20
88.525703305942258
30
0
10
100.64399520382338
20
87.875824648087431
30
0
10
100.36574603107522
20
87.229561102417691
30
0
10
100.07888045282508
20
86.587145135268102
30
0
10
99.657257239472727
20
85.642948602415672
30
0
10
99.217019672555239
20
84.7070642019834
30
0
10
98.75850979080559
20
83.780219061182606
30
0
10
98.311065581427656
20
82.875742390671547
30
0
10
97.846220523544361
20
81.979873953334348
30
0
10
97.364318556309343
20
81.093276602797161
30
0
10
94.25788896548363
20
75.378105401777105
30
0
10
90.43936177347021
20
70.050453815240132
30
0
10
86.025091496871212
20
65.272660958191892
30
0
10
79.537178830672218
20
58.25045777365996
30
0
10
71.757380511082147
20
52.425651281719112
30
0
10
63.192415108019723
20
48.177626332001992
30
0
10
54.834156484458106
20
44.032123169037348
30
0
10
45.733152305982998
20
41.389729382707984
30
0
10
36.454434443300144
20
40.414496837506128
30
0
0
SPLINE
5
109
100
AcDbEntity
8
0
100
AcDbSpline
70
0
71
3
72
8
73
4
74
0
42
0.000000001
43
0.0000000001
44
0.0000000001
40
-1
40
-1
40
-1
40
-1
40
0
40
0
40
0
40
0
10
36.454434443300158
20
40.414496837506128
30
0
10
33.722768413951208
20
40.127387168490607
30
0
10
30.976061106807041
20
39.983438338183099
30
0
10
28.229348297294319
20
39.983438338183518
30
0
0
LINE
5
110
100
AcDbEntity
8
0
100
AcDbLine
10
28.229348297294319
20
39.983438338183518
30
0
11
1.0682695610641579
21
39.98343833818857
31
1.2017802852976345e-31
0
LWPOLYLINE
5
111
100
AcDbEntity
8
0
100
AcDbPolyline
90
8
70
1
43
0.0
10
123.54691445175681
20
62.10655890060076
10
127.95691876529952
20
65.222944941279067
42
0.41421356237325341
10
128.02878644712533
20
65.641077738735788
10
124.91240040644705
20
70.051082052278502
42
0.4142135623732684
10
124.4942676089903
20
70.12294973410431
10
120.08426329544758
20
67.006563693426003
42
0.41421356237323215
10
120.01239561362178
20
66.588430895969296
10
123.12878165430007
20
62.17842658242656
42
0.41421356237324425
0
CIRCLE
5
112
100
AcDbEntity
8
0
100
AcDbCircle
10
126.80814301341849
20
65.635636438513771
30
0
40
0.49999999999996392
210
8.1073937574512583e-32
220
-4.6386421263409252e-32
230
1
0
CIRCLE
5
113
100
AcDbEntity
8
0
100
AcDbCircle
10
124.02059103037345
20
66.11475431735262
30
0
40
1.75000000000004
210
-1.9775401988350658e-32
220
-8.1570974622989578e-33
230
1
0
CIRCLE
5
114
100
AcDbEntity
8
0
100
AcDbCircle
10
121.23303904732884
20
66.593872196191128
30
0
40
0.4999999999999627
210
1.0935950802953082e-31
220
-5.3813275657983427e-32
230
1
0
CIRCLE
5
115
100
AcDbEntity
8
0
100
AcDbCircle
10
124.49970890921234
20
68.902306300397271
30
-1.1102230246251565e-15
40
0.49999999999996275
210
9.1705004727957697e-32
220
-4.876864879262211e-32
230
1
0
CIRCLE
5
116
100
AcDbEntity
8
0
100
AcDbCircle
10
123.54147315153499
20
63.327202334307628
30
0
40
0.49999999999996292
210
1.1035292705355916e-31
220
-5.3365989831113736e-32
230
1
0
LWPOLYLINE
5
117
100
AcDbEntity
8
0
100
AcDbPolyline
90
8
70
1
43
0.0
10
119.19572813598178
20
66.011322361317923
10
122.3121141766599
20
61.601318047775436
42
0.41421356237318718
10
124.12402298640814
20
61.289891422960743
10
128.53402729995065
20
64.406277463638887
42
0.41421356237318557
10
128.84545392476537
20
66.21818627338709
10
125.72906788408721
20
70.62819058692962
42
0.41421356237319162
10
123.91715907433897
20
70.939617211744348
10
119.50715476079645
20
67.823231171066169
42
0.41421356237319279
0
ENDSEC
0
SECTION
2
OBJECTS
0
DICTIONARY
5
C
100
AcDbDictionary
3
ACAD_GROUP
350
D
3
ACAD_MLINESTYLE
350
17
0
DICTIONARY
5
D
100
AcDbDictionary
0
DICTIONARY
5
1A
330
C
100
AcDbDictionary
0
DICTIONARY
5
17
100
AcDbDictionary
0
ENDSEC
0
EOF
