999
dxfrw 0.6.3
  0
SECTION
  2
HEADER
  9
$ACADVER
  1
AC1021
  9
$DWGCODEPAGE
  3
ANSI_1252
  9
$INSBASE
 10
0
 20
0
 30
0
  9
$EXTMIN
 10
-97.35268249524066
 20
-215.0315433812569
 30
0
  9
$EXTMAX
 10
222.6826270946131
 20
143.0870712427158
 30
0
  9
$LIMMIN
 10
0
 20
0
  9
$LIMMAX
 10
420
 20
297
  9
$ORTHOMODE
 70
    0
  9
$REGENMODE
 70
    1
  9
$FILLMODE
 70
    1
  9
$QTEXTMODE
 70
    0
  9
$MIRRTEXT
 70
    0
  9
$LTSCALE
 40
1
  9
$ATTMODE
 70
    0
  9
$TEXTSIZE
 40
2.5
  9
$TRACEWID
 40
15.68
  9
$TEXTSTYLE
  7
STANDARD
  9
$CLAYER
  8
keycap guide
  9
$CELTYPE
  6
BYLAYER
  9
$CECOLOR
 62
  256
  9
$CELTSCALE
 40
1
  9
$DISPSILH
 70
    0
  9
$DIMSCALE
 40
2.5
  9
$DIMASZ
 40
2.5
  9
$DIMEXO
 40
0.625
  9
$DIMDLI
 40
3.75
  9
$DIMRND
 40
0
  9
$DIMDLE
 40
0
  9
$DIMEXE
 40
1.25
  9
$DIMTP
 40
0
  9
$DIMTM
 40
0
  9
$DIMTXT
 40
2.5
  9
$DIMCEN
 40
2.5
  9
$DIMTSZ
 40
0
  9
$DIMTOL
 70
    0
  9
$DIMLIM
 70
    0
  9
$DIMTIH
 70
    0
  9
$DIMTOH
 70
    0
  9
$DIMSE1
 70
    0
  9
$DIMSE2
 70
    0
  9
$DIMTAD
 70
    1
  9
$DIMZIN
 70
    8
  9
$DIMBLK
  1

  9
$DIMASO
 70
    1
  9
$DIMSHO
 70
    1
  9
$DIMPOST
  1

  9
$DIMAPOST
  1

  9
$DIMALT
 70
    0
  9
$DIMALTD
 70
    3
  9
$DIMALTF
 40
0.03937
  9
$DIMLFAC
 40
1
  9
$DIMTOFL
 70
    1
  9
$DIMTVP
 40
0
  9
$DIMTIX
 70
    0
  9
$DIMSOXD
 70
    0
  9
$DIMSAH
 70
    0
  9
$DIMBLK1
  1

  9
$DIMBLK2
  1

  9
$DIMSTYLE
  2
STANDARD
  9
$DIMCLRD
 70
    0
  9
$DIMCLRE
 70
    0
  9
$DIMCLRT
 70
    0
  9
$DIMTFAC
 40
1
  9
$DIMGAP
 40
0.625
  9
$DIMJUST
 70
    0
  9
$DIMSD1
 70
    0
  9
$DIMSD2
 70
    0
  9
$DIMTOLJ
 70
    0
  9
$DIMTZIN
 70
    8
  9
$DIMALTZ
 70
    0
  9
$DIMALTTZ
 70
    0
  9
$DIMUPT
 70
    0
  9
$DIMDEC
 70
    2
  9
$DIMTDEC
 70
    2
  9
$DIMALTU
 70
    2
  9
$DIMALTTD
 70
    3
  9
$DIMTXSTY
  7
STANDARD
  9
$DIMAUNIT
 70
    0
  9
$DIMADEC
 70
    0
  9
$DIMALTRND
 40
0
  9
$DIMAZIN
 70
    0
  9
$DIMDSEP
 70
   44
  9
$DIMATFIT
 70
    3
  9
$DIMFRAC
 70
    0
  9
$DIMLDRBLK
  1
STANDARD
  9
$DIMLUNIT
 70
    2
  9
$DIMLWD
 70
   -2
  9
$DIMLWE
 70
   -2
  9
$DIMTMOVE
 70
    0
  9
$DIMFXL
 40
1
  9
$DIMFXLON
 70
    0
  9
$DIMJOGANG
 40
0.7854
  9
$DIMTFILL
 70
    0
  9
$DIMTFILLCLR
 70
    0
  9
$DIMARCSYM
 70
    0
  9
$DIMLTYPE
  6

  9
$DIMLTEX1
  6

  9
$DIMLTEX2
  6

  9
$LUNITS
 70
    2
  9
$LUPREC
 70
    4
  9
$SKETCHINC
 40
1
  9
$FILLETRAD
 40
0
  9
$AUNITS
 70
    0
  9
$AUPREC
 70
    2
  9
$MENU
  1
.
  9
$ELEVATION
 40
0
  9
$PELEVATION
 40
0
  9
$THICKNESS
 40
0
  9
$LIMCHECK
 70
    0
  9
$CHAMFERA
 40
0
  9
$CHAMFERB
 40
0
  9
$CHAMFERC
 40
0
  9
$CHAMFERD
 40
0
  9
$SKPOLY
 70
    0
  9
$USRTIMER
 70
    1
  9
$ANGBASE
 50
0
  9
$ANGDIR
 70
    0
  9
$PDMODE
 70
   34
  9
$PDSIZE
 40
0
  9
$PLINEWID
 40
0
  9
$SPLFRAME
 70
    0
  9
$SPLINETYPE
 70
    2
  9
$SPLINESEGS
 70
    8
  9
$HANDSEED
  5
20000
  9
$SURFTAB1
 70
    6
  9
$SURFTAB2
 70
    6
  9
$SURFTYPE
 70
    6
  9
$SURFU
 70
    6
  9
$SURFV
 70
    6
  9
$UCSBASE
  2

  9
$UCSNAME
  2

  9
$UCSORG
 10
0
 20
0
 30
0
  9
$UCSXDIR
 10
1
 20
0
 30
0
  9
$UCSYDIR
 10
0
 20
1
 30
0
  9
$UCSORTHOREF
  2

  9
$UCSORTHOVIEW
 70
    0
  9
$UCSORGTOP
 10
0
 20
0
 30
0
  9
$UCSORGBOTTOM
 10
0
 20
0
 30
0
  9
$UCSORGLEFT
 10
0
 20
0
 30
0
  9
$UCSORGRIGHT
 10
0
 20
0
 30
0
  9
$UCSORGFRONT
 10
0
 20
0
 30
0
  9
$UCSORGBACK
 10
0
 20
0
 30
0
  9
$PUCSBASE
  2

  9
$PUCSNAME
  2

  9
$PUCSORG
 10
0
 20
0
 30
0
  9
$PUCSXDIR
 10
1
 20
0
 30
0
  9
$PUCSYDIR
 10
0
 20
1
 30
0
  9
$PUCSORTHOREF
  2

  9
$PUCSORTHOVIEW
 70
    0
  9
$PUCSORGTOP
 10
0
 20
0
 30
0
  9
$PUCSORGBOTTOM
 10
0
 20
0
 30
0
  9
$PUCSORGLEFT
 10
0
 20
0
 30
0
  9
$PUCSORGRIGHT
 10
0
 20
0
 30
0
  9
$PUCSORGFRONT
 10
0
 20
0
 30
0
  9
$PUCSORGBACK
 10
0
 20
0
 30
0
  9
$USERI1
 70
    0
  9
$USERI2
 70
    0
  9
$USERI3
 70
    0
  9
$USERI4
 70
    0
  9
$USERI5
 70
    0
  9
$USERR1
 40
0
  9
$USERR2
 40
0
  9
$USERR3
 40
0
  9
$USERR4
 40
0
  9
$USERR5
 40
0
  9
$WORLDVIEW
 70
    1
  9
$SHADEDGE
 70
    3
  9
$SHADEDIF
 70
   70
  9
$TILEMODE
 70
    1
  9
$MAXACTVP
 70
   64
  9
$PINSBASE
 10
0
 20
0
 30
0
  9
$PLIMCHECK
 70
    0
  9
$PEXTMIN
 10
0
 20
0
 30
0
  9
$PEXTMAX
 10
0
 20
0
 30
0
  9
$GRIDMODE
 70
    1
  9
$SNAPSTYLE
 70
    0
  9
$PLIMMIN
 10
0
 20
0
  9
$PLIMMAX
 10
210
 20
297
  9
$UNITMODE
 70
    0
  9
$VISRETAIN
 70
    1
  9
$PLINEGEN
 70
    0
  9
$PSLTSCALE
 70
    1
  9
$TREEDEPTH
 70
 3020
  9
$CMLSTYLE
  2
Standard
  9
$CMLJUST
 70
    0
  9
$CMLSCALE
 40
20
  9
$PROXYGRAPHICS
 70
    1
  9
$MEASUREMENT
 70
    1
  9
$CELWEIGHT
370
   -1
  9
$ENDCAPS
280
    0
  9
$JOINSTYLE
280
    0
  9
$LWDISPLAY
290
    0
  9
$INSUNITS
 70
    4
  9
$HYPERLINKBASE
  1

  9
$STYLESHEET
  1

  9
$XEDIT
290
    1
  9
$CEPSNTYPE
380
    0
  9
$PSTYLEMODE
290
    1
  9
$EXTNAMES
290
    1
  9
$PSVPSCALE
 40
1
  9
$OLESTARTUP
290
    0
  9
$SORTENTS
280
  127
  9
$INDEXCTL
280
    0
  9
$HIDETEXT
280
    1
  9
$XCLIPFRAME
290
    0
  9
$HALOGAP
280
    0
  9
$OBSCOLOR
 70
  257
  9
$OBSLTYPE
280
    0
  9
$INTERSECTIONDISPLAY
280
    0
  9
$INTERSECTIONCOLOR
 70
  257
  9
$DIMASSOC
280
    1
  9
$PROJECTNAME
  1

  9
$CAMERADISPLAY
290
    0
  9
$LENSLENGTH
 40
50
  9
$CAMERAHEIGHT
 40
0
  9
$STEPSPERSEC
 40
2
  9
$STEPSIZE
 40
50
  9
$3DDWFPREC
 40
2
  9
$PSOLWIDTH
 40
5
  9
$PSOLHEIGHT
 40
80
  9
$LOFTANG1
 40
1.570796326794897
  9
$LOFTANG2
 40
1.570796326794897
  9
$LOFTMAG1
 40
0
  9
$LOFTMAG2
 40
0
  9
$LOFTPARAM
 70
    7
  9
$LOFTNORMALS
280
    1
  9
$LATITUDE
 40
1
  9
$LONGITUDE
 40
1
  9
$NORTHDIRECTION
 40
0
  9
$TIMEZONE
 70
-8000
  9
$LIGHTGLYPHDISPLAY
280
    1
  9
$TILEMODELIGHTSYNCH
280
    1
  9
$SOLIDHIST
280
    1
  9
$SHOWHIST
280
    1
  9
$DWFFRAME
280
    2
  9
$DGNFRAME
280
    0
  9
$REALWORLDSCALE
290
    1
  9
$INTERFERECOLOR
 62
    1
  9
$CSHADOW
280
    0
  9
$SHADOWPLANELOCATION
 40
0
  0
ENDSEC
  0
SECTION
  2
CLASSES
  0
ENDSEC
  0
SECTION
  2
TABLES
  0
TABLE
  2
VPORT
  5
8
330
0
100
AcDbSymbolTable
 70
    1
  0
VPORT
  5
31
330
2
100
AcDbSymbolTableRecord
100
AcDbViewportTableRecord
  2
*ACTIVE
 70
    0
 10
0
 20
0
 11
1
 21
1
 12
100.7270224285896
 22
58.31868960828163
 13
0
 23
0
 14
10
 24
10
 15
10
 25
10
 16
0
 26
0
 36
1
 17
0
 27
0
 37
0
 40
133.531285333248
 41
1.787694974003466
 42
50
 43
0
 44
0
 50
0
 51
0
 71
    0
 72
  100
 73
    1
 74
    3
 75
    0
 76
    1
 77
    0
 78
    0
281
    0
 65
    1
110
0
120
0
130
0
111
1
121
0
131
0
112
0
122
1
132
0
 79
    0
146
0
348
10020
 60
    7
 61
    5
292
1
282
    1
141
0
142
0
 63
  250
421
3358443
  0
ENDTAB
  0
TABLE
  2
LTYPE
  5
5
330
0
100
AcDbSymbolTable
 70
    4
  0
LTYPE
  5
14
330
5
100
AcDbSymbolTableRecord
100
AcDbLinetypeTableRecord
  2
ByBlock
 70
    0
  3

 72
   65
 73
    0
 40
0
  0
LTYPE
  5
15
330
5
100
AcDbSymbolTableRecord
100
AcDbLinetypeTableRecord
  2
ByLayer
 70
    0
  3

 72
   65
 73
    0
 40
0
  0
LTYPE
  5
16
330
5
100
AcDbSymbolTableRecord
100
AcDbLinetypeTableRecord
  2
Continuous
 70
    0
  3
Solid line
 72
   65
 73
    0
 40
0
  0
LTYPE
  5
32
330
5
100
AcDbSymbolTableRecord
100
AcDbLinetypeTableRecord
  2
DOT
 70
    0
  3
Dot . . . . . . . . . . . . . . . . . . . . . .
 72
   65
 73
    2
 40
6.35
 49
0
 74
    0
 49
-6.35
 74
    0
  0
LTYPE
  5
33
330
5
100
AcDbSymbolTableRecord
100
AcDbLinetypeTableRecord
  2
DOTTINY
 70
    0
  3
Dot (.15x) .....................................
 72
   65
 73
    2
 40
0.9525
 49
0
 74
    0
 49
-0.9525
 74
    0
  0
LTYPE
  5
34
330
5
100
AcDbSymbolTableRecord
100
AcDbLinetypeTableRecord
  2
DOT2
 70
    0
  3
Dot (.5x) .....................................
 72
   65
 73
    2
 40
3.175
 49
0
 74
    0
 49
-3.175
 74
    0
  0
LTYPE
  5
35
330
5
100
AcDbSymbolTableRecord
100
AcDbLinetypeTableRecord
  2
DOTX2
 70
    0
  3
Dot (2x) .  .  .  .  .  .  .  .  .  .  .  .  .
 72
   65
 73
    2
 40
12.7
 49
0
 74
    0
 49
-12.7
 74
    0
  0
LTYPE
  5
36
330
5
100
AcDbSymbolTableRecord
100
AcDbLinetypeTableRecord
  2
DASHED
 70
    0
  3
Dashed _ _ _ _ _ _ _ _ _ _ _ _ _ _ _ _ _
 72
   65
 73
    2
 40
19.05
 49
12.7
 74
    0
 49
-6.35
 74
    0
  0
LTYPE
  5
37
330
5
100
AcDbSymbolTableRecord
100
AcDbLinetypeTableRecord
  2
DASHEDTINY
 70
    0
  3
Dashed (.15x) _ _ _ _ _ _ _ _ _ _ _ _ _ _ _ _ _
 72
   65
 73
    2
 40
2.8575
 49
1.905
 74
    0
 49
-0.9525
 74
    0
  0
LTYPE
  5
38
330
5
100
AcDbSymbolTableRecord
100
AcDbLinetypeTableRecord
  2
DASHED2
 70
    0
  3
Dashed (.5x) _ _ _ _ _ _ _ _ _ _ _ _ _ _ _ _ _
 72
   65
 73
    2
 40
9.524999999999999
 49
6.35
 74
    0
 49
-3.175
 74
    0
  0
LTYPE
  5
39
330
5
100
AcDbSymbolTableRecord
100
AcDbLinetypeTableRecord
  2
DASHEDX2
 70
    0
  3
Dashed (2x) ____  ____  ____  ____  ____  ___
 72
   65
 73
    2
 40
38.09999999999999
 49
25.4
 74
    0
 49
-12.7
 74
    0
  0
LTYPE
  5
3A
330
5
100
AcDbSymbolTableRecord
100
AcDbLinetypeTableRecord
  2
DASHDOT
 70
    0
  3
Dash dot __ . __ . __ . __ . __ . __ . __ . __
 72
   65
 73
    4
 40
25.4
 49
12.7
 74
    0
 49
-6.35
 74
    0
 49
0
 74
    0
 49
-6.35
 74
    0
  0
LTYPE
  5
3B
330
5
100
AcDbSymbolTableRecord
100
AcDbLinetypeTableRecord
  2
DASHDOTTINY
 70
    0
  3
Dash dot (.15x) _._._._._._._._._._._._._._._.
 72
   65
 73
    4
 40
3.81
 49
1.905
 74
    0
 49
-0.9525
 74
    0
 49
0
 74
    0
 49
-0.9525
 74
    0
  0
LTYPE
  5
3C
330
5
100
AcDbSymbolTableRecord
100
AcDbLinetypeTableRecord
  2
DASHDOT2
 70
    0
  3
Dash dot (.5x) _._._._._._._._._._._._._._._.
 72
   65
 73
    4
 40
12.7
 49
6.35
 74
    0
 49
-3.175
 74
    0
 49
0
 74
    0
 49
-3.175
 74
    0
  0
LTYPE
  5
3D
330
5
100
AcDbSymbolTableRecord
100
AcDbLinetypeTableRecord
  2
DASHDOTX2
 70
    0
  3
Dash dot (2x) ____  .  ____  .  ____  .  ___
 72
   65
 73
    4
 40
50.8
 49
25.4
 74
    0
 49
-12.7
 74
    0
 49
0
 74
    0
 49
-12.7
 74
    0
  0
LTYPE
  5
3E
330
5
100
AcDbSymbolTableRecord
100
AcDbLinetypeTableRecord
  2
DIVIDE
 70
    0
  3
Divide ____ . . ____ . . ____ . . ____ . . ____
 72
   65
 73
    6
 40
31.75
 49
12.7
 74
    0
 49
-6.35
 74
    0
 49
0
 74
    0
 49
-6.35
 74
    0
 49
0
 74
    0
 49
-6.35
 74
    0
  0
LTYPE
  5
3F
330
5
100
AcDbSymbolTableRecord
100
AcDbLinetypeTableRecord
  2
DIVIDETINY
 70
    0
  3
Divide (.15x) __..__..__..__..__..__..__..__.._
 72
   65
 73
    6
 40
4.7625
 49
1.905
 74
    0
 49
-0.9525
 74
    0
 49
0
 74
    0
 49
-0.9525
 74
    0
 49
0
 74
    0
 49
-0.9525
 74
    0
  0
LTYPE
  5
40
330
5
100
AcDbSymbolTableRecord
100
AcDbLinetypeTableRecord
  2
DIVIDE2
 70
    0
  3
Divide (.5x) __..__..__..__..__..__..__..__.._
 72
   65
 73
    6
 40
15.875
 49
6.35
 74
    0
 49
-3.175
 74
    0
 49
0
 74
    0
 49
-3.175
 74
    0
 49
0
 74
    0
 49
-3.175
 74
    0
  0
LTYPE
  5
41
330
5
100
AcDbSymbolTableRecord
100
AcDbLinetypeTableRecord
  2
DIVIDEX2
 70
    0
  3
Divide (2x) ________  .  .  ________  .  .  _
 72
   65
 73
    6
 40
63.5
 49
25.4
 74
    0
 49
-12.7
 74
    0
 49
0
 74
    0
 49
-12.7
 74
    0
 49
0
 74
    0
 49
-12.7
 74
    0
  0
LTYPE
  5
42
330
5
100
AcDbSymbolTableRecord
100
AcDbLinetypeTableRecord
  2
BORDER
 70
    0
  3
Border __ __ . __ __ . __ __ . __ __ . __ __ .
 72
   65
 73
    6
 40
44.45
 49
12.7
 74
    0
 49
-6.35
 74
    0
 49
12.7
 74
    0
 49
-6.35
 74
    0
 49
0
 74
    0
 49
-6.35
 74
    0
  0
LTYPE
  5
43
330
5
100
AcDbSymbolTableRecord
100
AcDbLinetypeTableRecord
  2
BORDERTINY
 70
    0
  3
Border (.15x) __.__.__.__.__.__.__.__.__.__.__.
 72
   65
 73
    6
 40
6.6675
 49
1.905
 74
    0
 49
-0.9525
 74
    0
 49
1.905
 74
    0
 49
-0.9525
 74
    0
 49
0
 74
    0
 49
-0.9525
 74
    0
  0
LTYPE
  5
44
330
5
100
AcDbSymbolTableRecord
100
AcDbLinetypeTableRecord
  2
BORDER2
 70
    0
  3
Border (.5x) __.__.__.__.__.__.__.__.__.__.__.
 72
   65
 73
    6
 40
22.225
 49
6.35
 74
    0
 49
-3.175
 74
    0
 49
6.35
 74
    0
 49
-3.175
 74
    0
 49
0
 74
    0
 49
-3.175
 74
    0
  0
LTYPE
  5
45
330
5
100
AcDbSymbolTableRecord
100
AcDbLinetypeTableRecord
  2
BORDERX2
 70
    0
  3
Border (2x) ____  ____  .  ____  ____  .  ___
 72
   65
 73
    6
 40
88.89999999999999
 49
25.4
 74
    0
 49
-12.7
 74
    0
 49
25.4
 74
    0
 49
-12.7
 74
    0
 49
0
 74
    0
 49
-12.7
 74
    0
  0
LTYPE
  5
46
330
5
100
AcDbSymbolTableRecord
100
AcDbLinetypeTableRecord
  2
CENTER
 70
    0
  3
Center ____ _ ____ _ ____ _ ____ _ ____ _ ____
 72
   65
 73
    4
 40
50.8
 49
31.75
 74
    0
 49
-6.35
 74
    0
 49
6.35
 74
    0
 49
-6.35
 74
    0
  0
LTYPE
  5
47
330
5
100
AcDbSymbolTableRecord
100
AcDbLinetypeTableRecord
  2
CENTERTINY
 70
    0
  3
Center (.15x) ___ _ ___ _ ___ _ ___ _ ___ _ ___
 72
   65
 73
    4
 40
7.619999999999999
 49
4.7625
 74
    0
 49
-0.9525
 74
    0
 49
0.9525
 74
    0
 49
-0.9525
 74
    0
  0
LTYPE
  5
48
330
5
100
AcDbSymbolTableRecord
100
AcDbLinetypeTableRecord
  2
CENTER2
 70
    0
  3
Center (.5x) ___ _ ___ _ ___ _ ___ _ ___ _ ___
 72
   65
 73
    4
 40
28.575
 49
19.05
 74
    0
 49
-3.175
 74
    0
 49
3.175
 74
    0
 49
-3.175
 74
    0
  0
LTYPE
  5
49
330
5
100
AcDbSymbolTableRecord
100
AcDbLinetypeTableRecord
  2
CENTERX2
 70
    0
  3
Center (2x) ________  __  ________  __  _____
 72
   65
 73
    4
 40
101.6
 49
63.5
 74
    0
 49
-12.7
 74
    0
 49
12.7
 74
    0
 49
-12.7
 74
    0
  0
ENDTAB
  0
TABLE
  2
LAYER
  5
2
330
0
100
AcDbSymbolTable
 70
    1
  0
LAYER
  5
10
330
2
100
AcDbSymbolTableRecord
100
AcDbLayerTableRecord
  2
0
 70
    0
 62
    7
  6
CONTINUOUS
370
    0
390
F
  0
LAYER
  5
4A
330
2
100
AcDbSymbolTableRecord
100
AcDbLayerTableRecord
  2
construction
 70
    0
 62
   56
420
8421376
  6
CONTINUOUS
290
0
370
    0
390
F
  0
LAYER
  5
4B
330
2
100
AcDbSymbolTableRecord
100
AcDbLayerTableRecord
  2
edge
 70
    0
 62
    3
  6
CONTINUOUS
370
    0
390
F
  0
LAYER
  5
4C
330
2
100
AcDbSymbolTableRecord
100
AcDbLayerTableRecord
  2
keycap guide
 70
    0
 62
  216
420
8388736
  6
CONTINUOUS
290
0
370
    0
390
F
  0
ENDTAB
  0
TABLE
  2
STYLE
  5
3
330
0
100
AcDbSymbolTable
 70
    3
  0
STYLE
  5
4D
330
2
100
AcDbSymbolTableRecord
100
AcDbTextStyleTableRecord
  2
Standard
 70
    0
 40
0
 41
1
 50
0
 71
    0
 42
1
  3
txt
  4

  0
ENDTAB
  0
TABLE
  2
VIEW
  5
6
330
0
100
AcDbSymbolTable
 70
    0
  0
ENDTAB
  0
TABLE
  2
UCS
  5
7
330
0
100
AcDbSymbolTable
 70
    0
  0
ENDTAB
  0
TABLE
  2
APPID
  5
9
330
0
100
AcDbSymbolTable
 70
    1
  0
APPID
  5
12
330
9
100
AcDbSymbolTableRecord
100
AcDbRegAppTableRecord
  2
ACAD
 70
    0
  0
APPID
  5
4E
330
9
100
AcDbSymbolTableRecord
100
AcDbRegAppTableRecord
  2
LibreCad
 70
    0
  0
ENDTAB
  0
TABLE
  2
DIMSTYLE
  5
A
330
0
100
AcDbSymbolTable
 70
    1
100
AcDbDimStyleTable
 71
    1
  0
DIMSTYLE
105
4F
330
A
100
AcDbSymbolTableRecord
100
AcDbDimStyleTableRecord
  2
Standard
 70
    0
 40
2.5
 41
2.5
 42
0.625
 43
0.38
 44
1.25
 45
0
 46
0
 47
0
 48
0
 49
1
140
2.5
141
0.09
142
0
143
25.4
144
1
145
0
146
1
147
0.625
148
0
 71
    0
 72
    0
 73
    0
 74
    1
 75
    0
 76
    0
 77
    0
 78
    8
 79
    0
170
    0
171
    2
172
    0
173
    0
174
    0
175
    0
176
    0
177
    0
178
    0
179
    0
271
    2
272
    4
273
    2
274
    2
275
    0
276
    0
277
    2
278
   44
279
    0
280
    0
281
    0
282
    0
283
    1
284
    0
285
    0
286
    0
288
    0
289
    3
340
STANDARD
341

371
   -2
372
   -2
  0
ENDTAB
  0
TABLE
  2
BLOCK_RECORD
  5
1
330
0
100
AcDbSymbolTable
 70
    2
  0
BLOCK_RECORD
  5
1F
330
1
100
AcDbSymbolTableRecord
100
AcDbBlockTableRecord
  2
*Model_Space
 70
    0
280
    1
281
    0
  0
BLOCK_RECORD
  5
1E
330
1
100
AcDbSymbolTableRecord
100
AcDbBlockTableRecord
  2
*Paper_Space
 70
    0
280
    1
281
    0
  0
ENDTAB
  0
ENDSEC
  0
SECTION
  2
BLOCKS
  0
BLOCK
  5
20
330
1F
100
AcDbEntity
  8
0
100
AcDbBlockBegin
  2
*Model_Space
 70
    0
 10
0
 20
0
 30
0
  3
*Model_Space
  1

  0
ENDBLK
  5
21
330
1F
100
AcDbEntity
  8
0
100
AcDbBlockEnd
  0
BLOCK
  5
1C
330
1B
100
AcDbEntity
  8
0
100
AcDbBlockBegin
  2
*Paper_Space
 70
    0
 10
0
 20
0
 30
0
  3
*Paper_Space
  1

  0
ENDBLK
  5
1D
330
1F
100
AcDbEntity
  8
0
100
AcDbBlockEnd
  0
ENDSEC
  0
SECTION
  2
ENTITIES
  0
LWPOLYLINE
  5
50
100
AcDbEntity
  8
0
  6
ByLayer
 62
  256
370
   -1
100
AcDbPolyline
 90
    4
 70
    1
 43
0
 10
69.15587771366398
 20
31.46804312509844
 10
83.14146569073402
 20
30.83296129128885
 10
83.77654752454362
 20
44.81854926835889
 10
69.79095954747361
 20
45.45363110216842
  0
LWPOLYLINE
  5
51
100
AcDbEntity
  8
0
  6
ByLayer
 62
  256
370
   -1
100
AcDbPolyline
 90
    4
 70
    1
 43
0
 10
69.9279557716239
 20
48.47052222293637
 10
83.91354374869393
 20
47.83544038912683
 10
84.54862558250355
 20
61.82102836619686
 10
70.56303760543339
 20
62.45611020000638
  0
LWPOLYLINE
  5
52
100
AcDbEntity
  8
0
  6
ByLayer
 62
  256
370
   -1
100
AcDbPolyline
 90
    4
 70
    1
 43
0
 10
70.7000338295838
 20
65.47300132077433
 10
84.68562180665383
 20
64.83791948696476
 10
85.32070364046334
 20
78.82350746403475
 10
71.3351156633934
 20
79.45858929784434
  0
LWPOLYLINE
  5
53
100
AcDbEntity
  8
0
  6
ByLayer
 62
  256
370
   -1
100
AcDbPolyline
 90
    4
 70
    1
 43
0
 10
71.4721118875437
 20
82.47548041861229
 10
85.45769986461373
 20
81.84039858480274
 10
86.09278169842334
 20
95.82598656187277
 10
72.10719372135321
 20
96.46106839568228
  0
LINE
  5
54
100
AcDbEntity
  8
construction
  6
ByLayer
 62
  256
370
   -1
100
AcDbLine
 10
71.3351156633934
 20
79.45858929784434
 11
84.68562180665383
 21
64.83791948696476
  0
LWPOLYLINE
  5
55
100
AcDbEntity
  8
0
  6
ByLayer
 62
  256
370
   -1
100
AcDbPolyline
 90
    4
 70
    1
 43
0
 10
50.85802087696715
 20
32.30385705824379
 10
64.85056502225733
 20
32.76070313965942
 10
64.39371894084168
 20
46.75324728494962
 10
50.4011747955515
 20
46.296401203534
  0
LWPOLYLINE
  5
56
100
AcDbEntity
  8
0
  6
ByLayer
 62
  256
370
   -1
100
AcDbPolyline
 90
    4
 70
    1
 43
0
 10
50.3026265694176
 20
49.31479286916092
 10
64.29517071470779
 20
49.77163895057653
 10
63.83832463329213
 20
63.76418309586671
 10
49.84578048800196
 20
63.30733701445111
  0
LWPOLYLINE
  5
57
100
AcDbEntity
  8
0
  6
ByLayer
 62
  256
370
   -1
100
AcDbPolyline
 90
    4
 70
    1
 43
0
 10
49.74723226186796
 20
66.32572868007796
 10
63.73977640715813
 20
66.78257476149356
 10
63.2829303257426
 20
80.7751189067838
 10
49.29038618045242
 20
80.31827282536818
  0
LWPOLYLINE
  5
58
100
AcDbEntity
  8
0
  6
ByLayer
 62
  256
370
   -1
100
AcDbPolyline
 90
    4
 70
    1
 43
0
 10
49.19183795431842
 20
83.33666449099505
 10
63.1843820996086
 20
83.79351057241068
 10
62.72753601819295
 20
97.78605471770086
 10
48.73499187290278
 20
97.32920863628526
  0
LINE
  5
59
100
AcDbEntity
  8
construction
  6
ByLayer
 62
  256
370
   -1
100
AcDbLine
 10
63.2829303257426
 20
80.7751189067838
 11
49.74723226186796
 21
66.32572868007796
  0
LWPOLYLINE
  5
5A
100
AcDbEntity
  8
0
  6
ByLayer
 62
  256
370
   -1
100
AcDbPolyline
 90
    4
 70
    1
 43
0
 10
102.4331188024479
 20
20.17811061312093
 10
113.7593567236972
 20
11.94911708102634
 10
121.9883502557918
 20
23.2753550022756
 10
110.6621123345425
 20
31.50434853437019
  0
LWPOLYLINE
  5
5B
100
AcDbEntity
  8
0
  6
ByLayer
 62
  256
370
   -1
100
AcDbPolyline
 90
    4
 70
    1
 43
0
 10
116.995424701197
 20
9.597976071856422
 10
128.3216626224463
 20
1.368982539761832
 10
136.5506561545409
 20
12.69522046101109
 10
125.2244182332916
 20
20.92421399310569
  0
LINE
  5
5C
100
AcDbEntity
  8
construction
  6
ByLayer
 62
  256
370
   -1
100
AcDbLine
 10
110.6621123345425
 20
31.50434853437019
 11
113.7593567236972
 21
11.94911708102634
  0
CIRCLE
  5
5D
100
AcDbEntity
  8
construction
  6
ByLayer
 62
  256
370
   -1
100
AcDbCircle
 10
129.0521408802345
 20
-1.028203626329323
 40
4
  0
LWPOLYLINE
  5
5E
100
AcDbEntity
  8
keycap guide
  6
ByLayer
 62
  256
370
   -1
100
AcDbPolyline
 90
    4
 70
    1
 43
0
 10
67.08943846200745
 20
30.05032354097293
 10
85.07090871824029
 20
29.23378975464638
 10
85.84298677620021
 20
46.23626885248434
 10
67.86151651996735
 20
47.0528026388109
  0
LWPOLYLINE
  5
5F
100
AcDbEntity
  8
keycap guide
  6
ByLayer
 62
  256
370
   -1
100
AcDbPolyline
 90
    4
 70
    1
 43
0
 10
67.86151651996735
 20
47.0528026388109
 10
85.84298677620021
 20
46.23626885248434
 10
86.61506483416009
 20
63.23874795032227
 10
68.63359457792724
 20
64.05528173664888
  0
LWPOLYLINE
  5
60
100
AcDbEntity
  8
keycap guide
  6
ByLayer
 62
  256
370
   -1
100
AcDbPolyline
 90
    4
 70
    1
 43
0
 10
68.63359457792724
 20
64.05528173664888
 10
86.61506483416009
 20
63.23874795032227
 10
87.38714289212
 20
80.24122704816025
 10
69.40567263588714
 20
81.05776083448684
  0
LWPOLYLINE
  5
61
100
AcDbEntity
  8
keycap guide
  6
ByLayer
 62
  256
370
   -1
100
AcDbPolyline
 90
    4
 70
    1
 43
0
 10
69.40567263588714
 20
81.05776083448684
 10
87.38714289212
 20
80.24122704816025
 10
88.15922095007988
 20
97.24370614599823
 10
70.17775069384706
 20
98.06023993232479
  0
LWPOLYLINE
  5
62
100
AcDbEntity
  8
keycap guide
  6
ByLayer
 62
  256
370
   -1
100
AcDbPolyline
 90
    4
 70
    1
 43
0
 10
48.90836011213545
 20
30.7293974995138
 10
66.89877401322292
 20
31.31677103276252
 10
66.34337970567329
 20
48.32770684367957
 10
48.35296580458589
 20
47.7403333104309
  0
LWPOLYLINE
  5
63
100
AcDbEntity
  8
keycap guide
  6
ByLayer
 62
  256
370
   -1
100
AcDbPolyline
 90
    4
 70
    1
 43
0
 10
48.35296580458589
 20
47.7403333104309
 10
66.34337970567329
 20
48.32770684367957
 10
65.78798539812375
 20
65.33864265459667
 10
47.79757149703636
 20
64.751269121348
  0
LWPOLYLINE
  5
64
100
AcDbEntity
  8
keycap guide
  6
ByLayer
 62
  256
370
   -1
100
AcDbPolyline
 90
    4
 70
    1
 43
0
 10
47.79757149703636
 20
64.751269121348
 10
65.78798539812375
 20
65.33864265459667
 10
65.2325910905742
 20
82.34957846551374
 10
47.24217718948682
 20
81.76220493226508
  0
LWPOLYLINE
  5
65
100
AcDbEntity
  8
keycap guide
  6
ByLayer
 62
  256
370
   -1
100
AcDbPolyline
 90
    4
 70
    1
 43
0
 10
47.24217718948682
 20
81.76220493226511
 10
65.23259109057419
 20
82.34957846551377
 10
64.67719678302466
 20
99.36051427643086
 10
46.68678288193728
 20
98.77314074318218
  0
LWPOLYLINE
  5
66
100
AcDbEntity
  8
keycap guide
  6
ByLayer
 62
  256
370
   -1
100
AcDbPolyline
 90
    4
 70
    1
 43
0
 10
99.92752908273631
 20
20.1320654561997
 10
114.4898349814855
 20
9.551930914935236
 10
124.4939399755033
 20
23.3214001591968
 10
109.9316340767543
 20
33.90153470046132
  0
LWPOLYLINE
  5
67
100
AcDbEntity
  8
keycap guide
  6
ByLayer
 62
  256
370
   -1
100
AcDbPolyline
 90
    4
 70
    1
 43
0
 10
114.4898349814855
 20
9.551930914935236
 10
129.0521408802345
 20
-1.028203626329323
 10
139.0562458742524
 20
12.74126561793229
 10
124.4939399755033
 20
23.3214001591968
  0
LWPOLYLINE
  5
68
100
AcDbEntity
  8
0
  6
ByLayer
 62
  256
370
   -1
100
AcDbPolyline
 90
    4
 70
    1
 43
0
 10
32.81315423883337
 20
27.61825422153773
 10
46.74246847657147
 20
29.02331822945469
 10
45.33740446865443
 20
42.95263246719291
 10
31.40809023091634
 20
41.54756845927592
  0
LWPOLYLINE
  5
69
100
AcDbEntity
  8
0
  6
ByLayer
 62
  256
370
   -1
100
AcDbPolyline
 90
    4
 70
    1
 43
0
 10
31.10499785206561
 20
44.55232053055943
 10
45.03431208980384
 20
45.95738453847644
 10
43.6292480818868
 20
59.88669877621464
 10
29.69993384414858
 20
58.48163476829764
  0
LWPOLYLINE
  5
6A
100
AcDbEntity
  8
0
  6
ByLayer
 62
  256
370
   -1
100
AcDbPolyline
 90
    4
 70
    1
 43
0
 10
29.39684146529798
 20
61.48638683958117
 10
43.32615570303619
 20
62.89145084749818
 10
41.92109169511917
 20
76.82076508523636
 10
27.99177745738095
 20
75.41570107731935
  0
LWPOLYLINE
  5
6B
100
AcDbEntity
  8
0
  6
ByLayer
 62
  256
370
   -1
100
AcDbPolyline
 90
    4
 70
    1
 43
0
 10
27.68868507853033
 20
78.42045314860292
 10
41.61799931626844
 20
79.82551715651988
 10
40.21293530835142
 20
93.75483139425809
 10
26.28362107061331
 20
92.34976738634109
  0
LINE
  5
6C
100
AcDbEntity
  8
construction
  6
ByLayer
 62
  256
370
   -1
100
AcDbLine
 10
41.92109169511917
 20
76.82076508523636
 11
29.39684146529798
 21
61.48638683958117
  0
LWPOLYLINE
  5
6D
100
AcDbEntity
  8
keycap guide
  6
ByLayer
 62
  256
370
   -1
100
AcDbPolyline
 90
    4
 70
    1
 43
0
 10
30.97479839429602
 20
25.9151547561935
 10
48.88391669995941
 20
27.72166562351539
 10
47.17576031319179
 20
44.6557319325371
 10
29.26664200752838
 20
42.84922106521524
  0
LWPOLYLINE
  5
6E
100
AcDbEntity
  8
keycap guide
  6
ByLayer
 62
  256
370
   -1
100
AcDbPolyline
 90
    4
 70
    1
 43
0
 10
29.26664200752838
 20
42.84922106521524
 10
47.17576031319179
 20
44.6557319325371
 10
45.46760392642404
 20
61.58979824155883
 10
27.55848562076073
 20
59.78328737423698
  0
LWPOLYLINE
  5
6F
100
AcDbEntity
  8
keycap guide
  6
ByLayer
 62
  256
370
   -1
100
AcDbPolyline
 90
    4
 70
    1
 43
0
 10
27.55848562076073
 20
59.78328737423698
 10
45.46760392642404
 20
61.58979824155883
 10
43.7594475396564
 20
78.52386455058057
 10
25.85032923399298
 20
76.71735368325871
  0
LWPOLYLINE
  5
70
100
AcDbEntity
  8
keycap guide
  6
ByLayer
 62
  256
370
   -1
100
AcDbPolyline
 90
    4
 70
    1
 43
0
 10
25.85032923399298
 20
76.71735368325871
 10
43.7594475396564
 20
78.52386455058057
 10
42.05129115288876
 20
95.4579308596023
 10
24.14217284722535
 20
93.65141999228044
  0
LWPOLYLINE
  5
71
100
AcDbEntity
  8
0
  6
ByLayer
 62
  256
370
   -1
100
AcDbPolyline
 90
    4
 70
    1
 43
0
 10
15.59561176729509
 20
19.58008075314057
 10
29.45936472967697
 20
21.5285041665815
 10
27.51094131623612
 20
35.39225712896349
 10
13.64718835385412
 20
33.44383371552256
  0
LWPOLYLINE
  5
72
100
AcDbEntity
  8
0
  6
ByLayer
 62
  256
370
   -1
100
AcDbPolyline
 90
    4
 70
    1
 43
0
 10
13.22688558895475
 20
36.43444328312211
 10
27.09063855133674
 20
38.38286669656303
 10
25.14221513789578
 20
52.24661965894503
 10
11.27846217551384
 20
50.29819624550409
  0
LWPOLYLINE
  5
73
100
AcDbEntity
  8
0
  6
ByLayer
 62
  256
370
   -1
100
AcDbPolyline
 90
    4
 70
    1
 43
0
 10
10.85815941061442
 20
53.28880581310361
 10
24.72191237299642
 20
55.23722922654452
 10
22.77348895955544
 20
69.10098218892654
 10
8.909735997173556
 20
67.15255877548562
  0
LWPOLYLINE
  5
74
100
AcDbEntity
  8
0
  6
ByLayer
 62
  256
370
   -1
100
AcDbPolyline
 90
    4
 70
    1
 43
0
 10
8.489433232274134
 20
70.14316834308519
 10
22.35318619465606
 20
72.0915917565261
 10
20.40476278121522
 20
85.95534471890807
 10
6.541009818833163
 20
84.00692130546713
  0
LINE
  5
75
100
AcDbEntity
  8
construction
  6
ByLayer
 62
  256
370
   -1
100
AcDbLine
 10
22.77348895955544
 20
69.10098218892654
 11
10.85815941061442
 21
53.28880581310361
  0
LWPOLYLINE
  5
76
100
AcDbEntity
  8
keycap guide
  6
ByLayer
 62
  256
370
   -1
100
AcDbPolyline
 90
    4
 70
    1
 43
0
 10
13.82522701226156
 20
17.8064297674207
 10
31.65005224960995
 20
20.31154558470189
 10
29.28132607126963
 20
37.16590811468338
 10
11.45650083392129
 20
34.6607922974022
  0
LWPOLYLINE
  5
77
100
AcDbEntity
  8
keycap guide
  6
ByLayer
 62
  256
370
   -1
100
AcDbPolyline
 90
    4
 70
    1
 43
0
 10
11.45650083392129
 20
34.6607922974022
 10
29.28132607126963
 20
37.16590811468338
 10
26.91259989292929
 20
54.02027064466493
 10
9.087774655581008
 20
51.51515482738373
  0
LWPOLYLINE
  5
78
100
AcDbEntity
  8
keycap guide
  6
ByLayer
 62
  256
370
   -1
100
AcDbPolyline
 90
    4
 70
    1
 43
0
 10
9.087774655581008
 20
51.51515482738373
 10
26.91259989292929
 20
54.02027064466493
 10
24.54387371458895
 20
70.87463317464645
 10
6.719048477240615
 20
68.36951735736527
  0
LWPOLYLINE
  5
79
100
AcDbEntity
  8
keycap guide
  6
ByLayer
 62
  256
370
   -1
100
AcDbPolyline
 90
    4
 70
    1
 43
0
 10
6.719048477240615
 20
68.36951735736527
 10
24.54387371458895
 20
70.87463317464645
 10
22.17514753624863
 20
87.72899570462792
 10
4.350322298900394
 20
85.2238798873468
  0
LWPOLYLINE
  5
7A
100
AcDbEntity
  8
0
  6
ByLayer
 62
  256
370
   -1
100
AcDbPolyline
 90
    4
 70
    1
 43
0
 10
87.05976382318875
 20
28.94282106147826
 10
101.0453518002587
 20
28.30773922766871
 10
101.6804336340684
 20
42.29332720473874
 10
87.69484565699827
 20
42.92840903854827
  0
LWPOLYLINE
  5
7B
100
AcDbEntity
  8
0
  6
ByLayer
 62
  256
370
   -1
100
AcDbPolyline
 90
    4
 70
    1
 43
0
 10
87.83184188114861
 20
45.94530015931624
 10
101.8174298582187
 20
45.31021832550672
 10
102.4525116920281
 20
59.29580630257666
 10
88.46692371495816
 20
59.9308881363862
  0
LWPOLYLINE
  5
7C
100
AcDbEntity
  8
0
  6
ByLayer
 62
  256
370
   -1
100
AcDbPolyline
 90
    4
 70
    1
 43
0
 10
88.60391993910851
 20
62.94777925715418
 10
102.5895079161785
 20
62.3126974233446
 10
103.2245897499881
 20
76.29828540041463
 10
89.23900177291812
 20
76.93336723422421
  0
LWPOLYLINE
  5
7D
100
AcDbEntity
  8
0
  6
ByLayer
 62
  256
370
   -1
100
AcDbPolyline
 90
    4
 70
    1
 43
0
 10
89.37599799706847
 20
79.95025835499216
 10
103.3615859741384
 20
79.31517652118264
 10
103.9966678079481
 20
93.30076449825266
 10
90.0110798308779
 20
93.93584633206207
  0
LINE
  5
7E
100
AcDbEntity
  8
construction
  6
ByLayer
 62
  256
370
   -1
100
AcDbLine
 10
103.2245897499881
 20
76.29828540041463
 11
88.60391993910851
 21
62.94777925715418
  0
LWPOLYLINE
  5
7F
100
AcDbEntity
  8
keycap guide
  6
ByLayer
 62
  256
370
   -1
100
AcDbPolyline
 90
    4
 70
    1
 43
0
 10
84.99332457153206
 20
27.52510147735277
 10
102.974794827765
 20
26.70856769102622
 10
103.7468728857249
 20
43.71104678886418
 10
85.76540262949203
 20
44.52758057519075
  0
LWPOLYLINE
  5
80
100
AcDbEntity
  8
keycap guide
  6
ByLayer
 62
  256
370
   -1
100
AcDbPolyline
 90
    4
 70
    1
 43
0
 10
85.76540262949203
 20
44.52758057519075
 10
103.7468728857249
 20
43.71104678886418
 10
104.5189509436848
 20
60.71352588670215
 10
86.53748068745202
 20
61.53005967302875
  0
LWPOLYLINE
  5
81
100
AcDbEntity
  8
keycap guide
  6
ByLayer
 62
  256
370
   -1
100
AcDbPolyline
 90
    4
 70
    1
 43
0
 10
86.53748068745202
 20
61.53005967302875
 10
104.5189509436848
 20
60.71352588670215
 10
105.2910290016446
 20
77.71600498454011
 10
87.30955874541176
 20
78.53253877086668
  0
LWPOLYLINE
  5
82
100
AcDbEntity
  8
keycap guide
  6
ByLayer
 62
  256
370
   -1
100
AcDbPolyline
 90
    4
 70
    1
 43
0
 10
87.30955874541176
 20
78.53253877086668
 10
105.2910290016446
 20
77.71600498454011
 10
106.0631070596045
 20
94.71848408237805
 10
88.08163680337175
 20
95.53501786870464
  0
LWPOLYLINE
  5
83
100
AcDbEntity
  8
0
  6
ByLayer
 62
  256
370
   -1
100
AcDbPolyline
 90
    4
 70
    1
 43
0
 10
-1.992619198421057
 20
15.39150921899875
 10
11.87113376396088
 20
17.33993263243968
 10
9.922710350520003
 20
31.20368559482169
 10
-3.941042611861995
 20
29.25526218138075
  0
LWPOLYLINE
  5
84
100
AcDbEntity
  8
0
  6
ByLayer
 62
  256
370
   -1
100
AcDbPolyline
 90
    4
 70
    1
 43
0
 10
-4.361345376761363
 20
32.24587174898028
 10
9.502407585620578
 20
34.19429516242121
 10
7.553984172179643
 20
48.05804812480321
 10
-6.309768790202348
 20
46.10962471136228
  0
LWPOLYLINE
  5
85
100
AcDbEntity
  8
0
  6
ByLayer
 62
  256
370
   -1
100
AcDbPolyline
 90
    4
 70
    1
 43
0
 10
-6.730071555101659
 20
49.10023427896179
 10
7.133681407280271
 20
51.04865769240275
 10
5.185257993839333
 20
64.91241065478472
 10
-8.678494968542601
 20
62.9639872413438
  0
LWPOLYLINE
  5
86
100
AcDbEntity
  8
0
  6
ByLayer
 62
  256
370
   -1
100
AcDbPolyline
 90
    4
 70
    1
 43
0
 10
-9.098797733441991
 20
65.95459680894338
 10
4.764955228939964
 20
67.90302022238424
 10
2.81653181549909
 20
81.76677318476628
 10
-11.04722114688297
 20
79.81834977132532
  0
LINE
  5
87
100
AcDbEntity
  8
construction
  6
ByLayer
 62
  256
370
   -1
100
AcDbLine
 10
5.185257993839333
 20
64.91241065478472
 11
-6.730071555101659
 21
49.10023427896179
  0
LWPOLYLINE
  5
88
100
AcDbEntity
  8
keycap guide
  6
ByLayer
 62
  256
370
   -1
100
AcDbPolyline
 90
    4
 70
    1
 43
0
 10
-3.763003953454529
 20
13.61785823327888
 10
14.06182128389379
 20
16.12297405056006
 10
11.69309510555342
 20
32.97733658054155
 10
-6.131730131794832
 20
30.47222076326038
  0
LWPOLYLINE
  5
89
100
AcDbEntity
  8
keycap guide
  6
ByLayer
 62
  256
370
   -1
100
AcDbPolyline
 90
    4
 70
    1
 43
0
 10
-6.131730131794832
 20
30.47222076326038
 10
11.69309510555342
 20
32.97733658054155
 10
9.324368927213175
 20
49.83169911052309
 10
-8.500456310135142
 20
47.32658329324192
  0
LWPOLYLINE
  5
8A
100
AcDbEntity
  8
keycap guide
  6
ByLayer
 62
  256
370
   -1
100
AcDbPolyline
 90
    4
 70
    1
 43
0
 10
-8.500456310135142
 20
47.32658329324192
 10
9.324368927213175
 20
49.83169911052309
 10
6.955642748872812
 20
66.68606164050462
 10
-10.86918248847545
 20
64.18094582322344
  0
LWPOLYLINE
  5
8B
100
AcDbEntity
  8
keycap guide
  6
ByLayer
 62
  256
370
   -1
100
AcDbPolyline
 90
    4
 70
    1
 43
0
 10
-10.86918248847545
 20
64.18094582322344
 10
6.955642748872812
 20
66.68606164050462
 10
4.586916570532502
 20
83.54042417048615
 10
-13.23790866681575
 20
81.03530835320497
  0
CIRCLE
  5
8C
100
AcDbEntity
  8
construction
  6
ByLayer
 62
  256
370
   -1
100
AcDbCircle
 10
-3.763003953454529
 20
13.61785823327888
 40
4
  0
LINE
  5
8D
100
AcDbEntity
  8
construction
  6
ByLayer
 62
  256
370
   -1
100
AcDbLine
 10
-8.280768632261072
 20
17.0222381044049
 11
0.7547607253520141
 21
10.21347836215286
  0
LINE
  5
8E
100
AcDbEntity
  8
construction
  6
ByLayer
 62
  256
370
   -1
100
AcDbLine
 10
-0.3586240823285074
 20
18.13562291208542
 11
-8.280768632261072
 21
17.0222381044049
  0
ARC
  5
8F
100
AcDbEntity
  8
construction
  6
ByLayer
 62
  256
370
   -1
100
AcDbCircle
 10
3.602448192637775
 20
18.69231531592568
 40
12
100
AcDbArc
 50
187.9999999999999
 51
334.1030084030991
  0
CIRCLE
  5
90
100
AcDbEntity
  8
construction
  6
ByLayer
 62
  256
370
   -1
100
AcDbCircle
 10
62.81906652626013
 20
-55.16798281290394
 40
82.67
  0
LINE
  5
91
100
AcDbEntity
  8
construction
  6
ByLayer
 62
  256
370
   -1
100
AcDbLine
 10
-13.23790866681575
 20
81.03530835320497
 11
6.955642748872814
 21
66.68606164050462
  0
CIRCLE
  5
92
100
AcDbEntity
  8
construction
  6
ByLayer
 62
  256
370
   -1
100
AcDbCircle
 10
106.0631070596045
 20
94.71848408237805
 40
2
  0
CIRCLE
  5
93
100
AcDbEntity
  8
construction
  6
ByLayer
 62
  256
370
   -1
100
AcDbCircle
 10
64.67719678302466
 20
99.36051427643086
 40
2
  0
CIRCLE
  5
94
100
AcDbEntity
  8
construction
  6
ByLayer
 62
  256
370
   -1
100
AcDbCircle
 10
46.68678288193728
 20
98.77314074318218
 40
2
  0
CIRCLE
  5
95
100
AcDbEntity
  8
construction
  6
ByLayer
 62
  256
370
   -1
100
AcDbCircle
 10
-13.23790866681575
 20
81.03530835320497
 40
2
  0
LINE
  5
96
100
AcDbEntity
  8
edge
  6
ByLayer
 62
  256
370
   -1
100
AcDbLine
 10
-16.1100625507129
 20
72.73067421326178
 11
-8.280768591031389
 21
17.02223781104048
  0
LINE
  5
97
100
AcDbEntity
  8
construction
  6
ByLayer
 62
  256
370
   -1
100
AcDbLine
 10
3.602448192637775
 20
18.69231531592568
 11
3.602448192637773
 21
-11.30768468407432
  0
ARC
  5
98
100
AcDbEntity
  8
edge
  6
ByLayer
 62
  256
370
   -1
100
AcDbCircle
 10
3.602448192637775
 20
18.69231531592568
 40
12
100
AcDbArc
 50
187.9999659664125
 51
270
  0
ARC
  5
99
100
AcDbEntity
  8
edge
  6
ByLayer
 62
  256
370
   -1
100
AcDbCircle
 10
3.602448192637784
 20
42.69231531592568
 40
36
100
AcDbArc
 50
270
 51
294.9905542535041
  0
CIRCLE
  5
9A
100
AcDbEntity
  8
construction
  6
ByLayer
 62
  256
370
   -1
100
AcDbCircle
 10
62.81906652626013
 20
-55.16798281290394
 40
78.68752575979674
  0
ARC
  5
9B
100
AcDbEntity
  8
construction
  6
ByLayer
 62
  256
370
   -1
100
AcDbCircle
 10
-1.256040924560569
 20
74.81826649380864
 40
15
100
AcDbArc
 50
121.5008431933038
 51
187.9999836689361
  0
CIRCLE
  5
9C
100
AcDbEntity
  8
construction
  6
ByLayer
 62
  256
370
   -1
100
AcDbCircle
 10
62.81906652626013
 20
-55.16798281290394
 40
159.863560568353
  0
ARC
  5
9D
100
AcDbEntity
  8
edge
  6
ByLayer
 62
  256
370
   -1
100
AcDbCircle
 10
-1.256040924560569
 20
74.81826649380864
 40
15
100
AcDbArc
 50
121.5008431933038
 51
187.9999836689361
  0
CIRCLE
  5
9E
100
AcDbEntity
  8
construction
  6
ByLayer
 62
  256
370
   -1
100
AcDbCircle
 10
22.64731750475934
 20
23.08707124271583
 40
120
  0
CIRCLE
  5
9F
100
AcDbEntity
  8
construction
  6
ByLayer
 62
  256
370
   -1
100
AcDbCircle
 10
87.7268438546643
 20
53.88731880782524
 40
48
  0
CIRCLE
  5
A0
100
AcDbEntity
  8
construction
  6
ByLayer
 62
  256
370
   -1
100
AcDbCircle
 10
127.1554957159745
 20
12.93617537225717
 40
15
  0
ARC
  5
A1
100
AcDbEntity
  8
edge
  6
ByLayer
 62
  256
370
   -1
100
AcDbCircle
 10
62.81906652626013
 20
-55.16798281290394
 40
159.863560568353
100
AcDbArc
 50
77.13455972297906
 51
116.7333186771528
  0
ARC
  5
A2
100
AcDbEntity
  8
edge
  6
ByLayer
 62
  256
370
   -1
100
AcDbCircle
 10
87.7268438546643
 20
53.88731880782524
 40
48.00000000000001
100
AcDbArc
 50
25.32683364826147
 51
77.13455972297906
  0
ARC
  5
A3
100
AcDbEntity
  8
edge
  6
ByLayer
 62
  256
370
   -1
100
AcDbCircle
 10
22.64731750475934
 20
23.08707124271583
 40
120
100
AcDbArc
 50
354.4522545077815
 51
25.32683201824681
  0
ARC
  5
A4
100
AcDbEntity
  8
edge
  6
ByLayer
 62
  256
370
   -1
100
AcDbCircle
 10
127.1554957159745
 20
12.93617537225717
 40
15.00000000000001
100
AcDbArc
 50
226.6295354814877
 51
354.4522545077815
  0
ARC
  5
A5
100
AcDbEntity
  8
edge
  6
ByLayer
 62
  256
370
   -1
100
AcDbCircle
 10
62.81906652626013
 20
-55.16798281290394
 40
78.68752575979674
100
AcDbArc
 50
46.62953660385288
 51
124.005475495333
  0
LWPOLYLINE
  5
A6
100
AcDbEntity
  8
keycap guide
  6
ByLayer
 62
  256
370
   -1
100
AcDbPolyline
 90
    4
 70
    1
 43
0
 10
128.8105362481266
 20
34.20060041137364
 10
130.6250557732968
 20
74.15942320300222
 10
106.6497620983196
 20
75.24813491810433
 10
104.8352425731495
 20
35.28931212647574
  0
LWPOLYLINE
  5
A7
100
AcDbEntity
  8
keycap guide
  6
ByLayer
 62
  256
370
   -1
100
AcDbPolyline
 90
    4
 70
    1
 43
0
 10
156.4685515181368
 20
45.90496184105139
 10
176.447962913951
 20
44.99770207846629
 10
178.035667498475
 20
79.96167202114138
 10
158.0562561026606
 20
80.86893178372638
  0
ENDSEC
  0
SECTION
  2
OBJECTS
  0
DICTIONARY
  5
C
330
0
100
AcDbDictionary
281
    1
  3
ACAD_GROUP
350
D
  0
DICTIONARY
  5
D
330
C
100
AcDbDictionary
281
    1
  0
ENDSEC
  0
EOF
