999
dxfrw 0.6.3
  0
SECTION
  2
HEADER
  9
$ACADVER
  1
AC1021
  9
$DWGCODEPAGE
  3
ANSI_1252
  9
$INSBASE
 10
0
 20
0
 30
0
  9
$EXTMIN
 10
-22.60004523081763
 20
-116.962079483089
 30
0
  9
$EXTMAX
 10
163.3178407392193
 20
103.186514912437
 30
0
  9
$LIMMIN
 10
0
 20
0
  9
$LIMMAX
 10
420
 20
297
  9
$ORTHOMODE
 70
    0
  9
$REGENMODE
 70
    1
  9
$FILLMODE
 70
    1
  9
$QTEXTMODE
 70
    0
  9
$MIRRTEXT
 70
    0
  9
$LTSCALE
 40
1
  9
$ATTMODE
 70
    0
  9
$TEXTSIZE
 40
2.5
  9
$TRACEWID
 40
15.68
  9
$TEXTSTYLE
  7
STANDARD
  9
$CLAYER
  8
Ref
  9
$CELTYPE
  6
BYLAYER
  9
$CECOLOR
 62
  256
  9
$CELTSCALE
 40
1
  9
$DISPSILH
 70
    0
  9
$DIMSCALE
 40
2.5
  9
$DIMASZ
 40
2.5
  9
$DIMEXO
 40
0.625
  9
$DIMDLI
 40
3.75
  9
$DIMRND
 40
0
  9
$DIMDLE
 40
0
  9
$DIMEXE
 40
1.25
  9
$DIMTP
 40
0
  9
$DIMTM
 40
0
  9
$DIMTXT
 40
2.5
  9
$DIMCEN
 40
2.5
  9
$DIMTSZ
 40
0
  9
$DIMTOL
 70
    0
  9
$DIMLIM
 70
    0
  9
$DIMTIH
 70
    0
  9
$DIMTOH
 70
    0
  9
$DIMSE1
 70
    0
  9
$DIMSE2
 70
    0
  9
$DIMTAD
 70
    1
  9
$DIMZIN
 70
    8
  9
$DIMBLK
  1

  9
$DIMASO
 70
    1
  9
$DIMSHO
 70
    1
  9
$DIMPOST
  1

  9
$DIMAPOST
  1

  9
$DIMALT
 70
    0
  9
$DIMALTD
 70
    3
  9
$DIMALTF
 40
0.03937
  9
$DIMLFAC
 40
1
  9
$DIMTOFL
 70
    1
  9
$DIMTVP
 40
0
  9
$DIMTIX
 70
    0
  9
$DIMSOXD
 70
    0
  9
$DIMSAH
 70
    0
  9
$DIMBLK1
  1

  9
$DIMBLK2
  1

  9
$DIMSTYLE
  2
STANDARD
  9
$DIMCLRD
 70
    0
  9
$DIMCLRE
 70
    0
  9
$DIMCLRT
 70
    0
  9
$DIMTFAC
 40
1
  9
$DIMGAP
 40
0.625
  9
$DIMJUST
 70
    0
  9
$DIMSD1
 70
    0
  9
$DIMSD2
 70
    0
  9
$DIMTOLJ
 70
    0
  9
$DIMTZIN
 70
    8
  9
$DIMALTZ
 70
    0
  9
$DIMALTTZ
 70
    0
  9
$DIMUPT
 70
    0
  9
$DIMDEC
 70
    2
  9
$DIMTDEC
 70
    2
  9
$DIMALTU
 70
    2
  9
$DIMALTTD
 70
    3
  9
$DIMTXSTY
  7
STANDARD
  9
$DIMAUNIT
 70
    0
  9
$DIMADEC
 70
    0
  9
$DIMALTRND
 40
0
  9
$DIMAZIN
 70
    0
  9
$DIMDSEP
 70
   44
  9
$DIMATFIT
 70
    3
  9
$DIMFRAC
 70
    0
  9
$DIMLDRBLK
  1
STANDARD
  9
$DIMLUNIT
 70
    2
  9
$DIMLWD
 70
   -2
  9
$DIMLWE
 70
   -2
  9
$DIMTMOVE
 70
    0
  9
$DIMFXL
 40
1
  9
$DIMFXLON
 70
    0
  9
$DIMJOGANG
 40
0.7854
  9
$DIMTFILL
 70
    0
  9
$DIMTFILLCLR
 70
    0
  9
$DIMARCSYM
 70
    0
  9
$DIMLTYPE
  6

  9
$DIMLTEX1
  6

  9
$DIMLTEX2
  6

  9
$LUNITS
 70
    2
  9
$LUPREC
 70
    4
  9
$SKETCHINC
 40
1
  9
$FILLETRAD
 40
0
  9
$AUNITS
 70
    0
  9
$AUPREC
 70
    2
  9
$MENU
  1
.
  9
$ELEVATION
 40
0
  9
$PELEVATION
 40
0
  9
$THICKNESS
 40
0
  9
$LIMCHECK
 70
    0
  9
$CHAMFERA
 40
0
  9
$CHAMFERB
 40
0
  9
$CHAMFERC
 40
0
  9
$CHAMFERD
 40
0
  9
$SKPOLY
 70
    0
  9
$USRTIMER
 70
    1
  9
$ANGBASE
 50
0
  9
$ANGDIR
 70
    0
  9
$PDMODE
 70
   34
  9
$PDSIZE
 40
0
  9
$PLINEWID
 40
0
  9
$SPLFRAME
 70
    0
  9
$SPLINETYPE
 70
    2
  9
$SPLINESEGS
 70
    8
  9
$HANDSEED
  5
20000
  9
$SURFTAB1
 70
    6
  9
$SURFTAB2
 70
    6
  9
$SURFTYPE
 70
    6
  9
$SURFU
 70
    6
  9
$SURFV
 70
    6
  9
$UCSBASE
  2

  9
$UCSNAME
  2

  9
$UCSORG
 10
0
 20
0
 30
0
  9
$UCSXDIR
 10
1
 20
0
 30
0
  9
$UCSYDIR
 10
0
 20
1
 30
0
  9
$UCSORTHOREF
  2

  9
$UCSORTHOVIEW
 70
    0
  9
$UCSORGTOP
 10
0
 20
0
 30
0
  9
$UCSORGBOTTOM
 10
0
 20
0
 30
0
  9
$UCSORGLEFT
 10
0
 20
0
 30
0
  9
$UCSORGRIGHT
 10
0
 20
0
 30
0
  9
$UCSORGFRONT
 10
0
 20
0
 30
0
  9
$UCSORGBACK
 10
0
 20
0
 30
0
  9
$PUCSBASE
  2

  9
$PUCSNAME
  2

  9
$PUCSORG
 10
0
 20
0
 30
0
  9
$PUCSXDIR
 10
1
 20
0
 30
0
  9
$PUCSYDIR
 10
0
 20
1
 30
0
  9
$PUCSORTHOREF
  2

  9
$PUCSORTHOVIEW
 70
    0
  9
$PUCSORGTOP
 10
0
 20
0
 30
0
  9
$PUCSORGBOTTOM
 10
0
 20
0
 30
0
  9
$PUCSORGLEFT
 10
0
 20
0
 30
0
  9
$PUCSORGRIGHT
 10
0
 20
0
 30
0
  9
$PUCSORGFRONT
 10
0
 20
0
 30
0
  9
$PUCSORGBACK
 10
0
 20
0
 30
0
  9
$USERI1
 70
    0
  9
$USERI2
 70
    0
  9
$USERI3
 70
    0
  9
$USERI4
 70
    0
  9
$USERI5
 70
    0
  9
$USERR1
 40
0
  9
$USERR2
 40
0
  9
$USERR3
 40
0
  9
$USERR4
 40
0
  9
$USERR5
 40
0
  9
$WORLDVIEW
 70
    1
  9
$SHADEDGE
 70
    3
  9
$SHADEDIF
 70
   70
  9
$TILEMODE
 70
    1
  9
$MAXACTVP
 70
   64
  9
$PINSBASE
 10
0
 20
0
 30
0
  9
$PLIMCHECK
 70
    0
  9
$PEXTMIN
 10
0
 20
0
 30
0
  9
$PEXTMAX
 10
0
 20
0
 30
0
  9
$GRIDMODE
 70
    1
  9
$SNAPSTYLE
 70
    0
  9
$PLIMMIN
 10
0
 20
0
  9
$PLIMMAX
 10
210
 20
297
  9
$UNITMODE
 70
    0
  9
$VISRETAIN
 70
    1
  9
$PLINEGEN
 70
    0
  9
$PSLTSCALE
 70
    1
  9
$TREEDEPTH
 70
 3020
  9
$CMLSTYLE
  2
Standard
  9
$CMLJUST
 70
    0
  9
$CMLSCALE
 40
20
  9
$PROXYGRAPHICS
 70
    1
  9
$MEASUREMENT
 70
    1
  9
$CELWEIGHT
370
   -1
  9
$ENDCAPS
280
    0
  9
$JOINSTYLE
280
    0
  9
$LWDISPLAY
290
    0
  9
$INSUNITS
 70
    4
  9
$HYPERLINKBASE
  1

  9
$STYLESHEET
  1

  9
$XEDIT
290
    1
  9
$CEPSNTYPE
380
    0
  9
$PSTYLEMODE
290
    1
  9
$EXTNAMES
290
    1
  9
$PSVPSCALE
 40
1
  9
$OLESTARTUP
290
    0
  9
$SORTENTS
280
  127
  9
$INDEXCTL
280
    0
  9
$HIDETEXT
280
    1
  9
$XCLIPFRAME
290
    0
  9
$HALOGAP
280
    0
  9
$OBSCOLOR
 70
  257
  9
$OBSLTYPE
280
    0
  9
$INTERSECTIONDISPLAY
280
    0
  9
$INTERSECTIONCOLOR
 70
  257
  9
$DIMASSOC
280
    1
  9
$PROJECTNAME
  1

  9
$CAMERADISPLAY
290
    0
  9
$LENSLENGTH
 40
50
  9
$CAMERAHEIGHT
 40
0
  9
$STEPSPERSEC
 40
2
  9
$STEPSIZE
 40
50
  9
$3DDWFPREC
 40
2
  9
$PSOLWIDTH
 40
5
  9
$PSOLHEIGHT
 40
80
  9
$LOFTANG1
 40
1.570796326794897
  9
$LOFTANG2
 40
1.570796326794897
  9
$LOFTMAG1
 40
0
  9
$LOFTMAG2
 40
0
  9
$LOFTPARAM
 70
    7
  9
$LOFTNORMALS
280
    1
  9
$LATITUDE
 40
1
  9
$LONGITUDE
 40
1
  9
$NORTHDIRECTION
 40
0
  9
$TIMEZONE
 70
-8000
  9
$LIGHTGLYPHDISPLAY
280
    1
  9
$TILEMODELIGHTSYNCH
280
    1
  9
$SOLIDHIST
280
    1
  9
$SHOWHIST
280
    1
  9
$DWFFRAME
280
    2
  9
$DGNFRAME
280
    0
  9
$REALWORLDSCALE
290
    1
  9
$INTERFERECOLOR
 62
    1
  9
$CSHADOW
280
    0
  9
$SHADOWPLANELOCATION
 40
0
  0
ENDSEC
  0
SECTION
  2
CLASSES
  0
ENDSEC
  0
SECTION
  2
TABLES
  0
TABLE
  2
VPORT
  5
8
330
0
100
AcDbSymbolTable
 70
    1
  0
VPORT
  5
31
330
2
100
AcDbSymbolTableRecord
100
AcDbViewportTableRecord
  2
*ACTIVE
 70
    0
 10
0
 20
0
 11
1
 21
1
 12
106.4535062054484
 22
68.93712887094269
 13
0
 23
0
 14
10
 24
10
 15
10
 25
10
 16
0
 26
0
 36
1
 17
0
 27
0
 37
0
 40
151.8250714240634
 41
1.855960264900662
 42
50
 43
0
 44
0
 50
0
 51
0
 71
    0
 72
  100
 73
    1
 74
    3
 75
    0
 76
    1
 77
    0
 78
    0
281
    0
 65
    1
110
0
120
0
130
0
111
1
121
0
131
0
112
0
122
1
132
0
 79
    0
146
0
348
10020
 60
    7
 61
    5
292
1
282
    1
141
0
142
0
 63
  250
421
3358443
  0
ENDTAB
  0
TABLE
  2
LTYPE
  5
5
330
0
100
AcDbSymbolTable
 70
    4
  0
LTYPE
  5
14
330
5
100
AcDbSymbolTableRecord
100
AcDbLinetypeTableRecord
  2
ByBlock
 70
    0
  3

 72
   65
 73
    0
 40
0
  0
LTYPE
  5
15
330
5
100
AcDbSymbolTableRecord
100
AcDbLinetypeTableRecord
  2
ByLayer
 70
    0
  3

 72
   65
 73
    0
 40
0
  0
LTYPE
  5
16
330
5
100
AcDbSymbolTableRecord
100
AcDbLinetypeTableRecord
  2
Continuous
 70
    0
  3
Solid line
 72
   65
 73
    0
 40
0
  0
LTYPE
  5
32
330
5
100
AcDbSymbolTableRecord
100
AcDbLinetypeTableRecord
  2
DOT
 70
    0
  3
Dot . . . . . . . . . . . . . . . . . . . . . .
 72
   65
 73
    2
 40
6.35
 49
0
 74
    0
 49
-6.35
 74
    0
  0
LTYPE
  5
33
330
5
100
AcDbSymbolTableRecord
100
AcDbLinetypeTableRecord
  2
DOTTINY
 70
    0
  3
Dot (.15x) .....................................
 72
   65
 73
    2
 40
0.9525
 49
0
 74
    0
 49
-0.9525
 74
    0
  0
LTYPE
  5
34
330
5
100
AcDbSymbolTableRecord
100
AcDbLinetypeTableRecord
  2
DOT2
 70
    0
  3
Dot (.5x) .....................................
 72
   65
 73
    2
 40
3.175
 49
0
 74
    0
 49
-3.175
 74
    0
  0
LTYPE
  5
35
330
5
100
AcDbSymbolTableRecord
100
AcDbLinetypeTableRecord
  2
DOTX2
 70
    0
  3
Dot (2x) .  .  .  .  .  .  .  .  .  .  .  .  .
 72
   65
 73
    2
 40
12.7
 49
0
 74
    0
 49
-12.7
 74
    0
  0
LTYPE
  5
36
330
5
100
AcDbSymbolTableRecord
100
AcDbLinetypeTableRecord
  2
DASHED
 70
    0
  3
Dashed _ _ _ _ _ _ _ _ _ _ _ _ _ _ _ _ _
 72
   65
 73
    2
 40
19.05
 49
12.7
 74
    0
 49
-6.35
 74
    0
  0
LTYPE
  5
37
330
5
100
AcDbSymbolTableRecord
100
AcDbLinetypeTableRecord
  2
DASHEDTINY
 70
    0
  3
Dashed (.15x) _ _ _ _ _ _ _ _ _ _ _ _ _ _ _ _ _
 72
   65
 73
    2
 40
2.8575
 49
1.905
 74
    0
 49
-0.9525
 74
    0
  0
LTYPE
  5
38
330
5
100
AcDbSymbolTableRecord
100
AcDbLinetypeTableRecord
  2
DASHED2
 70
    0
  3
Dashed (.5x) _ _ _ _ _ _ _ _ _ _ _ _ _ _ _ _ _
 72
   65
 73
    2
 40
9.524999999999999
 49
6.35
 74
    0
 49
-3.175
 74
    0
  0
LTYPE
  5
39
330
5
100
AcDbSymbolTableRecord
100
AcDbLinetypeTableRecord
  2
DASHEDX2
 70
    0
  3
Dashed (2x) ____  ____  ____  ____  ____  ___
 72
   65
 73
    2
 40
38.09999999999999
 49
25.4
 74
    0
 49
-12.7
 74
    0
  0
LTYPE
  5
3A
330
5
100
AcDbSymbolTableRecord
100
AcDbLinetypeTableRecord
  2
DASHDOT
 70
    0
  3
Dash dot __ . __ . __ . __ . __ . __ . __ . __
 72
   65
 73
    4
 40
25.4
 49
12.7
 74
    0
 49
-6.35
 74
    0
 49
0
 74
    0
 49
-6.35
 74
    0
  0
LTYPE
  5
3B
330
5
100
AcDbSymbolTableRecord
100
AcDbLinetypeTableRecord
  2
DASHDOTTINY
 70
    0
  3
Dash dot (.15x) _._._._._._._._._._._._._._._.
 72
   65
 73
    4
 40
3.81
 49
1.905
 74
    0
 49
-0.9525
 74
    0
 49
0
 74
    0
 49
-0.9525
 74
    0
  0
LTYPE
  5
3C
330
5
100
AcDbSymbolTableRecord
100
AcDbLinetypeTableRecord
  2
DASHDOT2
 70
    0
  3
Dash dot (.5x) _._._._._._._._._._._._._._._.
 72
   65
 73
    4
 40
12.7
 49
6.35
 74
    0
 49
-3.175
 74
    0
 49
0
 74
    0
 49
-3.175
 74
    0
  0
LTYPE
  5
3D
330
5
100
AcDbSymbolTableRecord
100
AcDbLinetypeTableRecord
  2
DASHDOTX2
 70
    0
  3
Dash dot (2x) ____  .  ____  .  ____  .  ___
 72
   65
 73
    4
 40
50.8
 49
25.4
 74
    0
 49
-12.7
 74
    0
 49
0
 74
    0
 49
-12.7
 74
    0
  0
LTYPE
  5
3E
330
5
100
AcDbSymbolTableRecord
100
AcDbLinetypeTableRecord
  2
DIVIDE
 70
    0
  3
Divide ____ . . ____ . . ____ . . ____ . . ____
 72
   65
 73
    6
 40
31.75
 49
12.7
 74
    0
 49
-6.35
 74
    0
 49
0
 74
    0
 49
-6.35
 74
    0
 49
0
 74
    0
 49
-6.35
 74
    0
  0
LTYPE
  5
3F
330
5
100
AcDbSymbolTableRecord
100
AcDbLinetypeTableRecord
  2
DIVIDETINY
 70
    0
  3
Divide (.15x) __..__..__..__..__..__..__..__.._
 72
   65
 73
    6
 40
4.7625
 49
1.905
 74
    0
 49
-0.9525
 74
    0
 49
0
 74
    0
 49
-0.9525
 74
    0
 49
0
 74
    0
 49
-0.9525
 74
    0
  0
LTYPE
  5
40
330
5
100
AcDbSymbolTableRecord
100
AcDbLinetypeTableRecord
  2
DIVIDE2
 70
    0
  3
Divide (.5x) __..__..__..__..__..__..__..__.._
 72
   65
 73
    6
 40
15.875
 49
6.35
 74
    0
 49
-3.175
 74
    0
 49
0
 74
    0
 49
-3.175
 74
    0
 49
0
 74
    0
 49
-3.175
 74
    0
  0
LTYPE
  5
41
330
5
100
AcDbSymbolTableRecord
100
AcDbLinetypeTableRecord
  2
DIVIDEX2
 70
    0
  3
Divide (2x) ________  .  .  ________  .  .  _
 72
   65
 73
    6
 40
63.5
 49
25.4
 74
    0
 49
-12.7
 74
    0
 49
0
 74
    0
 49
-12.7
 74
    0
 49
0
 74
    0
 49
-12.7
 74
    0
  0
LTYPE
  5
42
330
5
100
AcDbSymbolTableRecord
100
AcDbLinetypeTableRecord
  2
BORDER
 70
    0
  3
Border __ __ . __ __ . __ __ . __ __ . __ __ .
 72
   65
 73
    6
 40
44.45
 49
12.7
 74
    0
 49
-6.35
 74
    0
 49
12.7
 74
    0
 49
-6.35
 74
    0
 49
0
 74
    0
 49
-6.35
 74
    0
  0
LTYPE
  5
43
330
5
100
AcDbSymbolTableRecord
100
AcDbLinetypeTableRecord
  2
BORDERTINY
 70
    0
  3
Border (.15x) __.__.__.__.__.__.__.__.__.__.__.
 72
   65
 73
    6
 40
6.6675
 49
1.905
 74
    0
 49
-0.9525
 74
    0
 49
1.905
 74
    0
 49
-0.9525
 74
    0
 49
0
 74
    0
 49
-0.9525
 74
    0
  0
LTYPE
  5
44
330
5
100
AcDbSymbolTableRecord
100
AcDbLinetypeTableRecord
  2
BORDER2
 70
    0
  3
Border (.5x) __.__.__.__.__.__.__.__.__.__.__.
 72
   65
 73
    6
 40
22.225
 49
6.35
 74
    0
 49
-3.175
 74
    0
 49
6.35
 74
    0
 49
-3.175
 74
    0
 49
0
 74
    0
 49
-3.175
 74
    0
  0
LTYPE
  5
45
330
5
100
AcDbSymbolTableRecord
100
AcDbLinetypeTableRecord
  2
BORDERX2
 70
    0
  3
Border (2x) ____  ____  .  ____  ____  .  ___
 72
   65
 73
    6
 40
88.89999999999999
 49
25.4
 74
    0
 49
-12.7
 74
    0
 49
25.4
 74
    0
 49
-12.7
 74
    0
 49
0
 74
    0
 49
-12.7
 74
    0
  0
LTYPE
  5
46
330
5
100
AcDbSymbolTableRecord
100
AcDbLinetypeTableRecord
  2
CENTER
 70
    0
  3
Center ____ _ ____ _ ____ _ ____ _ ____ _ ____
 72
   65
 73
    4
 40
50.8
 49
31.75
 74
    0
 49
-6.35
 74
    0
 49
6.35
 74
    0
 49
-6.35
 74
    0
  0
LTYPE
  5
47
330
5
100
AcDbSymbolTableRecord
100
AcDbLinetypeTableRecord
  2
CENTERTINY
 70
    0
  3
Center (.15x) ___ _ ___ _ ___ _ ___ _ ___ _ ___
 72
   65
 73
    4
 40
7.62
 49
4.7625
 74
    0
 49
-0.9525
 74
    0
 49
0.9525
 74
    0
 49
-0.9525
 74
    0
  0
LTYPE
  5
48
330
5
100
AcDbSymbolTableRecord
100
AcDbLinetypeTableRecord
  2
CENTER2
 70
    0
  3
Center (.5x) ___ _ ___ _ ___ _ ___ _ ___ _ ___
 72
   65
 73
    4
 40
28.575
 49
19.05
 74
    0
 49
-3.175
 74
    0
 49
3.175
 74
    0
 49
-3.175
 74
    0
  0
LTYPE
  5
49
330
5
100
AcDbSymbolTableRecord
100
AcDbLinetypeTableRecord
  2
CENTERX2
 70
    0
  3
Center (2x) ________  __  ________  __  _____
 72
   65
 73
    4
 40
101.6
 49
63.5
 74
    0
 49
-12.7
 74
    0
 49
12.7
 74
    0
 49
-12.7
 74
    0
  0
ENDTAB
  0
TABLE
  2
LAYER
  5
2
330
0
100
AcDbSymbolTable
 70
    1
  0
LAYER
  5
10
330
2
100
AcDbSymbolTableRecord
100
AcDbLayerTableRecord
  2
0
 70
    0
 62
    7
  6
CONTINUOUS
370
    0
390
F
  0
LAYER
  5
4A
330
2
100
AcDbSymbolTableRecord
100
AcDbLayerTableRecord
  2
Ref
 70
    0
 62
  136
420
32896
  6
CONTINUOUS
370
    0
390
F
  0
LAYER
  5
4B
330
2
100
AcDbSymbolTableRecord
100
AcDbLayerTableRecord
  2
edge2
 70
    0
 62
    4
  6
CONTINUOUS
370
    0
390
F
  0
LAYER
  5
4C
330
2
100
AcDbSymbolTableRecord
100
AcDbLayerTableRecord
  2
keycap guide
 70
    0
 62
  216
420
8388736
  6
CONTINUOUS
290
0
370
    0
390
F
  0
ENDTAB
  0
TABLE
  2
STYLE
  5
3
330
0
100
AcDbSymbolTable
 70
    3
  0
STYLE
  5
4D
330
2
100
AcDbSymbolTableRecord
100
AcDbTextStyleTableRecord
  2
Standard
 70
    0
 40
0
 41
1
 50
0
 71
    0
 42
1
  3
txt
  4

  0
ENDTAB
  0
TABLE
  2
VIEW
  5
6
330
0
100
AcDbSymbolTable
 70
    0
  0
ENDTAB
  0
TABLE
  2
UCS
  5
7
330
0
100
AcDbSymbolTable
 70
    0
  0
ENDTAB
  0
TABLE
  2
APPID
  5
9
330
0
100
AcDbSymbolTable
 70
    1
  0
APPID
  5
12
330
9
100
AcDbSymbolTableRecord
100
AcDbRegAppTableRecord
  2
ACAD
 70
    0
  0
APPID
  5
4E
330
9
100
AcDbSymbolTableRecord
100
AcDbRegAppTableRecord
  2
LibreCad
 70
    0
  0
ENDTAB
  0
TABLE
  2
DIMSTYLE
  5
A
330
0
100
AcDbSymbolTable
 70
    1
100
AcDbDimStyleTable
 71
    1
  0
DIMSTYLE
105
4F
330
A
100
AcDbSymbolTableRecord
100
AcDbDimStyleTableRecord
  2
Standard
 70
    0
 40
2.5
 41
2.5
 42
0.625
 43
0.38
 44
1.25
 45
0
 46
0
 47
0
 48
0
 49
1
140
2.5
141
0.09
142
0
143
25.4
144
1
145
0
146
1
147
0.625
148
0
 71
    0
 72
    0
 73
    0
 74
    1
 75
    0
 76
    0
 77
    0
 78
    8
 79
    0
170
    0
171
    2
172
    0
173
    0
174
    0
175
    0
176
    0
177
    0
178
    0
179
    0
271
    2
272
    4
273
    2
274
    2
275
    0
276
    0
277
    2
278
   44
279
    0
280
    0
281
    0
282
    0
283
    1
284
    0
285
    0
286
    0
288
    0
289
    3
340
STANDARD
341

371
   -2
372
   -2
  0
ENDTAB
  0
TABLE
  2
BLOCK_RECORD
  5
1
330
0
100
AcDbSymbolTable
 70
    2
  0
BLOCK_RECORD
  5
1F
330
1
100
AcDbSymbolTableRecord
100
AcDbBlockTableRecord
  2
*Model_Space
 70
    0
280
    1
281
    0
  0
BLOCK_RECORD
  5
1E
330
1
100
AcDbSymbolTableRecord
100
AcDbBlockTableRecord
  2
*Paper_Space
 70
    0
280
    1
281
    0
  0
ENDTAB
  0
ENDSEC
  0
SECTION
  2
BLOCKS
  0
BLOCK
  5
20
330
1F
100
AcDbEntity
  8
0
100
AcDbBlockBegin
  2
*Model_Space
 70
    0
 10
0
 20
0
 30
0
  3
*Model_Space
  1

  0
ENDBLK
  5
21
330
1F
100
AcDbEntity
  8
0
100
AcDbBlockEnd
  0
BLOCK
  5
1C
330
1B
100
AcDbEntity
  8
0
100
AcDbBlockBegin
  2
*Paper_Space
 70
    0
 10
0
 20
0
 30
0
  3
*Paper_Space
  1

  0
ENDBLK
  5
1D
330
1F
100
AcDbEntity
  8
0
100
AcDbBlockEnd
  0
ENDSEC
  0
SECTION
  2
ENTITIES
  0
LWPOLYLINE
  5
50
100
AcDbEntity
  8
0
  6
ByLayer
 62
  256
370
   -1
100
AcDbPolyline
 90
    4
 70
    1
 43
0
 10
65.21928539260583
 20
48.68631407345693
 10
79.21928539260585
 20
48.68631407345694
 10
79.21928539260591
 20
62.68631407345697
 10
65.21928539260577
 20
62.68631407345693
  0
LWPOLYLINE
  5
51
100
AcDbEntity
  8
0
  6
ByLayer
 62
  256
370
   -1
100
AcDbPolyline
 90
    4
 70
    1
 43
0
 10
65.21928539260583
 20
65.70631407345692
 10
79.21928539260585
 20
65.70631407345692
 10
79.21928539260581
 20
79.70631407345689
 10
65.21928539260587
 20
79.70631407345692
  0
LWPOLYLINE
  5
52
100
AcDbEntity
  8
0
  6
ByLayer
 62
  256
370
   -1
100
AcDbPolyline
 90
    4
 70
    1
 43
0
 10
65.21928539260583
 20
82.72631407345693
 10
79.21928539260585
 20
82.7263140734569
 10
79.21928539260591
 20
96.72631407345696
 10
65.21928539260578
 20
96.7263140734569
  0
LWPOLYLINE
  5
53
100
AcDbEntity
  8
0
  6
ByLayer
 62
  256
370
   -1
100
AcDbPolyline
 90
    4
 70
    1
 43
0
 10
45.57586045784488
 20
48.63945202634106
 10
59.533276352119
 20
49.73057143056033
 10
58.44215694789969
 20
63.68798732483444
 10
44.48474105362558
 20
62.59686792061518
  0
LWPOLYLINE
  5
54
100
AcDbEntity
  8
0
  6
ByLayer
 62
  256
370
   -1
100
AcDbPolyline
 90
    4
 70
    1
 43
0
 10
44.24937101071537
 20
65.6076819206657
 10
58.20678690498947
 20
66.69880132488497
 10
57.11566750077029
 20
80.65621721915915
 10
43.15825160649618
 20
79.56509781493986
  0
LWPOLYLINE
  5
55
100
AcDbEntity
  8
0
  6
ByLayer
 62
  256
370
   -1
100
AcDbPolyline
 90
    4
 70
    1
 43
0
 10
42.92288156358596
 20
82.57591181499041
 10
56.88029745786007
 20
83.66703121920966
 10
55.78917805364076
 20
97.6244471134838
 10
41.83176215936667
 20
96.53332770926454
  0
LWPOLYLINE
  5
56
100
AcDbEntity
  8
0
  6
ByLayer
 62
  256
370
   -1
100
AcDbPolyline
 90
    4
 70
    1
 43
0
 10
98.97441495865216
 20
21.8975588515529
 10
110.6622850443399
 20
14.19082849036299
 10
118.3690154055298
 20
25.87869857605068
 10
106.6811453198421
 20
33.58542893724058
  0
LWPOLYLINE
  5
57
100
AcDbEntity
  8
keycap guide
  6
ByLayer
 62
  256
370
   -1
100
AcDbPolyline
 90
    4
 70
    1
 43
0
 10
63.21928539260588
 20
47.17631407345694
 10
81.21928539260587
 20
47.17631407345695
 10
81.21928539260585
 20
64.19631407345692
 10
63.21928539260587
 20
64.19631407345695
  0
LWPOLYLINE
  5
58
100
AcDbEntity
  8
keycap guide
  6
ByLayer
 62
  256
370
   -1
100
AcDbPolyline
 90
    4
 70
    1
 43
0
 10
63.21928539260587
 20
64.19631407345695
 10
81.21928539260585
 20
64.19631407345692
 10
81.21928539260587
 20
81.21631407345694
 10
63.21928539260587
 20
81.21631407345694
  0
LWPOLYLINE
  5
59
100
AcDbEntity
  8
keycap guide
  6
ByLayer
 62
  256
370
   -1
100
AcDbPolyline
 90
    4
 70
    1
 43
0
 10
63.21928539260587
 20
81.21631407345694
 10
81.21928539260587
 20
81.21631407345694
 10
81.21928539260585
 20
98.23631407345695
 10
63.21928539260589
 20
98.23631407345692
  0
LWPOLYLINE
  5
5A
100
AcDbEntity
  8
keycap guide
  6
ByLayer
 62
  256
370
   -1
100
AcDbPolyline
 90
    4
 70
    1
 43
0
 10
43.69962892297501
 20
46.97817082571297
 10
61.64487792989888
 20
48.38103863113777
 10
60.31838848276948
 20
65.34926852546246
 10
42.3731394758456
 20
63.94640072003767
  0
LWPOLYLINE
  5
5B
100
AcDbEntity
  8
keycap guide
  6
ByLayer
 62
  256
370
   -1
100
AcDbPolyline
 90
    4
 70
    1
 43
0
 10
42.3731394758456
 20
63.94640072003767
 10
60.31838848276948
 20
65.34926852546246
 10
58.99189903564005
 20
82.31749841978717
 10
41.04665002871619
 20
80.91463061436235
  0
LWPOLYLINE
  5
5C
100
AcDbEntity
  8
keycap guide
  6
ByLayer
 62
  256
370
   -1
100
AcDbPolyline
 90
    4
 70
    1
 43
0
 10
41.04665002871619
 20
80.91463061436241
 10
58.99189903564004
 20
82.31749841978717
 10
57.66540958851063
 20
99.28572831411188
 10
39.72016058158678
 20
97.88286050868706
  0
LWPOLYLINE
  5
5D
100
AcDbEntity
  8
keycap guide
  6
ByLayer
 62
  256
370
   -1
100
AcDbPolyline
 90
    4
 70
    1
 43
0
 10
96.47349331459696
 20
21.73790005819514
 10
111.5007548533384
 20
11.82924673666527
 10
120.8699370495849
 20
26.0383573694084
 10
105.8426755108437
 20
35.94701069093834
  0
LWPOLYLINE
  5
5E
100
AcDbEntity
  8
0
  6
ByLayer
 62
  256
370
   -1
100
AcDbPolyline
 90
    4
 70
    1
 43
0
 10
29.08861214354025
 20
26.17187372531944
 10
42.93984922249541
 20
28.20736663431585
 10
40.90435631349894
 20
42.05860371327114
 10
27.05311923454378
 20
40.02311080427471
  0
LWPOLYLINE
  5
5F
100
AcDbEntity
  8
0
  6
ByLayer
 62
  256
370
   -1
100
AcDbPolyline
 90
    4
 70
    1
 43
0
 10
26.61403433560306
 20
43.01102051702075
 10
40.46527141455836
 20
45.0465134260172
 10
38.42977850556188
 20
58.89775050497246
 10
24.57854142660659
 20
56.86225759597603
  0
LWPOLYLINE
  5
60
100
AcDbEntity
  8
0
  6
ByLayer
 62
  256
370
   -1
100
AcDbPolyline
 90
    4
 70
    1
 43
0
 10
24.13945652766601
 20
59.85016730872209
 10
37.99069360662126
 20
61.88566021771855
 10
35.95520069762482
 20
75.73689729667379
 10
22.10396361866953
 20
73.70140438767737
  0
LWPOLYLINE
  5
61
100
AcDbEntity
  8
0
  6
ByLayer
 62
  256
370
   -1
100
AcDbPolyline
 90
    4
 70
    1
 43
0
 10
21.66487871972892
 20
76.68931410042345
 10
35.5161157986841
 20
78.72480700941986
 10
33.48062288968764
 20
92.57604408837514
 10
19.62938581073247
 20
90.5405511793787
  0
LWPOLYLINE
  5
62
100
AcDbEntity
  8
keycap guide
  6
ByLayer
 62
  256
370
   -1
100
AcDbPolyline
 90
    4
 70
    1
 43
0
 10
27.32940643887402
 20
24.38713416766117
 10
45.13813982610222
 20
27.00419647922806
 10
42.66356201816517
 20
43.84334327092937
 10
24.85482863093696
 20
41.22628095936251
  0
LWPOLYLINE
  5
63
100
AcDbEntity
  8
keycap guide
  6
ByLayer
 62
  256
370
   -1
100
AcDbPolyline
 90
    4
 70
    1
 43
0
 10
24.85482863093696
 20
41.22628095936251
 10
42.66356201816517
 20
43.84334327092937
 10
40.18898421022799
 20
60.68249006263071
 10
22.38025082299988
 20
58.06542775106385
  0
LWPOLYLINE
  5
64
100
AcDbEntity
  8
keycap guide
  6
ByLayer
 62
  256
370
   -1
100
AcDbPolyline
 90
    4
 70
    1
 43
0
 10
22.38025082299988
 20
58.06542775106385
 10
40.18898421022799
 20
60.68249006263071
 10
37.71440640229092
 20
77.52163685433203
 10
19.9056730150627
 20
74.9045745427652
  0
LWPOLYLINE
  5
65
100
AcDbEntity
  8
keycap guide
  6
ByLayer
 62
  256
370
   -1
100
AcDbPolyline
 90
    4
 70
    1
 43
0
 10
19.9056730150627
 20
74.9045745427652
 10
37.71440640229092
 20
77.52163685433203
 10
35.23982859435385
 20
94.36078364603335
 10
17.43109520712565
 20
91.74372133446653
  0
LWPOLYLINE
  5
66
100
AcDbEntity
  8
0
  6
ByLayer
 62
  256
370
   -1
100
AcDbPolyline
 90
    4
 70
    1
 43
0
 10
12.25342949797959
 20
17.36093582076683
 10
26.01452438607325
 20
19.93625472934491
 10
23.43920547749524
 20
33.69734961743868
 10
9.678110589401463
 20
31.12203070886059
  0
LWPOLYLINE
  5
67
100
AcDbEntity
  8
0
  6
ByLayer
 62
  256
370
   -1
100
AcDbPolyline
 90
    4
 70
    1
 43
0
 10
9.122577510551068
 20
34.09049546329226
 10
22.88367239864484
 20
36.66581437187035
 10
20.30835349006671
 20
50.42690925996411
 10
6.547258601972999
 20
47.85159035138601
  0
LWPOLYLINE
  5
68
100
AcDbEntity
  8
0
  6
ByLayer
 62
  256
370
   -1
100
AcDbPolyline
 90
    4
 70
    1
 43
0
 10
5.991725523122561
 20
50.82005510581763
 10
19.75282041121635
 20
53.39537401439571
 10
17.17750150263819
 20
67.15646890248951
 10
3.416406614544535
 20
64.58114999391142
  0
LWPOLYLINE
  5
69
100
AcDbEntity
  8
0
  6
ByLayer
 62
  256
370
   -1
100
AcDbPolyline
 90
    4
 70
    1
 43
0
 10
2.860873535694097
 20
67.5496147483431
 10
16.62196842378779
 20
70.12493365692119
 10
14.04664951520978
 20
83.88602854501491
 10
0.2855546271159568
 20
81.3107096364368
  0
LWPOLYLINE
  5
6A
100
AcDbEntity
  8
keycap guide
  6
ByLayer
 62
  256
370
   -1
100
AcDbPolyline
 90
    4
 70
    1
 43
0
 10
10.56532533910561
 20
15.50880074232558
 10
28.25816162379771
 20
18.81992505335457
 10
25.1273096363692
 20
35.54948469587995
 10
7.43447335167717
 20
32.23836038485098
  0
LWPOLYLINE
  5
6B
100
AcDbEntity
  8
keycap guide
  6
ByLayer
 62
  256
370
   -1
100
AcDbPolyline
 90
    4
 70
    1
 43
0
 10
7.43447335167717
 20
32.23836038485098
 10
25.1273096363692
 20
35.54948469587995
 10
21.99645764894068
 20
52.27904433840537
 10
4.303621364248698
 20
48.96792002737639
  0
LWPOLYLINE
  5
6C
100
AcDbEntity
  8
keycap guide
  6
ByLayer
 62
  256
370
   -1
100
AcDbPolyline
 90
    4
 70
    1
 43
0
 10
4.303621364248698
 20
48.96792002737639
 10
21.99645764894068
 20
52.27904433840537
 10
18.86560566151216
 20
69.00860398093079
 10
1.172769376820106
 20
65.69747966990181
  0
LWPOLYLINE
  5
6D
100
AcDbEntity
  8
keycap guide
  6
ByLayer
 62
  256
370
   -1
100
AcDbPolyline
 90
    4
 70
    1
 43
0
 10
1.172769376820106
 20
65.69747966990181
 10
18.86560566151216
 20
69.00860398093079
 10
15.73475367408366
 20
85.73816362345613
 10
-1.958082610608287
 20
82.42703931242721
  0
LWPOLYLINE
  5
6E
100
AcDbEntity
  8
0
  6
ByLayer
 62
  256
370
   -1
100
AcDbPolyline
 90
    4
 70
    1
 43
0
 10
83.21929231940155
 20
29.95586532276812
 10
97.21929231940153
 20
29.95586532276812
 10
97.2192923194016
 20
43.95586532276815
 10
83.21929231940152
 20
43.9558653227681
  0
LWPOLYLINE
  5
6F
100
AcDbEntity
  8
0
  6
ByLayer
 62
  256
370
   -1
100
AcDbPolyline
 90
    4
 70
    1
 43
0
 10
83.21929231940152
 20
46.97586532276814
 10
97.21929231940165
 20
46.97586532276816
 10
97.21929231940145
 20
60.9758653227681
 10
83.21929231940152
 20
60.97586532276809
  0
LWPOLYLINE
  5
70
100
AcDbEntity
  8
0
  6
ByLayer
 62
  256
370
   -1
100
AcDbPolyline
 90
    4
 70
    1
 43
0
 10
83.21929231940152
 20
63.9958653227681
 10
97.2192923194015
 20
63.99586532276807
 10
97.21929231940157
 20
77.99586532276811
 10
83.21929231940157
 20
77.99586532276814
  0
LWPOLYLINE
  5
71
100
AcDbEntity
  8
0
  6
ByLayer
 62
  256
370
   -1
100
AcDbPolyline
 90
    4
 70
    1
 43
0
 10
83.21929231940157
 20
81.01586532276809
 10
97.21929231940152
 20
81.01586532276812
 10
97.2192923194016
 20
95.01586532276821
 10
83.21929231940146
 20
95.01586532276804
  0
LWPOLYLINE
  5
72
100
AcDbEntity
  8
keycap guide
  6
ByLayer
 62
  256
370
   -1
100
AcDbPolyline
 90
    4
 70
    1
 43
0
 10
81.21929231940146
 20
28.44586532276809
 10
99.21929231940157
 20
28.44586532276811
 10
99.21929231940152
 20
45.46586532276811
 10
81.21929231940155
 20
45.46586532276811
  0
LWPOLYLINE
  5
73
100
AcDbEntity
  8
keycap guide
  6
ByLayer
 62
  256
370
   -1
100
AcDbPolyline
 90
    4
 70
    1
 43
0
 10
81.21929231940155
 20
45.46586532276811
 10
99.21929231940152
 20
45.46586532276811
 10
99.21929231940155
 20
62.48586532276811
 10
81.21929231940163
 20
62.48586532276815
  0
LWPOLYLINE
  5
74
100
AcDbEntity
  8
keycap guide
  6
ByLayer
 62
  256
370
   -1
100
AcDbPolyline
 90
    4
 70
    1
 43
0
 10
81.21929231940163
 20
62.48586532276815
 10
99.21929231940155
 20
62.48586532276811
 10
99.21929231940149
 20
79.5058653227681
 10
81.21929231940148
 20
79.50586532276813
  0
LWPOLYLINE
  5
75
100
AcDbEntity
  8
keycap guide
  6
ByLayer
 62
  256
370
   -1
100
AcDbPolyline
 90
    4
 70
    1
 43
0
 10
81.21929231940148
 20
79.50586532276813
 10
99.21929231940149
 20
79.5058653227681
 10
99.21929231940149
 20
96.52586532276808
 10
81.21929231940157
 20
96.52586532276811
  0
LWPOLYLINE
  5
76
100
AcDbEntity
  8
0
  6
ByLayer
 62
  256
370
   -1
100
AcDbPolyline
 90
    4
 70
    1
 43
0
 10
-5.126689490670742
 20
12.37882141618365
 10
8.634405397422967
 20
14.95414032476175
 10
6.059086488844926
 20
28.7152352128555
 10
-7.70200839924884
 20
26.13991630427742
  0
LWPOLYLINE
  5
77
100
AcDbEntity
  8
0
  6
ByLayer
 62
  256
370
   -1
100
AcDbPolyline
 90
    4
 70
    1
 43
0
 10
-8.257541478099242
 20
29.10838105870906
 10
5.503553409994474
 20
31.68369996728715
 10
2.928234501416377
 20
45.44479485538093
 10
-10.83286038667738
 20
42.86947594680284
  0
LWPOLYLINE
  5
78
100
AcDbEntity
  8
0
  6
ByLayer
 62
  256
370
   -1
100
AcDbPolyline
 90
    4
 70
    1
 43
0
 10
-11.38839346552771
 20
45.83794070123447
 10
2.372701422565989
 20
48.41325960981258
 10
-0.2026174860121159
 20
62.17435449790634
 10
-13.96371237410582
 20
59.59903558932825
  0
LWPOLYLINE
  5
79
100
AcDbEntity
  8
0
  6
ByLayer
 62
  256
370
   -1
100
AcDbPolyline
 90
    4
 70
    1
 43
0
 10
-14.51924545295624
 20
62.56750034375995
 10
-0.7581505648624969
 20
65.14281925233797
 10
-3.333469473440545
 20
78.90391414043177
 10
-17.09456436153437
 20
76.32859523185368
  0
LWPOLYLINE
  5
7A
100
AcDbEntity
  8
keycap guide
  6
ByLayer
 62
  256
370
   -1
100
AcDbPolyline
 90
    4
 70
    1
 43
0
 10
-6.814793649544683
 20
10.52668633774242
 10
10.87804263514735
 20
13.83781064877138
 10
7.747190647718803
 20
30.56737029129675
 10
-9.945645636973168
 20
27.25624598026781
  0
LWPOLYLINE
  5
7B
100
AcDbEntity
  8
keycap guide
  6
ByLayer
 62
  256
370
   -1
100
AcDbPolyline
 90
    4
 70
    1
 43
0
 10
-9.945645636973168
 20
27.25624598026781
 10
7.747190647718803
 20
30.56737029129675
 10
4.616338660290367
 20
47.29692993382218
 10
-13.07649762440165
 20
43.98580562279322
  0
LWPOLYLINE
  5
7C
100
AcDbEntity
  8
keycap guide
  6
ByLayer
 62
  256
370
   -1
100
AcDbPolyline
 90
    4
 70
    1
 43
0
 10
-13.07649762440165
 20
43.98580562279322
 10
4.616338660290367
 20
47.29692993382218
 10
1.485486672861825
 20
64.02648957634759
 10
-16.20734961183015
 20
60.71536526531864
  0
LWPOLYLINE
  5
7D
100
AcDbEntity
  8
keycap guide
  6
ByLayer
 62
  256
370
   -1
100
AcDbPolyline
 90
    4
 70
    1
 43
0
 10
-16.20734961183015
 20
60.71536526531864
 10
1.485486672861825
 20
64.02648957634759
 10
-1.645365314566675
 20
80.75604921887302
 10
-19.33820159925864
 20
77.44492490784404
  0
ARC
  5
7E
100
AcDbEntity
  8
edge2
  6
ByLayer
 62
  256
370
   -1
100
AcDbCircle
 10
108.5894815939387
 20
25.02512797258828
 40
16
100
AcDbArc
 50
251.7991341153239
 51
351.5856813144815
  0
ARC
  5
7F
100
AcDbEntity
  8
edge2
  6
ByLayer
 62
  256
370
   -1
100
AcDbCircle
 10
63.21928539260563
 20
-112.962079483089
 40
129.2546871008422
100
AcDbArc
 50
71.79913411532392
 51
114.1868322589475
  0
ARC
  5
80
100
AcDbEntity
  8
edge2
  6
ByLayer
 62
  256
370
   -1
100
AcDbCircle
 10
3.706493794460109
 20
19.54132334476021
 40
16
100
AcDbArc
 50
190.5999999999999
 51
294.1868322589475
  0
LINE
  5
81
100
AcDbEntity
  8
edge2
  6
ByLayer
 62
  256
370
   -1
100
AcDbLine
 10
-22.32701081721051
 20
71.67060596822745
 11
-12.02047179193276
 21
16.5981017349567
  0
ARC
  5
82
100
AcDbEntity
  8
edge2
  6
ByLayer
 62
  256
370
   -1
100
AcDbCircle
 10
-6.600045230817635
 20
74.61382757803096
 40
16
100
AcDbArc
 50
110.4162264733526
 51
190.6
  0
LWPOLYLINE
  5
83
100
AcDbEntity
  8
0
  6
ByLayer
 62
  256
370
   -1
100
AcDbPolyline
 90
    4
 70
    1
 43
0
 10
65.21928539260581
 20
27.66631407345695
 10
79.21928539260584
 20
27.66631407345693
 10
79.21928539260588
 20
41.66631407345696
 10
65.21928539260588
 20
41.66631407345696
  0
LWPOLYLINE
  5
84
100
AcDbEntity
  8
keycap guide
  6
ByLayer
 62
  256
370
   -1
100
AcDbPolyline
 90
    4
 70
    1
 43
0
 10
63.21928539260588
 20
26.15631407345693
 10
81.21928539260585
 20
26.15631407345694
 10
81.21928539260587
 20
43.17631407345695
 10
63.21928539260588
 20
43.17631407345694
  0
LWPOLYLINE
  5
85
100
AcDbEntity
  8
0
  6
ByLayer
 62
  256
370
   -1
100
AcDbPolyline
 90
    4
 70
    1
 43
0
 10
47.3523295225915
 20
23.44623232320774
 10
61.30974541686559
 20
24.53735172742703
 10
60.21862601264629
 20
38.49476762170114
 10
46.26121011837218
 20
37.40364821748187
  0
LWPOLYLINE
  5
86
100
AcDbEntity
  8
keycap guide
  6
ByLayer
 62
  256
370
   -1
100
AcDbPolyline
 90
    4
 70
    1
 43
0
 10
45.47609798772162
 20
21.78495112257967
 10
63.42134699464557
 20
23.18781892800453
 10
62.09485754751606
 20
40.15604882232918
 10
44.14960854059219
 20
38.75318101690438
  0
ARC
  5
87
100
AcDbEntity
  8
edge2
  6
ByLayer
 62
  256
370
   -1
100
AcDbCircle
 10
63.21928539260563
 20
-112.962079483089
 40
216.148594395526
100
AcDbArc
 50
77.48433019412231
 51
110.4162264733525
  0
ARC
  5
88
100
AcDbEntity
  8
edge2
  6
ByLayer
 62
  256
370
   -1
100
AcDbCircle
 10
-48.69900976711148
 20
48.29163792498223
 40
175
100
AcDbArc
 50
351.5856813144815
 51
12.39844455495206
  0
ARC
  5
89
100
AcDbEntity
  8
edge2
  6
ByLayer
 62
  256
370
   -1
100
AcDbCircle
 10
106.5928093303286
 20
82.43033915112659
 40
16
100
AcDbArc
 50
12.39844455495205
 51
77.48433019412234
  0
CIRCLE
  5
8A
100
AcDbEntity
  8
Ref
  6
ByLayer
 62
  256
370
   -1
100
AcDbCircle
 10
63.21928539260563
 20
-112.962079483089
 40
4
  0
LINE
  5
8B
100
AcDbEntity
  8
Ref
  6
ByLayer
 62
  256
370
   -1
100
AcDbLine
 10
65.21928539260578
 20
96.7263140734569
 11
79.21928539260585
 21
82.7263140734569
  0
LINE
  5
8C
100
AcDbEntity
  8
Ref
  6
ByLayer
 62
  256
370
   -1
100
AcDbLine
 10
83.21929231940146
 20
95.01586532276804
 11
97.21929231940152
 21
81.01586532276812
  0
LINE
  5
8D
100
AcDbEntity
  8
Ref
  6
ByLayer
 62
  256
370
   -1
100
AcDbLine
 10
83.21929231940157
 20
77.99586532276814
 11
97.2192923194015
 21
63.99586532276807
  0
LINE
  5
8E
100
AcDbEntity
  8
Ref
  6
ByLayer
 62
  256
370
   -1
100
AcDbLine
 10
83.21929231940152
 20
60.97586532276809
 11
97.21929231940165
 21
46.97586532276816
  0
LINE
  5
8F
100
AcDbEntity
  8
Ref
  6
ByLayer
 62
  256
370
   -1
100
AcDbLine
 10
83.21929231940152
 20
43.9558653227681
 11
97.21929231940153
 21
29.95586532276812
  0
LINE
  5
90
100
AcDbEntity
  8
Ref
  6
ByLayer
 62
  256
370
   -1
100
AcDbLine
 10
106.6811453198421
 20
33.58542893724058
 11
110.6622850443399
 21
14.19082849036299
  0
LINE
  5
91
100
AcDbEntity
  8
Ref
  6
ByLayer
 62
  256
370
   -1
100
AcDbLine
 10
79.21928539260588
 20
41.66631407345696
 11
65.21928539260581
 21
27.66631407345695
  0
LINE
  5
92
100
AcDbEntity
  8
Ref
  6
ByLayer
 62
  256
370
   -1
100
AcDbLine
 10
79.21928539260591
 20
62.68631407345697
 11
65.21928539260583
 21
48.68631407345693
  0
LINE
  5
93
100
AcDbEntity
  8
Ref
  6
ByLayer
 62
  256
370
   -1
100
AcDbLine
 10
65.21928539260583
 20
65.70631407345692
 11
79.21928539260581
 21
79.70631407345689
  0
LINE
  5
94
100
AcDbEntity
  8
Ref
  6
ByLayer
 62
  256
370
   -1
100
AcDbLine
 10
55.78917805364076
 20
97.6244471134838
 11
42.92288156358596
 21
82.57591181499041
  0
LINE
  5
95
100
AcDbEntity
  8
Ref
  6
ByLayer
 62
  256
370
   -1
100
AcDbLine
 10
43.15825160649618
 20
79.56509781493986
 11
58.20678690498947
 21
66.69880132488497
  0
LINE
  5
96
100
AcDbEntity
  8
Ref
  6
ByLayer
 62
  256
370
   -1
100
AcDbLine
 10
58.44215694789969
 20
63.68798732483444
 11
45.57586045784488
 21
48.63945202634106
  0
LINE
  5
97
100
AcDbEntity
  8
Ref
  6
ByLayer
 62
  256
370
   -1
100
AcDbLine
 10
46.26121011837218
 20
37.40364821748187
 11
61.30974541686559
 21
24.53735172742703
  0
LINE
  5
98
100
AcDbEntity
  8
Ref
  6
ByLayer
 62
  256
370
   -1
100
AcDbLine
 10
42.93984922249541
 20
28.20736663431585
 11
27.05311923454378
 21
40.02311080427471
  0
LINE
  5
99
100
AcDbEntity
  8
Ref
  6
ByLayer
 62
  256
370
   -1
100
AcDbLine
 10
26.61403433560306
 20
43.01102051702075
 11
38.42977850556188
 21
58.89775050497246
  0
LINE
  5
9A
100
AcDbEntity
  8
Ref
  6
ByLayer
 62
  256
370
   -1
100
AcDbLine
 10
37.99069360662126
 20
61.88566021771855
 11
22.10396361866953
 21
73.70140438767737
  0
LINE
  5
9B
100
AcDbEntity
  8
Ref
  6
ByLayer
 62
  256
370
   -1
100
AcDbLine
 10
21.66487871972892
 20
76.68931410042345
 11
33.48062288968764
 21
92.57604408837514
  0
LINE
  5
9C
100
AcDbEntity
  8
Ref
  6
ByLayer
 62
  256
370
   -1
100
AcDbLine
 10
14.04664951520978
 20
83.88602854501491
 11
2.860873535694097
 21
67.5496147483431
  0
LINE
  5
9D
100
AcDbEntity
  8
Ref
  6
ByLayer
 62
  256
370
   -1
100
AcDbLine
 10
3.416406614544535
 20
64.58114999391142
 11
19.75282041121635
 21
53.39537401439571
  0
LINE
  5
9E
100
AcDbEntity
  8
Ref
  6
ByLayer
 62
  256
370
   -1
100
AcDbLine
 10
20.30835349006671
 20
50.42690925996411
 11
9.122577510551068
 21
34.09049546329226
  0
LINE
  5
9F
100
AcDbEntity
  8
Ref
  6
ByLayer
 62
  256
370
   -1
100
AcDbLine
 10
9.678110589401463
 20
31.12203070886059
 11
26.01452438607325
 21
19.93625472934491
  0
LINE
  5
A0
100
AcDbEntity
  8
Ref
  6
ByLayer
 62
  256
370
   -1
100
AcDbLine
 10
8.634405397422967
 20
14.95414032476175
 11
-7.70200839924884
 21
26.13991630427742
  0
LINE
  5
A1
100
AcDbEntity
  8
Ref
  6
ByLayer
 62
  256
370
   -1
100
AcDbLine
 10
-8.257541478099242
 20
29.10838105870906
 11
2.928234501416377
 21
45.44479485538093
  0
LINE
  5
A2
100
AcDbEntity
  8
Ref
  6
ByLayer
 62
  256
370
   -1
100
AcDbLine
 10
2.372701422565989
 20
48.41325960981258
 11
-13.96371237410582
 21
59.59903558932825
  0
LINE
  5
A3
100
AcDbEntity
  8
Ref
  6
ByLayer
 62
  256
370
   -1
100
AcDbLine
 10
-14.51924545295624
 20
62.56750034375995
 11
-3.333469473440545
 21
78.90391414043177
  0
CIRCLE
  5
A4
100
AcDbEntity
  8
Ref
  6
ByLayer
 62
  256
370
   -1
100
AcDbCircle
 10
108.671715182091
 20
23.88812871380178
 40
4
  0
CIRCLE
  5
A5
100
AcDbEntity
  8
Ref
  6
ByLayer
 62
  256
370
   -1
100
AcDbCircle
 10
90.21929231940152
 20
36.9558653227681
 40
4
  0
CIRCLE
  5
A6
100
AcDbEntity
  8
Ref
  6
ByLayer
 62
  256
370
   -1
100
AcDbCircle
 10
90.21929231940157
 20
53.97586532276812
 40
4
  0
CIRCLE
  5
A7
100
AcDbEntity
  8
Ref
  6
ByLayer
 62
  256
370
   -1
100
AcDbCircle
 10
90.21929231940155
 20
70.99586532276811
 40
4
  0
CIRCLE
  5
A8
100
AcDbEntity
  8
Ref
  6
ByLayer
 62
  256
370
   -1
100
AcDbCircle
 10
90.21929231940149
 20
88.01586532276808
 40
4
  0
CIRCLE
  5
A9
100
AcDbEntity
  8
Ref
  6
ByLayer
 62
  256
370
   -1
100
AcDbCircle
 10
72.21928539260583
 20
89.7263140734569
 40
4
  0
CIRCLE
  5
AA
100
AcDbEntity
  8
Ref
  6
ByLayer
 62
  256
370
   -1
100
AcDbCircle
 10
72.21928539260583
 20
72.70631407345691
 40
4
  0
CIRCLE
  5
AB
100
AcDbEntity
  8
Ref
  6
ByLayer
 62
  256
370
   -1
100
AcDbCircle
 10
72.21928539260587
 20
55.68631407345695
 40
4
  0
CIRCLE
  5
AC
100
AcDbEntity
  8
Ref
  6
ByLayer
 62
  256
370
   -1
100
AcDbCircle
 10
72.21928539260585
 20
34.66631407345695
 40
4
  0
CIRCLE
  5
AD
100
AcDbEntity
  8
Ref
  6
ByLayer
 62
  256
370
   -1
100
AcDbCircle
 10
53.78547776761889
 20
30.97049997245445
 40
4
  0
CIRCLE
  5
AE
100
AcDbEntity
  8
Ref
  6
ByLayer
 62
  256
370
   -1
100
AcDbCircle
 10
52.00900870287229
 20
56.16371967558775
 40
4
  0
CIRCLE
  5
AF
100
AcDbEntity
  8
Ref
  6
ByLayer
 62
  256
370
   -1
100
AcDbCircle
 10
50.68251925574283
 20
73.13194956991242
 40
4
  0
CIRCLE
  5
B0
100
AcDbEntity
  8
Ref
  6
ByLayer
 62
  256
370
   -1
100
AcDbCircle
 10
49.35602980861336
 20
90.1001794642371
 40
4
  0
CIRCLE
  5
B1
100
AcDbEntity
  8
Ref
  6
ByLayer
 62
  256
370
   -1
100
AcDbCircle
 10
27.57275080470828
 20
84.63267909439929
 40
4
  0
CIRCLE
  5
B2
100
AcDbEntity
  8
Ref
  6
ByLayer
 62
  256
370
   -1
100
AcDbCircle
 10
30.04732861264539
 20
67.79353230269797
 40
4
  0
CIRCLE
  5
B3
100
AcDbEntity
  8
Ref
  6
ByLayer
 62
  256
370
   -1
100
AcDbCircle
 10
32.52190642058247
 20
50.9543855109966
 40
4
  0
CIRCLE
  5
B4
100
AcDbEntity
  8
Ref
  6
ByLayer
 62
  256
370
   -1
100
AcDbCircle
 10
34.99648422851959
 20
34.11523871929528
 40
4
  0
CIRCLE
  5
B5
100
AcDbEntity
  8
Ref
  6
ByLayer
 62
  256
370
   -1
100
AcDbCircle
 10
17.84631748773736
 20
25.52914271910275
 40
4
  0
CIRCLE
  5
B6
100
AcDbEntity
  8
Ref
  6
ByLayer
 62
  256
370
   -1
100
AcDbCircle
 10
14.71546550030889
 20
42.25870236162818
 40
4
  0
CIRCLE
  5
B7
100
AcDbEntity
  8
Ref
  6
ByLayer
 62
  256
370
   -1
100
AcDbCircle
 10
11.58461351288044
 20
58.98826200415357
 40
4
  0
CIRCLE
  5
B8
100
AcDbEntity
  8
Ref
  6
ByLayer
 62
  256
370
   -1
100
AcDbCircle
 10
8.453761525451938
 20
75.717821646679
 40
4
  0
CIRCLE
  5
B9
100
AcDbEntity
  8
Ref
  6
ByLayer
 62
  256
370
   -1
100
AcDbCircle
 10
-8.926357463198393
 20
70.73570724209586
 40
4
  0
CIRCLE
  5
BA
100
AcDbEntity
  8
Ref
  6
ByLayer
 62
  256
370
   -1
100
AcDbCircle
 10
-5.795505475769916
 20
54.00614759957041
 40
4
  0
CIRCLE
  5
BB
100
AcDbEntity
  8
Ref
  6
ByLayer
 62
  256
370
   -1
100
AcDbCircle
 10
-2.664653488341433
 20
37.276587957045
 40
4
  0
CIRCLE
  5
BC
100
AcDbEntity
  8
Ref
  6
ByLayer
 62
  256
370
   -1
100
AcDbCircle
 10
0.4661984990870636
 20
20.54702831451959
 40
4
  0
ARC
  5
BD
100
AcDbEntity
  8
Ref
  6
ByLayer
 62
  256
370
   -1
100
AcDbCircle
 10
63.21928539260563
 20
-112.962079483089
 40
212.148594395526
100
AcDbArc
 50
77.48433019412231
 51
110.4162264733525
  0
ARC
  5
BE
100
AcDbEntity
  8
Ref
  6
ByLayer
 62
  256
370
   -1
100
AcDbCircle
 10
106.5928093303286
 20
82.43033915112659
 40
12
100
AcDbArc
 50
12.39844455495205
 51
77.48433019412234
  0
ARC
  5
BF
100
AcDbEntity
  8
Ref
  6
ByLayer
 62
  256
370
   -1
100
AcDbCircle
 10
-48.69900976711148
 20
48.29163792498223
 40
171
100
AcDbArc
 50
351.5856813144815
 51
12.39844455495206
  0
ARC
  5
C0
100
AcDbEntity
  8
Ref
  6
ByLayer
 62
  256
370
   -1
100
AcDbCircle
 10
108.5894815939387
 20
25.02512797258828
 40
12
100
AcDbArc
 50
251.7991341153239
 51
351.5856813144815
  0
ARC
  5
C1
100
AcDbEntity
  8
Ref
  6
ByLayer
 62
  256
370
   -1
100
AcDbCircle
 10
63.21928539260563
 20
-112.962079483089
 40
133.2546871008422
100
AcDbArc
 50
71.79913411532392
 51
114.1868322589475
  0
ARC
  5
C2
100
AcDbEntity
  8
Ref
  6
ByLayer
 62
  256
370
   -1
100
AcDbCircle
 10
3.706493794460109
 20
19.54132334476021
 40
12
100
AcDbArc
 50
190.5999999999999
 51
294.1868322589475
  0
LINE
  5
C3
100
AcDbEntity
  8
Ref
  6
ByLayer
 62
  256
370
   -1
100
AcDbLine
 10
-18.39526942061229
 20
72.40641137067833
 11
-8.088730395334544
 21
17.33390713740758
  0
ARC
  5
C4
100
AcDbEntity
  8
Ref
  6
ByLayer
 62
  256
370
   -1
100
AcDbCircle
 10
-6.600045230817635
 20
74.61382757803096
 40
12
100
AcDbArc
 50
110.4162264733526
 51
190.6
  0
LWPOLYLINE
  5
C5
100
AcDbEntity
  8
keycap guide
  6
ByLayer
 62
  256
370
   -1
100
AcDbPolyline
 90
    4
 70
    1
 43
0
 10
99.84290932402962
 20
37.11167170160819
 10
119.8429093240295
 20
37.11167170160818
 10
119.8429093240297
 20
72.11167170160823
 10
99.84290932402952
 20
72.1116717016082
  0
LINE
  5
C6
100
AcDbEntity
  8
Ref
  6
ByLayer
 62
  256
370
   -1
100
AcDbLine
 10
99.84290932402952
 20
72.1116717016082
 11
119.8429093240295
 21
37.11167170160818
  0
CIRCLE
  5
C7
100
AcDbEntity
  8
Ref
  6
ByLayer
 62
  256
370
   -1
100
AcDbCircle
 10
109.8429093240295
 20
54.61167170160819
 40
4
  0
MTEXT
  5
C8
100
AcDbEntity
  8
Ref
  6
ByLayer
 62
  256
370
   -1
100
AcDbMText
 10
137.1511740725523
 20
72.42334441362333
 30
0
 40
3
 41
26.16666666666718
 71
    1
 72
    1
  1
C3 = 4.47deg\P
  7

210
0
220
0
230
1
 50
0
 73
    2
 44
1
  0
MTEXT
  5
C9
100
AcDbEntity
  8
Ref
  6
ByLayer
 62
  256
370
   -1
100
AcDbMText
 10
137.371864334573
 20
65.04018205225009
 30
0
 40
3
 41
25.5000000000007
 71
    1
 72
    1
  1
C2 = 8.36deg
  7

210
0
220
0
230
1
 50
0
 73
    2
 44
1
  0
MTEXT
  5
CA
100
AcDbEntity
  8
Ref
  6
ByLayer
 62
  256
370
   -1
100
AcDbMText
 10
137.371864334573
 20
57.84590182524484
 30
0
 40
3
 41
25.41666666666718
 71
    1
 72
    1
  1
C0,1 =10.6deg
  7

210
0
220
0
230
1
 50
0
 73
    2
 44
1
  0
ENDSEC
  0
SECTION
  2
OBJECTS
  0
DICTIONARY
  5
C
330
0
100
AcDbDictionary
281
    1
  3
ACAD_GROUP
350
D
  0
DICTIONARY
  5
D
330
C
100
AcDbDictionary
281
    1
  0
ENDSEC
  0
EOF
