999
dxfrw 0.6.3
  0
SECTION
  2
HEADER
  9
$ACADVER
  1
AC1021
  9
$DWGCODEPAGE
  3
ANSI_1252
  9
$INSBASE
 10
0
 20
0
 30
0
  9
$EXTMIN
 10
-19.01089665561537
 20
-125.5155293115935
 30
0
  9
$EXTMAX
 10
173.8968466488409
 20
94.63306508393246
 30
0
  9
$LIMMIN
 10
0
 20
0
  9
$LIMMAX
 10
420
 20
297
  9
$ORTHOMODE
 70
    0
  9
$REGENMODE
 70
    1
  9
$FILLMODE
 70
    1
  9
$QTEXTMODE
 70
    0
  9
$MIRRTEXT
 70
    0
  9
$LTSCALE
 40
1
  9
$ATTMODE
 70
    0
  9
$TEXTSIZE
 40
2.5
  9
$TRACEWID
 40
15.68
  9
$TEXTSTYLE
  7
STANDARD
  9
$CLAYER
  8
Ref
  9
$CELTYPE
  6
BYLAYER
  9
$CECOLOR
 62
  256
  9
$CELTSCALE
 40
1
  9
$DISPSILH
 70
    0
  9
$DIMSCALE
 40
2.5
  9
$DIMASZ
 40
2.5
  9
$DIMEXO
 40
0.625
  9
$DIMDLI
 40
3.75
  9
$DIMRND
 40
0
  9
$DIMDLE
 40
0
  9
$DIMEXE
 40
1.25
  9
$DIMTP
 40
0
  9
$DIMTM
 40
0
  9
$DIMTXT
 40
2.5
  9
$DIMCEN
 40
2.5
  9
$DIMTSZ
 40
0
  9
$DIMTOL
 70
    0
  9
$DIMLIM
 70
    0
  9
$DIMTIH
 70
    0
  9
$DIMTOH
 70
    0
  9
$DIMSE1
 70
    0
  9
$DIMSE2
 70
    0
  9
$DIMTAD
 70
    1
  9
$DIMZIN
 70
    8
  9
$DIMBLK
  1

  9
$DIMASO
 70
    1
  9
$DIMSHO
 70
    1
  9
$DIMPOST
  1

  9
$DIMAPOST
  1

  9
$DIMALT
 70
    0
  9
$DIMALTD
 70
    3
  9
$DIMALTF
 40
0.03937
  9
$DIMLFAC
 40
1
  9
$DIMTOFL
 70
    1
  9
$DIMTVP
 40
0
  9
$DIMTIX
 70
    0
  9
$DIMSOXD
 70
    0
  9
$DIMSAH
 70
    0
  9
$DIMBLK1
  1

  9
$DIMBLK2
  1

  9
$DIMSTYLE
  2
STANDARD
  9
$DIMCLRD
 70
    0
  9
$DIMCLRE
 70
    0
  9
$DIMCLRT
 70
    0
  9
$DIMTFAC
 40
1
  9
$DIMGAP
 40
0.625
  9
$DIMJUST
 70
    0
  9
$DIMSD1
 70
    0
  9
$DIMSD2
 70
    0
  9
$DIMTOLJ
 70
    0
  9
$DIMTZIN
 70
    8
  9
$DIMALTZ
 70
    0
  9
$DIMALTTZ
 70
    0
  9
$DIMUPT
 70
    0
  9
$DIMDEC
 70
    2
  9
$DIMTDEC
 70
    2
  9
$DIMALTU
 70
    2
  9
$DIMALTTD
 70
    3
  9
$DIMTXSTY
  7
STANDARD
  9
$DIMAUNIT
 70
    0
  9
$DIMADEC
 70
    0
  9
$DIMALTRND
 40
0
  9
$DIMAZIN
 70
    0
  9
$DIMDSEP
 70
   44
  9
$DIMATFIT
 70
    3
  9
$DIMFRAC
 70
    0
  9
$DIMLDRBLK
  1
STANDARD
  9
$DIMLUNIT
 70
    2
  9
$DIMLWD
 70
   -2
  9
$DIMLWE
 70
   -2
  9
$DIMTMOVE
 70
    0
  9
$DIMFXL
 40
1
  9
$DIMFXLON
 70
    0
  9
$DIMJOGANG
 40
0.7854
  9
$DIMTFILL
 70
    0
  9
$DIMTFILLCLR
 70
    0
  9
$DIMARCSYM
 70
    0
  9
$DIMLTYPE
  6

  9
$DIMLTEX1
  6

  9
$DIMLTEX2
  6

  9
$LUNITS
 70
    2
  9
$LUPREC
 70
    4
  9
$SKETCHINC
 40
1
  9
$FILLETRAD
 40
0
  9
$AUNITS
 70
    0
  9
$AUPREC
 70
    2
  9
$MENU
  1
.
  9
$ELEVATION
 40
0
  9
$PELEVATION
 40
0
  9
$THICKNESS
 40
0
  9
$LIMCHECK
 70
    0
  9
$CHAMFERA
 40
0
  9
$CHAMFERB
 40
0
  9
$CHAMFERC
 40
0
  9
$CHAMFERD
 40
0
  9
$SKPOLY
 70
    0
  9
$USRTIMER
 70
    1
  9
$ANGBASE
 50
0
  9
$ANGDIR
 70
    0
  9
$PDMODE
 70
   34
  9
$PDSIZE
 40
0
  9
$PLINEWID
 40
0
  9
$SPLFRAME
 70
    0
  9
$SPLINETYPE
 70
    2
  9
$SPLINESEGS
 70
    8
  9
$HANDSEED
  5
20000
  9
$SURFTAB1
 70
    6
  9
$SURFTAB2
 70
    6
  9
$SURFTYPE
 70
    6
  9
$SURFU
 70
    6
  9
$SURFV
 70
    6
  9
$UCSBASE
  2

  9
$UCSNAME
  2

  9
$UCSORG
 10
0
 20
0
 30
0
  9
$UCSXDIR
 10
1
 20
0
 30
0
  9
$UCSYDIR
 10
0
 20
1
 30
0
  9
$UCSORTHOREF
  2

  9
$UCSORTHOVIEW
 70
    0
  9
$UCSORGTOP
 10
0
 20
0
 30
0
  9
$UCSORGBOTTOM
 10
0
 20
0
 30
0
  9
$UCSORGLEFT
 10
0
 20
0
 30
0
  9
$UCSORGRIGHT
 10
0
 20
0
 30
0
  9
$UCSORGFRONT
 10
0
 20
0
 30
0
  9
$UCSORGBACK
 10
0
 20
0
 30
0
  9
$PUCSBASE
  2

  9
$PUCSNAME
  2

  9
$PUCSORG
 10
0
 20
0
 30
0
  9
$PUCSXDIR
 10
1
 20
0
 30
0
  9
$PUCSYDIR
 10
0
 20
1
 30
0
  9
$PUCSORTHOREF
  2

  9
$PUCSORTHOVIEW
 70
    0
  9
$PUCSORGTOP
 10
0
 20
0
 30
0
  9
$PUCSORGBOTTOM
 10
0
 20
0
 30
0
  9
$PUCSORGLEFT
 10
0
 20
0
 30
0
  9
$PUCSORGRIGHT
 10
0
 20
0
 30
0
  9
$PUCSORGFRONT
 10
0
 20
0
 30
0
  9
$PUCSORGBACK
 10
0
 20
0
 30
0
  9
$USERI1
 70
    0
  9
$USERI2
 70
    0
  9
$USERI3
 70
    0
  9
$USERI4
 70
    0
  9
$USERI5
 70
    0
  9
$USERR1
 40
0
  9
$USERR2
 40
0
  9
$USERR3
 40
0
  9
$USERR4
 40
0
  9
$USERR5
 40
0
  9
$WORLDVIEW
 70
    1
  9
$SHADEDGE
 70
    3
  9
$SHADEDIF
 70
   70
  9
$TILEMODE
 70
    1
  9
$MAXACTVP
 70
   64
  9
$PINSBASE
 10
0
 20
0
 30
0
  9
$PLIMCHECK
 70
    0
  9
$PEXTMIN
 10
0
 20
0
 30
0
  9
$PEXTMAX
 10
0
 20
0
 30
0
  9
$GRIDMODE
 70
    1
  9
$SNAPSTYLE
 70
    0
  9
$PLIMMIN
 10
0
 20
0
  9
$PLIMMAX
 10
210
 20
297
  9
$UNITMODE
 70
    0
  9
$VISRETAIN
 70
    1
  9
$PLINEGEN
 70
    0
  9
$PSLTSCALE
 70
    1
  9
$TREEDEPTH
 70
 3020
  9
$CMLSTYLE
  2
Standard
  9
$CMLJUST
 70
    0
  9
$CMLSCALE
 40
20
  9
$PROXYGRAPHICS
 70
    1
  9
$MEASUREMENT
 70
    1
  9
$CELWEIGHT
370
   -1
  9
$ENDCAPS
280
    0
  9
$JOINSTYLE
280
    0
  9
$LWDISPLAY
290
    0
  9
$INSUNITS
 70
    4
  9
$HYPERLINKBASE
  1

  9
$STYLESHEET
  1

  9
$XEDIT
290
    1
  9
$CEPSNTYPE
380
    0
  9
$PSTYLEMODE
290
    1
  9
$EXTNAMES
290
    1
  9
$PSVPSCALE
 40
1
  9
$OLESTARTUP
290
    0
  9
$SORTENTS
280
  127
  9
$INDEXCTL
280
    0
  9
$HIDETEXT
280
    1
  9
$XCLIPFRAME
290
    0
  9
$HALOGAP
280
    0
  9
$OBSCOLOR
 70
  257
  9
$OBSLTYPE
280
    0
  9
$INTERSECTIONDISPLAY
280
    0
  9
$INTERSECTIONCOLOR
 70
  257
  9
$DIMASSOC
280
    1
  9
$PROJECTNAME
  1

  9
$CAMERADISPLAY
290
    0
  9
$LENSLENGTH
 40
50
  9
$CAMERAHEIGHT
 40
0
  9
$STEPSPERSEC
 40
2
  9
$STEPSIZE
 40
50
  9
$3DDWFPREC
 40
2
  9
$PSOLWIDTH
 40
5
  9
$PSOLHEIGHT
 40
80
  9
$LOFTANG1
 40
1.570796326794897
  9
$LOFTANG2
 40
1.570796326794897
  9
$LOFTMAG1
 40
0
  9
$LOFTMAG2
 40
0
  9
$LOFTPARAM
 70
    7
  9
$LOFTNORMALS
280
    1
  9
$LATITUDE
 40
1
  9
$LONGITUDE
 40
1
  9
$NORTHDIRECTION
 40
0
  9
$TIMEZONE
 70
-8000
  9
$LIGHTGLYPHDISPLAY
280
    1
  9
$TILEMODELIGHTSYNCH
280
    1
  9
$SOLIDHIST
280
    1
  9
$SHOWHIST
280
    1
  9
$DWFFRAME
280
    2
  9
$DGNFRAME
280
    0
  9
$REALWORLDSCALE
290
    1
  9
$INTERFERECOLOR
 62
    1
  9
$CSHADOW
280
    0
  9
$SHADOWPLANELOCATION
 40
0
  0
ENDSEC
  0
SECTION
  2
CLASSES
  0
ENDSEC
  0
SECTION
  2
TABLES
  0
TABLE
  2
VPORT
  5
8
330
0
100
AcDbSymbolTable
 70
    1
  0
VPORT
  5
31
330
2
100
AcDbSymbolTableRecord
100
AcDbViewportTableRecord
  2
*ACTIVE
 70
    0
 10
0
 20
0
 11
1
 21
1
 12
140.3006978175565
 22
69.54105230563313
 13
0
 23
0
 14
10
 24
10
 15
10
 25
10
 16
0
 26
0
 36
1
 17
0
 27
0
 37
0
 40
196.2747457598243
 41
1.855960264900662
 42
50
 43
0
 44
0
 50
0
 51
0
 71
    0
 72
  100
 73
    1
 74
    3
 75
    0
 76
    1
 77
    0
 78
    0
281
    0
 65
    1
110
0
120
0
130
0
111
1
121
0
131
0
112
0
122
1
132
0
 79
    0
146
0
348
10020
 60
    7
 61
    5
292
1
282
    1
141
0
142
0
 63
  250
421
3358443
  0
ENDTAB
  0
TABLE
  2
LTYPE
  5
5
330
0
100
AcDbSymbolTable
 70
    4
  0
LTYPE
  5
14
330
5
100
AcDbSymbolTableRecord
100
AcDbLinetypeTableRecord
  2
ByBlock
 70
    0
  3

 72
   65
 73
    0
 40
0
  0
LTYPE
  5
15
330
5
100
AcDbSymbolTableRecord
100
AcDbLinetypeTableRecord
  2
ByLayer
 70
    0
  3

 72
   65
 73
    0
 40
0
  0
LTYPE
  5
16
330
5
100
AcDbSymbolTableRecord
100
AcDbLinetypeTableRecord
  2
Continuous
 70
    0
  3
Solid line
 72
   65
 73
    0
 40
0
  0
LTYPE
  5
32
330
5
100
AcDbSymbolTableRecord
100
AcDbLinetypeTableRecord
  2
DOT
 70
    0
  3
Dot . . . . . . . . . . . . . . . . . . . . . .
 72
   65
 73
    2
 40
6.35
 49
0
 74
    0
 49
-6.35
 74
    0
  0
LTYPE
  5
33
330
5
100
AcDbSymbolTableRecord
100
AcDbLinetypeTableRecord
  2
DOTTINY
 70
    0
  3
Dot (.15x) .....................................
 72
   65
 73
    2
 40
0.9525
 49
0
 74
    0
 49
-0.9525
 74
    0
  0
LTYPE
  5
34
330
5
100
AcDbSymbolTableRecord
100
AcDbLinetypeTableRecord
  2
DOT2
 70
    0
  3
Dot (.5x) .....................................
 72
   65
 73
    2
 40
3.175
 49
0
 74
    0
 49
-3.175
 74
    0
  0
LTYPE
  5
35
330
5
100
AcDbSymbolTableRecord
100
AcDbLinetypeTableRecord
  2
DOTX2
 70
    0
  3
Dot (2x) .  .  .  .  .  .  .  .  .  .  .  .  .
 72
   65
 73
    2
 40
12.7
 49
0
 74
    0
 49
-12.7
 74
    0
  0
LTYPE
  5
36
330
5
100
AcDbSymbolTableRecord
100
AcDbLinetypeTableRecord
  2
DASHED
 70
    0
  3
Dashed _ _ _ _ _ _ _ _ _ _ _ _ _ _ _ _ _
 72
   65
 73
    2
 40
19.05
 49
12.7
 74
    0
 49
-6.35
 74
    0
  0
LTYPE
  5
37
330
5
100
AcDbSymbolTableRecord
100
AcDbLinetypeTableRecord
  2
DASHEDTINY
 70
    0
  3
Dashed (.15x) _ _ _ _ _ _ _ _ _ _ _ _ _ _ _ _ _
 72
   65
 73
    2
 40
2.8575
 49
1.905
 74
    0
 49
-0.9525
 74
    0
  0
LTYPE
  5
38
330
5
100
AcDbSymbolTableRecord
100
AcDbLinetypeTableRecord
  2
DASHED2
 70
    0
  3
Dashed (.5x) _ _ _ _ _ _ _ _ _ _ _ _ _ _ _ _ _
 72
   65
 73
    2
 40
9.524999999999999
 49
6.35
 74
    0
 49
-3.175
 74
    0
  0
LTYPE
  5
39
330
5
100
AcDbSymbolTableRecord
100
AcDbLinetypeTableRecord
  2
DASHEDX2
 70
    0
  3
Dashed (2x) ____  ____  ____  ____  ____  ___
 72
   65
 73
    2
 40
38.09999999999999
 49
25.4
 74
    0
 49
-12.7
 74
    0
  0
LTYPE
  5
3A
330
5
100
AcDbSymbolTableRecord
100
AcDbLinetypeTableRecord
  2
DASHDOT
 70
    0
  3
Dash dot __ . __ . __ . __ . __ . __ . __ . __
 72
   65
 73
    4
 40
25.4
 49
12.7
 74
    0
 49
-6.35
 74
    0
 49
0
 74
    0
 49
-6.35
 74
    0
  0
LTYPE
  5
3B
330
5
100
AcDbSymbolTableRecord
100
AcDbLinetypeTableRecord
  2
DASHDOTTINY
 70
    0
  3
Dash dot (.15x) _._._._._._._._._._._._._._._.
 72
   65
 73
    4
 40
3.81
 49
1.905
 74
    0
 49
-0.9525
 74
    0
 49
0
 74
    0
 49
-0.9525
 74
    0
  0
LTYPE
  5
3C
330
5
100
AcDbSymbolTableRecord
100
AcDbLinetypeTableRecord
  2
DASHDOT2
 70
    0
  3
Dash dot (.5x) _._._._._._._._._._._._._._._.
 72
   65
 73
    4
 40
12.7
 49
6.35
 74
    0
 49
-3.175
 74
    0
 49
0
 74
    0
 49
-3.175
 74
    0
  0
LTYPE
  5
3D
330
5
100
AcDbSymbolTableRecord
100
AcDbLinetypeTableRecord
  2
DASHDOTX2
 70
    0
  3
Dash dot (2x) ____  .  ____  .  ____  .  ___
 72
   65
 73
    4
 40
50.8
 49
25.4
 74
    0
 49
-12.7
 74
    0
 49
0
 74
    0
 49
-12.7
 74
    0
  0
LTYPE
  5
3E
330
5
100
AcDbSymbolTableRecord
100
AcDbLinetypeTableRecord
  2
DIVIDE
 70
    0
  3
Divide ____ . . ____ . . ____ . . ____ . . ____
 72
   65
 73
    6
 40
31.75
 49
12.7
 74
    0
 49
-6.35
 74
    0
 49
0
 74
    0
 49
-6.35
 74
    0
 49
0
 74
    0
 49
-6.35
 74
    0
  0
LTYPE
  5
3F
330
5
100
AcDbSymbolTableRecord
100
AcDbLinetypeTableRecord
  2
DIVIDETINY
 70
    0
  3
Divide (.15x) __..__..__..__..__..__..__..__.._
 72
   65
 73
    6
 40
4.7625
 49
1.905
 74
    0
 49
-0.9525
 74
    0
 49
0
 74
    0
 49
-0.9525
 74
    0
 49
0
 74
    0
 49
-0.9525
 74
    0
  0
LTYPE
  5
40
330
5
100
AcDbSymbolTableRecord
100
AcDbLinetypeTableRecord
  2
DIVIDE2
 70
    0
  3
Divide (.5x) __..__..__..__..__..__..__..__.._
 72
   65
 73
    6
 40
15.875
 49
6.35
 74
    0
 49
-3.175
 74
    0
 49
0
 74
    0
 49
-3.175
 74
    0
 49
0
 74
    0
 49
-3.175
 74
    0
  0
LTYPE
  5
41
330
5
100
AcDbSymbolTableRecord
100
AcDbLinetypeTableRecord
  2
DIVIDEX2
 70
    0
  3
Divide (2x) ________  .  .  ________  .  .  _
 72
   65
 73
    6
 40
63.5
 49
25.4
 74
    0
 49
-12.7
 74
    0
 49
0
 74
    0
 49
-12.7
 74
    0
 49
0
 74
    0
 49
-12.7
 74
    0
  0
LTYPE
  5
42
330
5
100
AcDbSymbolTableRecord
100
AcDbLinetypeTableRecord
  2
BORDER
 70
    0
  3
Border __ __ . __ __ . __ __ . __ __ . __ __ .
 72
   65
 73
    6
 40
44.45
 49
12.7
 74
    0
 49
-6.35
 74
    0
 49
12.7
 74
    0
 49
-6.35
 74
    0
 49
0
 74
    0
 49
-6.35
 74
    0
  0
LTYPE
  5
43
330
5
100
AcDbSymbolTableRecord
100
AcDbLinetypeTableRecord
  2
BORDERTINY
 70
    0
  3
Border (.15x) __.__.__.__.__.__.__.__.__.__.__.
 72
   65
 73
    6
 40
6.6675
 49
1.905
 74
    0
 49
-0.9525
 74
    0
 49
1.905
 74
    0
 49
-0.9525
 74
    0
 49
0
 74
    0
 49
-0.9525
 74
    0
  0
LTYPE
  5
44
330
5
100
AcDbSymbolTableRecord
100
AcDbLinetypeTableRecord
  2
BORDER2
 70
    0
  3
Border (.5x) __.__.__.__.__.__.__.__.__.__.__.
 72
   65
 73
    6
 40
22.225
 49
6.35
 74
    0
 49
-3.175
 74
    0
 49
6.35
 74
    0
 49
-3.175
 74
    0
 49
0
 74
    0
 49
-3.175
 74
    0
  0
LTYPE
  5
45
330
5
100
AcDbSymbolTableRecord
100
AcDbLinetypeTableRecord
  2
BORDERX2
 70
    0
  3
Border (2x) ____  ____  .  ____  ____  .  ___
 72
   65
 73
    6
 40
88.89999999999999
 49
25.4
 74
    0
 49
-12.7
 74
    0
 49
25.4
 74
    0
 49
-12.7
 74
    0
 49
0
 74
    0
 49
-12.7
 74
    0
  0
LTYPE
  5
46
330
5
100
AcDbSymbolTableRecord
100
AcDbLinetypeTableRecord
  2
CENTER
 70
    0
  3
Center ____ _ ____ _ ____ _ ____ _ ____ _ ____
 72
   65
 73
    4
 40
50.8
 49
31.75
 74
    0
 49
-6.35
 74
    0
 49
6.35
 74
    0
 49
-6.35
 74
    0
  0
LTYPE
  5
47
330
5
100
AcDbSymbolTableRecord
100
AcDbLinetypeTableRecord
  2
CENTERTINY
 70
    0
  3
Center (.15x) ___ _ ___ _ ___ _ ___ _ ___ _ ___
 72
   65
 73
    4
 40
7.62
 49
4.7625
 74
    0
 49
-0.9525
 74
    0
 49
0.9525
 74
    0
 49
-0.9525
 74
    0
  0
LTYPE
  5
48
330
5
100
AcDbSymbolTableRecord
100
AcDbLinetypeTableRecord
  2
CENTER2
 70
    0
  3
Center (.5x) ___ _ ___ _ ___ _ ___ _ ___ _ ___
 72
   65
 73
    4
 40
28.575
 49
19.05
 74
    0
 49
-3.175
 74
    0
 49
3.175
 74
    0
 49
-3.175
 74
    0
  0
LTYPE
  5
49
330
5
100
AcDbSymbolTableRecord
100
AcDbLinetypeTableRecord
  2
CENTERX2
 70
    0
  3
Center (2x) ________  __  ________  __  _____
 72
   65
 73
    4
 40
101.6
 49
63.5
 74
    0
 49
-12.7
 74
    0
 49
12.7
 74
    0
 49
-12.7
 74
    0
  0
ENDTAB
  0
TABLE
  2
LAYER
  5
2
330
0
100
AcDbSymbolTable
 70
    1
  0
LAYER
  5
10
330
2
100
AcDbSymbolTableRecord
100
AcDbLayerTableRecord
  2
0
 70
    0
 62
    7
  6
CONTINUOUS
370
    0
390
F
  0
LAYER
  5
4A
330
2
100
AcDbSymbolTableRecord
100
AcDbLayerTableRecord
  2
Ref
 70
    0
 62
  136
420
32896
  6
CONTINUOUS
370
    0
390
F
  0
LAYER
  5
4B
330
2
100
AcDbSymbolTableRecord
100
AcDbLayerTableRecord
  2
edge2
 70
    0
 62
    4
  6
CONTINUOUS
370
    0
390
F
  0
LAYER
  5
4C
330
2
100
AcDbSymbolTableRecord
100
AcDbLayerTableRecord
  2
keycap guide
 70
    0
 62
  216
420
8388736
  6
CONTINUOUS
290
0
370
    0
390
F
  0
ENDTAB
  0
TABLE
  2
STYLE
  5
3
330
0
100
AcDbSymbolTable
 70
    3
  0
STYLE
  5
4D
330
2
100
AcDbSymbolTableRecord
100
AcDbTextStyleTableRecord
  2
STANDARD
 70
    0
 40
0
 41
1
 50
0
 71
    0
 42
1
  3
STANDARD
  4

  0
ENDTAB
  0
TABLE
  2
VIEW
  5
6
330
0
100
AcDbSymbolTable
 70
    0
  0
ENDTAB
  0
TABLE
  2
UCS
  5
7
330
0
100
AcDbSymbolTable
 70
    0
  0
ENDTAB
  0
TABLE
  2
APPID
  5
9
330
0
100
AcDbSymbolTable
 70
    1
  0
APPID
  5
12
330
9
100
AcDbSymbolTableRecord
100
AcDbRegAppTableRecord
  2
ACAD
 70
    0
  0
APPID
  5
4E
330
9
100
AcDbSymbolTableRecord
100
AcDbRegAppTableRecord
  2
LibreCad
 70
    0
  0
ENDTAB
  0
TABLE
  2
DIMSTYLE
  5
A
330
0
100
AcDbSymbolTable
 70
    1
100
AcDbDimStyleTable
 71
    1
  0
DIMSTYLE
105
4F
330
A
100
AcDbSymbolTableRecord
100
AcDbDimStyleTableRecord
  2
Standard
 70
    0
 40
2.5
 41
2.5
 42
0.625
 43
0.38
 44
1.25
 45
0
 46
0
 47
0
 48
0
 49
1
140
2.5
141
0.09
142
0
143
25.4
144
1
145
0
146
1
147
0.625
148
0
 71
    0
 72
    0
 73
    0
 74
    1
 75
    0
 76
    0
 77
    0
 78
    8
 79
    0
170
    0
171
    2
172
    0
173
    0
174
    0
175
    0
176
    0
177
    0
178
    0
179
    0
271
    2
272
    4
273
    2
274
    2
275
    0
276
    0
277
    2
278
   44
279
    0
280
    0
281
    0
282
    0
283
    1
284
    0
285
    0
286
    0
288
    0
289
    3
340
STANDARD
341

371
   -2
372
   -2
  0
ENDTAB
  0
TABLE
  2
BLOCK_RECORD
  5
1
330
0
100
AcDbSymbolTable
 70
    2
  0
BLOCK_RECORD
  5
1F
330
1
100
AcDbSymbolTableRecord
100
AcDbBlockTableRecord
  2
*Model_Space
 70
    0
280
    1
281
    0
  0
BLOCK_RECORD
  5
1E
330
1
100
AcDbSymbolTableRecord
100
AcDbBlockTableRecord
  2
*Paper_Space
 70
    0
280
    1
281
    0
  0
ENDTAB
  0
ENDSEC
  0
SECTION
  2
BLOCKS
  0
BLOCK
  5
20
330
1F
100
AcDbEntity
  8
0
100
AcDbBlockBegin
  2
*Model_Space
 70
    0
 10
0
 20
0
 30
0
  3
*Model_Space
  1

  0
ENDBLK
  5
21
330
1F
100
AcDbEntity
  8
0
100
AcDbBlockEnd
  0
BLOCK
  5
1C
330
1B
100
AcDbEntity
  8
0
100
AcDbBlockBegin
  2
*Paper_Space
 70
    0
 10
0
 20
0
 30
0
  3
*Paper_Space
  1

  0
ENDBLK
  5
1D
330
1F
100
AcDbEntity
  8
0
100
AcDbBlockEnd
  0
ENDSEC
  0
SECTION
  2
ENTITIES
  0
LWPOLYLINE
  5
50
100
AcDbEntity
  8
0
  6
ByLayer
 62
  256
370
   -1
100
AcDbPolyline
 90
    4
 70
    1
 43
0
 10
73.92847380872605
 20
40.13286424495242
 10
87.92847380872608
 20
40.13286424495244
 10
87.92847380872614
 20
54.13286424495248
 10
73.92847380872598
 20
54.13286424495242
  0
LWPOLYLINE
  5
51
100
AcDbEntity
  8
0
  6
ByLayer
 62
  256
370
   -1
100
AcDbPolyline
 90
    4
 70
    1
 43
0
 10
73.92847380872605
 20
57.15286424495242
 10
87.92847380872607
 20
57.15286424495241
 10
87.92847380872603
 20
71.15286424495238
 10
73.92847380872611
 20
71.15286424495241
  0
LWPOLYLINE
  5
52
100
AcDbEntity
  8
0
  6
ByLayer
 62
  256
370
   -1
100
AcDbPolyline
 90
    4
 70
    1
 43
0
 10
73.92847380872605
 20
74.17286424495242
 10
87.92847380872607
 20
74.17286424495242
 10
87.92847380872614
 20
88.17286424495245
 10
73.92847380872601
 20
88.17286424495242
  0
LWPOLYLINE
  5
53
100
AcDbEntity
  8
0
  6
ByLayer
 62
  256
370
   -1
100
AcDbPolyline
 90
    4
 70
    1
 43
0
 10
54.2850488739651
 20
40.08600219783655
 10
68.24246476823923
 20
41.17712160205583
 10
67.1513453640199
 20
55.13453749632993
 10
53.1939294697458
 20
54.04341809211067
  0
LWPOLYLINE
  5
54
100
AcDbEntity
  8
0
  6
ByLayer
 62
  256
370
   -1
100
AcDbPolyline
 90
    4
 70
    1
 43
0
 10
52.95855942683558
 20
57.05423209216121
 10
66.9159753211097
 20
58.14535149638046
 10
65.82485591689051
 20
72.10276739065463
 10
51.8674400226164
 20
71.01164798643535
  0
LWPOLYLINE
  5
55
100
AcDbEntity
  8
0
  6
ByLayer
 62
  256
370
   -1
100
AcDbPolyline
 90
    4
 70
    1
 43
0
 10
51.63206997970618
 20
74.02246198648591
 10
65.58948587398028
 20
75.11358139070516
 10
64.49836646976098
 20
89.07099728497928
 10
50.54095057548688
 20
87.97987788076004
  0
LWPOLYLINE
  5
56
100
AcDbEntity
  8
0
  6
ByLayer
 62
  256
370
   -1
100
AcDbPolyline
 90
    4
 70
    1
 43
0
 10
107.6836033747724
 20
13.34410902304839
 10
119.3714734604601
 20
5.637378661858483
 10
127.07820382165
 20
17.32524874754617
 10
115.3903337359623
 20
25.03197910873607
  0
LWPOLYLINE
  5
57
100
AcDbEntity
  8
keycap guide
  6
ByLayer
 62
  256
370
   -1
100
AcDbPolyline
 90
    4
 70
    1
 43
0
 10
71.92847380872611
 20
38.62286424495244
 10
89.9284738087261
 20
38.62286424495244
 10
89.9284738087261
 20
55.64286424495243
 10
71.9284738087261
 20
55.64286424495244
  0
LWPOLYLINE
  5
58
100
AcDbEntity
  8
keycap guide
  6
ByLayer
 62
  256
370
   -1
100
AcDbPolyline
 90
    4
 70
    1
 43
0
 10
71.9284738087261
 20
55.64286424495244
 10
89.9284738087261
 20
55.64286424495243
 10
89.9284738087261
 20
72.66286424495244
 10
71.9284738087261
 20
72.66286424495243
  0
LWPOLYLINE
  5
59
100
AcDbEntity
  8
keycap guide
  6
ByLayer
 62
  256
370
   -1
100
AcDbPolyline
 90
    4
 70
    1
 43
0
 10
71.9284738087261
 20
72.66286424495243
 10
89.9284738087261
 20
72.66286424495244
 10
89.9284738087261
 20
89.68286424495246
 10
71.92847380872611
 20
89.68286424495243
  0
LWPOLYLINE
  5
5A
100
AcDbEntity
  8
keycap guide
  6
ByLayer
 62
  256
370
   -1
100
AcDbPolyline
 90
    4
 70
    1
 43
0
 10
52.40881733909524
 20
38.42472099720847
 10
70.3540663460191
 20
39.82758880263325
 10
69.02757689888969
 20
56.79581869695795
 10
51.08232789196583
 20
55.39295089153318
  0
LWPOLYLINE
  5
5B
100
AcDbEntity
  8
keycap guide
  6
ByLayer
 62
  256
370
   -1
100
AcDbPolyline
 90
    4
 70
    1
 43
0
 10
51.08232789196583
 20
55.39295089153318
 10
69.02757689888969
 20
56.79581869695795
 10
67.70108745176027
 20
73.76404859128266
 10
49.75583844483641
 20
72.36118078585784
  0
LWPOLYLINE
  5
5C
100
AcDbEntity
  8
keycap guide
  6
ByLayer
 62
  256
370
   -1
100
AcDbPolyline
 90
    4
 70
    1
 43
0
 10
49.75583844483641
 20
72.3611807858579
 10
67.70108745176027
 20
73.76404859128267
 10
66.37459800463085
 20
90.73227848560738
 10
48.429348997707
 20
89.32941068018255
  0
LWPOLYLINE
  5
5D
100
AcDbEntity
  8
keycap guide
  6
ByLayer
 62
  256
370
   -1
100
AcDbPolyline
 90
    4
 70
    1
 43
0
 10
105.1826817307172
 20
13.18445022969064
 10
120.2099432694586
 20
3.275796908160761
 10
129.5791254657051
 20
17.48490754090389
 10
114.5518639269639
 20
27.39356086243383
  0
LWPOLYLINE
  5
5E
100
AcDbEntity
  8
0
  6
ByLayer
 62
  256
370
   -1
100
AcDbPolyline
 90
    4
 70
    1
 43
0
 10
37.79780055966047
 20
17.61842389681493
 10
51.64903763861563
 20
19.65391680581134
 10
49.61354472961916
 20
33.50515388476664
 10
35.762307650664
 20
31.4696609757702
  0
LWPOLYLINE
  5
5F
100
AcDbEntity
  8
0
  6
ByLayer
 62
  256
370
   -1
100
AcDbPolyline
 90
    4
 70
    1
 43
0
 10
35.32322275172328
 20
34.45757068851623
 10
49.17445983067858
 20
36.49306359751269
 10
47.1389669216821
 20
50.34430067646795
 10
33.28772984272681
 20
48.30880776747154
  0
LWPOLYLINE
  5
60
100
AcDbEntity
  8
0
  6
ByLayer
 62
  256
370
   -1
100
AcDbPolyline
 90
    4
 70
    1
 43
0
 10
32.84864494378623
 20
51.29671748021758
 10
46.69988202274148
 20
53.33221038921405
 10
44.66438911374504
 20
67.18344746816928
 10
30.81315203478975
 20
65.14795455917289
  0
LWPOLYLINE
  5
61
100
AcDbEntity
  8
0
  6
ByLayer
 62
  256
370
   -1
100
AcDbPolyline
 90
    4
 70
    1
 43
0
 10
30.37406713584915
 20
68.13586427191893
 10
44.22530421480432
 20
70.17135718091535
 10
42.18981130580786
 20
84.02259425987064
 10
28.33857422685268
 20
81.98710135087423
  0
LWPOLYLINE
  5
62
100
AcDbEntity
  8
keycap guide
  6
ByLayer
 62
  256
370
   -1
100
AcDbPolyline
 90
    4
 70
    1
 43
0
 10
36.03859485499424
 20
15.83368433915667
 10
53.84732824222244
 20
18.45074665072354
 10
51.3727504342854
 20
35.28989344242486
 10
33.56401704705718
 20
32.672831130858
  0
LWPOLYLINE
  5
63
100
AcDbEntity
  8
keycap guide
  6
ByLayer
 62
  256
370
   -1
100
AcDbPolyline
 90
    4
 70
    1
 43
0
 10
33.56401704705718
 20
32.672831130858
 10
51.3727504342854
 20
35.28989344242486
 10
48.89817262634821
 20
52.12904023412622
 10
31.0894392391201
 20
49.51197792255934
  0
LWPOLYLINE
  5
64
100
AcDbEntity
  8
keycap guide
  6
ByLayer
 62
  256
370
   -1
100
AcDbPolyline
 90
    4
 70
    1
 43
0
 10
31.0894392391201
 20
49.51197792255934
 10
48.89817262634821
 20
52.12904023412622
 10
46.42359481841115
 20
68.96818702582752
 10
28.61486143118292
 20
66.35112471426069
  0
LWPOLYLINE
  5
65
100
AcDbEntity
  8
keycap guide
  6
ByLayer
 62
  256
370
   -1
100
AcDbPolyline
 90
    4
 70
    1
 43
0
 10
28.61486143118292
 20
66.35112471426069
 10
46.42359481841115
 20
68.96818702582752
 10
43.94901701047407
 20
85.80733381752886
 10
26.14028362324587
 20
83.19027150596203
  0
LWPOLYLINE
  5
66
100
AcDbEntity
  8
0
  6
ByLayer
 62
  256
370
   -1
100
AcDbPolyline
 90
    4
 70
    1
 43
0
 10
91.92848073552177
 20
21.40241549426361
 10
105.9284807355218
 20
21.40241549426361
 10
105.9284807355218
 20
35.40241549426365
 10
91.92848073552176
 20
35.40241549426359
  0
LWPOLYLINE
  5
67
100
AcDbEntity
  8
0
  6
ByLayer
 62
  256
370
   -1
100
AcDbPolyline
 90
    4
 70
    1
 43
0
 10
91.92848073552173
 20
38.42241549426365
 10
105.9284807355219
 20
38.42241549426365
 10
105.9284807355217
 20
52.42241549426359
 10
91.92848073552175
 20
52.42241549426357
  0
LWPOLYLINE
  5
68
100
AcDbEntity
  8
0
  6
ByLayer
 62
  256
370
   -1
100
AcDbPolyline
 90
    4
 70
    1
 43
0
 10
91.92848073552173
 20
55.4424154942636
 10
105.9284807355217
 20
55.44241549426356
 10
105.9284807355218
 20
69.4424154942636
 10
91.9284807355218
 20
69.44241549426364
  0
LWPOLYLINE
  5
69
100
AcDbEntity
  8
0
  6
ByLayer
 62
  256
370
   -1
100
AcDbPolyline
 90
    4
 70
    1
 43
0
 10
91.92848073552179
 20
72.46241549426358
 10
105.9284807355218
 20
72.46241549426362
 10
105.9284807355218
 20
86.46241549426371
 10
91.92848073552167
 20
86.46241549426354
  0
LWPOLYLINE
  5
6A
100
AcDbEntity
  8
keycap guide
  6
ByLayer
 62
  256
370
   -1
100
AcDbPolyline
 90
    4
 70
    1
 43
0
 10
89.92848073552169
 20
19.89241549426359
 10
107.9284807355218
 20
19.89241549426361
 10
107.9284807355217
 20
36.91241549426361
 10
89.92848073552177
 20
36.9124154942636
  0
LWPOLYLINE
  5
6B
100
AcDbEntity
  8
keycap guide
  6
ByLayer
 62
  256
370
   -1
100
AcDbPolyline
 90
    4
 70
    1
 43
0
 10
89.92848073552177
 20
36.9124154942636
 10
107.9284807355217
 20
36.91241549426361
 10
107.9284807355218
 20
53.93241549426361
 10
89.92848073552186
 20
53.93241549426363
  0
LWPOLYLINE
  5
6C
100
AcDbEntity
  8
keycap guide
  6
ByLayer
 62
  256
370
   -1
100
AcDbPolyline
 90
    4
 70
    1
 43
0
 10
89.92848073552186
 20
53.93241549426363
 10
107.9284807355218
 20
53.93241549426361
 10
107.9284807355217
 20
70.95241549426359
 10
89.92848073552172
 20
70.95241549426362
  0
LWPOLYLINE
  5
6D
100
AcDbEntity
  8
keycap guide
  6
ByLayer
 62
  256
370
   -1
100
AcDbPolyline
 90
    4
 70
    1
 43
0
 10
89.92848073552172
 20
70.95241549426362
 10
107.9284807355217
 20
70.95241549426359
 10
107.9284807355217
 20
87.97241549426359
 10
89.92848073552179
 20
87.9724154942636
  0
LWPOLYLINE
  5
6E
100
AcDbEntity
  8
0
  6
ByLayer
 62
  256
370
   -1
100
AcDbPolyline
 90
    4
 70
    1
 43
0
 10
73.92847380872603
 20
19.11286424495244
 10
87.92847380872608
 20
19.11286424495243
 10
87.92847380872611
 20
33.11286424495244
 10
73.9284738087261
 20
33.11286424495245
  0
LWPOLYLINE
  5
6F
100
AcDbEntity
  8
keycap guide
  6
ByLayer
 62
  256
370
   -1
100
AcDbPolyline
 90
    4
 70
    1
 43
0
 10
71.92847380872611
 20
17.60286424495242
 10
89.9284738087261
 20
17.60286424495243
 10
89.9284738087261
 20
34.62286424495245
 10
71.92847380872611
 20
34.62286424495244
  0
LWPOLYLINE
  5
70
100
AcDbEntity
  8
0
  6
ByLayer
 62
  256
370
   -1
100
AcDbPolyline
 90
    4
 70
    1
 43
0
 10
56.06151793871173
 20
14.89278249470324
 10
70.01893383298581
 20
15.98390189892252
 10
68.92781442876651
 20
29.94131779319663
 10
54.97039853449241
 20
28.85019838897736
  0
LWPOLYLINE
  5
71
100
AcDbEntity
  8
keycap guide
  6
ByLayer
 62
  256
370
   -1
100
AcDbPolyline
 90
    4
 70
    1
 43
0
 10
54.18528640384185
 20
13.23150129407516
 10
72.13053541076579
 20
14.63436909950002
 10
70.80404596363628
 20
31.60259899382468
 10
52.85879695671242
 20
30.19973118839987
  0
LINE
  5
72
100
AcDbEntity
  8
Ref
  6
ByLayer
 62
  256
370
   -1
100
AcDbLine
 10
73.92847380872601
 20
88.17286424495242
 11
87.92847380872607
 21
74.17286424495242
  0
LINE
  5
73
100
AcDbEntity
  8
Ref
  6
ByLayer
 62
  256
370
   -1
100
AcDbLine
 10
91.92848073552167
 20
86.46241549426354
 11
105.9284807355218
 21
72.46241549426362
  0
LINE
  5
74
100
AcDbEntity
  8
Ref
  6
ByLayer
 62
  256
370
   -1
100
AcDbLine
 10
91.9284807355218
 20
69.44241549426364
 11
105.9284807355217
 21
55.44241549426356
  0
LINE
  5
75
100
AcDbEntity
  8
Ref
  6
ByLayer
 62
  256
370
   -1
100
AcDbLine
 10
91.92848073552175
 20
52.42241549426357
 11
105.9284807355219
 21
38.42241549426365
  0
LINE
  5
76
100
AcDbEntity
  8
Ref
  6
ByLayer
 62
  256
370
   -1
100
AcDbLine
 10
91.92848073552176
 20
35.40241549426359
 11
105.9284807355218
 21
21.40241549426361
  0
LINE
  5
77
100
AcDbEntity
  8
Ref
  6
ByLayer
 62
  256
370
   -1
100
AcDbLine
 10
115.3903337359623
 20
25.03197910873607
 11
119.3714734604601
 21
5.637378661858483
  0
LINE
  5
78
100
AcDbEntity
  8
Ref
  6
ByLayer
 62
  256
370
   -1
100
AcDbLine
 10
87.92847380872611
 20
33.11286424495244
 11
73.92847380872603
 21
19.11286424495244
  0
LINE
  5
79
100
AcDbEntity
  8
Ref
  6
ByLayer
 62
  256
370
   -1
100
AcDbLine
 10
87.92847380872614
 20
54.13286424495248
 11
73.92847380872605
 21
40.13286424495242
  0
LINE
  5
7A
100
AcDbEntity
  8
Ref
  6
ByLayer
 62
  256
370
   -1
100
AcDbLine
 10
73.92847380872605
 20
57.15286424495242
 11
87.92847380872603
 21
71.15286424495238
  0
LINE
  5
7B
100
AcDbEntity
  8
Ref
  6
ByLayer
 62
  256
370
   -1
100
AcDbLine
 10
64.49836646976098
 20
89.07099728497928
 11
51.63206997970618
 21
74.02246198648591
  0
LINE
  5
7C
100
AcDbEntity
  8
Ref
  6
ByLayer
 62
  256
370
   -1
100
AcDbLine
 10
51.8674400226164
 20
71.01164798643535
 11
66.9159753211097
 21
58.14535149638046
  0
LINE
  5
7D
100
AcDbEntity
  8
Ref
  6
ByLayer
 62
  256
370
   -1
100
AcDbLine
 10
67.1513453640199
 20
55.13453749632993
 11
54.2850488739651
 21
40.08600219783655
  0
LINE
  5
7E
100
AcDbEntity
  8
Ref
  6
ByLayer
 62
  256
370
   -1
100
AcDbLine
 10
54.97039853449241
 20
28.85019838897736
 11
70.01893383298581
 21
15.98390189892252
  0
LINE
  5
7F
100
AcDbEntity
  8
Ref
  6
ByLayer
 62
  256
370
   -1
100
AcDbLine
 10
51.64903763861563
 20
19.65391680581134
 11
35.762307650664
 21
31.4696609757702
  0
LINE
  5
80
100
AcDbEntity
  8
Ref
  6
ByLayer
 62
  256
370
   -1
100
AcDbLine
 10
35.32322275172328
 20
34.45757068851623
 11
47.1389669216821
 21
50.34430067646795
  0
LINE
  5
81
100
AcDbEntity
  8
Ref
  6
ByLayer
 62
  256
370
   -1
100
AcDbLine
 10
46.69988202274148
 20
53.33221038921405
 11
30.81315203478975
 21
65.14795455917289
  0
LINE
  5
82
100
AcDbEntity
  8
Ref
  6
ByLayer
 62
  256
370
   -1
100
AcDbLine
 10
30.37406713584915
 20
68.13586427191893
 11
42.18981130580786
 21
84.02259425987064
  0
CIRCLE
  5
83
100
AcDbEntity
  8
Ref
  6
ByLayer
 62
  256
370
   -1
100
AcDbCircle
 10
117.3809035982113
 20
15.33467888529729
 40
4
  0
CIRCLE
  5
84
100
AcDbEntity
  8
Ref
  6
ByLayer
 62
  256
370
   -1
100
AcDbCircle
 10
98.92848073552173
 20
28.40241549426359
 40
4
  0
CIRCLE
  5
85
100
AcDbEntity
  8
Ref
  6
ByLayer
 62
  256
370
   -1
100
AcDbCircle
 10
98.92848073552182
 20
45.42241549426362
 40
4
  0
CIRCLE
  5
86
100
AcDbEntity
  8
Ref
  6
ByLayer
 62
  256
370
   -1
100
AcDbCircle
 10
98.92848073552176
 20
62.4424154942636
 40
4
  0
CIRCLE
  5
87
100
AcDbEntity
  8
Ref
  6
ByLayer
 62
  256
370
   -1
100
AcDbCircle
 10
98.9284807355217
 20
79.46241549426358
 40
4
  0
CIRCLE
  5
88
100
AcDbEntity
  8
Ref
  6
ByLayer
 62
  256
370
   -1
100
AcDbCircle
 10
80.92847380872607
 20
81.17286424495239
 40
4
  0
CIRCLE
  5
89
100
AcDbEntity
  8
Ref
  6
ByLayer
 62
  256
370
   -1
100
AcDbCircle
 10
80.92847380872604
 20
64.1528642449524
 40
4
  0
CIRCLE
  5
8A
100
AcDbEntity
  8
Ref
  6
ByLayer
 62
  256
370
   -1
100
AcDbCircle
 10
80.9284738087261
 20
47.13286424495244
 40
4
  0
CIRCLE
  5
8B
100
AcDbEntity
  8
Ref
  6
ByLayer
 62
  256
370
   -1
100
AcDbCircle
 10
80.92847380872608
 20
26.11286424495244
 40
4
  0
CIRCLE
  5
8C
100
AcDbEntity
  8
Ref
  6
ByLayer
 62
  256
370
   -1
100
AcDbCircle
 10
62.49466618373912
 20
22.41705014394994
 40
4
  0
CIRCLE
  5
8D
100
AcDbEntity
  8
Ref
  6
ByLayer
 62
  256
370
   -1
100
AcDbCircle
 10
60.71819711899251
 20
47.61026984708325
 40
4
  0
CIRCLE
  5
8E
100
AcDbEntity
  8
Ref
  6
ByLayer
 62
  256
370
   -1
100
AcDbCircle
 10
59.39170767186305
 20
64.57849974140791
 40
4
  0
CIRCLE
  5
8F
100
AcDbEntity
  8
Ref
  6
ByLayer
 62
  256
370
   -1
100
AcDbCircle
 10
58.06521822473358
 20
81.54672963573259
 40
4
  0
CIRCLE
  5
90
100
AcDbEntity
  8
Ref
  6
ByLayer
 62
  256
370
   -1
100
AcDbCircle
 10
36.28193922082851
 20
76.0792292658948
 40
4
  0
CIRCLE
  5
91
100
AcDbEntity
  8
Ref
  6
ByLayer
 62
  256
370
   -1
100
AcDbCircle
 10
38.75651702876561
 20
59.24008247419346
 40
4
  0
CIRCLE
  5
92
100
AcDbEntity
  8
Ref
  6
ByLayer
 62
  256
370
   -1
100
AcDbCircle
 10
41.23109483670269
 20
42.40093568249209
 40
4
  0
CIRCLE
  5
93
100
AcDbEntity
  8
Ref
  6
ByLayer
 62
  256
370
   -1
100
AcDbCircle
 10
43.7056726446398
 20
25.56178889079077
 40
4
  0
LWPOLYLINE
  5
94
100
AcDbEntity
  8
keycap guide
  6
ByLayer
 62
  256
370
   -1
100
AcDbPolyline
 90
    4
 70
    1
 43
0
 10
108.5520977401498
 20
28.55822187310368
 10
128.5520977401497
 20
28.55822187310368
 10
128.55209774015
 20
63.55822187310373
 10
108.5520977401498
 20
63.5582218731037
  0
LINE
  5
95
100
AcDbEntity
  8
Ref
  6
ByLayer
 62
  256
370
   -1
100
AcDbLine
 10
108.5520977401498
 20
63.5582218731037
 11
128.5520977401497
 21
28.55822187310368
  0
CIRCLE
  5
96
100
AcDbEntity
  8
Ref
  6
ByLayer
 62
  256
370
   -1
100
AcDbCircle
 10
118.5520977401497
 20
46.05822187310369
 40
4
  0
MTEXT
  5
97
100
AcDbEntity
  8
Ref
  6
ByLayer
 62
  256
370
   -1
100
AcDbMText
 10
145.8603624886725
 20
63.86989458511882
 30
0
 40
3
 41
26.16666666666718
 71
    1
 72
    1
  1
C3 = 4.47deg\P
  7
STANDARD
210
0
220
0
230
1
 50
360
 73
    2
 44
1
  0
MTEXT
  5
98
100
AcDbEntity
  8
Ref
  6
ByLayer
 62
  256
370
   -1
100
AcDbMText
 10
146.0810527506932
 20
56.48673222374561
 30
0
 40
3
 41
25.5000000000007
 71
    1
 72
    1
  1
C2 = 8.36deg
  7
STANDARD
210
0
220
0
230
1
 50
360
 73
    2
 44
1
  0
LINE
  5
99
100
AcDbEntity
  8
Ref
  6
ByLayer
 62
  256
370
   -1
100
AcDbLine
 10
-7.169568332389172
 20
47.18222064553537
 11
2.849389038954857
 21
64.25912004768652
  0
LWPOLYLINE
  5
9A
100
AcDbEntity
  8
0
  6
ByLayer
 62
  256
370
   -1
100
AcDbPolyline
 90
    4
 70
    1
 43
0
 10
1.584782767199679
 20
13.05780407603303
 10
15.0012988097115
 20
17.05744121970266
 10
11.00166166604185
 20
30.47395726221454
 10
-2.414854376470009
 20
26.47432011854491
  0
LWPOLYLINE
  5
9B
100
AcDbEntity
  8
0
  6
ByLayer
 62
  256
370
   -1
100
AcDbPolyline
 90
    4
 70
    1
 43
0
 10
-3.27763324603294
 20
29.36845429342959
 10
10.13888279647886
 20
33.36809143709925
 10
6.139245652809203
 20
46.78460747961112
 10
-7.277270389702605
 20
42.78497033594149
  0
LWPOLYLINE
  5
9C
100
AcDbEntity
  8
0
  6
ByLayer
 62
  256
370
   -1
100
AcDbPolyline
 90
    4
 70
    1
 43
0
 10
-8.140049259265634
 20
45.67910451082624
 10
5.276466783246226
 20
49.67874165449579
 10
1.276829639576625
 20
63.0952576970077
 10
-12.13968640293531
 20
59.09562055333808
  0
LWPOLYLINE
  5
9D
100
AcDbEntity
  8
keycap guide
  6
ByLayer
 62
  256
370
   -1
100
AcDbPolyline
 90
    4
 70
    1
 43
0
 10
0.0995270530508946
 20
11.03936025378074
 10
17.34933339342329
 20
16.18175086707024
 10
12.4869173801907
 20
32.49240108446683
 10
-4.762888960181741
 20
27.35001047117731
  0
LWPOLYLINE
  5
9E
100
AcDbEntity
  8
keycap guide
  6
ByLayer
 62
  256
370
   -1
100
AcDbPolyline
 90
    4
 70
    1
 43
0
 10
-4.762888960181741
 20
27.35001047117731
 10
12.4869173801907
 20
32.49240108446683
 10
7.624501366958006
 20
48.80305130186339
 10
-9.625304973414389
 20
43.66066068857388
  0
LWPOLYLINE
  5
9F
100
AcDbEntity
  8
keycap guide
  6
ByLayer
 62
  256
370
   -1
100
AcDbPolyline
 90
    4
 70
    1
 43
0
 10
-9.625304973414389
 20
43.66066068857388
 10
7.624501366958006
 20
48.80305130186339
 10
2.762085353725353
 20
65.11370151925998
 10
-14.48772098664703
 20
59.97131090597043
  0
LINE
  5
A0
100
AcDbEntity
  8
Ref
  6
ByLayer
 62
  256
370
   -1
100
AcDbLine
 10
1.584782767199679
 20
13.05780407603303
 11
11.00166166604185
 21
30.47395726221454
  0
LINE
  5
A1
100
AcDbEntity
  8
Ref
  6
ByLayer
 62
  256
370
   -1
100
AcDbLine
 10
10.13888279647886
 20
33.36809143709925
 11
-7.277270389702605
 21
42.78497033594149
  0
CIRCLE
  5
A2
100
AcDbEntity
  8
Ref
  6
ByLayer
 62
  256
370
   -1
100
AcDbCircle
 10
-3.431609809844495
 20
54.38718110391695
 40
4
  0
CIRCLE
  5
A3
100
AcDbEntity
  8
Ref
  6
ByLayer
 62
  256
370
   -1
100
AcDbCircle
 10
1.430806203388137
 20
38.07653088652035
 40
4
  0
CIRCLE
  5
A4
100
AcDbEntity
  8
Ref
  6
ByLayer
 62
  256
370
   -1
100
AcDbCircle
 10
6.293222216620777
 20
21.7658806691238
 40
4
  0
ARC
  5
A5
100
AcDbEntity
  8
edge2
  6
ByLayer
 62
  256
370
   -1
100
AcDbCircle
 10
-3.010896655615369
 20
64.07420799333667
 40
16
100
AcDbArc
 50
111.9883876400853
 51
187.1217257677599
  0
ARC
  5
A6
100
AcDbEntity
  8
edge2
  6
ByLayer
 62
  256
370
   -1
100
AcDbCircle
 10
13.22252870235793
 20
11.34731776738369
 40
16
100
AcDbArc
 50
207.103121657491
 51
293.8384175207948
  0
ARC
  5
A7
100
AcDbEntity
  8
Ref
  6
ByLayer
 62
  256
370
   -1
100
AcDbCircle
 10
-3.010896655615369
 20
64.07420799333667
 40
12
100
AcDbArc
 50
111.9883876400853
 51
187.1217257677599
  0
ARC
  5
A8
100
AcDbEntity
  8
Ref
  6
ByLayer
 62
  256
370
   -1
100
AcDbCircle
 10
154.7624181178095
 20
83.78666967131605
 40
171
100
AcDbArc
 50
187.1217257677599
 51
207.1031216574909
  0
ARC
  5
A9
100
AcDbEntity
  8
Ref
  6
ByLayer
 62
  256
370
   -1
100
AcDbCircle
 10
13.22252870235793
 20
11.34731776738369
 40
12
100
AcDbArc
 50
207.103121657491
 51
293.8384175207948
  0
ARC
  5
AA
100
AcDbEntity
  8
Ref
  6
ByLayer
 62
  256
370
   -1
100
AcDbCircle
 10
71.92847380872585
 20
-121.5155293115935
 40
133.2546871008422
100
AcDbArc
 50
71.79913411532392
 51
113.8384175207948
  0
ARC
  5
AB
100
AcDbEntity
  8
edge2
  6
ByLayer
 62
  256
370
   -1
100
AcDbCircle
 10
154.7624181178095
 20
83.78666967131605
 40
175
100
AcDbArc
 50
187.1217257677599
 51
207.1031216574909
  0
ARC
  5
AC
100
AcDbEntity
  8
edge2
  6
ByLayer
 62
  256
370
   -1
100
AcDbCircle
 10
71.92847380872585
 20
-121.5155293115935
 40
216.148594395526
100
AcDbArc
 50
75.59514867587399
 51
111.9883876400853
  0
ARC
  5
AD
100
AcDbEntity
  8
edge2
  6
ByLayer
 62
  256
370
   -1
100
AcDbCircle
 10
121.7198194662977
 20
72.34081372652577
 40
16
100
AcDbArc
 50
5.547620892197611
 51
75.59514867587403
  0
ARC
  5
AE
100
AcDbEntity
  8
edge2
  6
ByLayer
 62
  256
370
   -1
100
AcDbCircle
 10
71.92847380872585
 20
-121.5155293115935
 40
129.2546871008422
100
AcDbArc
 50
71.82899535992274
 51
113.8384175207948
  0
ARC
  5
AF
100
AcDbEntity
  8
edge2
  6
ByLayer
 62
  256
370
   -1
100
AcDbCircle
 10
-36.53545525238795
 20
56.96980127732967
 40
175
100
AcDbArc
 50
345.2526880632216
 51
5.547620892197611
  0
ARC
  5
B0
100
AcDbEntity
  8
edge2
  6
ByLayer
 62
  256
370
   -1
100
AcDbCircle
 10
117.2267480875389
 20
16.49530530701531
 40
16
100
AcDbArc
 50
251.8289953599227
 51
345.2526880632216
  0
ARC
  5
B1
100
AcDbEntity
  8
Ref
  6
ByLayer
 62
  256
370
   -1
100
AcDbCircle
 10
121.7198194662977
 20
72.34081372652577
 40
12
100
AcDbArc
 50
5.547620892197611
 51
75.59514867587403
  0
ARC
  5
B2
100
AcDbEntity
  8
Ref
  6
ByLayer
 62
  256
370
   -1
100
AcDbCircle
 10
-36.53545525238795
 20
56.96980127732967
 40
171
100
AcDbArc
 50
345.2526880632216
 51
5.547620892197611
  0
ARC
  5
B3
100
AcDbEntity
  8
Ref
  6
ByLayer
 62
  256
370
   -1
100
AcDbCircle
 10
117.2267480875389
 20
16.49530530701531
 40
12
100
AcDbArc
 50
251.8289953599227
 51
345.2526880632216
  0
ARC
  5
B4
100
AcDbEntity
  8
Ref
  6
ByLayer
 62
  256
370
   -1
100
AcDbCircle
 10
71.92847380872585
 20
-121.5155293115935
 40
212.148594395526
100
AcDbArc
 50
75.59514867587399
 51
111.9883876400853
  0
LWPOLYLINE
  5
B5
100
AcDbEntity
  8
0
  6
ByLayer
 62
  256
370
   -1
100
AcDbPolyline
 90
    4
 70
    1
 43
0
 10
18.83458910757212
 20
18.20019468932257
 10
32.251105150084
 20
22.19983183299221
 10
28.25146800641433
 20
35.61634787550408
 10
14.83495196390251
 20
31.61671073183443
  0
LWPOLYLINE
  5
B6
100
AcDbEntity
  8
0
  6
ByLayer
 62
  256
370
   -1
100
AcDbPolyline
 90
    4
 70
    1
 43
0
 10
13.97217309433947
 20
34.51084490671909
 10
27.38868913685137
 20
38.51048205038873
 10
23.38905199318165
 20
51.92699809290063
 10
9.972535950669888
 20
47.92736094923101
  0
LWPOLYLINE
  5
B7
100
AcDbEntity
  8
0
  6
ByLayer
 62
  256
370
   -1
100
AcDbPolyline
 90
    4
 70
    1
 43
0
 10
9.109757081106848
 20
50.82149512411571
 10
22.52627312361865
 20
54.82113226778534
 10
18.52663597994909
 20
68.23764831029717
 10
5.11011993743716
 20
64.23801116662753
  0
LWPOLYLINE
  5
B8
100
AcDbEntity
  8
keycap guide
  6
ByLayer
 62
  256
370
   -1
100
AcDbPolyline
 90
    4
 70
    1
 43
0
 10
17.34933339342337
 20
16.18175086707026
 10
34.59913973379583
 20
21.3241414803598
 10
29.73672372056316
 20
37.63479169775637
 10
12.48691738019075
 20
32.49240108446683
  0
LWPOLYLINE
  5
B9
100
AcDbEntity
  8
keycap guide
  6
ByLayer
 62
  256
370
   -1
100
AcDbPolyline
 90
    4
 70
    1
 43
0
 10
12.48691738019075
 20
32.49240108446683
 10
29.73672372056316
 20
37.63479169775637
 10
24.87430770733048
 20
53.94544191515294
 10
7.624501366958006
 20
48.80305130186339
  0
LWPOLYLINE
  5
BA
100
AcDbEntity
  8
keycap guide
  6
ByLayer
 62
  256
370
   -1
100
AcDbPolyline
 90
    4
 70
    1
 43
0
 10
7.624501366958006
 20
48.80305130186339
 10
24.87430770733048
 20
53.94544191515294
 10
20.01189169409783
 20
70.25609213254944
 10
2.762085353725463
 20
65.11370151925993
  0
LINE
  5
BB
100
AcDbEntity
  8
Ref
  6
ByLayer
 62
  256
370
   -1
100
AcDbLine
 10
18.52663597994909
 20
68.23764831029717
 11
9.109757081106848
 21
50.82149512411571
  0
LINE
  5
BC
100
AcDbEntity
  8
Ref
  6
ByLayer
 62
  256
370
   -1
100
AcDbLine
 10
9.972535950669888
 20
47.92736094923101
 11
27.38868913685137
 21
38.51048205038873
  0
LINE
  5
BD
100
AcDbEntity
  8
Ref
  6
ByLayer
 62
  256
370
   -1
100
AcDbLine
 10
28.25146800641433
 20
35.61634787550408
 11
18.83458910757212
 21
18.20019468932257
  0
CIRCLE
  5
BE
100
AcDbEntity
  8
Ref
  6
ByLayer
 62
  256
370
   -1
100
AcDbCircle
 10
23.54302855699323
 20
26.90827128241332
 40
4
  0
CIRCLE
  5
BF
100
AcDbEntity
  8
Ref
  6
ByLayer
 62
  256
370
   -1
100
AcDbCircle
 10
18.68061254376063
 20
43.21892149980986
 40
4
  0
CIRCLE
  5
C0
100
AcDbEntity
  8
Ref
  6
ByLayer
 62
  256
370
   -1
100
AcDbCircle
 10
13.81819653052797
 20
59.52957171720647
 40
4
  0
CIRCLE
  5
C1
100
AcDbEntity
  8
Ref
  6
ByLayer
 62
  256
370
   -1
100
AcDbCircle
 10
71.92847380872585
 20
-121.5155293115935
 40
4
  0
MTEXT
  5
C2
100
AcDbEntity
  8
Ref
  6
ByLayer
 62
  256
370
   -1
100
AcDbMText
 10
146.1544013430739
 20
49.10064635610507
 30
0
 40
3
 41
25.41666666666736
 71
    1
 72
    1
  1
C0,1 =16.6deg
  7

210
0
220
0
230
1
 50
0
 73
    2
 44
1
  0
ENDSEC
  0
SECTION
  2
OBJECTS
  0
DICTIONARY
  5
C
330
0
100
AcDbDictionary
281
    1
  3
ACAD_GROUP
350
D
  0
DICTIONARY
  5
D
330
C
100
AcDbDictionary
281
    1
  0
ENDSEC
  0
EOF
