999
dxfrw 0.6.3
  0
SECTION
  2
HEADER
  9
$ACADVER
  1
AC1021
  9
$DWGCODEPAGE
  3
ANSI_1252
  9
$INSBASE
 10
0
 20
0
 30
0
  9
$EXTMIN
 10
0
 20
0
 30
0
  9
$EXTMAX
 10
631.2988782112511
 20
215.2775762600349
 30
0
  9
$LIMMIN
 10
0
 20
0
  9
$LIMMAX
 10
420
 20
297
  9
$ORTHOMODE
 70
    0
  9
$REGENMODE
 70
    1
  9
$FILLMODE
 70
    1
  9
$QTEXTMODE
 70
    0
  9
$MIRRTEXT
 70
    0
  9
$LTSCALE
 40
1
  9
$ATTMODE
 70
    0
  9
$TEXTSIZE
 40
2.5
  9
$TRACEWID
 40
15.68
  9
$TEXTSTYLE
  7
STANDARD
  9
$CLAYER
  8
keycap guide
  9
$CELTYPE
  6
BYLAYER
  9
$CECOLOR
 62
  256
  9
$CELTSCALE
 40
1
  9
$DISPSILH
 70
    0
  9
$DIMSCALE
 40
2.5
  9
$DIMASZ
 40
2.5
  9
$DIMEXO
 40
0.625
  9
$DIMDLI
 40
3.75
  9
$DIMRND
 40
0
  9
$DIMDLE
 40
0
  9
$DIMEXE
 40
1.25
  9
$DIMTP
 40
0
  9
$DIMTM
 40
0
  9
$DIMTXT
 40
2.5
  9
$DIMCEN
 40
2.5
  9
$DIMTSZ
 40
0
  9
$DIMTOL
 70
    0
  9
$DIMLIM
 70
    0
  9
$DIMTIH
 70
    0
  9
$DIMTOH
 70
    0
  9
$DIMSE1
 70
    0
  9
$DIMSE2
 70
    0
  9
$DIMTAD
 70
    1
  9
$DIMZIN
 70
    8
  9
$DIMBLK
  1

  9
$DIMASO
 70
    1
  9
$DIMSHO
 70
    1
  9
$DIMPOST
  1

  9
$DIMAPOST
  1

  9
$DIMALT
 70
    0
  9
$DIMALTD
 70
    3
  9
$DIMALTF
 40
0.03937
  9
$DIMLFAC
 40
1
  9
$DIMTOFL
 70
    1
  9
$DIMTVP
 40
0
  9
$DIMTIX
 70
    0
  9
$DIMSOXD
 70
    0
  9
$DIMSAH
 70
    0
  9
$DIMBLK1
  1

  9
$DIMBLK2
  1

  9
$DIMSTYLE
  2
STANDARD
  9
$DIMCLRD
 70
    0
  9
$DIMCLRE
 70
    0
  9
$DIMCLRT
 70
    0
  9
$DIMTFAC
 40
1
  9
$DIMGAP
 40
0.625
  9
$DIMJUST
 70
    0
  9
$DIMSD1
 70
    0
  9
$DIMSD2
 70
    0
  9
$DIMTOLJ
 70
    0
  9
$DIMTZIN
 70
    8
  9
$DIMALTZ
 70
    0
  9
$DIMALTTZ
 70
    0
  9
$DIMUPT
 70
    0
  9
$DIMDEC
 70
    2
  9
$DIMTDEC
 70
    2
  9
$DIMALTU
 70
    2
  9
$DIMALTTD
 70
    3
  9
$DIMTXSTY
  7
STANDARD
  9
$DIMAUNIT
 70
    0
  9
$DIMADEC
 70
    0
  9
$DIMALTRND
 40
0
  9
$DIMAZIN
 70
    0
  9
$DIMDSEP
 70
   44
  9
$DIMATFIT
 70
    3
  9
$DIMFRAC
 70
    0
  9
$DIMLDRBLK
  1
STANDARD
  9
$DIMLUNIT
 70
    2
  9
$DIMLWD
 70
   -2
  9
$DIMLWE
 70
   -2
  9
$DIMTMOVE
 70
    0
  9
$DIMFXL
 40
1
  9
$DIMFXLON
 70
    0
  9
$DIMJOGANG
 40
0.7854
  9
$DIMTFILL
 70
    0
  9
$DIMTFILLCLR
 70
    0
  9
$DIMARCSYM
 70
    0
  9
$DIMLTYPE
  6

  9
$DIMLTEX1
  6

  9
$DIMLTEX2
  6

  9
$LUNITS
 70
    2
  9
$LUPREC
 70
    4
  9
$SKETCHINC
 40
1
  9
$FILLETRAD
 40
0
  9
$AUNITS
 70
    0
  9
$AUPREC
 70
    2
  9
$MENU
  1
.
  9
$ELEVATION
 40
0
  9
$PELEVATION
 40
0
  9
$THICKNESS
 40
0
  9
$LIMCHECK
 70
    0
  9
$CHAMFERA
 40
0
  9
$CHAMFERB
 40
0
  9
$CHAMFERC
 40
0
  9
$CHAMFERD
 40
0
  9
$SKPOLY
 70
    0
  9
$USRTIMER
 70
    1
  9
$ANGBASE
 50
0
  9
$ANGDIR
 70
    0
  9
$PDMODE
 70
   34
  9
$PDSIZE
 40
0
  9
$PLINEWID
 40
0
  9
$SPLFRAME
 70
    0
  9
$SPLINETYPE
 70
    2
  9
$SPLINESEGS
 70
    8
  9
$HANDSEED
  5
20000
  9
$SURFTAB1
 70
    6
  9
$SURFTAB2
 70
    6
  9
$SURFTYPE
 70
    6
  9
$SURFU
 70
    6
  9
$SURFV
 70
    6
  9
$UCSBASE
  2

  9
$UCSNAME
  2

  9
$UCSORG
 10
0
 20
0
 30
0
  9
$UCSXDIR
 10
1
 20
0
 30
0
  9
$UCSYDIR
 10
0
 20
1
 30
0
  9
$UCSORTHOREF
  2

  9
$UCSORTHOVIEW
 70
    0
  9
$UCSORGTOP
 10
0
 20
0
 30
0
  9
$UCSORGBOTTOM
 10
0
 20
0
 30
0
  9
$UCSORGLEFT
 10
0
 20
0
 30
0
  9
$UCSORGRIGHT
 10
0
 20
0
 30
0
  9
$UCSORGFRONT
 10
0
 20
0
 30
0
  9
$UCSORGBACK
 10
0
 20
0
 30
0
  9
$PUCSBASE
  2

  9
$PUCSNAME
  2

  9
$PUCSORG
 10
0
 20
0
 30
0
  9
$PUCSXDIR
 10
1
 20
0
 30
0
  9
$PUCSYDIR
 10
0
 20
1
 30
0
  9
$PUCSORTHOREF
  2

  9
$PUCSORTHOVIEW
 70
    0
  9
$PUCSORGTOP
 10
0
 20
0
 30
0
  9
$PUCSORGBOTTOM
 10
0
 20
0
 30
0
  9
$PUCSORGLEFT
 10
0
 20
0
 30
0
  9
$PUCSORGRIGHT
 10
0
 20
0
 30
0
  9
$PUCSORGFRONT
 10
0
 20
0
 30
0
  9
$PUCSORGBACK
 10
0
 20
0
 30
0
  9
$USERI1
 70
    0
  9
$USERI2
 70
    0
  9
$USERI3
 70
    0
  9
$USERI4
 70
    0
  9
$USERI5
 70
    0
  9
$USERR1
 40
0
  9
$USERR2
 40
0
  9
$USERR3
 40
0
  9
$USERR4
 40
0
  9
$USERR5
 40
0
  9
$WORLDVIEW
 70
    1
  9
$SHADEDGE
 70
    3
  9
$SHADEDIF
 70
   70
  9
$TILEMODE
 70
    1
  9
$MAXACTVP
 70
   64
  9
$PINSBASE
 10
0
 20
0
 30
0
  9
$PLIMCHECK
 70
    0
  9
$PEXTMIN
 10
0
 20
0
 30
0
  9
$PEXTMAX
 10
0
 20
0
 30
0
  9
$SNAPSTYLE
 70
    0
  9
$PLIMMIN
 10
0
 20
0
  9
$PLIMMAX
 10
210
 20
297
  9
$UNITMODE
 70
    0
  9
$VISRETAIN
 70
    1
  9
$PLINEGEN
 70
    0
  9
$PSLTSCALE
 70
    1
  9
$TREEDEPTH
 70
 3020
  9
$CMLSTYLE
  2
Standard
  9
$CMLJUST
 70
    0
  9
$CMLSCALE
 40
20
  9
$PROXYGRAPHICS
 70
    1
  9
$MEASUREMENT
 70
    1
  9
$CELWEIGHT
370
   -1
  9
$ENDCAPS
280
    0
  9
$JOINSTYLE
280
    0
  9
$LWDISPLAY
290
    0
  9
$INSUNITS
 70
    4
  9
$HYPERLINKBASE
  1

  9
$STYLESHEET
  1

  9
$XEDIT
290
    1
  9
$CEPSNTYPE
380
    0
  9
$PSTYLEMODE
290
    1
  9
$EXTNAMES
290
    1
  9
$PSVPSCALE
 40
1
  9
$OLESTARTUP
290
    0
  9
$SORTENTS
280
  127
  9
$INDEXCTL
280
    0
  9
$HIDETEXT
280
    1
  9
$XCLIPFRAME
290
    0
  9
$HALOGAP
280
    0
  9
$OBSCOLOR
 70
  257
  9
$OBSLTYPE
280
    0
  9
$INTERSECTIONDISPLAY
280
    0
  9
$INTERSECTIONCOLOR
 70
  257
  9
$DIMASSOC
280
    1
  9
$PROJECTNAME
  1

  9
$CAMERADISPLAY
290
    0
  9
$LENSLENGTH
 40
50
  9
$CAMERAHEIGHT
 40
0
  9
$STEPSPERSEC
 40
2
  9
$STEPSIZE
 40
50
  9
$3DDWFPREC
 40
2
  9
$PSOLWIDTH
 40
5
  9
$PSOLHEIGHT
 40
80
  9
$LOFTANG1
 40
1.570796326794897
  9
$LOFTANG2
 40
1.570796326794897
  9
$LOFTMAG1
 40
0
  9
$LOFTMAG2
 40
0
  9
$LOFTPARAM
 70
    7
  9
$LOFTNORMALS
280
    1
  9
$LATITUDE
 40
1
  9
$LONGITUDE
 40
1
  9
$NORTHDIRECTION
 40
0
  9
$TIMEZONE
 70
-8000
  9
$LIGHTGLYPHDISPLAY
280
    1
  9
$TILEMODELIGHTSYNCH
280
    1
  9
$SOLIDHIST
280
    1
  9
$SHOWHIST
280
    1
  9
$DWFFRAME
280
    2
  9
$DGNFRAME
280
    0
  9
$REALWORLDSCALE
290
    1
  9
$INTERFERECOLOR
 62
    1
  9
$CSHADOW
280
    0
  9
$SHADOWPLANELOCATION
 40
0
  0
ENDSEC
  0
SECTION
  2
CLASSES
  0
ENDSEC
  0
SECTION
  2
TABLES
  0
TABLE
  2
VPORT
  5
8
330
0
100
AcDbSymbolTable
 70
    1
  0
VPORT
  5
31
330
2
100
AcDbSymbolTableRecord
100
AcDbViewportTableRecord
  2
*ACTIVE
 70
    0
 10
0
 20
0
 11
1
 21
1
 12
366.1018192856209
 22
125.7264796365872
 13
0
 23
0
 14
10
 24
10
 15
10
 25
10
 16
0
 26
0
 36
1
 17
0
 27
0
 37
0
 40
207.8629763619221
 41
1.787694974003466
 42
50
 43
0
 44
0
 50
0
 51
0
 71
    0
 72
  100
 73
    1
 74
    3
 75
    0
 76
    1
 77
    0
 78
    0
281
    0
 65
    1
110
0
120
0
130
0
111
1
121
0
131
0
112
0
122
1
132
0
 79
    0
146
0
348
10020
 60
    7
 61
    5
292
1
282
    1
141
0
142
0
 63
  250
421
3358443
  0
ENDTAB
  0
TABLE
  2
LTYPE
  5
5
330
0
100
AcDbSymbolTable
 70
    4
  0
LTYPE
  5
14
330
5
100
AcDbSymbolTableRecord
100
AcDbLinetypeTableRecord
  2
ByBlock
 70
    0
  3

 72
   65
 73
    0
 40
0
  0
LTYPE
  5
15
330
5
100
AcDbSymbolTableRecord
100
AcDbLinetypeTableRecord
  2
ByLayer
 70
    0
  3

 72
   65
 73
    0
 40
0
  0
LTYPE
  5
16
330
5
100
AcDbSymbolTableRecord
100
AcDbLinetypeTableRecord
  2
Continuous
 70
    0
  3
Solid line
 72
   65
 73
    0
 40
0
  0
LTYPE
  5
32
330
5
100
AcDbSymbolTableRecord
100
AcDbLinetypeTableRecord
  2
DOT
 70
    0
  3
Dot . . . . . . . . . . . . . . . . . . . . . .
 72
   65
 73
    2
 40
6.35
 49
0
 74
    0
 49
-6.35
 74
    0
  0
LTYPE
  5
33
330
5
100
AcDbSymbolTableRecord
100
AcDbLinetypeTableRecord
  2
DOTTINY
 70
    0
  3
Dot (.15x) .....................................
 72
   65
 73
    2
 40
0.9525
 49
0
 74
    0
 49
-0.9525
 74
    0
  0
LTYPE
  5
34
330
5
100
AcDbSymbolTableRecord
100
AcDbLinetypeTableRecord
  2
DOT2
 70
    0
  3
Dot (.5x) .....................................
 72
   65
 73
    2
 40
3.175
 49
0
 74
    0
 49
-3.175
 74
    0
  0
LTYPE
  5
35
330
5
100
AcDbSymbolTableRecord
100
AcDbLinetypeTableRecord
  2
DOTX2
 70
    0
  3
Dot (2x) .  .  .  .  .  .  .  .  .  .  .  .  .
 72
   65
 73
    2
 40
12.7
 49
0
 74
    0
 49
-12.7
 74
    0
  0
LTYPE
  5
36
330
5
100
AcDbSymbolTableRecord
100
AcDbLinetypeTableRecord
  2
DASHED
 70
    0
  3
Dashed _ _ _ _ _ _ _ _ _ _ _ _ _ _ _ _ _
 72
   65
 73
    2
 40
19.05
 49
12.7
 74
    0
 49
-6.35
 74
    0
  0
LTYPE
  5
37
330
5
100
AcDbSymbolTableRecord
100
AcDbLinetypeTableRecord
  2
DASHEDTINY
 70
    0
  3
Dashed (.15x) _ _ _ _ _ _ _ _ _ _ _ _ _ _ _ _ _
 72
   65
 73
    2
 40
2.8575
 49
1.905
 74
    0
 49
-0.9525
 74
    0
  0
LTYPE
  5
38
330
5
100
AcDbSymbolTableRecord
100
AcDbLinetypeTableRecord
  2
DASHED2
 70
    0
  3
Dashed (.5x) _ _ _ _ _ _ _ _ _ _ _ _ _ _ _ _ _
 72
   65
 73
    2
 40
9.524999999999999
 49
6.35
 74
    0
 49
-3.175
 74
    0
  0
LTYPE
  5
39
330
5
100
AcDbSymbolTableRecord
100
AcDbLinetypeTableRecord
  2
DASHEDX2
 70
    0
  3
Dashed (2x) ____  ____  ____  ____  ____  ___
 72
   65
 73
    2
 40
38.09999999999999
 49
25.4
 74
    0
 49
-12.7
 74
    0
  0
LTYPE
  5
3A
330
5
100
AcDbSymbolTableRecord
100
AcDbLinetypeTableRecord
  2
DASHDOT
 70
    0
  3
Dash dot __ . __ . __ . __ . __ . __ . __ . __
 72
   65
 73
    4
 40
25.4
 49
12.7
 74
    0
 49
-6.35
 74
    0
 49
0
 74
    0
 49
-6.35
 74
    0
  0
LTYPE
  5
3B
330
5
100
AcDbSymbolTableRecord
100
AcDbLinetypeTableRecord
  2
DASHDOTTINY
 70
    0
  3
Dash dot (.15x) _._._._._._._._._._._._._._._.
 72
   65
 73
    4
 40
3.81
 49
1.905
 74
    0
 49
-0.9525
 74
    0
 49
0
 74
    0
 49
-0.9525
 74
    0
  0
LTYPE
  5
3C
330
5
100
AcDbSymbolTableRecord
100
AcDbLinetypeTableRecord
  2
DASHDOT2
 70
    0
  3
Dash dot (.5x) _._._._._._._._._._._._._._._.
 72
   65
 73
    4
 40
12.7
 49
6.35
 74
    0
 49
-3.175
 74
    0
 49
0
 74
    0
 49
-3.175
 74
    0
  0
LTYPE
  5
3D
330
5
100
AcDbSymbolTableRecord
100
AcDbLinetypeTableRecord
  2
DASHDOTX2
 70
    0
  3
Dash dot (2x) ____  .  ____  .  ____  .  ___
 72
   65
 73
    4
 40
50.8
 49
25.4
 74
    0
 49
-12.7
 74
    0
 49
0
 74
    0
 49
-12.7
 74
    0
  0
LTYPE
  5
3E
330
5
100
AcDbSymbolTableRecord
100
AcDbLinetypeTableRecord
  2
DIVIDE
 70
    0
  3
Divide ____ . . ____ . . ____ . . ____ . . ____
 72
   65
 73
    6
 40
31.75
 49
12.7
 74
    0
 49
-6.35
 74
    0
 49
0
 74
    0
 49
-6.35
 74
    0
 49
0
 74
    0
 49
-6.35
 74
    0
  0
LTYPE
  5
3F
330
5
100
AcDbSymbolTableRecord
100
AcDbLinetypeTableRecord
  2
DIVIDETINY
 70
    0
  3
Divide (.15x) __..__..__..__..__..__..__..__.._
 72
   65
 73
    6
 40
4.7625
 49
1.905
 74
    0
 49
-0.9525
 74
    0
 49
0
 74
    0
 49
-0.9525
 74
    0
 49
0
 74
    0
 49
-0.9525
 74
    0
  0
LTYPE
  5
40
330
5
100
AcDbSymbolTableRecord
100
AcDbLinetypeTableRecord
  2
DIVIDE2
 70
    0
  3
Divide (.5x) __..__..__..__..__..__..__..__.._
 72
   65
 73
    6
 40
15.875
 49
6.35
 74
    0
 49
-3.175
 74
    0
 49
0
 74
    0
 49
-3.175
 74
    0
 49
0
 74
    0
 49
-3.175
 74
    0
  0
LTYPE
  5
41
330
5
100
AcDbSymbolTableRecord
100
AcDbLinetypeTableRecord
  2
DIVIDEX2
 70
    0
  3
Divide (2x) ________  .  .  ________  .  .  _
 72
   65
 73
    6
 40
63.5
 49
25.4
 74
    0
 49
-12.7
 74
    0
 49
0
 74
    0
 49
-12.7
 74
    0
 49
0
 74
    0
 49
-12.7
 74
    0
  0
LTYPE
  5
42
330
5
100
AcDbSymbolTableRecord
100
AcDbLinetypeTableRecord
  2
BORDER
 70
    0
  3
Border __ __ . __ __ . __ __ . __ __ . __ __ .
 72
   65
 73
    6
 40
44.45
 49
12.7
 74
    0
 49
-6.35
 74
    0
 49
12.7
 74
    0
 49
-6.35
 74
    0
 49
0
 74
    0
 49
-6.35
 74
    0
  0
LTYPE
  5
43
330
5
100
AcDbSymbolTableRecord
100
AcDbLinetypeTableRecord
  2
BORDERTINY
 70
    0
  3
Border (.15x) __.__.__.__.__.__.__.__.__.__.__.
 72
   65
 73
    6
 40
6.6675
 49
1.905
 74
    0
 49
-0.9525
 74
    0
 49
1.905
 74
    0
 49
-0.9525
 74
    0
 49
0
 74
    0
 49
-0.9525
 74
    0
  0
LTYPE
  5
44
330
5
100
AcDbSymbolTableRecord
100
AcDbLinetypeTableRecord
  2
BORDER2
 70
    0
  3
Border (.5x) __.__.__.__.__.__.__.__.__.__.__.
 72
   65
 73
    6
 40
22.225
 49
6.35
 74
    0
 49
-3.175
 74
    0
 49
6.35
 74
    0
 49
-3.175
 74
    0
 49
0
 74
    0
 49
-3.175
 74
    0
  0
LTYPE
  5
45
330
5
100
AcDbSymbolTableRecord
100
AcDbLinetypeTableRecord
  2
BORDERX2
 70
    0
  3
Border (2x) ____  ____  .  ____  ____  .  ___
 72
   65
 73
    6
 40
88.89999999999999
 49
25.4
 74
    0
 49
-12.7
 74
    0
 49
25.4
 74
    0
 49
-12.7
 74
    0
 49
0
 74
    0
 49
-12.7
 74
    0
  0
LTYPE
  5
46
330
5
100
AcDbSymbolTableRecord
100
AcDbLinetypeTableRecord
  2
CENTER
 70
    0
  3
Center ____ _ ____ _ ____ _ ____ _ ____ _ ____
 72
   65
 73
    4
 40
50.8
 49
31.75
 74
    0
 49
-6.35
 74
    0
 49
6.35
 74
    0
 49
-6.35
 74
    0
  0
LTYPE
  5
47
330
5
100
AcDbSymbolTableRecord
100
AcDbLinetypeTableRecord
  2
CENTERTINY
 70
    0
  3
Center (.15x) ___ _ ___ _ ___ _ ___ _ ___ _ ___
 72
   65
 73
    4
 40
7.619999999999999
 49
4.7625
 74
    0
 49
-0.9525
 74
    0
 49
0.9525
 74
    0
 49
-0.9525
 74
    0
  0
LTYPE
  5
48
330
5
100
AcDbSymbolTableRecord
100
AcDbLinetypeTableRecord
  2
CENTER2
 70
    0
  3
Center (.5x) ___ _ ___ _ ___ _ ___ _ ___ _ ___
 72
   65
 73
    4
 40
28.575
 49
19.05
 74
    0
 49
-3.175
 74
    0
 49
3.175
 74
    0
 49
-3.175
 74
    0
  0
LTYPE
  5
49
330
5
100
AcDbSymbolTableRecord
100
AcDbLinetypeTableRecord
  2
CENTERX2
 70
    0
  3
Center (2x) ________  __  ________  __  _____
 72
   65
 73
    4
 40
101.6
 49
63.5
 74
    0
 49
-12.7
 74
    0
 49
12.7
 74
    0
 49
-12.7
 74
    0
  0
ENDTAB
  0
TABLE
  2
LAYER
  5
2
330
0
100
AcDbSymbolTable
 70
    1
  0
LAYER
  5
10
330
2
100
AcDbSymbolTableRecord
100
AcDbLayerTableRecord
  2
0
 70
    0
 62
    7
  6
CONTINUOUS
370
    0
390
F
  0
LAYER
  5
4A
330
2
100
AcDbSymbolTableRecord
100
AcDbLayerTableRecord
  2
construction
 70
    0
 62
    2
  6
CONTINUOUS
370
    0
390
F
  0
LAYER
  5
4B
330
2
100
AcDbSymbolTableRecord
100
AcDbLayerTableRecord
  2
edge
 70
    0
 62
    3
  6
CONTINUOUS
370
    0
390
F
  0
LAYER
  5
4C
330
2
100
AcDbSymbolTableRecord
100
AcDbLayerTableRecord
  2
keycap guide
 70
    0
 62
  216
420
8388736
  6
CONTINUOUS
370
    0
390
F
  0
LAYER
  5
4D
330
2
100
AcDbSymbolTableRecord
100
AcDbLayerTableRecord
  2
ref
 70
    4
 62
  253
420
10526884
  6
CONTINUOUS
370
    0
390
F
1001
LibreCad
1070
    1
  0
ENDTAB
  0
TABLE
  2
STYLE
  5
3
330
0
100
AcDbSymbolTable
 70
    3
  0
STYLE
  5
4E
330
2
100
AcDbSymbolTableRecord
100
AcDbTextStyleTableRecord
  2
Standard
 70
    0
 40
0
 41
1
 50
0
 71
    0
 42
1
  3
txt
  4

  0
ENDTAB
  0
TABLE
  2
VIEW
  5
6
330
0
100
AcDbSymbolTable
 70
    0
  0
ENDTAB
  0
TABLE
  2
UCS
  5
7
330
0
100
AcDbSymbolTable
 70
    0
  0
ENDTAB
  0
TABLE
  2
APPID
  5
9
330
0
100
AcDbSymbolTable
 70
    1
  0
APPID
  5
12
330
9
100
AcDbSymbolTableRecord
100
AcDbRegAppTableRecord
  2
ACAD
 70
    0
  0
APPID
  5
4F
330
9
100
AcDbSymbolTableRecord
100
AcDbRegAppTableRecord
  2
LibreCad
 70
    0
  0
ENDTAB
  0
TABLE
  2
DIMSTYLE
  5
A
330
0
100
AcDbSymbolTable
 70
    1
100
AcDbDimStyleTable
 71
    1
  0
DIMSTYLE
105
50
330
A
100
AcDbSymbolTableRecord
100
AcDbDimStyleTableRecord
  2
Standard
 70
    0
 40
1
 41
2.5
 42
0.625
 43
0.38
 44
1.25
 45
0
 46
0
 47
0
 48
0
 49
1
140
2.5
141
0.09
142
2.5
143
25.4
144
1
145
0
146
1
147
0.625
148
0
 71
    0
 72
    0
 73
    0
 74
    1
 75
    0
 76
    0
 77
    0
 78
    1
 79
    0
170
    0
171
    2
172
    0
173
    0
174
    0
175
    0
176
    0
177
    0
178
    0
179
    0
271
    2
272
    4
273
    2
274
    2
275
    0
276
    0
277
    2
278
    0
279
    0
280
    0
281
    0
282
    0
283
    1
284
    0
285
    0
286
    0
288
    0
289
    3
340
standard
341

371
   -2
372
   -2
  0
ENDTAB
  0
TABLE
  2
BLOCK_RECORD
  5
1
330
0
100
AcDbSymbolTable
 70
    2
  0
BLOCK_RECORD
  5
1F
330
1
100
AcDbSymbolTableRecord
100
AcDbBlockTableRecord
  2
*Model_Space
 70
    0
280
    1
281
    0
  0
BLOCK_RECORD
  5
1E
330
1
100
AcDbSymbolTableRecord
100
AcDbBlockTableRecord
  2
*Paper_Space
 70
    0
280
    1
281
    0
  0
BLOCK_RECORD
  5
51
330
1
100
AcDbSymbolTableRecord
100
AcDbBlockTableRecord
  2
tn
 70
    0
280
    1
281
    0
  0
ENDTAB
  0
ENDSEC
  0
SECTION
  2
BLOCKS
  0
BLOCK
  5
20
330
1F
100
AcDbEntity
  8
0
100
AcDbBlockBegin
  2
*Model_Space
 70
    0
 10
0
 20
0
 30
0
  3
*Model_Space
  1

  0
ENDBLK
  5
21
330
1F
100
AcDbEntity
  8
0
100
AcDbBlockEnd
  0
BLOCK
  5
1C
330
1B
100
AcDbEntity
  8
0
100
AcDbBlockBegin
  2
*Paper_Space
 70
    0
 10
0
 20
0
 30
0
  3
*Paper_Space
  1

  0
ENDBLK
  5
1D
330
1F
100
AcDbEntity
  8
0
100
AcDbBlockEnd
  0
BLOCK
  5
52
330
51
100
AcDbEntity
  8
0
100
AcDbBlockBegin
  2
tn
 70
    0
 10
0
 20
0
  3
tn
  1

  0
IMAGE
  5
56
100
AcDbEntity
  8
0
  6
ByLayer
 62
  256
370
   -1
100
AcDbRasterImage
 10
-1662.038374080588
 20
-757.2122058521691
 30
0
 11
1
 21
0
 31
0
 12
6.123233995736766e-17
 22
1
 32
0
 13
4608
 23
3456
340
54
 70
    1
280
    0
281
   50
282
   50
283
    0
360
55
  0
ENDBLK
  5
53
330
51
100
AcDbEntity
  8
0
100
AcDbBlockEnd
  0
ENDSEC
  0
SECTION
  2
ENTITIES
  0
IMAGE
  5
59
100
AcDbEntity
  8
ref
  6
ByLayer
 62
  256
370
   -1
100
AcDbRasterImage
 10
250
 20
50
 30
0
 11
0.047397608
 21
0
 31
0
 12
2.902266446222049e-18
 22
0.047397608
 32
0
 13
4608
 23
3456
340
57
 70
    1
280
    0
281
   50
282
   50
283
    0
360
58
  0
IMAGE
  5
5B
100
AcDbEntity
  8
ref
  6
ByLayer
 62
  256
370
   -1
100
AcDbRasterImage
 10
50
 20
50
 30
0
 11
0.047397608
 21
0
 31
0
 12
2.902266446222049e-18
 22
0.047397608
 32
0
 13
4608
 23
3456
340
57
 70
    1
280
    0
281
   50
282
   50
283
    0
360
5A
  0
LINE
  5
5C
100
AcDbEntity
  8
construction
  6
ByLayer
 62
  256
370
   -1
100
AcDbLine
 10
183.7469610025148
 20
184.5636141625259
 11
164.7824598422552
 21
143.1865207219597
  0
LINE
  5
5D
100
AcDbEntity
  8
construction
  6
ByLayer
 62
  256
370
   -1
100
AcDbLine
 10
183.7469610025148
 20
184.5636141625259
 11
183.7469610025148
 21
154.5636141625259
  0
LWPOLYLINE
  5
5E
100
AcDbEntity
  8
0
  6
ByLayer
 62
  256
370
   -1
100
AcDbPolyline
 90
    4
 70
    1
 43
0
 10
154.4122199202578
 20
139.7398908883544
 10
167.1415254469167
 20
133.9119597967088
 10
172.9694565385624
 20
146.6412653233677
 10
160.2401510119034
 20
152.4691964150134
  0
LWPOLYLINE
  5
5F
100
AcDbEntity
  8
0
  6
ByLayer
 62
  256
370
   -1
100
AcDbPolyline
 90
    4
 70
    1
 43
0
 10
151.9651637058504
 20
139.1995059482141
 10
168.3314136686977
 20
131.7064516875269
 10
175.4165127529697
 20
147.181650263508
 10
159.0502627901225
 20
154.6747045241952
  0
LWPOLYLINE
  5
60
100
AcDbEntity
  8
0
  6
ByLayer
 62
  256
370
   -1
100
AcDbPolyline
 90
    4
 70
    1
 43
0
 10
161.4973190045298
 20
155.2150894643355
 10
174.2266245311888
 20
149.3871583726899
 10
180.0545556228344
 20
162.1164638993488
 10
167.3252500961754
 20
167.9443949909945
  0
LWPOLYLINE
  5
61
100
AcDbEntity
  8
0
  6
ByLayer
 62
  256
370
   -1
100
AcDbPolyline
 90
    4
 70
    1
 43
0
 10
159.0502627901225
 20
154.6747045241952
 10
175.4165127529697
 20
147.181650263508
 10
182.5016118372417
 20
162.6568488394891
 10
166.1353618743945
 20
170.1499031001763
  0
LWPOLYLINE
  5
62
100
AcDbEntity
  8
0
  6
ByLayer
 62
  256
370
   -1
100
AcDbPolyline
 90
    4
 70
    1
 43
0
 10
168.5824180888019
 20
170.6902880403166
 10
181.3117236154608
 20
164.862356948671
 10
187.1396547071064
 20
177.5916624753299
 10
174.4103491804475
 20
183.4195935669755
  0
LWPOLYLINE
  5
63
100
AcDbEntity
  8
0
  6
ByLayer
 62
  256
370
   -1
100
AcDbPolyline
 90
    4
 70
    1
 43
0
 10
166.1353618743945
 20
170.1499031001763
 10
182.5016118372417
 20
162.6568488394891
 10
189.5867109215138
 20
178.1320474154702
 10
173.2204609586665
 20
185.6251016761574
  0
LWPOLYLINE
  5
64
100
AcDbEntity
  8
0
  6
ByLayer
 62
  256
370
   -1
100
AcDbPolyline
 90
    4
 70
    1
 43
0
 10
175.6675171730739
 20
186.1654866162977
 10
188.3968226997328
 20
180.3375555246521
 10
194.2247537913784
 20
193.0668610513111
 10
181.4954482647195
 20
198.8947921429567
  0
LWPOLYLINE
  5
65
100
AcDbEntity
  8
0
  6
ByLayer
 62
  256
370
   -1
100
AcDbPolyline
 90
    4
 70
    1
 43
0
 10
173.2204609586665
 20
185.6251016761574
 10
189.5867109215138
 20
178.1320474154702
 10
196.6718100057858
 20
193.6072459914513
 10
180.3055600429386
 20
201.1003002521385
  0
LINE
  5
66
100
AcDbEntity
  8
0
  6
ByLayer
 62
  256
370
   -1
100
AcDbLine
 10
174.4103491804475
 20
183.4195935669755
 11
181.3117236154608
 21
164.862356948671
  0
LINE
  5
67
100
AcDbEntity
  8
construction
  6
ByLayer
 62
  256
370
   -1
100
AcDbLine
 10
164.5596419371689
 20
199.6742115066909
 11
150.1147849097064
 21
149.7157557100528
  0
LINE
  5
68
100
AcDbEntity
  8
construction
  6
ByLayer
 62
  256
370
   -1
100
AcDbLine
 10
164.5596419371689
 20
199.6742115066909
 11
164.5596419371689
 21
169.6742115066909
  0
LWPOLYLINE
  5
69
100
AcDbEntity
  8
0
  6
ByLayer
 62
  256
370
   -1
100
AcDbPolyline
 90
    4
 70
    1
 43
0
 10
141.7250231279532
 20
144.6372384606361
 10
155.1738966198501
 20
140.747790967874
 10
159.0633441126122
 20
154.1966644597709
 10
145.6144706207153
 20
158.086111952533
  0
LWPOLYLINE
  5
6A
100
AcDbEntity
  8
0
  6
ByLayer
 62
  256
370
   -1
100
AcDbPolyline
 90
    4
 70
    1
 43
0
 10
139.3842507923915
 20
143.7423167472618
 10
156.6756595676875
 20
138.741598542282
 10
161.404116448174
 20
155.0915861731451
 10
144.112707672878
 20
160.092304378125
  0
LWPOLYLINE
  5
6B
100
AcDbEntity
  8
0
  6
ByLayer
 62
  256
370
   -1
100
AcDbPolyline
 90
    4
 70
    1
 43
0
 10
146.4534800084397
 20
160.9872260914993
 10
159.9023535003366
 20
157.0977785987372
 10
163.7918009930987
 20
170.5466520906341
 10
150.3429275012018
 20
174.4360995833962
  0
LWPOLYLINE
  5
6C
100
AcDbEntity
  8
0
  6
ByLayer
 62
  256
370
   -1
100
AcDbPolyline
 90
    4
 70
    1
 43
0
 10
144.112707672878
 20
160.092304378125
 10
161.404116448174
 20
155.0915861731451
 10
166.1325733286605
 20
171.4415738040084
 10
148.8411645533645
 20
176.4422920089882
  0
LWPOLYLINE
  5
6D
100
AcDbEntity
  8
0
  6
ByLayer
 62
  256
370
   -1
100
AcDbPolyline
 90
    4
 70
    1
 43
0
 10
151.1819368889262
 20
177.3372137223625
 10
164.6308103808231
 20
173.4477662296004
 10
168.5202578735852
 20
186.8966397214973
 10
155.0713843816883
 20
190.7860872142594
  0
LWPOLYLINE
  5
6E
100
AcDbEntity
  8
0
  6
ByLayer
 62
  256
370
   -1
100
AcDbPolyline
 90
    4
 70
    1
 43
0
 10
148.8411645533645
 20
176.4422920089882
 10
166.1325733286605
 20
171.4415738040084
 10
170.861030209147
 20
187.7915614348715
 10
153.569621433851
 20
192.7922796398514
  0
LWPOLYLINE
  5
6F
100
AcDbEntity
  8
0
  6
ByLayer
 62
  256
370
   -1
100
AcDbPolyline
 90
    4
 70
    1
 43
0
 10
155.9103937694127
 20
193.6872013532257
 10
169.3592672613096
 20
189.7977538604636
 10
173.2487147540717
 20
203.2466273523605
 10
159.7998412621749
 20
207.1360748451226
  0
LWPOLYLINE
  5
70
100
AcDbEntity
  8
0
  6
ByLayer
 62
  256
370
   -1
100
AcDbPolyline
 90
    4
 70
    1
 43
0
 10
153.569621433851
 20
192.7922796398514
 10
170.861030209147
 20
187.7915614348716
 10
175.5894870896335
 20
204.1415490657348
 10
158.2980783143375
 20
209.1422672707146
  0
LINE
  5
71
100
AcDbEntity
  8
0
  6
ByLayer
 62
  256
370
   -1
100
AcDbLine
 10
168.5202578735852
 20
186.8966397214973
 11
151.1819368889262
 21
177.3372137223625
  0
LINE
  5
72
100
AcDbEntity
  8
construction
  6
ByLayer
 62
  256
370
   -1
100
AcDbLine
 10
144.3661308419763
 20
201.8948090027639
 11
132.7515081218173
 21
148.358657402031
  0
LINE
  5
73
100
AcDbEntity
  8
construction
  6
ByLayer
 62
  256
370
   -1
100
AcDbLine
 10
144.3661308419763
 20
201.8948090027639
 11
144.3661308419763
 21
171.8948090027639
  0
LWPOLYLINE
  5
74
100
AcDbEntity
  8
0
  6
ByLayer
 62
  256
370
   -1
100
AcDbPolyline
 90
    4
 70
    1
 43
0
 10
125.8300872657568
 20
145.8498409007411
 10
139.5118409957115
 20
142.8817413618323
 10
142.4799405346203
 20
156.563495091787
 10
128.7981868046656
 20
159.5315946306958
  0
LWPOLYLINE
  5
75
100
AcDbEntity
  8
0
  6
ByLayer
 62
  256
370
   -1
100
AcDbPolyline
 90
    4
 70
    1
 43
0
 10
123.5554202826382
 20
144.7981802539972
 10
141.1462465068656
 20
140.9820522754002
 10
144.754607517739
 20
157.6151557385309
 10
127.1637812935115
 20
161.4312837171279
  0
LWPOLYLINE
  5
76
100
AcDbEntity
  8
0
  6
ByLayer
 62
  256
370
   -1
100
AcDbPolyline
 90
    4
 70
    1
 43
0
 10
129.4384482766302
 20
162.4829443638717
 10
143.1202020065849
 20
159.5148448249629
 10
146.0883015454937
 20
173.1965985549177
 10
132.406547815539
 20
176.1646980938264
  0
LWPOLYLINE
  5
77
100
AcDbEntity
  8
0
  6
ByLayer
 62
  256
370
   -1
100
AcDbPolyline
 90
    4
 70
    1
 43
0
 10
127.1637812935115
 20
161.4312837171279
 10
144.754607517739
 20
157.6151557385309
 10
148.3629685286124
 20
174.2482592016615
 10
130.7721423043849
 20
178.0643871802585
  0
LWPOLYLINE
  5
78
100
AcDbEntity
  8
0
  6
ByLayer
 62
  256
370
   -1
100
AcDbPolyline
 90
    4
 70
    1
 43
0
 10
133.0468092875036
 20
179.1160478270024
 10
146.7285630174583
 20
176.1479482880936
 10
149.696662556367
 20
189.8297020180483
 10
136.0149088264124
 20
192.7978015569571
  0
LWPOLYLINE
  5
79
100
AcDbEntity
  8
0
  6
ByLayer
 62
  256
370
   -1
100
AcDbPolyline
 90
    4
 70
    1
 43
0
 10
130.7721423043849
 20
178.0643871802585
 10
148.3629685286124
 20
174.2482592016615
 10
151.9713295394857
 20
190.8813626647922
 10
134.3805033152583
 20
194.6974906433892
  0
LWPOLYLINE
  5
7A
100
AcDbEntity
  8
0
  6
ByLayer
 62
  256
370
   -1
100
AcDbPolyline
 90
    4
 70
    1
 43
0
 10
136.655170298377
 20
195.749151290133
 10
150.3369240283317
 20
192.7810517512243
 10
153.3050235672404
 20
206.462805481179
 10
139.6232698372857
 20
209.4309050200877
  0
LWPOLYLINE
  5
7B
100
AcDbEntity
  8
0
  6
ByLayer
 62
  256
370
   -1
100
AcDbPolyline
 90
    4
 70
    1
 43
0
 10
134.3805033152583
 20
194.6974906433892
 10
151.9713295394857
 20
190.8813626647922
 10
155.5796905503591
 20
207.5144661279228
 10
137.9888643261316
 20
211.3305941065198
  0
LINE
  5
7C
100
AcDbEntity
  8
0
  6
ByLayer
 62
  256
370
   -1
100
AcDbLine
 10
149.696662556367
 20
189.8297020180483
 11
133.0468092875036
 21
179.1160478270024
  0
LINE
  5
7D
100
AcDbEntity
  8
construction
  6
ByLayer
 62
  256
370
   -1
100
AcDbLine
 10
116.4367204589379
 20
198.2377063879381
 11
123.7788577325652
 21
146.1244929131702
  0
LINE
  5
7E
100
AcDbEntity
  8
construction
  6
ByLayer
 62
  256
370
   -1
100
AcDbLine
 10
116.4367204589379
 20
198.2377063879381
 11
116.4367204589379
 21
168.2377063879381
  0
LWPOLYLINE
  5
7F
100
AcDbEntity
  8
0
  6
ByLayer
 62
  256
370
   -1
100
AcDbPolyline
 90
    4
 70
    1
 43
0
 10
118.0895182786543
 20
139.3848317150255
 10
131.9532712410363
 20
141.3332551284664
 10
130.0048478275954
 20
155.1970080908484
 10
116.1410948652134
 20
153.2485846774075
  0
LWPOLYLINE
  5
80
100
AcDbEntity
  8
0
  6
ByLayer
 62
  256
370
   -1
100
AcDbPolyline
 90
    4
 70
    1
 43
0
 10
116.3191335236209
 20
137.6111807293056
 10
134.1439587609692
 20
140.1162965465868
 10
131.7752325826288
 20
156.9706590765683
 10
113.9504073452806
 20
154.4655432592871
  0
LWPOLYLINE
  5
81
100
AcDbEntity
  8
0
  6
ByLayer
 62
  256
370
   -1
100
AcDbPolyline
 90
    4
 70
    1
 43
0
 10
115.720792100314
 20
156.2391942450071
 10
129.584545062696
 20
158.187617658448
 10
127.6361216492551
 20
172.05137062083
 10
113.7723686868731
 20
170.102947207389
  0
LWPOLYLINE
  5
82
100
AcDbEntity
  8
0
  6
ByLayer
 62
  256
370
   -1
100
AcDbPolyline
 90
    4
 70
    1
 43
0
 10
113.9504073452806
 20
154.4655432592871
 10
131.7752325826288
 20
156.9706590765683
 10
129.4065064042885
 20
173.8250216065499
 10
111.5816811669403
 20
171.3199057892687
  0
LWPOLYLINE
  5
83
100
AcDbEntity
  8
0
  6
ByLayer
 62
  256
370
   -1
100
AcDbPolyline
 90
    4
 70
    1
 43
0
 10
113.3520659219737
 20
173.0935567749886
 10
127.2158188843557
 20
175.0419801884295
 10
125.2673954709148
 20
188.9057331508115
 10
111.4036425085328
 20
186.9573097373706
  0
LWPOLYLINE
  5
84
100
AcDbEntity
  8
0
  6
ByLayer
 62
  256
370
   -1
100
AcDbPolyline
 90
    4
 70
    1
 43
0
 10
111.5816811669403
 20
171.3199057892687
 10
129.4065064042885
 20
173.8250216065499
 10
127.0377802259482
 20
190.6793841365314
 10
109.2129549885999
 20
188.1742683192502
  0
LWPOLYLINE
  5
85
100
AcDbEntity
  8
0
  6
ByLayer
 62
  256
370
   -1
100
AcDbPolyline
 90
    4
 70
    1
 43
0
 10
110.9833397436334
 20
189.9479193049701
 10
124.8470927060154
 20
191.896342718411
 10
122.8986692925745
 20
205.760095680793
 10
109.0349163301925
 20
203.8116722673521
  0
LWPOLYLINE
  5
86
100
AcDbEntity
  8
0
  6
ByLayer
 62
  256
370
   -1
100
AcDbPolyline
 90
    4
 70
    1
 43
0
 10
109.2129549885999
 20
188.1742683192502
 10
127.0377802259482
 20
190.6793841365314
 10
124.6690540476079
 20
207.5337466665129
 10
106.8442288102596
 20
205.0286308492317
  0
LINE
  5
87
100
AcDbEntity
  8
0
  6
ByLayer
 62
  256
370
   -1
100
AcDbLine
 10
125.2673954709148
 20
188.9057331508115
 11
113.3520659219737
 21
173.0935567749886
  0
LINE
  5
88
100
AcDbEntity
  8
construction
  6
ByLayer
 62
  256
370
   -1
100
AcDbLine
 10
96.36440549848638
 20
186.1234353478132
 11
106.5502651443866
 21
146.6763789009632
  0
LINE
  5
89
100
AcDbEntity
  8
construction
  6
ByLayer
 62
  256
370
   -1
100
AcDbLine
 10
96.36440549848638
 20
186.1234353478132
 11
96.36440549848638
 21
156.1234353478132
  0
LWPOLYLINE
  5
8A
100
AcDbEntity
  8
0
  6
ByLayer
 62
  256
370
   -1
100
AcDbPolyline
 90
    4
 70
    1
 43
0
 10
103.4834616579295
 20
130.4376989808559
 10
117.0393621464667
 20
133.9359216645733
 10
113.5411394627494
 20
147.4918221531106
 10
99.98523897421209
 20
143.9935994693932
  0
LWPOLYLINE
  5
8B
100
AcDbEntity
  8
0
  6
ByLayer
 62
  256
370
   -1
100
AcDbPolyline
 90
    4
 70
    1
 43
0
 10
101.9242127490251
 20
128.4758521876327
 10
119.3532276628587
 20
132.9735670666979
 10
115.1003883716538
 20
149.4536689463339
 10
97.67137345782011
 20
144.9559540672687
  0
LWPOLYLINE
  5
8C
100
AcDbEntity
  8
0
  6
ByLayer
 62
  256
370
   -1
100
AcDbPolyline
 90
    4
 70
    1
 43
0
 10
99.23062236672449
 20
146.917800860492
 10
112.7865228552618
 20
150.4160235442093
 10
109.2883001715444
 20
163.9719240327466
 10
95.73239968300712
 20
160.4737013490293
  0
LWPOLYLINE
  5
8D
100
AcDbEntity
  8
0
  6
ByLayer
 62
  256
370
   -1
100
AcDbPolyline
 90
    4
 70
    1
 43
0
 10
97.67137345782011
 20
144.9559540672687
 10
115.1003883716538
 20
149.4536689463339
 10
110.8475490804488
 20
165.9337708259699
 10
93.41853416661515
 20
161.4360559469047
  0
LWPOLYLINE
  5
8E
100
AcDbEntity
  8
0
  6
ByLayer
 62
  256
370
   -1
100
AcDbPolyline
 90
    4
 70
    1
 43
0
 10
94.97778307551953
 20
163.397902740128
 10
108.5336835640568
 20
166.8961254238454
 10
105.0354608803394
 20
180.4520259123827
 10
91.47956039180217
 20
176.9538032286653
  0
LWPOLYLINE
  5
8F
100
AcDbEntity
  8
0
  6
ByLayer
 62
  256
370
   -1
100
AcDbPolyline
 90
    4
 70
    1
 43
0
 10
93.41853416661515
 20
161.4360559469047
 10
110.8475490804488
 20
165.9337708259699
 10
106.5947097892438
 20
182.4138727056059
 10
89.16569487541017
 20
177.9161578265408
  0
LWPOLYLINE
  5
90
100
AcDbEntity
  8
0
  6
ByLayer
 62
  256
370
   -1
100
AcDbPolyline
 90
    4
 70
    1
 43
0
 10
90.72494378431456
 20
179.8780046197641
 10
104.2808442728518
 20
183.3762273034814
 10
100.7826215891345
 20
196.9321277920187
 10
87.22672110059719
 20
193.4339051083013
  0
LWPOLYLINE
  5
91
100
AcDbEntity
  8
0
  6
ByLayer
 62
  256
370
   -1
100
AcDbPolyline
 90
    4
 70
    1
 43
0
 10
89.16569487541017
 20
177.9161578265408
 10
106.5947097892438
 20
182.4138727056059
 10
102.3418704980389
 20
198.893974585242
 10
84.9128555842052
 20
194.3962597061768
  0
LINE
  5
92
100
AcDbEntity
  8
0
  6
ByLayer
 62
  256
370
   -1
100
AcDbLine
 10
105.0354608803394
 20
180.4520259123827
 11
94.97778307551953
 21
163.397902740128
  0
LINE
  5
93
100
AcDbEntity
  8
construction
  6
ByLayer
 62
  256
370
   -1
100
AcDbLine
 10
198.3973180678001
 20
172.1411967305892
 11
177.4083821660175
 21
139.1813848391968
  0
LINE
  5
94
100
AcDbEntity
  8
construction
  6
ByLayer
 62
  256
370
   -1
100
AcDbLine
 10
198.3973180678001
 20
172.1411967305892
 11
198.3973180678001
 21
142.1411967305892
  0
LWPOLYLINE
  5
95
100
AcDbEntity
  8
0
  6
ByLayer
 62
  256
370
   -1
100
AcDbPolyline
 90
    4
 70
    1
 43
0
 10
165.7396425256851
 20
133.6232699059704
 10
177.5484354578335
 20
126.1031362977398
 10
185.0685690660642
 20
137.9119292298882
 10
173.2597761339157
 20
145.4320628381189
  0
LWPOLYLINE
  5
96
100
AcDbEntity
  8
0
  6
ByLayer
 62
  256
370
   -1
100
AcDbPolyline
 90
    4
 70
    1
 43
0
 10
163.241571981919
 20
133.4239120408931
 10
178.4243057518242
 20
123.7551688303108
 10
187.5666396098303
 20
138.1112870949656
 10
172.3839058399251
 20
147.7800303055479
  0
LWPOLYLINE
  5
97
100
AcDbEntity
  8
0
  6
ByLayer
 62
  256
370
   -1
100
AcDbPolyline
 90
    4
 70
    1
 43
0
 10
174.8819763836912
 20
147.9793881706252
 10
186.6907693158397
 20
140.4592545623946
 10
194.2109029240703
 20
152.2680474945431
 10
182.4021099919219
 20
159.7881811027737
  0
LWPOLYLINE
  5
98
100
AcDbEntity
  8
0
  6
ByLayer
 62
  256
370
   -1
100
AcDbPolyline
 90
    4
 70
    1
 43
0
 10
172.3839058399251
 20
147.7800303055479
 10
187.5666396098303
 20
138.1112870949656
 10
196.7089734678364
 20
152.4674053596204
 10
181.5262396979312
 20
162.1361485702027
  0
LWPOLYLINE
  5
99
100
AcDbEntity
  8
0
  6
ByLayer
 62
  256
370
   -1
100
AcDbPolyline
 90
    4
 70
    1
 43
0
 10
184.0243102416973
 20
162.33550643528
 10
195.8331031738458
 20
154.8153728270493
 10
203.3532367820765
 20
166.6241657591978
 10
191.544443849928
 20
174.1442993674285
  0
LWPOLYLINE
  5
9A
100
AcDbEntity
  8
0
  6
ByLayer
 62
  256
370
   -1
100
AcDbPolyline
 90
    4
 70
    1
 43
0
 10
181.5262396979312
 20
162.1361485702027
 10
196.7089734678364
 20
152.4674053596204
 10
205.8513073258426
 20
166.8235236242752
 10
190.6685735559374
 20
176.4922668348575
  0
LWPOLYLINE
  5
9B
100
AcDbEntity
  8
0
  6
ByLayer
 62
  256
370
   -1
100
AcDbPolyline
 90
    4
 70
    1
 43
0
 10
193.1666440997035
 20
176.6916246999348
 10
204.9754370318519
 20
169.1714910917042
 10
212.4955706400826
 20
180.9802840238526
 10
200.6867777079341
 20
188.5004176320833
  0
LWPOLYLINE
  5
9C
100
AcDbEntity
  8
0
  6
ByLayer
 62
  256
370
   -1
100
AcDbPolyline
 90
    4
 70
    1
 43
0
 10
190.6685735559374
 20
176.4922668348575
 10
205.8513073258426
 20
166.8235236242752
 10
214.9936411838487
 20
181.17964188893
 10
199.8109074139435
 20
190.8483850995122
  0
LINE
  5
9D
100
AcDbEntity
  8
0
  6
ByLayer
 62
  256
370
   -1
100
AcDbLine
 10
203.3532367820765
 20
166.6241657591978
 11
184.0243102416973
 21
162.33550643528
  0
LINE
  5
9E
100
AcDbEntity
  8
construction
  6
ByLayer
 62
  256
370
   -1
100
AcDbLine
 10
182.9954726808272
 20
130.9332279626382
 11
203.5312337290301
 21
111.1019119896999
  0
LINE
  5
9F
100
AcDbEntity
  8
construction
  6
ByLayer
 62
  256
370
   -1
100
AcDbLine
 10
182.9954726808272
 20
130.9332279626382
 11
182.9954726808272
 21
100.9332279626382
  0
LWPOLYLINE
  5
A0
100
AcDbEntity
  8
0
  6
ByLayer
 62
  256
370
   -1
100
AcDbPolyline
 90
    4
 70
    1
 43
0
 10
178.8285499777963
 20
126.2127541991533
 10
188.5537671642222
 20
116.1419969944122
 10
198.6245243689633
 20
125.8672141808381
 10
188.8993071825374
 20
135.9379713855792
  0
LWPOLYLINE
  5
A1
100
AcDbEntity
  8
0
  6
ByLayer
 62
  256
370
   -1
100
AcDbPolyline
 90
    4
 70
    1
 43
0
 10
176.3530301383669
 20
126.6024996604375
 10
188.8568808066289
 20
113.6543832543418
 10
201.1000442083927
 20
125.4774687195539
 10
188.5961935401307
 20
138.4255851256496
  0
LWPOLYLINE
  5
A2
100
AcDbEntity
  8
0
  6
ByLayer
 62
  256
370
   -1
100
AcDbPolyline
 90
    4
 70
    1
 43
0
 10
191.3324006460582
 20
113.2646377930575
 10
201.0576178324842
 20
103.1938805883164
 10
211.1283750372253
 20
112.9190977747424
 10
201.4031578507993
 20
122.9898549794835
  0
LWPOLYLINE
  5
A3
100
AcDbEntity
  8
0
  6
ByLayer
 62
  256
370
   -1
100
AcDbPolyline
 90
    4
 70
    1
 43
0
 10
188.8568808066289
 20
113.6543832543418
 10
201.3607314748908
 20
100.706266848246
 10
213.6038948766546
 20
112.5293523134582
 10
201.1000442083927
 20
125.4774687195539
  0
LINE
  5
A4
100
AcDbEntity
  8
construction
  6
ByLayer
 62
  256
370
   -1
100
AcDbLine
 10
198.6245243689633
 20
125.8672141808381
 11
178.8285499777963
 21
126.2127541991533
  0
LWPOLYLINE
  5
A5
100
AcDbEntity
  8
0
  6
ByLayer
 62
  256
370
   -1
100
AcDbPolyline
 90
    4
 70
    1
 43
0
 10
359.8690383972524
 20
138.1879834499288
 10
372.973871897598
 20
133.2622003722629
 10
377.8996549752638
 20
146.3670338726085
 10
364.7948214749182
 20
151.2928169502744
  0
LWPOLYLINE
  5
A6
100
AcDbEntity
  8
0
  6
ByLayer
 62
  256
370
   -1
100
AcDbPolyline
 90
    4
 70
    1
 43
0
 10
357.4656384366833
 20
137.4782168477723
 10
374.3147100799848
 20
131.1450671764877
 10
380.3030549358328
 20
147.076800474765
 10
363.4539832925313
 20
153.4099501460496
  0
LWPOLYLINE
  5
A7
100
AcDbEntity
  8
0
  6
ByLayer
 62
  256
370
   -1
100
AcDbPolyline
 90
    4
 70
    1
 43
0
 10
365.8573832531004
 20
154.1197167482061
 10
378.9622167534461
 20
149.1939336705402
 10
383.8879998311119
 20
162.2987671708859
 10
370.7831663307662
 20
167.2245502485517
  0
LWPOLYLINE
  5
A8
100
AcDbEntity
  8
0
  6
ByLayer
 62
  256
370
   -1
100
AcDbPolyline
 90
    4
 70
    1
 43
0
 10
363.4539832925313
 20
153.4099501460496
 10
380.3030549358328
 20
147.076800474765
 10
386.2913997916809
 20
163.0085337730423
 10
369.4423281483794
 20
169.3416834443269
  0
LWPOLYLINE
  5
A9
100
AcDbEntity
  8
0
  6
ByLayer
 62
  256
370
   -1
100
AcDbPolyline
 90
    4
 70
    1
 43
0
 10
371.8457281089484
 20
170.0514500464834
 10
384.950561609294
 20
165.1256669688175
 10
389.8763446869598
 20
178.2305004691632
 10
376.7715111866142
 20
183.156283546829
  0
LWPOLYLINE
  5
AA
100
AcDbEntity
  8
0
  6
ByLayer
 62
  256
370
   -1
100
AcDbPolyline
 90
    4
 70
    1
 43
0
 10
369.4423281483794
 20
169.3416834443269
 10
386.2913997916809
 20
163.0085337730423
 10
392.2797446475289
 20
178.9402670713196
 10
375.4306730042274
 20
185.2734167426043
  0
LWPOLYLINE
  5
AB
100
AcDbEntity
  8
0
  6
ByLayer
 62
  256
370
   -1
100
AcDbPolyline
 90
    4
 70
    1
 43
0
 10
377.8340729647964
 20
185.9831833447607
 10
390.9389064651421
 20
181.0574002670949
 10
395.8646895428079
 20
194.1622337674405
 10
382.7598560424622
 20
199.0880168451063
  0
LWPOLYLINE
  5
AC
100
AcDbEntity
  8
0
  6
ByLayer
 62
  256
370
   -1
100
AcDbPolyline
 90
    4
 70
    1
 43
0
 10
375.4306730042274
 20
185.2734167426043
 10
392.2797446475289
 20
178.9402670713196
 10
398.2680895033769
 20
194.8720003695969
 10
381.4190178600754
 20
201.2051500408816
  0
LINE
  5
AD
100
AcDbEntity
  8
construction
  6
ByLayer
 62
  256
370
   -1
100
AcDbLine
 10
376.7715111866142
 20
183.156283546829
 11
384.950561609294
 21
165.1256669688175
  0
LWPOLYLINE
  5
AE
100
AcDbEntity
  8
0
  6
ByLayer
 62
  256
370
   -1
100
AcDbPolyline
 90
    4
 70
    1
 43
0
 10
342.7250231279532
 20
144.6372384606361
 10
356.1738966198501
 20
140.747790967874
 10
360.0633441126122
 20
154.1966644597709
 10
346.6144706207153
 20
158.086111952533
  0
LWPOLYLINE
  5
AF
100
AcDbEntity
  8
0
  6
ByLayer
 62
  256
370
   -1
100
AcDbPolyline
 90
    4
 70
    1
 43
0
 10
340.3842507923915
 20
143.7423167472618
 10
357.6756595676875
 20
138.741598542282
 10
362.404116448174
 20
155.0915861731451
 10
345.1127076728779
 20
160.092304378125
  0
LWPOLYLINE
  5
B0
100
AcDbEntity
  8
0
  6
ByLayer
 62
  256
370
   -1
100
AcDbPolyline
 90
    4
 70
    1
 43
0
 10
347.4534800084397
 20
160.9872260914993
 10
360.9023535003366
 20
157.0977785987372
 10
364.7918009930987
 20
170.5466520906341
 10
351.3429275012019
 20
174.4360995833962
  0
LWPOLYLINE
  5
B1
100
AcDbEntity
  8
0
  6
ByLayer
 62
  256
370
   -1
100
AcDbPolyline
 90
    4
 70
    1
 43
0
 10
345.1127076728779
 20
160.092304378125
 10
362.404116448174
 20
155.0915861731451
 10
367.1325733286604
 20
171.4415738040084
 10
349.8411645533645
 20
176.4422920089882
  0
LWPOLYLINE
  5
B2
100
AcDbEntity
  8
0
  6
ByLayer
 62
  256
370
   -1
100
AcDbPolyline
 90
    4
 70
    1
 43
0
 10
352.1819368889262
 20
177.3372137223625
 10
365.6308103808231
 20
173.4477662296004
 10
369.5202578735853
 20
186.8966397214973
 10
356.0713843816883
 20
190.7860872142594
  0
LWPOLYLINE
  5
B3
100
AcDbEntity
  8
0
  6
ByLayer
 62
  256
370
   -1
100
AcDbPolyline
 90
    4
 70
    1
 43
0
 10
349.8411645533645
 20
176.4422920089882
 10
367.1325733286604
 20
171.4415738040084
 10
371.861030209147
 20
187.7915614348715
 10
354.569621433851
 20
192.7922796398514
  0
LWPOLYLINE
  5
B4
100
AcDbEntity
  8
0
  6
ByLayer
 62
  256
370
   -1
100
AcDbPolyline
 90
    4
 70
    1
 43
0
 10
356.9103937694127
 20
193.6872013532257
 10
370.3592672613096
 20
189.7977538604636
 10
374.2487147540717
 20
203.2466273523605
 10
360.7998412621748
 20
207.1360748451226
  0
LWPOLYLINE
  5
B5
100
AcDbEntity
  8
0
  6
ByLayer
 62
  256
370
   -1
100
AcDbPolyline
 90
    4
 70
    1
 43
0
 10
354.569621433851
 20
192.7922796398514
 10
371.861030209147
 20
187.7915614348716
 10
376.5894870896335
 20
204.1415490657348
 10
359.2980783143375
 20
209.1422672707146
  0
LWPOLYLINE
  5
B6
100
AcDbEntity
  8
0
  6
ByLayer
 62
  256
370
   -1
100
AcDbPolyline
 90
    4
 70
    1
 43
0
 10
323.8300872657568
 20
145.8498409007411
 10
337.5118409957115
 20
142.8817413618323
 10
340.4799405346203
 20
156.563495091787
 10
326.7981868046656
 20
159.5315946306958
  0
LWPOLYLINE
  5
B7
100
AcDbEntity
  8
0
  6
ByLayer
 62
  256
370
   -1
100
AcDbPolyline
 90
    4
 70
    1
 43
0
 10
321.5554202826381
 20
144.7981802539972
 10
339.1462465068656
 20
140.9820522754002
 10
342.754607517739
 20
157.6151557385309
 10
325.1637812935115
 20
161.4312837171279
  0
LWPOLYLINE
  5
B8
100
AcDbEntity
  8
0
  6
ByLayer
 62
  256
370
   -1
100
AcDbPolyline
 90
    4
 70
    1
 43
0
 10
327.4384482766302
 20
162.4829443638717
 10
341.1202020065849
 20
159.5148448249629
 10
344.0883015454937
 20
173.1965985549177
 10
330.4065478155389
 20
176.1646980938264
  0
LWPOLYLINE
  5
B9
100
AcDbEntity
  8
0
  6
ByLayer
 62
  256
370
   -1
100
AcDbPolyline
 90
    4
 70
    1
 43
0
 10
325.1637812935115
 20
161.4312837171279
 10
342.754607517739
 20
157.6151557385309
 10
346.3629685286124
 20
174.2482592016615
 10
328.7721423043849
 20
178.0643871802585
  0
LWPOLYLINE
  5
BA
100
AcDbEntity
  8
0
  6
ByLayer
 62
  256
370
   -1
100
AcDbPolyline
 90
    4
 70
    1
 43
0
 10
331.0468092875036
 20
179.1160478270024
 10
344.7285630174583
 20
176.1479482880936
 10
347.6966625563671
 20
189.8297020180483
 10
334.0149088264124
 20
192.7978015569571
  0
LWPOLYLINE
  5
BB
100
AcDbEntity
  8
0
  6
ByLayer
 62
  256
370
   -1
100
AcDbPolyline
 90
    4
 70
    1
 43
0
 10
328.7721423043849
 20
178.0643871802585
 10
346.3629685286124
 20
174.2482592016615
 10
349.9713295394857
 20
190.8813626647922
 10
332.3805033152582
 20
194.6974906433892
  0
LWPOLYLINE
  5
BC
100
AcDbEntity
  8
0
  6
ByLayer
 62
  256
370
   -1
100
AcDbPolyline
 90
    4
 70
    1
 43
0
 10
334.655170298377
 20
195.749151290133
 10
348.3369240283316
 20
192.7810517512243
 10
351.3050235672404
 20
206.462805481179
 10
337.6232698372857
 20
209.4309050200877
  0
LWPOLYLINE
  5
BD
100
AcDbEntity
  8
0
  6
ByLayer
 62
  256
370
   -1
100
AcDbPolyline
 90
    4
 70
    1
 43
0
 10
332.3805033152582
 20
194.6974906433892
 10
349.9713295394857
 20
190.8813626647922
 10
353.5796905503591
 20
207.5144661279228
 10
335.9888643261316
 20
211.3305941065198
  0
LINE
  5
BE
100
AcDbEntity
  8
construction
  6
ByLayer
 62
  256
370
   -1
100
AcDbLine
 10
369.5202578735853
 20
186.8966397214973
 11
352.1819368889262
 21
177.3372137223625
  0
LINE
  5
BF
100
AcDbEntity
  8
construction
  6
ByLayer
 62
  256
370
   -1
100
AcDbLine
 10
347.6966625563671
 20
189.8297020180483
 11
331.0468092875036
 21
179.1160478270024
  0
LWPOLYLINE
  5
C0
100
AcDbEntity
  8
0
  6
ByLayer
 62
  256
370
   -1
100
AcDbPolyline
 90
    4
 70
    1
 43
0
 10
304.9639766621666
 20
140.5479116564457
 10
318.9298733658041
 20
139.571321024028
 10
319.9064639982219
 20
153.5372177276655
 10
305.9405672945843
 20
154.5138083600833
  0
LWPOLYLINE
  5
C1
100
AcDbEntity
  8
0
  6
ByLayer
 62
  256
370
   -1
100
AcDbPolyline
 90
    4
 70
    1
 43
0
 10
302.8635162862932
 20
139.1811028880417
 10
320.8196691909702
 20
137.9254863606474
 10
322.0069243740951
 20
154.9040264960696
 10
304.0507714694183
 20
156.1596430234638
  0
LWPOLYLINE
  5
C2
100
AcDbEntity
  8
0
  6
ByLayer
 62
  256
370
   -1
100
AcDbPolyline
 90
    4
 70
    1
 43
0
 10
306.1512318452916
 20
157.5264517918679
 10
320.1171285489291
 20
156.5498611594502
 10
321.0937191813468
 20
170.5157578630877
 10
307.1278224777093
 20
171.4923484955055
  0
LWPOLYLINE
  5
C3
100
AcDbEntity
  8
0
  6
ByLayer
 62
  256
370
   -1
100
AcDbPolyline
 90
    4
 70
    1
 43
0
 10
304.0507714694183
 20
156.1596430234638
 10
322.0069243740951
 20
154.9040264960696
 10
323.1941795572201
 20
171.8825666314918
 10
305.2380266525433
 20
173.1381831588861
  0
LWPOLYLINE
  5
C4
100
AcDbEntity
  8
0
  6
ByLayer
 62
  256
370
   -1
100
AcDbPolyline
 90
    4
 70
    1
 43
0
 10
307.3384870284166
 20
174.5049919272901
 10
321.3043837320541
 20
173.5284012948724
 10
322.2809743644719
 20
187.4942979985099
 10
308.3150776608344
 20
188.4708886309277
  0
LWPOLYLINE
  5
C5
100
AcDbEntity
  8
0
  6
ByLayer
 62
  256
370
   -1
100
AcDbPolyline
 90
    4
 70
    1
 43
0
 10
305.2380266525433
 20
173.1381831588861
 10
323.1941795572201
 20
171.8825666314918
 10
324.3814347403452
 20
188.861106766914
 10
306.4252818356683
 20
190.1167232943083
  0
LWPOLYLINE
  5
C6
100
AcDbEntity
  8
0
  6
ByLayer
 62
  256
370
   -1
100
AcDbPolyline
 90
    4
 70
    1
 43
0
 10
308.5257422115416
 20
191.4835320627124
 10
322.4916389151791
 20
190.5069414302946
 10
323.4682295475969
 20
204.4728381339321
 10
309.5023328439593
 20
205.4494287663499
  0
LWPOLYLINE
  5
C7
100
AcDbEntity
  8
0
  6
ByLayer
 62
  256
370
   -1
100
AcDbPolyline
 90
    4
 70
    1
 43
0
 10
306.4252818356683
 20
190.1167232943083
 10
324.3814347403452
 20
188.861106766914
 10
325.5686899234702
 20
205.8396469023362
 10
307.6125370187934
 20
207.0952634297305
  0
LINE
  5
C8
100
AcDbEntity
  8
construction
  6
ByLayer
 62
  256
370
   -1
100
AcDbLine
 10
322.2809743644719
 20
187.4942979985099
 11
307.3384870284166
 21
174.5049919272901
  0
LWPOLYLINE
  5
C9
100
AcDbEntity
  8
0
  6
ByLayer
 62
  256
370
   -1
100
AcDbPolyline
 90
    4
 70
    1
 43
0
 10
286.4133346653478
 20
131.0864983844988
 10
300.4083434095291
 20
130.7126932878401
 10
300.7821485061879
 20
144.7077020320215
 10
286.7871397620065
 20
145.0815071286802
  0
LWPOLYLINE
  5
CA
100
AcDbEntity
  8
0
  6
ByLayer
 62
  256
370
   -1
100
AcDbPolyline
 90
    4
 70
    1
 43
0
 10
284.3737301521822
 20
129.6304374551848
 10
302.3673128232726
 20
129.1498309023379
 10
302.8217530193534
 20
146.1637629613355
 10
284.8281703482631
 20
146.6443695141824
  0
LWPOLYLINE
  5
CB
100
AcDbEntity
  8
0
  6
ByLayer
 62
  256
370
   -1
100
AcDbPolyline
 90
    4
 70
    1
 43
0
 10
286.8677748614286
 20
148.1004304434964
 10
300.8627836056099
 20
147.7266253468377
 10
301.2365887022686
 20
161.7216340910191
 10
287.2415799580873
 20
162.0954391876778
  0
LWPOLYLINE
  5
CC
100
AcDbEntity
  8
0
  6
ByLayer
 62
  256
370
   -1
100
AcDbPolyline
 90
    4
 70
    1
 43
0
 10
284.8281703482631
 20
146.6443695141824
 10
302.8217530193534
 20
146.1637629613355
 10
303.2761932154343
 20
163.1776950203331
 10
285.2826105443439
 20
163.65830157318
  0
LWPOLYLINE
  5
CD
100
AcDbEntity
  8
0
  6
ByLayer
 62
  256
370
   -1
100
AcDbPolyline
 90
    4
 70
    1
 43
0
 10
287.3222150575095
 20
165.114362502494
 10
301.3172238016908
 20
164.7405574058353
 10
301.6910288983495
 20
178.7355661500167
 10
287.6960201541682
 20
179.1093712466754
  0
LWPOLYLINE
  5
CE
100
AcDbEntity
  8
0
  6
ByLayer
 62
  256
370
   -1
100
AcDbPolyline
 90
    4
 70
    1
 43
0
 10
285.2826105443439
 20
163.65830157318
 10
303.2761932154343
 20
163.1776950203331
 10
303.730633411515
 20
180.1916270793307
 10
285.7370507404248
 20
180.6722336321776
  0
LWPOLYLINE
  5
CF
100
AcDbEntity
  8
0
  6
ByLayer
 62
  256
370
   -1
100
AcDbPolyline
 90
    4
 70
    1
 43
0
 10
287.7766552535903
 20
182.1282945614917
 10
301.7716639977716
 20
181.7544894648329
 10
302.1454690944304
 20
195.7494982090142
 10
288.150460350249
 20
196.123303305673
  0
LWPOLYLINE
  5
D0
100
AcDbEntity
  8
0
  6
ByLayer
 62
  256
370
   -1
100
AcDbPolyline
 90
    4
 70
    1
 43
0
 10
285.7370507404248
 20
180.6722336321776
 10
303.730633411515
 20
180.1916270793307
 10
304.1850736075959
 20
197.2055591383283
 10
286.1914909365056
 20
197.6861656911752
  0
LINE
  5
D1
100
AcDbEntity
  8
construction
  6
ByLayer
 62
  256
370
   -1
100
AcDbLine
 10
301.6910288983495
 20
178.7355661500167
 11
287.3222150575095
 21
165.114362502494
  0
LWPOLYLINE
  5
D2
100
AcDbEntity
  8
0
  6
ByLayer
 62
  256
370
   -1
100
AcDbPolyline
 90
    4
 70
    1
 43
0
 10
376.306045548994
 20
130.0337966585263
 10
389.0465164339732
 20
124.2303148045876
 10
394.849998287912
 20
136.9707856895668
 10
382.1095274029327
 20
142.7742675435055
  0
LWPOLYLINE
  5
D3
100
AcDbEntity
  8
0
  6
ByLayer
 62
  256
370
   -1
100
AcDbPolyline
 90
    4
 70
    1
 43
0
 10
373.8600313083221
 20
129.4887147064948
 10
390.2406367318669
 20
122.0270951800021
 10
397.2960125285838
 20
137.5158676415983
 10
380.9154071050391
 20
144.977487168091
  0
LWPOLYLINE
  5
D4
100
AcDbEntity
  8
0
  6
ByLayer
 62
  256
370
   -1
100
AcDbPolyline
 90
    4
 70
    1
 43
0
 10
383.3614213457109
 20
145.5225691201225
 10
396.1018922306902
 20
139.7190872661837
 10
401.9053740846289
 20
152.459558151163
 10
389.1649031996497
 20
158.2630400051017
  0
LWPOLYLINE
  5
D5
100
AcDbEntity
  8
0
  6
ByLayer
 62
  256
370
   -1
100
AcDbPolyline
 90
    4
 70
    1
 43
0
 10
380.9154071050391
 20
144.977487168091
 10
397.2960125285838
 20
137.5158676415983
 10
404.3513883253008
 20
153.0046401031945
 10
387.9707829017561
 20
160.4662596296872
  0
LWPOLYLINE
  5
D6
100
AcDbEntity
  8
0
  6
ByLayer
 62
  256
370
   -1
100
AcDbPolyline
 90
    4
 70
    1
 43
0
 10
390.4167971424279
 20
161.0113415817187
 10
403.1572680274072
 20
155.2078597277799
 10
408.9607498813459
 20
167.9483306127592
 10
396.2202789963666
 20
173.7518124666979
  0
LWPOLYLINE
  5
D7
100
AcDbEntity
  8
0
  6
ByLayer
 62
  256
370
   -1
100
AcDbPolyline
 90
    4
 70
    1
 43
0
 10
387.9707829017561
 20
160.4662596296872
 10
404.3513883253008
 20
153.0046401031945
 10
411.4067641220177
 20
168.4934125647907
 10
395.026158698473
 20
175.9550320912834
  0
LWPOLYLINE
  5
D8
100
AcDbEntity
  8
0
  6
ByLayer
 62
  256
370
   -1
100
AcDbPolyline
 90
    4
 70
    1
 43
0
 10
397.4721729391449
 20
176.5001140433149
 10
410.2126438241241
 20
170.6966321893761
 10
416.0161256780629
 20
183.4371030743554
 10
403.2756547930836
 20
189.2405849282941
  0
LWPOLYLINE
  5
D9
100
AcDbEntity
  8
0
  6
ByLayer
 62
  256
370
   -1
100
AcDbPolyline
 90
    4
 70
    1
 43
0
 10
395.026158698473
 20
175.9550320912834
 10
411.4067641220177
 20
168.4934125647907
 10
418.4621399187347
 20
183.9821850263869
 10
402.0815344951899
 20
191.4438045528795
  0
LINE
  5
DA
100
AcDbEntity
  8
construction
  6
ByLayer
 62
  256
370
   -1
100
AcDbLine
 10
408.9607498813459
 20
167.9483306127592
 11
390.4167971424279
 21
161.0113415817187
  0
LWPOLYLINE
  5
DB
100
AcDbEntity
  8
0
  6
ByLayer
 62
  256
370
   -1
100
AcDbPolyline
 90
    4
 70
    1
 43
0
 10
388.0287943675178
 20
117.1673865435336
 10
396.2577878996125
 20
105.8411486222843
 10
407.5840258208617
 20
114.0701421543789
 10
399.3550322887671
 20
125.3963800756282
  0
LWPOLYLINE
  5
DC
100
AcDbEntity
  8
0
  6
ByLayer
 62
  256
370
   -1
100
AcDbPolyline
 90
    4
 70
    1
 43
0
 10
385.6316082014267
 20
117.8978648013218
 10
396.2117427426912
 20
103.3355589025728
 10
409.9812119869528
 20
113.3396638965907
 10
399.4010774456883
 20
127.9019697953397
  0
LWPOLYLINE
  5
DD
100
AcDbEntity
  8
0
  6
ByLayer
 62
  256
370
   -1
100
AcDbPolyline
 90
    4
 70
    1
 43
0
 10
398.6089289087823
 20
102.6050806447845
 10
406.837922440877
 20
91.27884272353523
 10
418.1641603621262
 20
99.50783625562987
 10
409.9351668300316
 20
110.8340741768791
  0
LWPOLYLINE
  5
DE
100
AcDbEntity
  8
0
  6
ByLayer
 62
  256
370
   -1
100
AcDbPolyline
 90
    4
 70
    1
 43
0
 10
396.2117427426912
 20
103.3355589025728
 10
406.7918772839558
 20
88.7732530038237
 10
420.5613465282173
 20
98.77735799784161
 10
409.9812119869528
 20
113.3396638965907
  0
LINE
  5
DF
100
AcDbEntity
  8
construction
  6
ByLayer
 62
  256
370
   -1
100
AcDbLine
 10
399.3550322887671
 20
125.3963800756282
 11
396.2577878996125
 21
105.8411486222843
  0
LWPOLYLINE
  5
E0
100
AcDbEntity
  8
0
  6
ByLayer
 62
  256
370
   -1
100
AcDbPolyline
 90
    4
 70
    1
 43
0
 10
559.8690383972523
 20
138.1879834499288
 10
572.973871897598
 20
133.2622003722629
 10
577.8996549752638
 20
146.3670338726085
 10
564.7948214749182
 20
151.2928169502744
  0
LWPOLYLINE
  5
E1
100
AcDbEntity
  8
0
  6
ByLayer
 62
  256
370
   -1
100
AcDbPolyline
 90
    4
 70
    1
 43
0
 10
565.8573832531004
 20
154.1197167482061
 10
578.962216753446
 20
149.1939336705402
 10
583.8879998311119
 20
162.2987671708859
 10
570.7831663307661
 20
167.2245502485517
  0
LWPOLYLINE
  5
E2
100
AcDbEntity
  8
0
  6
ByLayer
 62
  256
370
   -1
100
AcDbPolyline
 90
    4
 70
    1
 43
0
 10
571.8457281089484
 20
170.0514500464834
 10
584.950561609294
 20
165.1256669688175
 10
589.8763446869598
 20
178.2305004691632
 10
576.7715111866142
 20
183.156283546829
  0
LWPOLYLINE
  5
E3
100
AcDbEntity
  8
0
  6
ByLayer
 62
  256
370
   -1
100
AcDbPolyline
 90
    4
 70
    1
 43
0
 10
577.8340729647964
 20
185.9831833447607
 10
590.9389064651421
 20
181.0574002670949
 10
595.8646895428079
 20
194.1622337674405
 10
582.7598560424622
 20
199.0880168451063
  0
LINE
  5
E4
100
AcDbEntity
  8
construction
  6
ByLayer
 62
  256
370
   -1
100
AcDbLine
 10
576.7715111866142
 20
183.156283546829
 11
584.950561609294
 21
165.1256669688175
  0
LWPOLYLINE
  5
E5
100
AcDbEntity
  8
0
  6
ByLayer
 62
  256
370
   -1
100
AcDbPolyline
 90
    4
 70
    1
 43
0
 10
542.7250231279532
 20
144.6372384606361
 10
556.1738966198501
 20
140.747790967874
 10
560.0633441126122
 20
154.1966644597709
 10
546.6144706207153
 20
158.086111952533
  0
LWPOLYLINE
  5
E6
100
AcDbEntity
  8
0
  6
ByLayer
 62
  256
370
   -1
100
AcDbPolyline
 90
    4
 70
    1
 43
0
 10
547.4534800084398
 20
160.9872260914993
 10
560.9023535003366
 20
157.0977785987372
 10
564.7918009930987
 20
170.5466520906341
 10
551.3429275012019
 20
174.4360995833962
  0
LWPOLYLINE
  5
E7
100
AcDbEntity
  8
0
  6
ByLayer
 62
  256
370
   -1
100
AcDbPolyline
 90
    4
 70
    1
 43
0
 10
552.1819368889262
 20
177.3372137223625
 10
565.630810380823
 20
173.4477662296004
 10
569.5202578735853
 20
186.8966397214973
 10
556.0713843816884
 20
190.7860872142594
  0
LWPOLYLINE
  5
E8
100
AcDbEntity
  8
0
  6
ByLayer
 62
  256
370
   -1
100
AcDbPolyline
 90
    4
 70
    1
 43
0
 10
556.9103937694127
 20
193.6872013532257
 10
570.3592672613096
 20
189.7977538604636
 10
574.2487147540717
 20
203.2466273523605
 10
560.7998412621748
 20
207.1360748451226
  0
LWPOLYLINE
  5
E9
100
AcDbEntity
  8
0
  6
ByLayer
 62
  256
370
   -1
100
AcDbPolyline
 90
    4
 70
    1
 43
0
 10
523.8300872657569
 20
145.8498409007411
 10
537.5118409957115
 20
142.8817413618323
 10
540.4799405346203
 20
156.563495091787
 10
526.7981868046656
 20
159.5315946306958
  0
LWPOLYLINE
  5
EA
100
AcDbEntity
  8
0
  6
ByLayer
 62
  256
370
   -1
100
AcDbPolyline
 90
    4
 70
    1
 43
0
 10
527.4384482766302
 20
162.4829443638717
 10
541.1202020065849
 20
159.5148448249629
 10
544.0883015454937
 20
173.1965985549177
 10
530.4065478155389
 20
176.1646980938264
  0
LWPOLYLINE
  5
EB
100
AcDbEntity
  8
0
  6
ByLayer
 62
  256
370
   -1
100
AcDbPolyline
 90
    4
 70
    1
 43
0
 10
531.0468092875036
 20
179.1160478270024
 10
544.7285630174583
 20
176.1479482880936
 10
547.6966625563671
 20
189.8297020180483
 10
534.0149088264124
 20
192.7978015569571
  0
LWPOLYLINE
  5
EC
100
AcDbEntity
  8
0
  6
ByLayer
 62
  256
370
   -1
100
AcDbPolyline
 90
    4
 70
    1
 43
0
 10
534.655170298377
 20
195.749151290133
 10
548.3369240283316
 20
192.7810517512243
 10
551.3050235672404
 20
206.462805481179
 10
537.6232698372858
 20
209.4309050200877
  0
LINE
  5
ED
100
AcDbEntity
  8
construction
  6
ByLayer
 62
  256
370
   -1
100
AcDbLine
 10
569.5202578735853
 20
186.8966397214973
 11
552.1819368889262
 21
177.3372137223625
  0
LINE
  5
EE
100
AcDbEntity
  8
construction
  6
ByLayer
 62
  256
370
   -1
100
AcDbLine
 10
547.6966625563671
 20
189.8297020180483
 11
531.0468092875036
 21
179.1160478270024
  0
LWPOLYLINE
  5
EF
100
AcDbEntity
  8
0
  6
ByLayer
 62
  256
370
   -1
100
AcDbPolyline
 90
    4
 70
    1
 43
0
 10
504.9639766621666
 20
140.5479116564457
 10
518.929873365804
 20
139.571321024028
 10
519.9064639982219
 20
153.5372177276655
 10
505.9405672945843
 20
154.5138083600833
  0
LWPOLYLINE
  5
F0
100
AcDbEntity
  8
0
  6
ByLayer
 62
  256
370
   -1
100
AcDbPolyline
 90
    4
 70
    1
 43
0
 10
506.1512318452916
 20
157.5264517918679
 10
520.1171285489291
 20
156.5498611594502
 10
521.0937191813468
 20
170.5157578630877
 10
507.1278224777093
 20
171.4923484955055
  0
LWPOLYLINE
  5
F1
100
AcDbEntity
  8
0
  6
ByLayer
 62
  256
370
   -1
100
AcDbPolyline
 90
    4
 70
    1
 43
0
 10
507.3384870284166
 20
174.5049919272901
 10
521.3043837320541
 20
173.5284012948724
 10
522.2809743644718
 20
187.4942979985099
 10
508.3150776608344
 20
188.4708886309277
  0
LWPOLYLINE
  5
F2
100
AcDbEntity
  8
0
  6
ByLayer
 62
  256
370
   -1
100
AcDbPolyline
 90
    4
 70
    1
 43
0
 10
508.5257422115416
 20
191.4835320627124
 10
522.4916389151791
 20
190.5069414302946
 10
523.4682295475969
 20
204.4728381339321
 10
509.5023328439593
 20
205.4494287663499
  0
LINE
  5
F3
100
AcDbEntity
  8
construction
  6
ByLayer
 62
  256
370
   -1
100
AcDbLine
 10
522.2809743644718
 20
187.4942979985099
 11
507.3384870284166
 21
174.5049919272901
  0
LWPOLYLINE
  5
F4
100
AcDbEntity
  8
0
  6
ByLayer
 62
  256
370
   -1
100
AcDbPolyline
 90
    4
 70
    1
 43
0
 10
486.4133346653478
 20
131.0864983844988
 10
500.4083434095291
 20
130.7126932878401
 10
500.7821485061879
 20
144.7077020320215
 10
486.7871397620065
 20
145.0815071286802
  0
LWPOLYLINE
  5
F5
100
AcDbEntity
  8
0
  6
ByLayer
 62
  256
370
   -1
100
AcDbPolyline
 90
    4
 70
    1
 43
0
 10
486.8677748614286
 20
148.1004304434964
 10
500.8627836056099
 20
147.7266253468377
 10
501.2365887022686
 20
161.7216340910191
 10
487.2415799580873
 20
162.0954391876778
  0
LWPOLYLINE
  5
F6
100
AcDbEntity
  8
0
  6
ByLayer
 62
  256
370
   -1
100
AcDbPolyline
 90
    4
 70
    1
 43
0
 10
487.3222150575095
 20
165.114362502494
 10
501.3172238016908
 20
164.7405574058353
 10
501.6910288983495
 20
178.7355661500167
 10
487.6960201541682
 20
179.1093712466754
  0
LWPOLYLINE
  5
F7
100
AcDbEntity
  8
0
  6
ByLayer
 62
  256
370
   -1
100
AcDbPolyline
 90
    4
 70
    1
 43
0
 10
487.7766552535903
 20
182.1282945614917
 10
501.7716639977716
 20
181.7544894648329
 10
502.1454690944304
 20
195.7494982090142
 10
488.150460350249
 20
196.123303305673
  0
LINE
  5
F8
100
AcDbEntity
  8
construction
  6
ByLayer
 62
  256
370
   -1
100
AcDbLine
 10
501.6910288983495
 20
178.7355661500167
 11
487.3222150575095
 21
165.114362502494
  0
LWPOLYLINE
  5
F9
100
AcDbEntity
  8
0
  6
ByLayer
 62
  256
370
   -1
100
AcDbPolyline
 90
    4
 70
    1
 43
0
 10
576.306045548994
 20
130.0337966585263
 10
589.0465164339732
 20
124.2303148045876
 10
594.8499982879121
 20
136.9707856895668
 10
582.1095274029327
 20
142.7742675435055
  0
LWPOLYLINE
  5
FA
100
AcDbEntity
  8
0
  6
ByLayer
 62
  256
370
   -1
100
AcDbPolyline
 90
    4
 70
    1
 43
0
 10
583.3614213457109
 20
145.5225691201225
 10
596.1018922306903
 20
139.7190872661837
 10
601.9053740846289
 20
152.459558151163
 10
589.1649031996496
 20
158.2630400051017
  0
LWPOLYLINE
  5
FB
100
AcDbEntity
  8
0
  6
ByLayer
 62
  256
370
   -1
100
AcDbPolyline
 90
    4
 70
    1
 43
0
 10
590.4167971424279
 20
161.0113415817187
 10
603.1572680274071
 20
155.2078597277799
 10
608.9607498813459
 20
167.9483306127592
 10
596.2202789963667
 20
173.7518124666979
  0
LWPOLYLINE
  5
FC
100
AcDbEntity
  8
0
  6
ByLayer
 62
  256
370
   -1
100
AcDbPolyline
 90
    4
 70
    1
 43
0
 10
597.4721729391449
 20
176.5001140433149
 10
610.2126438241241
 20
170.6966321893761
 10
616.016125678063
 20
183.4371030743554
 10
603.2756547930835
 20
189.2405849282941
  0
LINE
  5
FD
100
AcDbEntity
  8
construction
  6
ByLayer
 62
  256
370
   -1
100
AcDbLine
 10
608.9607498813459
 20
167.9483306127592
 11
590.4167971424279
 21
161.0113415817187
  0
LWPOLYLINE
  5
FE
100
AcDbEntity
  8
0
  6
ByLayer
 62
  256
370
   -1
100
AcDbPolyline
 90
    4
 70
    1
 43
0
 10
588.0287943675178
 20
117.1673865435336
 10
596.2577878996125
 20
105.8411486222843
 10
607.5840258208617
 20
114.0701421543789
 10
599.355032288767
 20
125.3963800756282
  0
LWPOLYLINE
  5
FF
100
AcDbEntity
  8
0
  6
ByLayer
 62
  256
370
   -1
100
AcDbPolyline
 90
    4
 70
    1
 43
0
 10
598.6089289087823
 20
102.6050806447845
 10
606.837922440877
 20
91.27884272353523
 10
618.1641603621263
 20
99.50783625562987
 10
609.9351668300316
 20
110.8340741768791
  0
LINE
  5
100
100
AcDbEntity
  8
construction
  6
ByLayer
 62
  256
370
   -1
100
AcDbLine
 10
599.355032288767
 20
125.3963800756282
 11
596.2577878996125
 21
105.8411486222843
  0
CIRCLE
  5
101
100
AcDbEntity
  8
construction
  6
ByLayer
 62
  256
370
   -1
100
AcDbCircle
 10
486.1914909365056
 20
197.6861656911752
 40
4
  0
CIRCLE
  5
102
100
AcDbEntity
  8
construction
  6
ByLayer
 62
  256
370
   -1
100
AcDbCircle
 10
618.4621399187347
 20
183.9821850263869
 40
4
  0
CIRCLE
  5
103
100
AcDbEntity
  8
construction
  6
ByLayer
 62
  256
370
   -1
100
AcDbCircle
 10
484.3737301521822
 20
129.6304374551848
 40
4
  0
CIRCLE
  5
104
100
AcDbEntity
  8
construction
  6
ByLayer
 62
  256
370
   -1
100
AcDbCircle
 10
606.7918772839557
 20
88.7732530038237
 40
4
  0
CIRCLE
  5
105
100
AcDbEntity
  8
construction
  6
ByLayer
 62
  256
370
   -1
100
AcDbCircle
 10
620.5613465282173
 20
98.77735799784161
 40
4
  0
CIRCLE
  5
106
100
AcDbEntity
  8
construction
  6
ByLayer
 62
  256
370
   -1
100
AcDbCircle
 10
535.9888643261316
 20
211.3305941065198
 40
4
  0
CIRCLE
  5
107
100
AcDbEntity
  8
construction
  6
ByLayer
 62
  256
370
   -1
100
AcDbCircle
 10
559.2980783143375
 20
209.1422672707146
 40
4
  0
CIRCLE
  5
108
100
AcDbEntity
  8
construction
  6
ByLayer
 62
  256
370
   -1
100
AcDbCircle
 10
581.4190178600754
 20
201.2051500408816
 40
4
  0
LINE
  5
109
100
AcDbEntity
  8
edge
  6
ByLayer
 62
  256
370
   -1
100
AcDbLine
 10
482.1929170095967
 20
197.7929671473634
 11
480.3751562252733
 21
129.7372389113731
  0
LINE
  5
10A
100
AcDbEntity
  8
edge
  6
ByLayer
 62
  256
370
   -1
100
AcDbLine
 10
622.9124875373872
 20
95.54129002034182
 11
609.1430182931256
 21
85.53718502632391
  0
ARC
  5
10B
100
AcDbEntity
  8
edge
  6
ByLayer
 62
  256
370
   -1
100
AcDbCircle
 10
541.9085881007759
 20
90.27757626003479
 40
125.0000000000001
100
AcDbArc
 50
50.7523192342586
 51
117.4175610797163
  0
ARC
  5
10C
100
AcDbEntity
  8
edge
  6
ByLayer
 62
  256
370
   -1
100
AcDbCircle
 10
510.2200034973823
 20
3.246221058653688
 40
125.0000000000001
100
AcDbArc
 50
41.52909212992246
 51
101.5579354610991
  0
ARC
  5
10D
100
AcDbEntity
  8
edge
  6
ByLayer
 62
  256
370
   -1
100
AcDbCircle
 10
486.1914909365056
 20
197.6861656911752
 40
4.000000000003946
100
AcDbArc
 50
117.4175610797161
 51
178.4699192941057
  0
ARC
  5
10E
100
AcDbEntity
  8
edge
  6
ByLayer
 62
  256
370
   -1
100
AcDbCircle
 10
606.7918772839557
 20
88.7732530038237
 40
3.999999999999939
100
AcDbArc
 50
221.5290921299226
 51
306.0000737255523
  0
ARC
  5
10F
100
AcDbEntity
  8
edge
  6
ByLayer
 62
  256
370
   -1
100
AcDbCircle
 10
484.3737301521822
 20
129.6304374551848
 40
4
100
AcDbArc
 50
180
 51
281.5579555537469
  0
LWPOLYLINE
  5
110
100
AcDbEntity
  8
keycap guide
  6
ByLayer
 62
  256
370
   -1
100
AcDbPolyline
 90
    4
 70
    1
 43
0
 10
557.4656384366833
 20
137.4782168477723
 10
574.3147100799848
 20
131.1450671764877
 10
580.3030549358328
 20
147.076800474765
 10
563.4539832925313
 20
153.4099501460496
  0
LWPOLYLINE
  5
111
100
AcDbEntity
  8
keycap guide
  6
ByLayer
 62
  256
370
   -1
100
AcDbPolyline
 90
    4
 70
    1
 43
0
 10
563.4539832925313
 20
153.4099501460496
 10
580.3030549358328
 20
147.076800474765
 10
586.2913997916809
 20
163.0085337730423
 10
569.4423281483794
 20
169.3416834443269
  0
LWPOLYLINE
  5
112
100
AcDbEntity
  8
keycap guide
  6
ByLayer
 62
  256
370
   -1
100
AcDbPolyline
 90
    4
 70
    1
 43
0
 10
569.4423281483794
 20
169.3416834443269
 10
586.2913997916809
 20
163.0085337730423
 10
592.2797446475289
 20
178.9402670713196
 10
575.4306730042274
 20
185.2734167426043
  0
LWPOLYLINE
  5
113
100
AcDbEntity
  8
keycap guide
  6
ByLayer
 62
  256
370
   -1
100
AcDbPolyline
 90
    4
 70
    1
 43
0
 10
575.4306730042274
 20
185.2734167426043
 10
592.2797446475289
 20
178.9402670713196
 10
598.2680895033769
 20
194.8720003695969
 10
581.4190178600754
 20
201.2051500408816
  0
LWPOLYLINE
  5
114
100
AcDbEntity
  8
keycap guide
  6
ByLayer
 62
  256
370
   -1
100
AcDbPolyline
 90
    4
 70
    1
 43
0
 10
540.3842507923914
 20
143.7423167472618
 10
557.6756595676875
 20
138.741598542282
 10
562.4041164481739
 20
155.0915861731451
 10
545.1127076728779
 20
160.092304378125
  0
LWPOLYLINE
  5
115
100
AcDbEntity
  8
keycap guide
  6
ByLayer
 62
  256
370
   -1
100
AcDbPolyline
 90
    4
 70
    1
 43
0
 10
545.1127076728779
 20
160.092304378125
 10
562.4041164481739
 20
155.0915861731451
 10
567.1325733286604
 20
171.4415738040084
 10
549.8411645533645
 20
176.4422920089882
  0
LWPOLYLINE
  5
116
100
AcDbEntity
  8
keycap guide
  6
ByLayer
 62
  256
370
   -1
100
AcDbPolyline
 90
    4
 70
    1
 43
0
 10
549.8411645533645
 20
176.4422920089882
 10
567.1325733286604
 20
171.4415738040084
 10
571.861030209147
 20
187.7915614348715
 10
554.569621433851
 20
192.7922796398514
  0
LWPOLYLINE
  5
117
100
AcDbEntity
  8
keycap guide
  6
ByLayer
 62
  256
370
   -1
100
AcDbPolyline
 90
    4
 70
    1
 43
0
 10
554.569621433851
 20
192.7922796398514
 10
571.861030209147
 20
187.7915614348716
 10
576.5894870896335
 20
204.1415490657348
 10
559.2980783143375
 20
209.1422672707146
  0
LWPOLYLINE
  5
118
100
AcDbEntity
  8
keycap guide
  6
ByLayer
 62
  256
370
   -1
100
AcDbPolyline
 90
    4
 70
    1
 43
0
 10
521.5554202826381
 20
144.7981802539972
 10
539.1462465068656
 20
140.9820522754002
 10
542.754607517739
 20
157.6151557385309
 10
525.1637812935115
 20
161.4312837171279
  0
LWPOLYLINE
  5
119
100
AcDbEntity
  8
keycap guide
  6
ByLayer
 62
  256
370
   -1
100
AcDbPolyline
 90
    4
 70
    1
 43
0
 10
525.1637812935115
 20
161.4312837171279
 10
542.754607517739
 20
157.6151557385309
 10
546.3629685286123
 20
174.2482592016615
 10
528.7721423043849
 20
178.0643871802585
  0
LWPOLYLINE
  5
11A
100
AcDbEntity
  8
keycap guide
  6
ByLayer
 62
  256
370
   -1
100
AcDbPolyline
 90
    4
 70
    1
 43
0
 10
528.7721423043849
 20
178.0643871802585
 10
546.3629685286123
 20
174.2482592016615
 10
549.9713295394857
 20
190.8813626647922
 10
532.3805033152582
 20
194.6974906433892
  0
LWPOLYLINE
  5
11B
100
AcDbEntity
  8
keycap guide
  6
ByLayer
 62
  256
370
   -1
100
AcDbPolyline
 90
    4
 70
    1
 43
0
 10
532.3805033152582
 20
194.6974906433892
 10
549.9713295394857
 20
190.8813626647922
 10
553.5796905503591
 20
207.5144661279228
 10
535.9888643261316
 20
211.3305941065198
  0
LWPOLYLINE
  5
11C
100
AcDbEntity
  8
keycap guide
  6
ByLayer
 62
  256
370
   -1
100
AcDbPolyline
 90
    4
 70
    1
 43
0
 10
502.8635162862932
 20
139.1811028880417
 10
520.8196691909702
 20
137.9254863606474
 10
522.0069243740952
 20
154.9040264960696
 10
504.0507714694183
 20
156.1596430234638
  0
LWPOLYLINE
  5
11D
100
AcDbEntity
  8
keycap guide
  6
ByLayer
 62
  256
370
   -1
100
AcDbPolyline
 90
    4
 70
    1
 43
0
 10
504.0507714694183
 20
156.1596430234638
 10
522.0069243740952
 20
154.9040264960696
 10
523.1941795572202
 20
171.8825666314918
 10
505.2380266525433
 20
173.1381831588861
  0
LWPOLYLINE
  5
11E
100
AcDbEntity
  8
keycap guide
  6
ByLayer
 62
  256
370
   -1
100
AcDbPolyline
 90
    4
 70
    1
 43
0
 10
505.2380266525433
 20
173.1381831588861
 10
523.1941795572202
 20
171.8825666314918
 10
524.3814347403452
 20
188.861106766914
 10
506.4252818356683
 20
190.1167232943083
  0
LWPOLYLINE
  5
11F
100
AcDbEntity
  8
keycap guide
  6
ByLayer
 62
  256
370
   -1
100
AcDbPolyline
 90
    4
 70
    1
 43
0
 10
506.4252818356683
 20
190.1167232943083
 10
524.3814347403452
 20
188.861106766914
 10
525.5686899234702
 20
205.8396469023362
 10
507.6125370187934
 20
207.0952634297305
  0
LWPOLYLINE
  5
120
100
AcDbEntity
  8
keycap guide
  6
ByLayer
 62
  256
370
   -1
100
AcDbPolyline
 90
    4
 70
    1
 43
0
 10
484.3737301521822
 20
129.6304374551848
 10
502.3673128232726
 20
129.1498309023379
 10
502.8217530193534
 20
146.1637629613355
 10
484.8281703482631
 20
146.6443695141824
  0
LWPOLYLINE
  5
121
100
AcDbEntity
  8
keycap guide
  6
ByLayer
 62
  256
370
   -1
100
AcDbPolyline
 90
    4
 70
    1
 43
0
 10
484.8281703482631
 20
146.6443695141824
 10
502.8217530193534
 20
146.1637629613355
 10
503.2761932154343
 20
163.1776950203331
 10
485.2826105443439
 20
163.65830157318
  0
LWPOLYLINE
  5
122
100
AcDbEntity
  8
keycap guide
  6
ByLayer
 62
  256
370
   -1
100
AcDbPolyline
 90
    4
 70
    1
 43
0
 10
485.2826105443439
 20
163.65830157318
 10
503.2761932154343
 20
163.1776950203331
 10
503.730633411515
 20
180.1916270793307
 10
485.7370507404248
 20
180.6722336321776
  0
LWPOLYLINE
  5
123
100
AcDbEntity
  8
keycap guide
  6
ByLayer
 62
  256
370
   -1
100
AcDbPolyline
 90
    4
 70
    1
 43
0
 10
485.7370507404248
 20
180.6722336321776
 10
503.730633411515
 20
180.1916270793307
 10
504.1850736075959
 20
197.2055591383283
 10
486.1914909365056
 20
197.6861656911752
  0
LWPOLYLINE
  5
124
100
AcDbEntity
  8
keycap guide
  6
ByLayer
 62
  256
370
   -1
100
AcDbPolyline
 90
    4
 70
    1
 43
0
 10
573.860031308322
 20
129.4887147064948
 10
590.2406367318669
 20
122.0270951800021
 10
597.2960125285838
 20
137.5158676415983
 10
580.9154071050391
 20
144.977487168091
  0
LWPOLYLINE
  5
125
100
AcDbEntity
  8
keycap guide
  6
ByLayer
 62
  256
370
   -1
100
AcDbPolyline
 90
    4
 70
    1
 43
0
 10
580.9154071050391
 20
144.977487168091
 10
597.2960125285838
 20
137.5158676415983
 10
604.3513883253008
 20
153.0046401031945
 10
587.9707829017561
 20
160.4662596296872
  0
LWPOLYLINE
  5
126
100
AcDbEntity
  8
keycap guide
  6
ByLayer
 62
  256
370
   -1
100
AcDbPolyline
 90
    4
 70
    1
 43
0
 10
587.9707829017561
 20
160.4662596296872
 10
604.3513883253008
 20
153.0046401031945
 10
611.4067641220176
 20
168.4934125647907
 10
595.026158698473
 20
175.9550320912834
  0
LWPOLYLINE
  5
127
100
AcDbEntity
  8
keycap guide
  6
ByLayer
 62
  256
370
   -1
100
AcDbPolyline
 90
    4
 70
    1
 43
0
 10
595.026158698473
 20
175.9550320912834
 10
611.4067641220176
 20
168.4934125647907
 10
618.4621399187347
 20
183.9821850263869
 10
602.08153449519
 20
191.4438045528795
  0
LWPOLYLINE
  5
128
100
AcDbEntity
  8
keycap guide
  6
ByLayer
 62
  256
370
   -1
100
AcDbPolyline
 90
    4
 70
    1
 43
0
 10
585.6316082014266
 20
117.8978648013218
 10
596.2117427426913
 20
103.3355589025728
 10
609.9812119869528
 20
113.3396638965907
 10
599.4010774456883
 20
127.9019697953397
  0
LWPOLYLINE
  5
129
100
AcDbEntity
  8
keycap guide
  6
ByLayer
 62
  256
370
   -1
100
AcDbPolyline
 90
    4
 70
    1
 43
0
 10
596.2117427426913
 20
103.3355589025728
 10
606.7918772839557
 20
88.7732530038237
 10
620.5613465282173
 20
98.77735799784161
 10
609.9812119869528
 20
113.3396638965907
  0
ARC
  5
12A
100
AcDbEntity
  8
edge
  6
ByLayer
 62
  256
370
   -1
100
AcDbCircle
 10
506.2988782112511
 20
138.5905258461086
 40
125
100
AcDbArc
 50
340.7898192801658
 51
22.03282250432968
  0
ARC
  5
12B
100
AcDbEntity
  8
edge
  6
ByLayer
 62
  256
370
   -1
100
AcDbCircle
 10
618.4621399187347
 20
183.9821850263869
 40
4.00000000000002
100
AcDbArc
 50
22.03282250432938
 51
50.75231923425878
  0
ARC
  5
12C
100
AcDbEntity
  8
edge
  6
ByLayer
 62
  256
370
   -1
100
AcDbCircle
 10
620.5613465282174
 20
98.77735799784166
 40
3.999999999999952
100
AcDbArc
 50
305.9999999999978
 51
340.7898192801642
  0
LWPOLYLINE
  5
12D
100
AcDbEntity
  8
keycap guide
  6
ByLayer
 62
  256
370
   -1
100
AcDbPolyline
 90
    4
 70
    1
 43
0
 10
596.2906226723256
 20
131.4395111503215
 10
614.4912953651531
 20
123.1488227875519
 10
629
 20
155
 10
610.7993273071725
 20
163.2906883627696
  0
ENDSEC
  0
SECTION
  2
OBJECTS
  0
DICTIONARY
  5
C
330
0
100
AcDbDictionary
281
    1
  3
ACAD_GROUP
350
D
  3
ACAD_IMAGE_DICT
350
12E
  0
DICTIONARY
  5
D
330
C
100
AcDbDictionary
281
    1
  0
IMAGEDEF_REACTOR
  5
55
330
56
100
AcDbRasterImageDefReactor
 90
    2
330
56
  0
IMAGEDEF_REACTOR
  5
58
330
59
100
AcDbRasterImageDefReactor
 90
    2
330
59
  0
IMAGEDEF_REACTOR
  5
5A
330
5B
100
AcDbRasterImageDefReactor
 90
    2
330
5B
  0
DICTIONARY
  5
12E
330
C
100
AcDbDictionary
281
    1
  3
IMG_20230511_232110
350
54
  3
IMG_20230511_234857
350
57
  0
IMAGEDEF
  5
54
102
{ACAD_REACTORS
330
55
102
}
100
AcDbRasterImageDef
 90
    0
  1
/home/sam/Downloads/IMG_20230511_232110.jpg
 10
4608
 20
3456
 11
1
 21
1
280
    1
281
    0
  0
IMAGEDEF
  5
57
102
{ACAD_REACTORS
330
58
330
5A
102
}
100
AcDbRasterImageDef
 90
    0
  1
/home/sam/Downloads/IMG_20230511_234857.jpg
 10
4608
 20
3456
 11
1
 21
1
280
    1
281
    0
  0
ENDSEC
  0
EOF
