999
dxfrw 0.6.3
  0
SECTION
  2
HEADER
  9
$ACADVER
  1
AC1021
  9
$DWGCODEPAGE
  3
ANSI_1252
  9
$INSBASE
 10
0
 20
0
 30
0
  9
$EXTMIN
 10
-124.1182320684141
 20
-364.1232112478787
 30
0
  9
$EXTMAX
 10
235.8817679315859
 20
110.6634529633299
 30
0
  9
$LIMMIN
 10
0
 20
0
  9
$LIMMAX
 10
420
 20
297
  9
$ORTHOMODE
 70
    0
  9
$REGENMODE
 70
    1
  9
$FILLMODE
 70
    1
  9
$QTEXTMODE
 70
    0
  9
$MIRRTEXT
 70
    0
  9
$LTSCALE
 40
1
  9
$ATTMODE
 70
    0
  9
$TEXTSIZE
 40
2.5
  9
$TRACEWID
 40
15.68
  9
$TEXTSTYLE
  7
STANDARD
  9
$CLAYER
  8
outline
  9
$CELTYPE
  6
BYLAYER
  9
$CECOLOR
 62
  256
  9
$CELTSCALE
 40
1
  9
$DISPSILH
 70
    0
  9
$DIMSCALE
 40
2.5
  9
$DIMASZ
 40
2.5
  9
$DIMEXO
 40
0.625
  9
$DIMDLI
 40
3.75
  9
$DIMRND
 40
0
  9
$DIMDLE
 40
0
  9
$DIMEXE
 40
1.25
  9
$DIMTP
 40
0
  9
$DIMTM
 40
0
  9
$DIMTXT
 40
2.5
  9
$DIMCEN
 40
2.5
  9
$DIMTSZ
 40
0
  9
$DIMTOL
 70
    0
  9
$DIMLIM
 70
    0
  9
$DIMTIH
 70
    0
  9
$DIMTOH
 70
    0
  9
$DIMSE1
 70
    0
  9
$DIMSE2
 70
    0
  9
$DIMTAD
 70
    1
  9
$DIMZIN
 70
    8
  9
$DIMBLK
  1

  9
$DIMASO
 70
    1
  9
$DIMSHO
 70
    1
  9
$DIMPOST
  1

  9
$DIMAPOST
  1

  9
$DIMALT
 70
    0
  9
$DIMALTD
 70
    3
  9
$DIMALTF
 40
0.03937
  9
$DIMLFAC
 40
1
  9
$DIMTOFL
 70
    1
  9
$DIMTVP
 40
0
  9
$DIMTIX
 70
    0
  9
$DIMSOXD
 70
    0
  9
$DIMSAH
 70
    0
  9
$DIMBLK1
  1

  9
$DIMBLK2
  1

  9
$DIMSTYLE
  2
STANDARD
  9
$DIMCLRD
 70
    0
  9
$DIMCLRE
 70
    0
  9
$DIMCLRT
 70
    0
  9
$DIMTFAC
 40
1
  9
$DIMGAP
 40
0.625
  9
$DIMJUST
 70
    0
  9
$DIMSD1
 70
    0
  9
$DIMSD2
 70
    0
  9
$DIMTOLJ
 70
    0
  9
$DIMTZIN
 70
    8
  9
$DIMALTZ
 70
    0
  9
$DIMALTTZ
 70
    0
  9
$DIMUPT
 70
    0
  9
$DIMDEC
 70
    2
  9
$DIMTDEC
 70
    2
  9
$DIMALTU
 70
    2
  9
$DIMALTTD
 70
    3
  9
$DIMTXSTY
  7
STANDARD
  9
$DIMAUNIT
 70
    0
  9
$DIMADEC
 70
    0
  9
$DIMALTRND
 40
0
  9
$DIMAZIN
 70
    0
  9
$DIMDSEP
 70
   44
  9
$DIMATFIT
 70
    3
  9
$DIMFRAC
 70
    0
  9
$DIMLDRBLK
  1
STANDARD
  9
$DIMLUNIT
 70
    2
  9
$DIMLWD
 70
   -2
  9
$DIMLWE
 70
   -2
  9
$DIMTMOVE
 70
    0
  9
$DIMFXL
 40
1
  9
$DIMFXLON
 70
    0
  9
$DIMJOGANG
 40
0.7854
  9
$DIMTFILL
 70
    0
  9
$DIMTFILLCLR
 70
    0
  9
$DIMARCSYM
 70
    0
  9
$DIMLTYPE
  6

  9
$DIMLTEX1
  6

  9
$DIMLTEX2
  6

  9
$LUNITS
 70
    2
  9
$LUPREC
 70
    4
  9
$SKETCHINC
 40
1
  9
$FILLETRAD
 40
0
  9
$AUNITS
 70
    0
  9
$AUPREC
 70
    2
  9
$MENU
  1
.
  9
$ELEVATION
 40
0
  9
$PELEVATION
 40
0
  9
$THICKNESS
 40
0
  9
$LIMCHECK
 70
    0
  9
$CHAMFERA
 40
0
  9
$CHAMFERB
 40
0
  9
$CHAMFERC
 40
0
  9
$CHAMFERD
 40
0
  9
$SKPOLY
 70
    0
  9
$USRTIMER
 70
    1
  9
$ANGBASE
 50
0
  9
$ANGDIR
 70
    0
  9
$PDMODE
 70
   34
  9
$PDSIZE
 40
0
  9
$PLINEWID
 40
0
  9
$SPLFRAME
 70
    0
  9
$SPLINETYPE
 70
    2
  9
$SPLINESEGS
 70
    8
  9
$HANDSEED
  5
20000
  9
$SURFTAB1
 70
    6
  9
$SURFTAB2
 70
    6
  9
$SURFTYPE
 70
    6
  9
$SURFU
 70
    6
  9
$SURFV
 70
    6
  9
$UCSBASE
  2

  9
$UCSNAME
  2

  9
$UCSORG
 10
0
 20
0
 30
0
  9
$UCSXDIR
 10
1
 20
0
 30
0
  9
$UCSYDIR
 10
0
 20
1
 30
0
  9
$UCSORTHOREF
  2

  9
$UCSORTHOVIEW
 70
    0
  9
$UCSORGTOP
 10
0
 20
0
 30
0
  9
$UCSORGBOTTOM
 10
0
 20
0
 30
0
  9
$UCSORGLEFT
 10
0
 20
0
 30
0
  9
$UCSORGRIGHT
 10
0
 20
0
 30
0
  9
$UCSORGFRONT
 10
0
 20
0
 30
0
  9
$UCSORGBACK
 10
0
 20
0
 30
0
  9
$PUCSBASE
  2

  9
$PUCSNAME
  2

  9
$PUCSORG
 10
0
 20
0
 30
0
  9
$PUCSXDIR
 10
1
 20
0
 30
0
  9
$PUCSYDIR
 10
0
 20
1
 30
0
  9
$PUCSORTHOREF
  2

  9
$PUCSORTHOVIEW
 70
    0
  9
$PUCSORGTOP
 10
0
 20
0
 30
0
  9
$PUCSORGBOTTOM
 10
0
 20
0
 30
0
  9
$PUCSORGLEFT
 10
0
 20
0
 30
0
  9
$PUCSORGRIGHT
 10
0
 20
0
 30
0
  9
$PUCSORGFRONT
 10
0
 20
0
 30
0
  9
$PUCSORGBACK
 10
0
 20
0
 30
0
  9
$USERI1
 70
    0
  9
$USERI2
 70
    0
  9
$USERI3
 70
    0
  9
$USERI4
 70
    0
  9
$USERI5
 70
    0
  9
$USERR1
 40
0
  9
$USERR2
 40
0
  9
$USERR3
 40
0
  9
$USERR4
 40
0
  9
$USERR5
 40
0
  9
$WORLDVIEW
 70
    1
  9
$SHADEDGE
 70
    3
  9
$SHADEDIF
 70
   70
  9
$TILEMODE
 70
    1
  9
$MAXACTVP
 70
   64
  9
$PINSBASE
 10
0
 20
0
 30
0
  9
$PLIMCHECK
 70
    0
  9
$PEXTMIN
 10
0
 20
0
 30
0
  9
$PEXTMAX
 10
0
 20
0
 30
0
  9
$GRIDMODE
 70
    1
  9
$SNAPSTYLE
 70
    0
  9
$PLIMMIN
 10
0
 20
0
  9
$PLIMMAX
 10
210
 20
297
  9
$UNITMODE
 70
    0
  9
$VISRETAIN
 70
    1
  9
$PLINEGEN
 70
    0
  9
$PSLTSCALE
 70
    1
  9
$TREEDEPTH
 70
 3020
  9
$CMLSTYLE
  2
Standard
  9
$CMLJUST
 70
    0
  9
$CMLSCALE
 40
20
  9
$PROXYGRAPHICS
 70
    1
  9
$MEASUREMENT
 70
    1
  9
$CELWEIGHT
370
   -1
  9
$ENDCAPS
280
    0
  9
$JOINSTYLE
280
    0
  9
$LWDISPLAY
290
    0
  9
$INSUNITS
 70
    4
  9
$HYPERLINKBASE
  1

  9
$STYLESHEET
  1

  9
$XEDIT
290
    1
  9
$CEPSNTYPE
380
    0
  9
$PSTYLEMODE
290
    1
  9
$EXTNAMES
290
    1
  9
$PSVPSCALE
 40
1
  9
$OLESTARTUP
290
    0
  9
$SORTENTS
280
  127
  9
$INDEXCTL
280
    0
  9
$HIDETEXT
280
    1
  9
$XCLIPFRAME
290
    0
  9
$HALOGAP
280
    0
  9
$OBSCOLOR
 70
  257
  9
$OBSLTYPE
280
    0
  9
$INTERSECTIONDISPLAY
280
    0
  9
$INTERSECTIONCOLOR
 70
  257
  9
$DIMASSOC
280
    1
  9
$PROJECTNAME
  1

  9
$CAMERADISPLAY
290
    0
  9
$LENSLENGTH
 40
50
  9
$CAMERAHEIGHT
 40
0
  9
$STEPSPERSEC
 40
2
  9
$STEPSIZE
 40
50
  9
$3DDWFPREC
 40
2
  9
$PSOLWIDTH
 40
5
  9
$PSOLHEIGHT
 40
80
  9
$LOFTANG1
 40
1.570796326794897
  9
$LOFTANG2
 40
1.570796326794897
  9
$LOFTMAG1
 40
0
  9
$LOFTMAG2
 40
0
  9
$LOFTPARAM
 70
    7
  9
$LOFTNORMALS
280
    1
  9
$LATITUDE
 40
1
  9
$LONGITUDE
 40
1
  9
$NORTHDIRECTION
 40
0
  9
$TIMEZONE
 70
-8000
  9
$LIGHTGLYPHDISPLAY
280
    1
  9
$TILEMODELIGHTSYNCH
280
    1
  9
$SOLIDHIST
280
    1
  9
$SHOWHIST
280
    1
  9
$DWFFRAME
280
    2
  9
$DGNFRAME
280
    0
  9
$REALWORLDSCALE
290
    1
  9
$INTERFERECOLOR
 62
    1
  9
$CSHADOW
280
    0
  9
$SHADOWPLANELOCATION
 40
0
  0
ENDSEC
  0
SECTION
  2
CLASSES
  0
ENDSEC
  0
SECTION
  2
TABLES
  0
TABLE
  2
VPORT
  5
8
330
0
100
AcDbSymbolTable
 70
    1
  0
VPORT
  5
31
330
2
100
AcDbSymbolTableRecord
100
AcDbViewportTableRecord
  2
*ACTIVE
 70
    0
 10
0
 20
0
 11
1
 21
1
 12
104.256228831693
 22
47.32607945855988
 13
0
 23
0
 14
10
 24
10
 15
10
 25
10
 16
0
 26
0
 36
1
 17
0
 27
0
 37
0
 40
135.1512489183324
 41
1.766267123287671
 42
50
 43
0
 44
0
 50
0
 51
0
 71
    0
 72
  100
 73
    1
 74
    3
 75
    0
 76
    1
 77
    0
 78
    0
281
    0
 65
    1
110
0
120
0
130
0
111
1
121
0
131
0
112
0
122
1
132
0
 79
    0
146
0
348
10020
 60
    7
 61
    5
292
1
282
    1
141
0
142
0
 63
  250
421
3358443
  0
ENDTAB
  0
TABLE
  2
LTYPE
  5
5
330
0
100
AcDbSymbolTable
 70
    4
  0
LTYPE
  5
14
330
5
100
AcDbSymbolTableRecord
100
AcDbLinetypeTableRecord
  2
ByBlock
 70
    0
  3

 72
   65
 73
    0
 40
0
  0
LTYPE
  5
15
330
5
100
AcDbSymbolTableRecord
100
AcDbLinetypeTableRecord
  2
ByLayer
 70
    0
  3

 72
   65
 73
    0
 40
0
  0
LTYPE
  5
16
330
5
100
AcDbSymbolTableRecord
100
AcDbLinetypeTableRecord
  2
Continuous
 70
    0
  3
Solid line
 72
   65
 73
    0
 40
0
  0
LTYPE
  5
32
330
5
100
AcDbSymbolTableRecord
100
AcDbLinetypeTableRecord
  2
DOT
 70
    0
  3
Dot . . . . . . . . . . . . . . . . . . . . . .
 72
   65
 73
    2
 40
6.35
 49
0
 74
    0
 49
-6.35
 74
    0
  0
LTYPE
  5
33
330
5
100
AcDbSymbolTableRecord
100
AcDbLinetypeTableRecord
  2
DOTTINY
 70
    0
  3
Dot (.15x) .....................................
 72
   65
 73
    2
 40
0.9525
 49
0
 74
    0
 49
-0.9525
 74
    0
  0
LTYPE
  5
34
330
5
100
AcDbSymbolTableRecord
100
AcDbLinetypeTableRecord
  2
DOT2
 70
    0
  3
Dot (.5x) .....................................
 72
   65
 73
    2
 40
3.175
 49
0
 74
    0
 49
-3.175
 74
    0
  0
LTYPE
  5
35
330
5
100
AcDbSymbolTableRecord
100
AcDbLinetypeTableRecord
  2
DOTX2
 70
    0
  3
Dot (2x) .  .  .  .  .  .  .  .  .  .  .  .  .
 72
   65
 73
    2
 40
12.7
 49
0
 74
    0
 49
-12.7
 74
    0
  0
LTYPE
  5
36
330
5
100
AcDbSymbolTableRecord
100
AcDbLinetypeTableRecord
  2
DASHED
 70
    0
  3
Dashed _ _ _ _ _ _ _ _ _ _ _ _ _ _ _ _ _
 72
   65
 73
    2
 40
19.05
 49
12.7
 74
    0
 49
-6.35
 74
    0
  0
LTYPE
  5
37
330
5
100
AcDbSymbolTableRecord
100
AcDbLinetypeTableRecord
  2
DASHEDTINY
 70
    0
  3
Dashed (.15x) _ _ _ _ _ _ _ _ _ _ _ _ _ _ _ _ _
 72
   65
 73
    2
 40
2.8575
 49
1.905
 74
    0
 49
-0.9525
 74
    0
  0
LTYPE
  5
38
330
5
100
AcDbSymbolTableRecord
100
AcDbLinetypeTableRecord
  2
DASHED2
 70
    0
  3
Dashed (.5x) _ _ _ _ _ _ _ _ _ _ _ _ _ _ _ _ _
 72
   65
 73
    2
 40
9.524999999999999
 49
6.35
 74
    0
 49
-3.175
 74
    0
  0
LTYPE
  5
39
330
5
100
AcDbSymbolTableRecord
100
AcDbLinetypeTableRecord
  2
DASHEDX2
 70
    0
  3
Dashed (2x) ____  ____  ____  ____  ____  ___
 72
   65
 73
    2
 40
38.09999999999999
 49
25.4
 74
    0
 49
-12.7
 74
    0
  0
LTYPE
  5
3A
330
5
100
AcDbSymbolTableRecord
100
AcDbLinetypeTableRecord
  2
DASHDOT
 70
    0
  3
Dash dot __ . __ . __ . __ . __ . __ . __ . __
 72
   65
 73
    4
 40
25.4
 49
12.7
 74
    0
 49
-6.35
 74
    0
 49
0
 74
    0
 49
-6.35
 74
    0
  0
LTYPE
  5
3B
330
5
100
AcDbSymbolTableRecord
100
AcDbLinetypeTableRecord
  2
DASHDOTTINY
 70
    0
  3
Dash dot (.15x) _._._._._._._._._._._._._._._.
 72
   65
 73
    4
 40
3.81
 49
1.905
 74
    0
 49
-0.9525
 74
    0
 49
0
 74
    0
 49
-0.9525
 74
    0
  0
LTYPE
  5
3C
330
5
100
AcDbSymbolTableRecord
100
AcDbLinetypeTableRecord
  2
DASHDOT2
 70
    0
  3
Dash dot (.5x) _._._._._._._._._._._._._._._.
 72
   65
 73
    4
 40
12.7
 49
6.35
 74
    0
 49
-3.175
 74
    0
 49
0
 74
    0
 49
-3.175
 74
    0
  0
LTYPE
  5
3D
330
5
100
AcDbSymbolTableRecord
100
AcDbLinetypeTableRecord
  2
DASHDOTX2
 70
    0
  3
Dash dot (2x) ____  .  ____  .  ____  .  ___
 72
   65
 73
    4
 40
50.8
 49
25.4
 74
    0
 49
-12.7
 74
    0
 49
0
 74
    0
 49
-12.7
 74
    0
  0
LTYPE
  5
3E
330
5
100
AcDbSymbolTableRecord
100
AcDbLinetypeTableRecord
  2
DIVIDE
 70
    0
  3
Divide ____ . . ____ . . ____ . . ____ . . ____
 72
   65
 73
    6
 40
31.75
 49
12.7
 74
    0
 49
-6.35
 74
    0
 49
0
 74
    0
 49
-6.35
 74
    0
 49
0
 74
    0
 49
-6.35
 74
    0
  0
LTYPE
  5
3F
330
5
100
AcDbSymbolTableRecord
100
AcDbLinetypeTableRecord
  2
DIVIDETINY
 70
    0
  3
Divide (.15x) __..__..__..__..__..__..__..__.._
 72
   65
 73
    6
 40
4.7625
 49
1.905
 74
    0
 49
-0.9525
 74
    0
 49
0
 74
    0
 49
-0.9525
 74
    0
 49
0
 74
    0
 49
-0.9525
 74
    0
  0
LTYPE
  5
40
330
5
100
AcDbSymbolTableRecord
100
AcDbLinetypeTableRecord
  2
DIVIDE2
 70
    0
  3
Divide (.5x) __..__..__..__..__..__..__..__.._
 72
   65
 73
    6
 40
15.875
 49
6.35
 74
    0
 49
-3.175
 74
    0
 49
0
 74
    0
 49
-3.175
 74
    0
 49
0
 74
    0
 49
-3.175
 74
    0
  0
LTYPE
  5
41
330
5
100
AcDbSymbolTableRecord
100
AcDbLinetypeTableRecord
  2
DIVIDEX2
 70
    0
  3
Divide (2x) ________  .  .  ________  .  .  _
 72
   65
 73
    6
 40
63.5
 49
25.4
 74
    0
 49
-12.7
 74
    0
 49
0
 74
    0
 49
-12.7
 74
    0
 49
0
 74
    0
 49
-12.7
 74
    0
  0
LTYPE
  5
42
330
5
100
AcDbSymbolTableRecord
100
AcDbLinetypeTableRecord
  2
BORDER
 70
    0
  3
Border __ __ . __ __ . __ __ . __ __ . __ __ .
 72
   65
 73
    6
 40
44.45
 49
12.7
 74
    0
 49
-6.35
 74
    0
 49
12.7
 74
    0
 49
-6.35
 74
    0
 49
0
 74
    0
 49
-6.35
 74
    0
  0
LTYPE
  5
43
330
5
100
AcDbSymbolTableRecord
100
AcDbLinetypeTableRecord
  2
BORDERTINY
 70
    0
  3
Border (.15x) __.__.__.__.__.__.__.__.__.__.__.
 72
   65
 73
    6
 40
6.6675
 49
1.905
 74
    0
 49
-0.9525
 74
    0
 49
1.905
 74
    0
 49
-0.9525
 74
    0
 49
0
 74
    0
 49
-0.9525
 74
    0
  0
LTYPE
  5
44
330
5
100
AcDbSymbolTableRecord
100
AcDbLinetypeTableRecord
  2
BORDER2
 70
    0
  3
Border (.5x) __.__.__.__.__.__.__.__.__.__.__.
 72
   65
 73
    6
 40
22.225
 49
6.35
 74
    0
 49
-3.175
 74
    0
 49
6.35
 74
    0
 49
-3.175
 74
    0
 49
0
 74
    0
 49
-3.175
 74
    0
  0
LTYPE
  5
45
330
5
100
AcDbSymbolTableRecord
100
AcDbLinetypeTableRecord
  2
BORDERX2
 70
    0
  3
Border (2x) ____  ____  .  ____  ____  .  ___
 72
   65
 73
    6
 40
88.89999999999999
 49
25.4
 74
    0
 49
-12.7
 74
    0
 49
25.4
 74
    0
 49
-12.7
 74
    0
 49
0
 74
    0
 49
-12.7
 74
    0
  0
LTYPE
  5
46
330
5
100
AcDbSymbolTableRecord
100
AcDbLinetypeTableRecord
  2
CENTER
 70
    0
  3
Center ____ _ ____ _ ____ _ ____ _ ____ _ ____
 72
   65
 73
    4
 40
50.8
 49
31.75
 74
    0
 49
-6.35
 74
    0
 49
6.35
 74
    0
 49
-6.35
 74
    0
  0
LTYPE
  5
47
330
5
100
AcDbSymbolTableRecord
100
AcDbLinetypeTableRecord
  2
CENTERTINY
 70
    0
  3
Center (.15x) ___ _ ___ _ ___ _ ___ _ ___ _ ___
 72
   65
 73
    4
 40
7.619999999999999
 49
4.7625
 74
    0
 49
-0.9525
 74
    0
 49
0.9525
 74
    0
 49
-0.9525
 74
    0
  0
LTYPE
  5
48
330
5
100
AcDbSymbolTableRecord
100
AcDbLinetypeTableRecord
  2
CENTER2
 70
    0
  3
Center (.5x) ___ _ ___ _ ___ _ ___ _ ___ _ ___
 72
   65
 73
    4
 40
28.575
 49
19.05
 74
    0
 49
-3.175
 74
    0
 49
3.175
 74
    0
 49
-3.175
 74
    0
  0
LTYPE
  5
49
330
5
100
AcDbSymbolTableRecord
100
AcDbLinetypeTableRecord
  2
CENTERX2
 70
    0
  3
Center (2x) ________  __  ________  __  _____
 72
   65
 73
    4
 40
101.6
 49
63.5
 74
    0
 49
-12.7
 74
    0
 49
12.7
 74
    0
 49
-12.7
 74
    0
  0
ENDTAB
  0
TABLE
  2
LAYER
  5
2
330
0
100
AcDbSymbolTable
 70
    1
  0
LAYER
  5
10
330
2
100
AcDbSymbolTableRecord
100
AcDbLayerTableRecord
  2
0
 70
    0
 62
    3
  6
CONTINUOUS
370
    0
390
F
  0
LAYER
  5
4A
330
2
100
AcDbSymbolTableRecord
100
AcDbLayerTableRecord
  2
construction
 70
    1
 62
   56
420
8421376
  6
CONTINUOUS
370
    0
390
F
1001
LibreCad
1070
    1
  0
LAYER
  5
4B
330
2
100
AcDbSymbolTableRecord
100
AcDbLayerTableRecord
  2
outline
 70
    0
 62
    2
  6
CONTINUOUS
370
    0
390
F
  0
ENDTAB
  0
TABLE
  2
STYLE
  5
3
330
0
100
AcDbSymbolTable
 70
    3
  0
STYLE
  5
4C
330
2
100
AcDbSymbolTableRecord
100
AcDbTextStyleTableRecord
  2
Standard
 70
    0
 40
0
 41
1
 50
0
 71
    0
 42
1
  3
txt
  4

  0
ENDTAB
  0
TABLE
  2
VIEW
  5
6
330
0
100
AcDbSymbolTable
 70
    0
  0
ENDTAB
  0
TABLE
  2
UCS
  5
7
330
0
100
AcDbSymbolTable
 70
    0
  0
ENDTAB
  0
TABLE
  2
APPID
  5
9
330
0
100
AcDbSymbolTable
 70
    1
  0
APPID
  5
12
330
9
100
AcDbSymbolTableRecord
100
AcDbRegAppTableRecord
  2
ACAD
 70
    0
  0
APPID
  5
4D
330
9
100
AcDbSymbolTableRecord
100
AcDbRegAppTableRecord
  2
LibreCad
 70
    0
  0
ENDTAB
  0
TABLE
  2
DIMSTYLE
  5
A
330
0
100
AcDbSymbolTable
 70
    1
100
AcDbDimStyleTable
 71
    1
  0
DIMSTYLE
105
4E
330
A
100
AcDbSymbolTableRecord
100
AcDbDimStyleTableRecord
  2
Standard
 70
    0
 40
2.5
 41
2.5
 42
0.625
 43
0.38
 44
1.25
 45
0
 46
0
 47
0
 48
0
 49
1
140
2.5
141
0.09
142
0
143
25.4
144
1
145
0
146
1
147
0.625
148
0
 71
    0
 72
    0
 73
    0
 74
    1
 75
    0
 76
    0
 77
    0
 78
    8
 79
    0
170
    0
171
    2
172
    0
173
    0
174
    0
175
    0
176
    0
177
    0
178
    0
179
    0
271
    2
272
    4
273
    2
274
    2
275
    0
276
    0
277
    2
278
   44
279
    0
280
    0
281
    0
282
    0
283
    1
284
    0
285
    0
286
    0
288
    0
289
    3
340
STANDARD
341

371
   -2
372
   -2
  0
ENDTAB
  0
TABLE
  2
BLOCK_RECORD
  5
1
330
0
100
AcDbSymbolTable
 70
    2
  0
BLOCK_RECORD
  5
1F
330
1
100
AcDbSymbolTableRecord
100
AcDbBlockTableRecord
  2
*Model_Space
 70
    0
280
    1
281
    0
  0
BLOCK_RECORD
  5
1E
330
1
100
AcDbSymbolTableRecord
100
AcDbBlockTableRecord
  2
*Paper_Space
 70
    0
280
    1
281
    0
  0
ENDTAB
  0
ENDSEC
  0
SECTION
  2
BLOCKS
  0
BLOCK
  5
20
330
1F
100
AcDbEntity
  8
0
100
AcDbBlockBegin
  2
*Model_Space
 70
    0
 10
0
 20
0
 30
0
  3
*Model_Space
  1

  0
ENDBLK
  5
21
330
1F
100
AcDbEntity
  8
0
100
AcDbBlockEnd
  0
BLOCK
  5
1C
330
1B
100
AcDbEntity
  8
0
100
AcDbBlockBegin
  2
*Paper_Space
 70
    0
 10
0
 20
0
 30
0
  3
*Paper_Space
  1

  0
ENDBLK
  5
1D
330
1F
100
AcDbEntity
  8
0
100
AcDbBlockEnd
  0
ENDSEC
  0
SECTION
  2
ENTITIES
  0
ARC
  5
4F
100
AcDbEntity
  8
0
  6
ByLayer
 62
  256
370
   -1
100
AcDbCircle
 10
16.5
 20
11.3303061543301
 40
1.5
100
AcDbArc
 50
359.9999999999999
 51
44.41530859719286
  0
ARC
  5
50
100
AcDbEntity
  8
0
  6
ByLayer
 62
  256
370
   -1
100
AcDbCircle
 10
19.46969384566992
 20
14.3
 40
1.5
100
AcDbArc
 50
225.5846914028067
 51
270
  0
LINE
  5
51
100
AcDbEntity
  8
0
  6
ByLayer
 62
  256
370
   -1
100
AcDbLine
 10
19.46969384566992
 20
12.8
 11
30.33030615433011
 21
12.8
  0
ARC
  5
52
100
AcDbEntity
  8
0
  6
ByLayer
 62
  256
370
   -1
100
AcDbCircle
 10
30.33030615433011
 20
14.3
 40
1.5
100
AcDbArc
 50
270.0000000000001
 51
314.4153085971927
  0
ARC
  5
53
100
AcDbEntity
  8
0
  6
ByLayer
 62
  256
370
   -1
100
AcDbCircle
 10
33.3
 20
11.33030615433015
 40
1.5
100
AcDbArc
 50
135.5846914028081
 51
180
  0
LINE
  5
54
100
AcDbEntity
  8
0
  6
ByLayer
 62
  256
370
   -1
100
AcDbLine
 10
31.8
 20
11.33030615433015
 11
31.8
 21
1.469693845669843
  0
ARC
  5
55
100
AcDbEntity
  8
0
  6
ByLayer
 62
  256
370
   -1
100
AcDbCircle
 10
33.3
 20
1.469693845669844
 40
1.5
100
AcDbArc
 50
180
 51
224.4153085971917
  0
ARC
  5
56
100
AcDbEntity
  8
0
  6
ByLayer
 62
  256
370
   -1
100
AcDbCircle
 10
30.33030615433008
 20
-1.500000000000002
 40
1.5
100
AcDbArc
 50
45.58469140280688
 51
90
  0
LINE
  5
57
100
AcDbEntity
  8
0
  6
ByLayer
 62
  256
370
   -1
100
AcDbLine
 10
30.33030615433008
 20
0
 11
19.46969384566991
 21
0
  0
ARC
  5
58
100
AcDbEntity
  8
0
  6
ByLayer
 62
  256
370
   -1
100
AcDbCircle
 10
19.46969384566991
 20
-1.5
 40
1.5
100
AcDbArc
 50
90.00000000000001
 51
134.415308597193
  0
LINE
  5
59
100
AcDbEntity
  8
0
  6
ByLayer
 62
  256
370
   -1
100
AcDbLine
 10
18
 20
1.469693845669907
 11
18
 21
11.3303061543301
  0
ARC
  5
5A
100
AcDbEntity
  8
0
  6
ByLayer
 62
  256
370
   -1
100
AcDbCircle
 10
16.5
 20
1.469693845669907
 40
1.5
100
AcDbArc
 50
315.584691402807
 51
0
  0
ARC
  5
5B
100
AcDbEntity
  8
0
  6
ByLayer
 62
  256
370
   -1
100
AcDbCircle
 10
18
 20
12.8
 40
0.5999999999999994
100
AcDbArc
 50
44.99999999999995
 51
224.9999999999999
  0
ARC
  5
5C
100
AcDbEntity
  8
0
  6
ByLayer
 62
  256
370
   -1
100
AcDbCircle
 10
31.8
 20
12.8
 40
0.5999999999999593
100
AcDbArc
 50
315.5846914028081
 51
134.4152982727294
  0
ARC
  5
5D
100
AcDbEntity
  8
0
  6
ByLayer
 62
  256
370
   -1
100
AcDbCircle
 10
31.8
 20
0
 40
0.6000000000000074
100
AcDbArc
 50
225.5846914028069
 51
44.41529026775819
  0
ARC
  5
5E
100
AcDbEntity
  8
0
  6
ByLayer
 62
  256
370
   -1
100
AcDbCircle
 10
18
 20
0
 40
0.5999999999999998
100
AcDbArc
 50
135
 51
314.415308597193
  0
ARC
  5
5F
100
AcDbEntity
  8
0
  6
ByLayer
 62
  256
370
   -1
100
AcDbCircle
 10
16.5
 20
28.3303061543301
 40
1.5
100
AcDbArc
 50
359.9999999999999
 51
44.41530859719286
  0
ARC
  5
60
100
AcDbEntity
  8
0
  6
ByLayer
 62
  256
370
   -1
100
AcDbCircle
 10
19.46969384566992
 20
31.3
 40
1.5
100
AcDbArc
 50
225.5846914028067
 51
270
  0
LINE
  5
61
100
AcDbEntity
  8
0
  6
ByLayer
 62
  256
370
   -1
100
AcDbLine
 10
19.46969384566992
 20
29.8
 11
30.33030615433011
 21
29.8
  0
ARC
  5
62
100
AcDbEntity
  8
0
  6
ByLayer
 62
  256
370
   -1
100
AcDbCircle
 10
30.33030615433011
 20
31.3
 40
1.5
100
AcDbArc
 50
270.0000000000001
 51
314.4153085971927
  0
ARC
  5
63
100
AcDbEntity
  8
0
  6
ByLayer
 62
  256
370
   -1
100
AcDbCircle
 10
33.3
 20
28.33030615433015
 40
1.5
100
AcDbArc
 50
135.5846914028081
 51
180
  0
LINE
  5
64
100
AcDbEntity
  8
0
  6
ByLayer
 62
  256
370
   -1
100
AcDbLine
 10
31.8
 20
28.33030615433015
 11
31.8
 21
18.46969384566984
  0
ARC
  5
65
100
AcDbEntity
  8
0
  6
ByLayer
 62
  256
370
   -1
100
AcDbCircle
 10
33.3
 20
18.46969384566984
 40
1.5
100
AcDbArc
 50
180
 51
224.4153085971917
  0
ARC
  5
66
100
AcDbEntity
  8
0
  6
ByLayer
 62
  256
370
   -1
100
AcDbCircle
 10
30.33030615433008
 20
15.5
 40
1.5
100
AcDbArc
 50
45.58469140280688
 51
90
  0
LINE
  5
67
100
AcDbEntity
  8
0
  6
ByLayer
 62
  256
370
   -1
100
AcDbLine
 10
30.33030615433008
 20
17
 11
19.46969384566991
 21
17
  0
ARC
  5
68
100
AcDbEntity
  8
0
  6
ByLayer
 62
  256
370
   -1
100
AcDbCircle
 10
19.46969384566991
 20
15.5
 40
1.5
100
AcDbArc
 50
90.00000000000001
 51
134.415308597193
  0
LINE
  5
69
100
AcDbEntity
  8
0
  6
ByLayer
 62
  256
370
   -1
100
AcDbLine
 10
18
 20
18.46969384566991
 11
18
 21
28.3303061543301
  0
ARC
  5
6A
100
AcDbEntity
  8
0
  6
ByLayer
 62
  256
370
   -1
100
AcDbCircle
 10
16.5
 20
18.46969384566991
 40
1.5
100
AcDbArc
 50
315.584691402807
 51
0
  0
ARC
  5
6B
100
AcDbEntity
  8
0
  6
ByLayer
 62
  256
370
   -1
100
AcDbCircle
 10
18
 20
29.8
 40
0.5999999999999994
100
AcDbArc
 50
44.99999999999995
 51
224.9999999999999
  0
ARC
  5
6C
100
AcDbEntity
  8
0
  6
ByLayer
 62
  256
370
   -1
100
AcDbCircle
 10
31.8
 20
29.8
 40
0.5999999999999593
100
AcDbArc
 50
315.5846914028081
 51
134.4152982727294
  0
ARC
  5
6D
100
AcDbEntity
  8
0
  6
ByLayer
 62
  256
370
   -1
100
AcDbCircle
 10
31.8
 20
17
 40
0.6000000000000074
100
AcDbArc
 50
225.5846914028069
 51
44.41529026775819
  0
ARC
  5
6E
100
AcDbEntity
  8
0
  6
ByLayer
 62
  256
370
   -1
100
AcDbCircle
 10
18
 20
17
 40
0.5999999999999998
100
AcDbArc
 50
135
 51
314.415308597193
  0
ARC
  5
6F
100
AcDbEntity
  8
0
  6
ByLayer
 62
  256
370
   -1
100
AcDbCircle
 10
16.5
 20
45.3303061543301
 40
1.5
100
AcDbArc
 50
359.9999999999999
 51
44.41530859719286
  0
ARC
  5
70
100
AcDbEntity
  8
0
  6
ByLayer
 62
  256
370
   -1
100
AcDbCircle
 10
19.46969384566992
 20
48.3
 40
1.5
100
AcDbArc
 50
225.5846914028067
 51
270
  0
LINE
  5
71
100
AcDbEntity
  8
0
  6
ByLayer
 62
  256
370
   -1
100
AcDbLine
 10
19.46969384566992
 20
46.8
 11
30.33030615433011
 21
46.8
  0
ARC
  5
72
100
AcDbEntity
  8
0
  6
ByLayer
 62
  256
370
   -1
100
AcDbCircle
 10
30.33030615433011
 20
48.3
 40
1.5
100
AcDbArc
 50
270.0000000000001
 51
314.4153085971927
  0
ARC
  5
73
100
AcDbEntity
  8
0
  6
ByLayer
 62
  256
370
   -1
100
AcDbCircle
 10
33.3
 20
45.33030615433015
 40
1.5
100
AcDbArc
 50
135.5846914028081
 51
180
  0
LINE
  5
74
100
AcDbEntity
  8
0
  6
ByLayer
 62
  256
370
   -1
100
AcDbLine
 10
31.8
 20
45.33030615433015
 11
31.8
 21
35.46969384566984
  0
ARC
  5
75
100
AcDbEntity
  8
0
  6
ByLayer
 62
  256
370
   -1
100
AcDbCircle
 10
33.3
 20
35.46969384566984
 40
1.5
100
AcDbArc
 50
180
 51
224.4153085971917
  0
ARC
  5
76
100
AcDbEntity
  8
0
  6
ByLayer
 62
  256
370
   -1
100
AcDbCircle
 10
30.33030615433008
 20
32.5
 40
1.5
100
AcDbArc
 50
45.58469140280688
 51
90
  0
LINE
  5
77
100
AcDbEntity
  8
0
  6
ByLayer
 62
  256
370
   -1
100
AcDbLine
 10
30.33030615433008
 20
34
 11
19.46969384566991
 21
34
  0
ARC
  5
78
100
AcDbEntity
  8
0
  6
ByLayer
 62
  256
370
   -1
100
AcDbCircle
 10
19.46969384566991
 20
32.5
 40
1.5
100
AcDbArc
 50
90.00000000000001
 51
134.415308597193
  0
LINE
  5
79
100
AcDbEntity
  8
0
  6
ByLayer
 62
  256
370
   -1
100
AcDbLine
 10
18
 20
35.46969384566991
 11
18
 21
45.3303061543301
  0
ARC
  5
7A
100
AcDbEntity
  8
0
  6
ByLayer
 62
  256
370
   -1
100
AcDbCircle
 10
16.5
 20
35.46969384566991
 40
1.5
100
AcDbArc
 50
315.584691402807
 51
0
  0
ARC
  5
7B
100
AcDbEntity
  8
0
  6
ByLayer
 62
  256
370
   -1
100
AcDbCircle
 10
18
 20
46.8
 40
0.5999999999999994
100
AcDbArc
 50
44.99999999999995
 51
224.9999999999999
  0
ARC
  5
7C
100
AcDbEntity
  8
0
  6
ByLayer
 62
  256
370
   -1
100
AcDbCircle
 10
31.8
 20
46.8
 40
0.5999999999999593
100
AcDbArc
 50
315.5846914028081
 51
134.4152982727294
  0
ARC
  5
7D
100
AcDbEntity
  8
0
  6
ByLayer
 62
  256
370
   -1
100
AcDbCircle
 10
31.8
 20
34
 40
0.6000000000000074
100
AcDbArc
 50
225.5846914028069
 51
44.41529026775819
  0
ARC
  5
7E
100
AcDbEntity
  8
0
  6
ByLayer
 62
  256
370
   -1
100
AcDbCircle
 10
18
 20
34
 40
0.5999999999999998
100
AcDbArc
 50
135
 51
314.415308597193
  0
ARC
  5
7F
100
AcDbEntity
  8
0
  6
ByLayer
 62
  256
370
   -1
100
AcDbCircle
 10
16.5
 20
62.3303061543301
 40
1.5
100
AcDbArc
 50
359.9999999999999
 51
44.41530859719286
  0
ARC
  5
80
100
AcDbEntity
  8
0
  6
ByLayer
 62
  256
370
   -1
100
AcDbCircle
 10
19.46969384566992
 20
65.3
 40
1.5
100
AcDbArc
 50
225.5846914028067
 51
270
  0
LINE
  5
81
100
AcDbEntity
  8
0
  6
ByLayer
 62
  256
370
   -1
100
AcDbLine
 10
19.46969384566992
 20
63.8
 11
30.33030615433011
 21
63.8
  0
ARC
  5
82
100
AcDbEntity
  8
0
  6
ByLayer
 62
  256
370
   -1
100
AcDbCircle
 10
30.33030615433011
 20
65.3
 40
1.5
100
AcDbArc
 50
270.0000000000001
 51
314.4153085971927
  0
ARC
  5
83
100
AcDbEntity
  8
0
  6
ByLayer
 62
  256
370
   -1
100
AcDbCircle
 10
33.3
 20
62.33030615433015
 40
1.5
100
AcDbArc
 50
135.5846914028081
 51
180
  0
LINE
  5
84
100
AcDbEntity
  8
0
  6
ByLayer
 62
  256
370
   -1
100
AcDbLine
 10
31.8
 20
62.33030615433015
 11
31.8
 21
52.46969384566984
  0
ARC
  5
85
100
AcDbEntity
  8
0
  6
ByLayer
 62
  256
370
   -1
100
AcDbCircle
 10
33.3
 20
52.46969384566984
 40
1.5
100
AcDbArc
 50
180
 51
224.4153085971917
  0
ARC
  5
86
100
AcDbEntity
  8
0
  6
ByLayer
 62
  256
370
   -1
100
AcDbCircle
 10
30.33030615433008
 20
49.5
 40
1.5
100
AcDbArc
 50
45.58469140280688
 51
90
  0
LINE
  5
87
100
AcDbEntity
  8
0
  6
ByLayer
 62
  256
370
   -1
100
AcDbLine
 10
30.33030615433008
 20
51
 11
19.46969384566991
 21
51
  0
ARC
  5
88
100
AcDbEntity
  8
0
  6
ByLayer
 62
  256
370
   -1
100
AcDbCircle
 10
19.46969384566991
 20
49.5
 40
1.5
100
AcDbArc
 50
90.00000000000001
 51
134.415308597193
  0
LINE
  5
89
100
AcDbEntity
  8
0
  6
ByLayer
 62
  256
370
   -1
100
AcDbLine
 10
18
 20
52.46969384566991
 11
18
 21
62.3303061543301
  0
ARC
  5
8A
100
AcDbEntity
  8
0
  6
ByLayer
 62
  256
370
   -1
100
AcDbCircle
 10
16.5
 20
52.46969384566991
 40
1.5
100
AcDbArc
 50
315.584691402807
 51
0
  0
ARC
  5
8B
100
AcDbEntity
  8
0
  6
ByLayer
 62
  256
370
   -1
100
AcDbCircle
 10
18
 20
63.8
 40
0.5999999999999994
100
AcDbArc
 50
44.99999999999995
 51
224.9999999999999
  0
ARC
  5
8C
100
AcDbEntity
  8
0
  6
ByLayer
 62
  256
370
   -1
100
AcDbCircle
 10
31.8
 20
63.8
 40
0.5999999999999593
100
AcDbArc
 50
315.5846914028081
 51
134.4152982727294
  0
ARC
  5
8D
100
AcDbEntity
  8
0
  6
ByLayer
 62
  256
370
   -1
100
AcDbCircle
 10
31.8
 20
51
 40
0.6000000000000074
100
AcDbArc
 50
225.5846914028069
 51
44.41529026775819
  0
ARC
  5
8E
100
AcDbEntity
  8
0
  6
ByLayer
 62
  256
370
   -1
100
AcDbCircle
 10
18
 20
51
 40
0.5999999999999998
100
AcDbArc
 50
135
 51
314.415308597193
  0
ARC
  5
8F
100
AcDbEntity
  8
0
  6
ByLayer
 62
  256
370
   -1
100
AcDbCircle
 10
34.5
 20
16.3303061543301
 40
1.5
100
AcDbArc
 50
359.9999999999999
 51
44.41530859719286
  0
ARC
  5
90
100
AcDbEntity
  8
0
  6
ByLayer
 62
  256
370
   -1
100
AcDbCircle
 10
37.46969384566992
 20
19.3
 40
1.5
100
AcDbArc
 50
225.5846914028067
 51
270
  0
LINE
  5
91
100
AcDbEntity
  8
0
  6
ByLayer
 62
  256
370
   -1
100
AcDbLine
 10
37.46969384566992
 20
17.8
 11
48.33030615433012
 21
17.8
  0
ARC
  5
92
100
AcDbEntity
  8
0
  6
ByLayer
 62
  256
370
   -1
100
AcDbCircle
 10
48.33030615433011
 20
19.3
 40
1.5
100
AcDbArc
 50
270.0000000000001
 51
314.4153085971927
  0
ARC
  5
93
100
AcDbEntity
  8
0
  6
ByLayer
 62
  256
370
   -1
100
AcDbCircle
 10
51.3
 20
16.33030615433015
 40
1.5
100
AcDbArc
 50
135.5846914028081
 51
180
  0
LINE
  5
94
100
AcDbEntity
  8
0
  6
ByLayer
 62
  256
370
   -1
100
AcDbLine
 10
49.8
 20
16.33030615433015
 11
49.8
 21
6.469693845669843
  0
ARC
  5
95
100
AcDbEntity
  8
0
  6
ByLayer
 62
  256
370
   -1
100
AcDbCircle
 10
51.3
 20
6.469693845669844
 40
1.5
100
AcDbArc
 50
180
 51
224.4153085971917
  0
ARC
  5
96
100
AcDbEntity
  8
0
  6
ByLayer
 62
  256
370
   -1
100
AcDbCircle
 10
48.33030615433009
 20
3.499999999999998
 40
1.5
100
AcDbArc
 50
45.58469140280688
 51
90
  0
LINE
  5
97
100
AcDbEntity
  8
0
  6
ByLayer
 62
  256
370
   -1
100
AcDbLine
 10
48.33030615433009
 20
5
 11
37.46969384566991
 21
5
  0
ARC
  5
98
100
AcDbEntity
  8
0
  6
ByLayer
 62
  256
370
   -1
100
AcDbCircle
 10
37.46969384566991
 20
3.5
 40
1.5
100
AcDbArc
 50
90.00000000000001
 51
134.415308597193
  0
LINE
  5
99
100
AcDbEntity
  8
0
  6
ByLayer
 62
  256
370
   -1
100
AcDbLine
 10
36
 20
6.469693845669907
 11
36
 21
16.3303061543301
  0
ARC
  5
9A
100
AcDbEntity
  8
0
  6
ByLayer
 62
  256
370
   -1
100
AcDbCircle
 10
34.5
 20
6.469693845669907
 40
1.5
100
AcDbArc
 50
315.584691402807
 51
0
  0
ARC
  5
9B
100
AcDbEntity
  8
0
  6
ByLayer
 62
  256
370
   -1
100
AcDbCircle
 10
36
 20
17.8
 40
0.5999999999999994
100
AcDbArc
 50
44.99999999999995
 51
224.9999999999999
  0
ARC
  5
9C
100
AcDbEntity
  8
0
  6
ByLayer
 62
  256
370
   -1
100
AcDbCircle
 10
49.8
 20
17.8
 40
0.5999999999999593
100
AcDbArc
 50
315.5846914028081
 51
134.4152982727294
  0
ARC
  5
9D
100
AcDbEntity
  8
0
  6
ByLayer
 62
  256
370
   -1
100
AcDbCircle
 10
49.8
 20
5
 40
0.6000000000000074
100
AcDbArc
 50
225.5846914028069
 51
44.41529026775819
  0
ARC
  5
9E
100
AcDbEntity
  8
0
  6
ByLayer
 62
  256
370
   -1
100
AcDbCircle
 10
36
 20
5
 40
0.5999999999999998
100
AcDbArc
 50
135
 51
314.415308597193
  0
ARC
  5
9F
100
AcDbEntity
  8
0
  6
ByLayer
 62
  256
370
   -1
100
AcDbCircle
 10
34.5
 20
33.3303061543301
 40
1.5
100
AcDbArc
 50
359.9999999999999
 51
44.41530859719286
  0
ARC
  5
A0
100
AcDbEntity
  8
0
  6
ByLayer
 62
  256
370
   -1
100
AcDbCircle
 10
37.46969384566992
 20
36.3
 40
1.5
100
AcDbArc
 50
225.5846914028067
 51
270
  0
LINE
  5
A1
100
AcDbEntity
  8
0
  6
ByLayer
 62
  256
370
   -1
100
AcDbLine
 10
37.46969384566992
 20
34.8
 11
48.33030615433012
 21
34.8
  0
ARC
  5
A2
100
AcDbEntity
  8
0
  6
ByLayer
 62
  256
370
   -1
100
AcDbCircle
 10
48.33030615433011
 20
36.3
 40
1.5
100
AcDbArc
 50
270.0000000000001
 51
314.4153085971927
  0
ARC
  5
A3
100
AcDbEntity
  8
0
  6
ByLayer
 62
  256
370
   -1
100
AcDbCircle
 10
51.3
 20
33.33030615433015
 40
1.5
100
AcDbArc
 50
135.5846914028081
 51
180
  0
LINE
  5
A4
100
AcDbEntity
  8
0
  6
ByLayer
 62
  256
370
   -1
100
AcDbLine
 10
49.8
 20
33.33030615433015
 11
49.8
 21
23.46969384566984
  0
ARC
  5
A5
100
AcDbEntity
  8
0
  6
ByLayer
 62
  256
370
   -1
100
AcDbCircle
 10
51.3
 20
23.46969384566984
 40
1.5
100
AcDbArc
 50
180
 51
224.4153085971917
  0
ARC
  5
A6
100
AcDbEntity
  8
0
  6
ByLayer
 62
  256
370
   -1
100
AcDbCircle
 10
48.33030615433009
 20
20.5
 40
1.5
100
AcDbArc
 50
45.58469140280688
 51
90
  0
LINE
  5
A7
100
AcDbEntity
  8
0
  6
ByLayer
 62
  256
370
   -1
100
AcDbLine
 10
48.33030615433009
 20
22
 11
37.46969384566991
 21
22
  0
ARC
  5
A8
100
AcDbEntity
  8
0
  6
ByLayer
 62
  256
370
   -1
100
AcDbCircle
 10
37.46969384566991
 20
20.5
 40
1.5
100
AcDbArc
 50
90.00000000000001
 51
134.415308597193
  0
LINE
  5
A9
100
AcDbEntity
  8
0
  6
ByLayer
 62
  256
370
   -1
100
AcDbLine
 10
36
 20
23.46969384566991
 11
36
 21
33.3303061543301
  0
ARC
  5
AA
100
AcDbEntity
  8
0
  6
ByLayer
 62
  256
370
   -1
100
AcDbCircle
 10
34.5
 20
23.46969384566991
 40
1.5
100
AcDbArc
 50
315.584691402807
 51
0
  0
ARC
  5
AB
100
AcDbEntity
  8
0
  6
ByLayer
 62
  256
370
   -1
100
AcDbCircle
 10
36
 20
34.8
 40
0.5999999999999994
100
AcDbArc
 50
44.99999999999995
 51
224.9999999999999
  0
ARC
  5
AC
100
AcDbEntity
  8
0
  6
ByLayer
 62
  256
370
   -1
100
AcDbCircle
 10
49.8
 20
34.8
 40
0.5999999999999593
100
AcDbArc
 50
315.5846914028081
 51
134.4152982727294
  0
ARC
  5
AD
100
AcDbEntity
  8
0
  6
ByLayer
 62
  256
370
   -1
100
AcDbCircle
 10
49.8
 20
22
 40
0.6000000000000074
100
AcDbArc
 50
225.5846914028069
 51
44.41529026775819
  0
ARC
  5
AE
100
AcDbEntity
  8
0
  6
ByLayer
 62
  256
370
   -1
100
AcDbCircle
 10
36
 20
22
 40
0.5999999999999998
100
AcDbArc
 50
135
 51
314.415308597193
  0
ARC
  5
AF
100
AcDbEntity
  8
0
  6
ByLayer
 62
  256
370
   -1
100
AcDbCircle
 10
34.5
 20
50.3303061543301
 40
1.5
100
AcDbArc
 50
359.9999999999999
 51
44.41530859719286
  0
ARC
  5
B0
100
AcDbEntity
  8
0
  6
ByLayer
 62
  256
370
   -1
100
AcDbCircle
 10
37.46969384566992
 20
53.3
 40
1.5
100
AcDbArc
 50
225.5846914028067
 51
270
  0
LINE
  5
B1
100
AcDbEntity
  8
0
  6
ByLayer
 62
  256
370
   -1
100
AcDbLine
 10
37.46969384566992
 20
51.8
 11
48.33030615433012
 21
51.8
  0
ARC
  5
B2
100
AcDbEntity
  8
0
  6
ByLayer
 62
  256
370
   -1
100
AcDbCircle
 10
48.33030615433011
 20
53.3
 40
1.5
100
AcDbArc
 50
270.0000000000001
 51
314.4153085971927
  0
ARC
  5
B3
100
AcDbEntity
  8
0
  6
ByLayer
 62
  256
370
   -1
100
AcDbCircle
 10
51.3
 20
50.33030615433015
 40
1.5
100
AcDbArc
 50
135.5846914028081
 51
180
  0
LINE
  5
B4
100
AcDbEntity
  8
0
  6
ByLayer
 62
  256
370
   -1
100
AcDbLine
 10
49.8
 20
50.33030615433015
 11
49.8
 21
40.46969384566984
  0
ARC
  5
B5
100
AcDbEntity
  8
0
  6
ByLayer
 62
  256
370
   -1
100
AcDbCircle
 10
51.3
 20
40.46969384566984
 40
1.5
100
AcDbArc
 50
180
 51
224.4153085971917
  0
ARC
  5
B6
100
AcDbEntity
  8
0
  6
ByLayer
 62
  256
370
   -1
100
AcDbCircle
 10
48.33030615433009
 20
37.5
 40
1.5
100
AcDbArc
 50
45.58469140280688
 51
90
  0
LINE
  5
B7
100
AcDbEntity
  8
0
  6
ByLayer
 62
  256
370
   -1
100
AcDbLine
 10
48.33030615433009
 20
39
 11
37.46969384566991
 21
39
  0
ARC
  5
B8
100
AcDbEntity
  8
0
  6
ByLayer
 62
  256
370
   -1
100
AcDbCircle
 10
37.46969384566991
 20
37.5
 40
1.5
100
AcDbArc
 50
90.00000000000001
 51
134.415308597193
  0
LINE
  5
B9
100
AcDbEntity
  8
0
  6
ByLayer
 62
  256
370
   -1
100
AcDbLine
 10
36
 20
40.46969384566991
 11
36
 21
50.3303061543301
  0
ARC
  5
BA
100
AcDbEntity
  8
0
  6
ByLayer
 62
  256
370
   -1
100
AcDbCircle
 10
34.5
 20
40.46969384566991
 40
1.5
100
AcDbArc
 50
315.584691402807
 51
0
  0
ARC
  5
BB
100
AcDbEntity
  8
0
  6
ByLayer
 62
  256
370
   -1
100
AcDbCircle
 10
36
 20
51.8
 40
0.5999999999999994
100
AcDbArc
 50
44.99999999999995
 51
224.9999999999999
  0
ARC
  5
BC
100
AcDbEntity
  8
0
  6
ByLayer
 62
  256
370
   -1
100
AcDbCircle
 10
49.8
 20
51.8
 40
0.5999999999999593
100
AcDbArc
 50
315.5846914028081
 51
134.4152982727294
  0
ARC
  5
BD
100
AcDbEntity
  8
0
  6
ByLayer
 62
  256
370
   -1
100
AcDbCircle
 10
49.8
 20
39
 40
0.6000000000000074
100
AcDbArc
 50
225.5846914028069
 51
44.41529026775819
  0
ARC
  5
BE
100
AcDbEntity
  8
0
  6
ByLayer
 62
  256
370
   -1
100
AcDbCircle
 10
36
 20
39
 40
0.5999999999999998
100
AcDbArc
 50
135
 51
314.415308597193
  0
ARC
  5
BF
100
AcDbEntity
  8
0
  6
ByLayer
 62
  256
370
   -1
100
AcDbCircle
 10
34.5
 20
67.3303061543301
 40
1.5
100
AcDbArc
 50
359.9999999999999
 51
44.41530859719286
  0
ARC
  5
C0
100
AcDbEntity
  8
0
  6
ByLayer
 62
  256
370
   -1
100
AcDbCircle
 10
37.46969384566992
 20
70.3
 40
1.5
100
AcDbArc
 50
225.5846914028067
 51
270
  0
LINE
  5
C1
100
AcDbEntity
  8
0
  6
ByLayer
 62
  256
370
   -1
100
AcDbLine
 10
37.46969384566992
 20
68.8
 11
48.33030615433012
 21
68.8
  0
ARC
  5
C2
100
AcDbEntity
  8
0
  6
ByLayer
 62
  256
370
   -1
100
AcDbCircle
 10
48.33030615433011
 20
70.3
 40
1.5
100
AcDbArc
 50
270.0000000000001
 51
314.4153085971927
  0
ARC
  5
C3
100
AcDbEntity
  8
0
  6
ByLayer
 62
  256
370
   -1
100
AcDbCircle
 10
51.3
 20
67.33030615433015
 40
1.5
100
AcDbArc
 50
135.5846914028081
 51
180
  0
LINE
  5
C4
100
AcDbEntity
  8
0
  6
ByLayer
 62
  256
370
   -1
100
AcDbLine
 10
49.8
 20
67.33030615433015
 11
49.8
 21
57.46969384566984
  0
ARC
  5
C5
100
AcDbEntity
  8
0
  6
ByLayer
 62
  256
370
   -1
100
AcDbCircle
 10
51.3
 20
57.46969384566984
 40
1.5
100
AcDbArc
 50
180
 51
224.4153085971917
  0
ARC
  5
C6
100
AcDbEntity
  8
0
  6
ByLayer
 62
  256
370
   -1
100
AcDbCircle
 10
48.33030615433009
 20
54.5
 40
1.5
100
AcDbArc
 50
45.58469140280688
 51
90
  0
LINE
  5
C7
100
AcDbEntity
  8
0
  6
ByLayer
 62
  256
370
   -1
100
AcDbLine
 10
48.33030615433009
 20
56
 11
37.46969384566991
 21
56
  0
ARC
  5
C8
100
AcDbEntity
  8
0
  6
ByLayer
 62
  256
370
   -1
100
AcDbCircle
 10
37.46969384566991
 20
54.5
 40
1.5
100
AcDbArc
 50
90.00000000000001
 51
134.415308597193
  0
LINE
  5
C9
100
AcDbEntity
  8
0
  6
ByLayer
 62
  256
370
   -1
100
AcDbLine
 10
36
 20
57.46969384566991
 11
36
 21
67.33030615433009
  0
ARC
  5
CA
100
AcDbEntity
  8
0
  6
ByLayer
 62
  256
370
   -1
100
AcDbCircle
 10
34.5
 20
57.46969384566991
 40
1.5
100
AcDbArc
 50
315.584691402807
 51
0
  0
ARC
  5
CB
100
AcDbEntity
  8
0
  6
ByLayer
 62
  256
370
   -1
100
AcDbCircle
 10
36
 20
68.8
 40
0.5999999999999994
100
AcDbArc
 50
44.99999999999995
 51
224.9999999999999
  0
ARC
  5
CC
100
AcDbEntity
  8
0
  6
ByLayer
 62
  256
370
   -1
100
AcDbCircle
 10
49.8
 20
68.8
 40
0.5999999999999593
100
AcDbArc
 50
315.5846914028081
 51
134.4152982727294
  0
ARC
  5
CD
100
AcDbEntity
  8
0
  6
ByLayer
 62
  256
370
   -1
100
AcDbCircle
 10
49.8
 20
56
 40
0.6000000000000074
100
AcDbArc
 50
225.5846914028069
 51
44.41529026775819
  0
ARC
  5
CE
100
AcDbEntity
  8
0
  6
ByLayer
 62
  256
370
   -1
100
AcDbCircle
 10
36
 20
56
 40
0.5999999999999998
100
AcDbArc
 50
135
 51
314.415308597193
  0
ARC
  5
CF
100
AcDbEntity
  8
0
  6
ByLayer
 62
  256
370
   -1
100
AcDbCircle
 10
70.5
 20
16.3303061543301
 40
1.5
100
AcDbArc
 50
359.9999999999999
 51
44.41530859719286
  0
ARC
  5
D0
100
AcDbEntity
  8
0
  6
ByLayer
 62
  256
370
   -1
100
AcDbCircle
 10
73.46969384566992
 20
19.3
 40
1.5
100
AcDbArc
 50
225.5846914028067
 51
270
  0
LINE
  5
D1
100
AcDbEntity
  8
0
  6
ByLayer
 62
  256
370
   -1
100
AcDbLine
 10
73.46969384566992
 20
17.8
 11
84.33030615433012
 21
17.8
  0
ARC
  5
D2
100
AcDbEntity
  8
0
  6
ByLayer
 62
  256
370
   -1
100
AcDbCircle
 10
84.33030615433012
 20
19.3
 40
1.5
100
AcDbArc
 50
270.0000000000001
 51
314.4153085971927
  0
ARC
  5
D3
100
AcDbEntity
  8
0
  6
ByLayer
 62
  256
370
   -1
100
AcDbCircle
 10
87.3
 20
16.33030615433015
 40
1.5
100
AcDbArc
 50
135.5846914028081
 51
180
  0
LINE
  5
D4
100
AcDbEntity
  8
0
  6
ByLayer
 62
  256
370
   -1
100
AcDbLine
 10
85.8
 20
16.33030615433015
 11
85.8
 21
6.469693845669843
  0
ARC
  5
D5
100
AcDbEntity
  8
0
  6
ByLayer
 62
  256
370
   -1
100
AcDbCircle
 10
87.3
 20
6.469693845669844
 40
1.5
100
AcDbArc
 50
180
 51
224.4153085971917
  0
ARC
  5
D6
100
AcDbEntity
  8
0
  6
ByLayer
 62
  256
370
   -1
100
AcDbCircle
 10
84.33030615433009
 20
3.499999999999998
 40
1.5
100
AcDbArc
 50
45.58469140280688
 51
90
  0
LINE
  5
D7
100
AcDbEntity
  8
0
  6
ByLayer
 62
  256
370
   -1
100
AcDbLine
 10
84.33030615433009
 20
5
 11
73.46969384566991
 21
5
  0
ARC
  5
D8
100
AcDbEntity
  8
0
  6
ByLayer
 62
  256
370
   -1
100
AcDbCircle
 10
73.46969384566991
 20
3.5
 40
1.5
100
AcDbArc
 50
90.00000000000001
 51
134.415308597193
  0
LINE
  5
D9
100
AcDbEntity
  8
0
  6
ByLayer
 62
  256
370
   -1
100
AcDbLine
 10
72
 20
6.469693845669907
 11
72
 21
16.3303061543301
  0
ARC
  5
DA
100
AcDbEntity
  8
0
  6
ByLayer
 62
  256
370
   -1
100
AcDbCircle
 10
70.5
 20
6.469693845669907
 40
1.5
100
AcDbArc
 50
315.584691402807
 51
0
  0
ARC
  5
DB
100
AcDbEntity
  8
0
  6
ByLayer
 62
  256
370
   -1
100
AcDbCircle
 10
72
 20
17.8
 40
0.5999999999999994
100
AcDbArc
 50
44.99999999999995
 51
224.9999999999999
  0
ARC
  5
DC
100
AcDbEntity
  8
0
  6
ByLayer
 62
  256
370
   -1
100
AcDbCircle
 10
85.8
 20
17.8
 40
0.5999999999999593
100
AcDbArc
 50
315.5846914028081
 51
134.4152982727294
  0
ARC
  5
DD
100
AcDbEntity
  8
0
  6
ByLayer
 62
  256
370
   -1
100
AcDbCircle
 10
85.8
 20
5
 40
0.6000000000000074
100
AcDbArc
 50
225.5846914028069
 51
44.41529026775819
  0
ARC
  5
DE
100
AcDbEntity
  8
0
  6
ByLayer
 62
  256
370
   -1
100
AcDbCircle
 10
72
 20
5
 40
0.5999999999999998
100
AcDbArc
 50
135
 51
314.415308597193
  0
ARC
  5
DF
100
AcDbEntity
  8
0
  6
ByLayer
 62
  256
370
   -1
100
AcDbCircle
 10
70.5
 20
33.3303061543301
 40
1.5
100
AcDbArc
 50
359.9999999999999
 51
44.41530859719286
  0
ARC
  5
E0
100
AcDbEntity
  8
0
  6
ByLayer
 62
  256
370
   -1
100
AcDbCircle
 10
73.46969384566992
 20
36.3
 40
1.5
100
AcDbArc
 50
225.5846914028067
 51
270
  0
LINE
  5
E1
100
AcDbEntity
  8
0
  6
ByLayer
 62
  256
370
   -1
100
AcDbLine
 10
73.46969384566992
 20
34.8
 11
84.33030615433012
 21
34.8
  0
ARC
  5
E2
100
AcDbEntity
  8
0
  6
ByLayer
 62
  256
370
   -1
100
AcDbCircle
 10
84.33030615433012
 20
36.3
 40
1.5
100
AcDbArc
 50
270.0000000000001
 51
314.4153085971927
  0
ARC
  5
E3
100
AcDbEntity
  8
0
  6
ByLayer
 62
  256
370
   -1
100
AcDbCircle
 10
87.3
 20
33.33030615433015
 40
1.5
100
AcDbArc
 50
135.5846914028081
 51
180
  0
LINE
  5
E4
100
AcDbEntity
  8
0
  6
ByLayer
 62
  256
370
   -1
100
AcDbLine
 10
85.8
 20
33.33030615433015
 11
85.8
 21
23.46969384566984
  0
ARC
  5
E5
100
AcDbEntity
  8
0
  6
ByLayer
 62
  256
370
   -1
100
AcDbCircle
 10
87.3
 20
23.46969384566984
 40
1.5
100
AcDbArc
 50
180
 51
224.4153085971917
  0
ARC
  5
E6
100
AcDbEntity
  8
0
  6
ByLayer
 62
  256
370
   -1
100
AcDbCircle
 10
84.33030615433009
 20
20.5
 40
1.5
100
AcDbArc
 50
45.58469140280688
 51
90
  0
LINE
  5
E7
100
AcDbEntity
  8
0
  6
ByLayer
 62
  256
370
   -1
100
AcDbLine
 10
84.33030615433009
 20
22
 11
73.46969384566991
 21
22
  0
ARC
  5
E8
100
AcDbEntity
  8
0
  6
ByLayer
 62
  256
370
   -1
100
AcDbCircle
 10
73.46969384566991
 20
20.5
 40
1.5
100
AcDbArc
 50
90.00000000000001
 51
134.415308597193
  0
LINE
  5
E9
100
AcDbEntity
  8
0
  6
ByLayer
 62
  256
370
   -1
100
AcDbLine
 10
72
 20
23.46969384566991
 11
72
 21
33.3303061543301
  0
ARC
  5
EA
100
AcDbEntity
  8
0
  6
ByLayer
 62
  256
370
   -1
100
AcDbCircle
 10
70.5
 20
23.46969384566991
 40
1.5
100
AcDbArc
 50
315.584691402807
 51
0
  0
ARC
  5
EB
100
AcDbEntity
  8
0
  6
ByLayer
 62
  256
370
   -1
100
AcDbCircle
 10
72
 20
34.8
 40
0.5999999999999994
100
AcDbArc
 50
44.99999999999995
 51
224.9999999999999
  0
ARC
  5
EC
100
AcDbEntity
  8
0
  6
ByLayer
 62
  256
370
   -1
100
AcDbCircle
 10
85.8
 20
34.8
 40
0.5999999999999593
100
AcDbArc
 50
315.5846914028081
 51
134.4152982727294
  0
ARC
  5
ED
100
AcDbEntity
  8
0
  6
ByLayer
 62
  256
370
   -1
100
AcDbCircle
 10
85.8
 20
22
 40
0.6000000000000074
100
AcDbArc
 50
225.5846914028069
 51
44.41529026775819
  0
ARC
  5
EE
100
AcDbEntity
  8
0
  6
ByLayer
 62
  256
370
   -1
100
AcDbCircle
 10
72
 20
22
 40
0.5999999999999998
100
AcDbArc
 50
135
 51
314.415308597193
  0
ARC
  5
EF
100
AcDbEntity
  8
0
  6
ByLayer
 62
  256
370
   -1
100
AcDbCircle
 10
70.5
 20
50.3303061543301
 40
1.5
100
AcDbArc
 50
359.9999999999999
 51
44.41530859719286
  0
ARC
  5
F0
100
AcDbEntity
  8
0
  6
ByLayer
 62
  256
370
   -1
100
AcDbCircle
 10
73.46969384566992
 20
53.3
 40
1.5
100
AcDbArc
 50
225.5846914028067
 51
270
  0
LINE
  5
F1
100
AcDbEntity
  8
0
  6
ByLayer
 62
  256
370
   -1
100
AcDbLine
 10
73.46969384566992
 20
51.8
 11
84.33030615433012
 21
51.8
  0
ARC
  5
F2
100
AcDbEntity
  8
0
  6
ByLayer
 62
  256
370
   -1
100
AcDbCircle
 10
84.33030615433012
 20
53.3
 40
1.5
100
AcDbArc
 50
270.0000000000001
 51
314.4153085971927
  0
ARC
  5
F3
100
AcDbEntity
  8
0
  6
ByLayer
 62
  256
370
   -1
100
AcDbCircle
 10
87.3
 20
50.33030615433015
 40
1.5
100
AcDbArc
 50
135.5846914028081
 51
180
  0
LINE
  5
F4
100
AcDbEntity
  8
0
  6
ByLayer
 62
  256
370
   -1
100
AcDbLine
 10
85.8
 20
50.33030615433015
 11
85.8
 21
40.46969384566984
  0
ARC
  5
F5
100
AcDbEntity
  8
0
  6
ByLayer
 62
  256
370
   -1
100
AcDbCircle
 10
87.3
 20
40.46969384566984
 40
1.5
100
AcDbArc
 50
180
 51
224.4153085971917
  0
ARC
  5
F6
100
AcDbEntity
  8
0
  6
ByLayer
 62
  256
370
   -1
100
AcDbCircle
 10
84.33030615433009
 20
37.5
 40
1.5
100
AcDbArc
 50
45.58469140280688
 51
90
  0
LINE
  5
F7
100
AcDbEntity
  8
0
  6
ByLayer
 62
  256
370
   -1
100
AcDbLine
 10
84.33030615433009
 20
39
 11
73.46969384566991
 21
39
  0
ARC
  5
F8
100
AcDbEntity
  8
0
  6
ByLayer
 62
  256
370
   -1
100
AcDbCircle
 10
73.46969384566991
 20
37.5
 40
1.5
100
AcDbArc
 50
90.00000000000001
 51
134.415308597193
  0
LINE
  5
F9
100
AcDbEntity
  8
0
  6
ByLayer
 62
  256
370
   -1
100
AcDbLine
 10
72
 20
40.46969384566991
 11
72
 21
50.3303061543301
  0
ARC
  5
FA
100
AcDbEntity
  8
0
  6
ByLayer
 62
  256
370
   -1
100
AcDbCircle
 10
70.5
 20
40.46969384566991
 40
1.5
100
AcDbArc
 50
315.584691402807
 51
0
  0
ARC
  5
FB
100
AcDbEntity
  8
0
  6
ByLayer
 62
  256
370
   -1
100
AcDbCircle
 10
72
 20
51.8
 40
0.5999999999999994
100
AcDbArc
 50
44.99999999999995
 51
224.9999999999999
  0
ARC
  5
FC
100
AcDbEntity
  8
0
  6
ByLayer
 62
  256
370
   -1
100
AcDbCircle
 10
85.8
 20
51.8
 40
0.5999999999999593
100
AcDbArc
 50
315.5846914028081
 51
134.4152982727294
  0
ARC
  5
FD
100
AcDbEntity
  8
0
  6
ByLayer
 62
  256
370
   -1
100
AcDbCircle
 10
85.8
 20
39
 40
0.6000000000000074
100
AcDbArc
 50
225.5846914028069
 51
44.41529026775819
  0
ARC
  5
FE
100
AcDbEntity
  8
0
  6
ByLayer
 62
  256
370
   -1
100
AcDbCircle
 10
72
 20
39
 40
0.5999999999999998
100
AcDbArc
 50
135
 51
314.415308597193
  0
ARC
  5
FF
100
AcDbEntity
  8
0
  6
ByLayer
 62
  256
370
   -1
100
AcDbCircle
 10
70.5
 20
67.3303061543301
 40
1.5
100
AcDbArc
 50
359.9999999999999
 51
44.41530859719286
  0
ARC
  5
100
100
AcDbEntity
  8
0
  6
ByLayer
 62
  256
370
   -1
100
AcDbCircle
 10
73.46969384566992
 20
70.3
 40
1.5
100
AcDbArc
 50
225.5846914028067
 51
270
  0
LINE
  5
101
100
AcDbEntity
  8
0
  6
ByLayer
 62
  256
370
   -1
100
AcDbLine
 10
73.46969384566992
 20
68.8
 11
84.33030615433012
 21
68.8
  0
ARC
  5
102
100
AcDbEntity
  8
0
  6
ByLayer
 62
  256
370
   -1
100
AcDbCircle
 10
84.33030615433012
 20
70.3
 40
1.5
100
AcDbArc
 50
270.0000000000001
 51
314.4153085971927
  0
ARC
  5
103
100
AcDbEntity
  8
0
  6
ByLayer
 62
  256
370
   -1
100
AcDbCircle
 10
87.3
 20
67.33030615433015
 40
1.5
100
AcDbArc
 50
135.5846914028081
 51
180
  0
LINE
  5
104
100
AcDbEntity
  8
0
  6
ByLayer
 62
  256
370
   -1
100
AcDbLine
 10
85.8
 20
67.33030615433015
 11
85.8
 21
57.46969384566984
  0
ARC
  5
105
100
AcDbEntity
  8
0
  6
ByLayer
 62
  256
370
   -1
100
AcDbCircle
 10
87.3
 20
57.46969384566984
 40
1.5
100
AcDbArc
 50
180
 51
224.4153085971917
  0
ARC
  5
106
100
AcDbEntity
  8
0
  6
ByLayer
 62
  256
370
   -1
100
AcDbCircle
 10
84.33030615433009
 20
54.5
 40
1.5
100
AcDbArc
 50
45.58469140280688
 51
90
  0
LINE
  5
107
100
AcDbEntity
  8
0
  6
ByLayer
 62
  256
370
   -1
100
AcDbLine
 10
84.33030615433009
 20
56
 11
73.46969384566991
 21
56
  0
ARC
  5
108
100
AcDbEntity
  8
0
  6
ByLayer
 62
  256
370
   -1
100
AcDbCircle
 10
73.46969384566991
 20
54.5
 40
1.5
100
AcDbArc
 50
90.00000000000001
 51
134.415308597193
  0
LINE
  5
109
100
AcDbEntity
  8
0
  6
ByLayer
 62
  256
370
   -1
100
AcDbLine
 10
72
 20
57.46969384566991
 11
72
 21
67.33030615433009
  0
ARC
  5
10A
100
AcDbEntity
  8
0
  6
ByLayer
 62
  256
370
   -1
100
AcDbCircle
 10
70.5
 20
57.46969384566991
 40
1.5
100
AcDbArc
 50
315.584691402807
 51
0
  0
ARC
  5
10B
100
AcDbEntity
  8
0
  6
ByLayer
 62
  256
370
   -1
100
AcDbCircle
 10
72
 20
68.8
 40
0.5999999999999994
100
AcDbArc
 50
44.99999999999995
 51
224.9999999999999
  0
ARC
  5
10C
100
AcDbEntity
  8
0
  6
ByLayer
 62
  256
370
   -1
100
AcDbCircle
 10
85.8
 20
68.8
 40
0.5999999999999593
100
AcDbArc
 50
315.5846914028081
 51
134.4152982727294
  0
ARC
  5
10D
100
AcDbEntity
  8
0
  6
ByLayer
 62
  256
370
   -1
100
AcDbCircle
 10
85.8
 20
56
 40
0.6000000000000074
100
AcDbArc
 50
225.5846914028069
 51
44.41529026775819
  0
ARC
  5
10E
100
AcDbEntity
  8
0
  6
ByLayer
 62
  256
370
   -1
100
AcDbCircle
 10
72
 20
56
 40
0.5999999999999998
100
AcDbArc
 50
135
 51
314.415308597193
  0
ARC
  5
10F
100
AcDbEntity
  8
0
  6
ByLayer
 62
  256
370
   -1
100
AcDbCircle
 10
52.5
 20
21.3303061543301
 40
1.5
100
AcDbArc
 50
359.9999999999999
 51
44.41530859719286
  0
ARC
  5
110
100
AcDbEntity
  8
0
  6
ByLayer
 62
  256
370
   -1
100
AcDbCircle
 10
55.46969384566992
 20
24.3
 40
1.5
100
AcDbArc
 50
225.5846914028067
 51
270
  0
LINE
  5
111
100
AcDbEntity
  8
0
  6
ByLayer
 62
  256
370
   -1
100
AcDbLine
 10
55.46969384566992
 20
22.8
 11
66.33030615433012
 21
22.8
  0
ARC
  5
112
100
AcDbEntity
  8
0
  6
ByLayer
 62
  256
370
   -1
100
AcDbCircle
 10
66.33030615433012
 20
24.3
 40
1.5
100
AcDbArc
 50
270.0000000000001
 51
314.4153085971927
  0
ARC
  5
113
100
AcDbEntity
  8
0
  6
ByLayer
 62
  256
370
   -1
100
AcDbCircle
 10
69.3
 20
21.33030615433015
 40
1.5
100
AcDbArc
 50
135.5846914028081
 51
180
  0
LINE
  5
114
100
AcDbEntity
  8
0
  6
ByLayer
 62
  256
370
   -1
100
AcDbLine
 10
67.8
 20
21.33030615433015
 11
67.8
 21
11.46969384566984
  0
ARC
  5
115
100
AcDbEntity
  8
0
  6
ByLayer
 62
  256
370
   -1
100
AcDbCircle
 10
69.3
 20
11.46969384566984
 40
1.5
100
AcDbArc
 50
180
 51
224.4153085971917
  0
ARC
  5
116
100
AcDbEntity
  8
0
  6
ByLayer
 62
  256
370
   -1
100
AcDbCircle
 10
66.33030615433009
 20
8.499999999999998
 40
1.5
100
AcDbArc
 50
45.58469140280688
 51
90
  0
LINE
  5
117
100
AcDbEntity
  8
0
  6
ByLayer
 62
  256
370
   -1
100
AcDbLine
 10
66.33030615433009
 20
10
 11
55.46969384566991
 21
10
  0
ARC
  5
118
100
AcDbEntity
  8
0
  6
ByLayer
 62
  256
370
   -1
100
AcDbCircle
 10
55.46969384566991
 20
8.5
 40
1.5
100
AcDbArc
 50
90.00000000000001
 51
134.415308597193
  0
LINE
  5
119
100
AcDbEntity
  8
0
  6
ByLayer
 62
  256
370
   -1
100
AcDbLine
 10
54
 20
11.46969384566991
 11
54
 21
21.3303061543301
  0
ARC
  5
11A
100
AcDbEntity
  8
0
  6
ByLayer
 62
  256
370
   -1
100
AcDbCircle
 10
52.5
 20
11.46969384566991
 40
1.5
100
AcDbArc
 50
315.584691402807
 51
0
  0
ARC
  5
11B
100
AcDbEntity
  8
0
  6
ByLayer
 62
  256
370
   -1
100
AcDbCircle
 10
54
 20
22.8
 40
0.5999999999999994
100
AcDbArc
 50
44.99999999999995
 51
224.9999999999999
  0
ARC
  5
11C
100
AcDbEntity
  8
0
  6
ByLayer
 62
  256
370
   -1
100
AcDbCircle
 10
67.8
 20
22.8
 40
0.5999999999999593
100
AcDbArc
 50
315.5846914028081
 51
134.4152982727294
  0
ARC
  5
11D
100
AcDbEntity
  8
0
  6
ByLayer
 62
  256
370
   -1
100
AcDbCircle
 10
67.8
 20
10
 40
0.6000000000000074
100
AcDbArc
 50
225.5846914028069
 51
44.41529026775819
  0
ARC
  5
11E
100
AcDbEntity
  8
0
  6
ByLayer
 62
  256
370
   -1
100
AcDbCircle
 10
54
 20
10
 40
0.5999999999999998
100
AcDbArc
 50
135
 51
314.415308597193
  0
ARC
  5
11F
100
AcDbEntity
  8
0
  6
ByLayer
 62
  256
370
   -1
100
AcDbCircle
 10
52.5
 20
38.3303061543301
 40
1.5
100
AcDbArc
 50
359.9999999999999
 51
44.41530859719286
  0
ARC
  5
120
100
AcDbEntity
  8
0
  6
ByLayer
 62
  256
370
   -1
100
AcDbCircle
 10
55.46969384566992
 20
41.3
 40
1.5
100
AcDbArc
 50
225.5846914028067
 51
270
  0
LINE
  5
121
100
AcDbEntity
  8
0
  6
ByLayer
 62
  256
370
   -1
100
AcDbLine
 10
55.46969384566992
 20
39.8
 11
66.33030615433012
 21
39.8
  0
ARC
  5
122
100
AcDbEntity
  8
0
  6
ByLayer
 62
  256
370
   -1
100
AcDbCircle
 10
66.33030615433012
 20
41.3
 40
1.5
100
AcDbArc
 50
270.0000000000001
 51
314.4153085971927
  0
ARC
  5
123
100
AcDbEntity
  8
0
  6
ByLayer
 62
  256
370
   -1
100
AcDbCircle
 10
69.3
 20
38.33030615433015
 40
1.5
100
AcDbArc
 50
135.5846914028081
 51
180
  0
LINE
  5
124
100
AcDbEntity
  8
0
  6
ByLayer
 62
  256
370
   -1
100
AcDbLine
 10
67.8
 20
38.33030615433015
 11
67.8
 21
28.46969384566984
  0
ARC
  5
125
100
AcDbEntity
  8
0
  6
ByLayer
 62
  256
370
   -1
100
AcDbCircle
 10
69.3
 20
28.46969384566984
 40
1.5
100
AcDbArc
 50
180
 51
224.4153085971917
  0
ARC
  5
126
100
AcDbEntity
  8
0
  6
ByLayer
 62
  256
370
   -1
100
AcDbCircle
 10
66.33030615433009
 20
25.5
 40
1.5
100
AcDbArc
 50
45.58469140280688
 51
90
  0
LINE
  5
127
100
AcDbEntity
  8
0
  6
ByLayer
 62
  256
370
   -1
100
AcDbLine
 10
66.33030615433009
 20
27
 11
55.46969384566991
 21
27
  0
ARC
  5
128
100
AcDbEntity
  8
0
  6
ByLayer
 62
  256
370
   -1
100
AcDbCircle
 10
55.46969384566991
 20
25.5
 40
1.5
100
AcDbArc
 50
90.00000000000001
 51
134.415308597193
  0
LINE
  5
129
100
AcDbEntity
  8
0
  6
ByLayer
 62
  256
370
   -1
100
AcDbLine
 10
54
 20
28.46969384566991
 11
54
 21
38.3303061543301
  0
ARC
  5
12A
100
AcDbEntity
  8
0
  6
ByLayer
 62
  256
370
   -1
100
AcDbCircle
 10
52.5
 20
28.46969384566991
 40
1.5
100
AcDbArc
 50
315.584691402807
 51
0
  0
ARC
  5
12B
100
AcDbEntity
  8
0
  6
ByLayer
 62
  256
370
   -1
100
AcDbCircle
 10
54
 20
39.8
 40
0.5999999999999994
100
AcDbArc
 50
44.99999999999995
 51
224.9999999999999
  0
ARC
  5
12C
100
AcDbEntity
  8
0
  6
ByLayer
 62
  256
370
   -1
100
AcDbCircle
 10
67.8
 20
39.8
 40
0.5999999999999593
100
AcDbArc
 50
315.5846914028081
 51
134.4152982727294
  0
ARC
  5
12D
100
AcDbEntity
  8
0
  6
ByLayer
 62
  256
370
   -1
100
AcDbCircle
 10
67.8
 20
27
 40
0.6000000000000074
100
AcDbArc
 50
225.5846914028069
 51
44.41529026775819
  0
ARC
  5
12E
100
AcDbEntity
  8
0
  6
ByLayer
 62
  256
370
   -1
100
AcDbCircle
 10
54
 20
27
 40
0.5999999999999998
100
AcDbArc
 50
135
 51
314.415308597193
  0
ARC
  5
12F
100
AcDbEntity
  8
0
  6
ByLayer
 62
  256
370
   -1
100
AcDbCircle
 10
52.5
 20
55.3303061543301
 40
1.5
100
AcDbArc
 50
359.9999999999999
 51
44.41530859719286
  0
ARC
  5
130
100
AcDbEntity
  8
0
  6
ByLayer
 62
  256
370
   -1
100
AcDbCircle
 10
55.46969384566992
 20
58.3
 40
1.5
100
AcDbArc
 50
225.5846914028067
 51
270
  0
LINE
  5
131
100
AcDbEntity
  8
0
  6
ByLayer
 62
  256
370
   -1
100
AcDbLine
 10
55.46969384566992
 20
56.8
 11
66.33030615433012
 21
56.8
  0
ARC
  5
132
100
AcDbEntity
  8
0
  6
ByLayer
 62
  256
370
   -1
100
AcDbCircle
 10
66.33030615433012
 20
58.3
 40
1.5
100
AcDbArc
 50
270.0000000000001
 51
314.4153085971927
  0
ARC
  5
133
100
AcDbEntity
  8
0
  6
ByLayer
 62
  256
370
   -1
100
AcDbCircle
 10
69.3
 20
55.33030615433015
 40
1.5
100
AcDbArc
 50
135.5846914028081
 51
180
  0
LINE
  5
134
100
AcDbEntity
  8
0
  6
ByLayer
 62
  256
370
   -1
100
AcDbLine
 10
67.8
 20
55.33030615433015
 11
67.8
 21
45.46969384566984
  0
ARC
  5
135
100
AcDbEntity
  8
0
  6
ByLayer
 62
  256
370
   -1
100
AcDbCircle
 10
69.3
 20
45.46969384566984
 40
1.5
100
AcDbArc
 50
180
 51
224.4153085971917
  0
ARC
  5
136
100
AcDbEntity
  8
0
  6
ByLayer
 62
  256
370
   -1
100
AcDbCircle
 10
66.33030615433009
 20
42.5
 40
1.5
100
AcDbArc
 50
45.58469140280688
 51
90
  0
LINE
  5
137
100
AcDbEntity
  8
0
  6
ByLayer
 62
  256
370
   -1
100
AcDbLine
 10
66.33030615433009
 20
44
 11
55.46969384566991
 21
44
  0
ARC
  5
138
100
AcDbEntity
  8
0
  6
ByLayer
 62
  256
370
   -1
100
AcDbCircle
 10
55.46969384566991
 20
42.5
 40
1.5
100
AcDbArc
 50
90.00000000000001
 51
134.415308597193
  0
LINE
  5
139
100
AcDbEntity
  8
0
  6
ByLayer
 62
  256
370
   -1
100
AcDbLine
 10
54
 20
45.46969384566991
 11
54
 21
55.3303061543301
  0
ARC
  5
13A
100
AcDbEntity
  8
0
  6
ByLayer
 62
  256
370
   -1
100
AcDbCircle
 10
52.5
 20
45.46969384566991
 40
1.5
100
AcDbArc
 50
315.584691402807
 51
0
  0
ARC
  5
13B
100
AcDbEntity
  8
0
  6
ByLayer
 62
  256
370
   -1
100
AcDbCircle
 10
54
 20
56.8
 40
0.5999999999999994
100
AcDbArc
 50
44.99999999999995
 51
224.9999999999999
  0
ARC
  5
13C
100
AcDbEntity
  8
0
  6
ByLayer
 62
  256
370
   -1
100
AcDbCircle
 10
67.8
 20
56.8
 40
0.5999999999999593
100
AcDbArc
 50
315.5846914028081
 51
134.4152982727294
  0
ARC
  5
13D
100
AcDbEntity
  8
0
  6
ByLayer
 62
  256
370
   -1
100
AcDbCircle
 10
67.8
 20
44
 40
0.6000000000000074
100
AcDbArc
 50
225.5846914028069
 51
44.41529026775819
  0
ARC
  5
13E
100
AcDbEntity
  8
0
  6
ByLayer
 62
  256
370
   -1
100
AcDbCircle
 10
54
 20
44
 40
0.5999999999999998
100
AcDbArc
 50
135
 51
314.415308597193
  0
ARC
  5
13F
100
AcDbEntity
  8
0
  6
ByLayer
 62
  256
370
   -1
100
AcDbCircle
 10
52.5
 20
72.3303061543301
 40
1.5
100
AcDbArc
 50
359.9999999999999
 51
44.41530859719286
  0
ARC
  5
140
100
AcDbEntity
  8
0
  6
ByLayer
 62
  256
370
   -1
100
AcDbCircle
 10
55.46969384566992
 20
75.3
 40
1.5
100
AcDbArc
 50
225.5846914028067
 51
270
  0
LINE
  5
141
100
AcDbEntity
  8
0
  6
ByLayer
 62
  256
370
   -1
100
AcDbLine
 10
55.46969384566992
 20
73.8
 11
66.33030615433012
 21
73.8
  0
ARC
  5
142
100
AcDbEntity
  8
0
  6
ByLayer
 62
  256
370
   -1
100
AcDbCircle
 10
66.33030615433012
 20
75.3
 40
1.5
100
AcDbArc
 50
270.0000000000001
 51
314.4153085971927
  0
ARC
  5
143
100
AcDbEntity
  8
0
  6
ByLayer
 62
  256
370
   -1
100
AcDbCircle
 10
69.3
 20
72.33030615433015
 40
1.5
100
AcDbArc
 50
135.5846914028081
 51
180
  0
LINE
  5
144
100
AcDbEntity
  8
0
  6
ByLayer
 62
  256
370
   -1
100
AcDbLine
 10
67.8
 20
72.33030615433015
 11
67.8
 21
62.46969384566984
  0
ARC
  5
145
100
AcDbEntity
  8
0
  6
ByLayer
 62
  256
370
   -1
100
AcDbCircle
 10
69.3
 20
62.46969384566984
 40
1.5
100
AcDbArc
 50
180
 51
224.4153085971917
  0
ARC
  5
146
100
AcDbEntity
  8
0
  6
ByLayer
 62
  256
370
   -1
100
AcDbCircle
 10
66.33030615433009
 20
59.5
 40
1.5
100
AcDbArc
 50
45.58469140280688
 51
90
  0
LINE
  5
147
100
AcDbEntity
  8
0
  6
ByLayer
 62
  256
370
   -1
100
AcDbLine
 10
66.33030615433009
 20
61
 11
55.46969384566991
 21
61
  0
ARC
  5
148
100
AcDbEntity
  8
0
  6
ByLayer
 62
  256
370
   -1
100
AcDbCircle
 10
55.46969384566991
 20
59.5
 40
1.5
100
AcDbArc
 50
90.00000000000001
 51
134.415308597193
  0
LINE
  5
149
100
AcDbEntity
  8
0
  6
ByLayer
 62
  256
370
   -1
100
AcDbLine
 10
54
 20
62.46969384566991
 11
54
 21
72.33030615433009
  0
ARC
  5
14A
100
AcDbEntity
  8
0
  6
ByLayer
 62
  256
370
   -1
100
AcDbCircle
 10
52.5
 20
62.46969384566991
 40
1.5
100
AcDbArc
 50
315.584691402807
 51
0
  0
ARC
  5
14B
100
AcDbEntity
  8
0
  6
ByLayer
 62
  256
370
   -1
100
AcDbCircle
 10
54
 20
73.8
 40
0.5999999999999994
100
AcDbArc
 50
44.99999999999995
 51
224.9999999999999
  0
ARC
  5
14C
100
AcDbEntity
  8
0
  6
ByLayer
 62
  256
370
   -1
100
AcDbCircle
 10
67.8
 20
73.8
 40
0.5999999999999593
100
AcDbArc
 50
315.5846914028081
 51
134.4152982727294
  0
ARC
  5
14D
100
AcDbEntity
  8
0
  6
ByLayer
 62
  256
370
   -1
100
AcDbCircle
 10
67.8
 20
61
 40
0.6000000000000074
100
AcDbArc
 50
225.5846914028069
 51
44.41529026775819
  0
ARC
  5
14E
100
AcDbEntity
  8
0
  6
ByLayer
 62
  256
370
   -1
100
AcDbCircle
 10
54
 20
61
 40
0.5999999999999998
100
AcDbArc
 50
135
 51
314.415308597193
  0
ARC
  5
14F
100
AcDbEntity
  8
0
  6
ByLayer
 62
  256
370
   -1
100
AcDbCircle
 10
88.5
 20
13.3303061543301
 40
1.5
100
AcDbArc
 50
359.9999999999999
 51
44.41530859719286
  0
ARC
  5
150
100
AcDbEntity
  8
0
  6
ByLayer
 62
  256
370
   -1
100
AcDbCircle
 10
91.46969384566992
 20
16.3
 40
1.5
100
AcDbArc
 50
225.5846914028067
 51
270
  0
LINE
  5
151
100
AcDbEntity
  8
0
  6
ByLayer
 62
  256
370
   -1
100
AcDbLine
 10
91.46969384566992
 20
14.8
 11
102.3303061543301
 21
14.8
  0
ARC
  5
152
100
AcDbEntity
  8
0
  6
ByLayer
 62
  256
370
   -1
100
AcDbCircle
 10
102.3303061543301
 20
16.3
 40
1.5
100
AcDbArc
 50
270.0000000000001
 51
314.4153085971927
  0
ARC
  5
153
100
AcDbEntity
  8
0
  6
ByLayer
 62
  256
370
   -1
100
AcDbCircle
 10
105.3
 20
13.33030615433015
 40
1.5
100
AcDbArc
 50
135.5846914028081
 51
180
  0
LINE
  5
154
100
AcDbEntity
  8
0
  6
ByLayer
 62
  256
370
   -1
100
AcDbLine
 10
103.8
 20
13.33030615433015
 11
103.8
 21
3.469693845669843
  0
ARC
  5
155
100
AcDbEntity
  8
0
  6
ByLayer
 62
  256
370
   -1
100
AcDbCircle
 10
105.3
 20
3.469693845669844
 40
1.5
100
AcDbArc
 50
180
 51
224.4153085971917
  0
ARC
  5
156
100
AcDbEntity
  8
0
  6
ByLayer
 62
  256
370
   -1
100
AcDbCircle
 10
102.3303061543301
 20
0.4999999999999982
 40
1.5
100
AcDbArc
 50
45.58469140280688
 51
90
  0
LINE
  5
157
100
AcDbEntity
  8
0
  6
ByLayer
 62
  256
370
   -1
100
AcDbLine
 10
102.3303061543301
 20
2
 11
91.46969384566991
 21
2
  0
ARC
  5
158
100
AcDbEntity
  8
0
  6
ByLayer
 62
  256
370
   -1
100
AcDbCircle
 10
91.46969384566991
 20
0.5000000000000004
 40
1.5
100
AcDbArc
 50
90.00000000000001
 51
134.415308597193
  0
LINE
  5
159
100
AcDbEntity
  8
0
  6
ByLayer
 62
  256
370
   -1
100
AcDbLine
 10
90
 20
3.469693845669907
 11
90
 21
13.3303061543301
  0
ARC
  5
15A
100
AcDbEntity
  8
0
  6
ByLayer
 62
  256
370
   -1
100
AcDbCircle
 10
88.5
 20
3.469693845669907
 40
1.5
100
AcDbArc
 50
315.584691402807
 51
0
  0
ARC
  5
15B
100
AcDbEntity
  8
0
  6
ByLayer
 62
  256
370
   -1
100
AcDbCircle
 10
90
 20
14.8
 40
0.5999999999999994
100
AcDbArc
 50
44.99999999999995
 51
224.9999999999999
  0
ARC
  5
15C
100
AcDbEntity
  8
0
  6
ByLayer
 62
  256
370
   -1
100
AcDbCircle
 10
103.8
 20
14.8
 40
0.5999999999999593
100
AcDbArc
 50
315.5846914028081
 51
134.4152982727294
  0
ARC
  5
15D
100
AcDbEntity
  8
0
  6
ByLayer
 62
  256
370
   -1
100
AcDbCircle
 10
103.8
 20
2
 40
0.6000000000000074
100
AcDbArc
 50
225.5846914028069
 51
44.41529026775819
  0
ARC
  5
15E
100
AcDbEntity
  8
0
  6
ByLayer
 62
  256
370
   -1
100
AcDbCircle
 10
90
 20
2
 40
0.5999999999999998
100
AcDbArc
 50
135
 51
314.415308597193
  0
ARC
  5
15F
100
AcDbEntity
  8
0
  6
ByLayer
 62
  256
370
   -1
100
AcDbCircle
 10
88.5
 20
30.3303061543301
 40
1.5
100
AcDbArc
 50
359.9999999999999
 51
44.41530859719286
  0
ARC
  5
160
100
AcDbEntity
  8
0
  6
ByLayer
 62
  256
370
   -1
100
AcDbCircle
 10
91.46969384566992
 20
33.3
 40
1.5
100
AcDbArc
 50
225.5846914028067
 51
270
  0
LINE
  5
161
100
AcDbEntity
  8
0
  6
ByLayer
 62
  256
370
   -1
100
AcDbLine
 10
91.46969384566992
 20
31.8
 11
102.3303061543301
 21
31.8
  0
ARC
  5
162
100
AcDbEntity
  8
0
  6
ByLayer
 62
  256
370
   -1
100
AcDbCircle
 10
102.3303061543301
 20
33.3
 40
1.5
100
AcDbArc
 50
270.0000000000001
 51
314.4153085971927
  0
ARC
  5
163
100
AcDbEntity
  8
0
  6
ByLayer
 62
  256
370
   -1
100
AcDbCircle
 10
105.3
 20
30.33030615433015
 40
1.5
100
AcDbArc
 50
135.5846914028081
 51
180
  0
LINE
  5
164
100
AcDbEntity
  8
0
  6
ByLayer
 62
  256
370
   -1
100
AcDbLine
 10
103.8
 20
30.33030615433015
 11
103.8
 21
20.46969384566984
  0
ARC
  5
165
100
AcDbEntity
  8
0
  6
ByLayer
 62
  256
370
   -1
100
AcDbCircle
 10
105.3
 20
20.46969384566984
 40
1.5
100
AcDbArc
 50
180
 51
224.4153085971917
  0
ARC
  5
166
100
AcDbEntity
  8
0
  6
ByLayer
 62
  256
370
   -1
100
AcDbCircle
 10
102.3303061543301
 20
17.5
 40
1.5
100
AcDbArc
 50
45.58469140280688
 51
90
  0
LINE
  5
167
100
AcDbEntity
  8
0
  6
ByLayer
 62
  256
370
   -1
100
AcDbLine
 10
102.3303061543301
 20
19
 11
91.46969384566991
 21
19
  0
ARC
  5
168
100
AcDbEntity
  8
0
  6
ByLayer
 62
  256
370
   -1
100
AcDbCircle
 10
91.46969384566991
 20
17.5
 40
1.5
100
AcDbArc
 50
90.00000000000001
 51
134.415308597193
  0
LINE
  5
169
100
AcDbEntity
  8
0
  6
ByLayer
 62
  256
370
   -1
100
AcDbLine
 10
90
 20
20.46969384566991
 11
90
 21
30.3303061543301
  0
ARC
  5
16A
100
AcDbEntity
  8
0
  6
ByLayer
 62
  256
370
   -1
100
AcDbCircle
 10
88.5
 20
20.46969384566991
 40
1.5
100
AcDbArc
 50
315.584691402807
 51
0
  0
ARC
  5
16B
100
AcDbEntity
  8
0
  6
ByLayer
 62
  256
370
   -1
100
AcDbCircle
 10
90
 20
31.8
 40
0.5999999999999994
100
AcDbArc
 50
44.99999999999995
 51
224.9999999999999
  0
ARC
  5
16C
100
AcDbEntity
  8
0
  6
ByLayer
 62
  256
370
   -1
100
AcDbCircle
 10
103.8
 20
31.8
 40
0.5999999999999593
100
AcDbArc
 50
315.5846914028081
 51
134.4152982727294
  0
ARC
  5
16D
100
AcDbEntity
  8
0
  6
ByLayer
 62
  256
370
   -1
100
AcDbCircle
 10
103.8
 20
19
 40
0.6000000000000074
100
AcDbArc
 50
225.5846914028069
 51
44.41529026775819
  0
ARC
  5
16E
100
AcDbEntity
  8
0
  6
ByLayer
 62
  256
370
   -1
100
AcDbCircle
 10
90
 20
19
 40
0.5999999999999998
100
AcDbArc
 50
135
 51
314.415308597193
  0
ARC
  5
16F
100
AcDbEntity
  8
0
  6
ByLayer
 62
  256
370
   -1
100
AcDbCircle
 10
88.5
 20
47.3303061543301
 40
1.5
100
AcDbArc
 50
359.9999999999999
 51
44.41530859719286
  0
ARC
  5
170
100
AcDbEntity
  8
0
  6
ByLayer
 62
  256
370
   -1
100
AcDbCircle
 10
91.46969384566992
 20
50.3
 40
1.5
100
AcDbArc
 50
225.5846914028067
 51
270
  0
LINE
  5
171
100
AcDbEntity
  8
0
  6
ByLayer
 62
  256
370
   -1
100
AcDbLine
 10
91.46969384566992
 20
48.8
 11
102.3303061543301
 21
48.8
  0
ARC
  5
172
100
AcDbEntity
  8
0
  6
ByLayer
 62
  256
370
   -1
100
AcDbCircle
 10
102.3303061543301
 20
50.3
 40
1.5
100
AcDbArc
 50
270.0000000000001
 51
314.4153085971927
  0
ARC
  5
173
100
AcDbEntity
  8
0
  6
ByLayer
 62
  256
370
   -1
100
AcDbCircle
 10
105.3
 20
47.33030615433015
 40
1.5
100
AcDbArc
 50
135.5846914028081
 51
180
  0
LINE
  5
174
100
AcDbEntity
  8
0
  6
ByLayer
 62
  256
370
   -1
100
AcDbLine
 10
103.8
 20
47.33030615433015
 11
103.8
 21
37.46969384566984
  0
ARC
  5
175
100
AcDbEntity
  8
0
  6
ByLayer
 62
  256
370
   -1
100
AcDbCircle
 10
105.3
 20
37.46969384566984
 40
1.5
100
AcDbArc
 50
180
 51
224.4153085971917
  0
ARC
  5
176
100
AcDbEntity
  8
0
  6
ByLayer
 62
  256
370
   -1
100
AcDbCircle
 10
102.3303061543301
 20
34.5
 40
1.5
100
AcDbArc
 50
45.58469140280688
 51
90
  0
LINE
  5
177
100
AcDbEntity
  8
0
  6
ByLayer
 62
  256
370
   -1
100
AcDbLine
 10
102.3303061543301
 20
36
 11
91.46969384566991
 21
36
  0
ARC
  5
178
100
AcDbEntity
  8
0
  6
ByLayer
 62
  256
370
   -1
100
AcDbCircle
 10
91.46969384566991
 20
34.5
 40
1.5
100
AcDbArc
 50
90.00000000000001
 51
134.415308597193
  0
LINE
  5
179
100
AcDbEntity
  8
0
  6
ByLayer
 62
  256
370
   -1
100
AcDbLine
 10
90
 20
37.46969384566991
 11
90
 21
47.3303061543301
  0
ARC
  5
17A
100
AcDbEntity
  8
0
  6
ByLayer
 62
  256
370
   -1
100
AcDbCircle
 10
88.5
 20
37.46969384566991
 40
1.5
100
AcDbArc
 50
315.584691402807
 51
0
  0
ARC
  5
17B
100
AcDbEntity
  8
0
  6
ByLayer
 62
  256
370
   -1
100
AcDbCircle
 10
90
 20
48.8
 40
0.5999999999999994
100
AcDbArc
 50
44.99999999999995
 51
224.9999999999999
  0
ARC
  5
17C
100
AcDbEntity
  8
0
  6
ByLayer
 62
  256
370
   -1
100
AcDbCircle
 10
103.8
 20
48.8
 40
0.5999999999999593
100
AcDbArc
 50
315.5846914028081
 51
134.4152982727294
  0
ARC
  5
17D
100
AcDbEntity
  8
0
  6
ByLayer
 62
  256
370
   -1
100
AcDbCircle
 10
103.8
 20
36
 40
0.6000000000000074
100
AcDbArc
 50
225.5846914028069
 51
44.41529026775819
  0
ARC
  5
17E
100
AcDbEntity
  8
0
  6
ByLayer
 62
  256
370
   -1
100
AcDbCircle
 10
90
 20
36
 40
0.5999999999999998
100
AcDbArc
 50
135
 51
314.415308597193
  0
ARC
  5
17F
100
AcDbEntity
  8
0
  6
ByLayer
 62
  256
370
   -1
100
AcDbCircle
 10
88.5
 20
64.3303061543301
 40
1.5
100
AcDbArc
 50
359.9999999999999
 51
44.41530859719286
  0
ARC
  5
180
100
AcDbEntity
  8
0
  6
ByLayer
 62
  256
370
   -1
100
AcDbCircle
 10
91.46969384566992
 20
67.3
 40
1.5
100
AcDbArc
 50
225.5846914028067
 51
270
  0
LINE
  5
181
100
AcDbEntity
  8
0
  6
ByLayer
 62
  256
370
   -1
100
AcDbLine
 10
91.46969384566992
 20
65.8
 11
102.3303061543301
 21
65.8
  0
ARC
  5
182
100
AcDbEntity
  8
0
  6
ByLayer
 62
  256
370
   -1
100
AcDbCircle
 10
102.3303061543301
 20
67.3
 40
1.5
100
AcDbArc
 50
270.0000000000001
 51
314.4153085971927
  0
ARC
  5
183
100
AcDbEntity
  8
0
  6
ByLayer
 62
  256
370
   -1
100
AcDbCircle
 10
105.3
 20
64.33030615433015
 40
1.5
100
AcDbArc
 50
135.5846914028081
 51
180
  0
LINE
  5
184
100
AcDbEntity
  8
0
  6
ByLayer
 62
  256
370
   -1
100
AcDbLine
 10
103.8
 20
64.33030615433015
 11
103.8
 21
54.46969384566984
  0
ARC
  5
185
100
AcDbEntity
  8
0
  6
ByLayer
 62
  256
370
   -1
100
AcDbCircle
 10
105.3
 20
54.46969384566984
 40
1.5
100
AcDbArc
 50
180
 51
224.4153085971917
  0
ARC
  5
186
100
AcDbEntity
  8
0
  6
ByLayer
 62
  256
370
   -1
100
AcDbCircle
 10
102.3303061543301
 20
51.5
 40
1.5
100
AcDbArc
 50
45.58469140280688
 51
90
  0
LINE
  5
187
100
AcDbEntity
  8
0
  6
ByLayer
 62
  256
370
   -1
100
AcDbLine
 10
102.3303061543301
 20
53
 11
91.46969384566991
 21
53
  0
ARC
  5
188
100
AcDbEntity
  8
0
  6
ByLayer
 62
  256
370
   -1
100
AcDbCircle
 10
91.46969384566991
 20
51.5
 40
1.5
100
AcDbArc
 50
90.00000000000001
 51
134.415308597193
  0
LINE
  5
189
100
AcDbEntity
  8
0
  6
ByLayer
 62
  256
370
   -1
100
AcDbLine
 10
90
 20
54.46969384566991
 11
90
 21
64.33030615433009
  0
ARC
  5
18A
100
AcDbEntity
  8
0
  6
ByLayer
 62
  256
370
   -1
100
AcDbCircle
 10
88.5
 20
54.46969384566991
 40
1.5
100
AcDbArc
 50
315.584691402807
 51
0
  0
ARC
  5
18B
100
AcDbEntity
  8
0
  6
ByLayer
 62
  256
370
   -1
100
AcDbCircle
 10
90
 20
65.8
 40
0.5999999999999994
100
AcDbArc
 50
44.99999999999995
 51
224.9999999999999
  0
ARC
  5
18C
100
AcDbEntity
  8
0
  6
ByLayer
 62
  256
370
   -1
100
AcDbCircle
 10
103.8
 20
65.8
 40
0.5999999999999593
100
AcDbArc
 50
315.5846914028081
 51
134.4152982727294
  0
ARC
  5
18D
100
AcDbEntity
  8
0
  6
ByLayer
 62
  256
370
   -1
100
AcDbCircle
 10
103.8
 20
53
 40
0.6000000000000074
100
AcDbArc
 50
225.5846914028069
 51
44.41529026775819
  0
ARC
  5
18E
100
AcDbEntity
  8
0
  6
ByLayer
 62
  256
370
   -1
100
AcDbCircle
 10
90
 20
53
 40
0.5999999999999998
100
AcDbArc
 50
135
 51
314.415308597193
  0
ARC
  5
18F
100
AcDbEntity
  8
0
  6
ByLayer
 62
  256
370
   -1
100
AcDbCircle
 10
-1.500000000000001
 20
6.330306154330099
 40
1.5
100
AcDbArc
 50
359.9999999999999
 51
44.41530859719286
  0
ARC
  5
190
100
AcDbEntity
  8
0
  6
ByLayer
 62
  256
370
   -1
100
AcDbCircle
 10
1.469693845669922
 20
9.300000000000001
 40
1.5
100
AcDbArc
 50
225.5846914028067
 51
270
  0
LINE
  5
191
100
AcDbEntity
  8
0
  6
ByLayer
 62
  256
370
   -1
100
AcDbLine
 10
1.469693845669922
 20
7.800000000000001
 11
12.33030615433011
 21
7.800000000000001
  0
ARC
  5
192
100
AcDbEntity
  8
0
  6
ByLayer
 62
  256
370
   -1
100
AcDbCircle
 10
12.33030615433011
 20
9.299999999999999
 40
1.5
100
AcDbArc
 50
270.0000000000001
 51
314.4153085971927
  0
ARC
  5
193
100
AcDbEntity
  8
0
  6
ByLayer
 62
  256
370
   -1
100
AcDbCircle
 10
15.3
 20
6.330306154330151
 40
1.5
100
AcDbArc
 50
135.5846914028081
 51
180
  0
LINE
  5
194
100
AcDbEntity
  8
0
  6
ByLayer
 62
  256
370
   -1
100
AcDbLine
 10
13.8
 20
6.330306154330151
 11
13.8
 21
-3.530306154330157
  0
ARC
  5
195
100
AcDbEntity
  8
0
  6
ByLayer
 62
  256
370
   -1
100
AcDbCircle
 10
15.3
 20
-3.530306154330156
 40
1.5
100
AcDbArc
 50
180
 51
224.4153085971917
  0
ARC
  5
196
100
AcDbEntity
  8
0
  6
ByLayer
 62
  256
370
   -1
100
AcDbCircle
 10
12.33030615433008
 20
-6.500000000000002
 40
1.5
100
AcDbArc
 50
45.58469140280688
 51
90
  0
LINE
  5
197
100
AcDbEntity
  8
0
  6
ByLayer
 62
  256
370
   -1
100
AcDbLine
 10
12.33030615433008
 20
-5
 11
1.469693845669907
 21
-5
  0
ARC
  5
198
100
AcDbEntity
  8
0
  6
ByLayer
 62
  256
370
   -1
100
AcDbCircle
 10
1.469693845669907
 20
-6.5
 40
1.5
100
AcDbArc
 50
90.00000000000001
 51
134.415308597193
  0
LINE
  5
199
100
AcDbEntity
  8
0
  6
ByLayer
 62
  256
370
   -1
100
AcDbLine
 10
0
 20
-3.530306154330093
 11
0
 21
6.330306154330097
  0
ARC
  5
19A
100
AcDbEntity
  8
0
  6
ByLayer
 62
  256
370
   -1
100
AcDbCircle
 10
-1.5
 20
-3.530306154330093
 40
1.5
100
AcDbArc
 50
315.584691402807
 51
0
  0
ARC
  5
19B
100
AcDbEntity
  8
0
  6
ByLayer
 62
  256
370
   -1
100
AcDbCircle
 10
0
 20
7.800000000000001
 40
0.5999999999999994
100
AcDbArc
 50
44.99999999999995
 51
224.9999999999999
  0
ARC
  5
19C
100
AcDbEntity
  8
0
  6
ByLayer
 62
  256
370
   -1
100
AcDbCircle
 10
13.8
 20
7.800000000000001
 40
0.5999999999999593
100
AcDbArc
 50
315.5846914028081
 51
134.4152982727294
  0
ARC
  5
19D
100
AcDbEntity
  8
0
  6
ByLayer
 62
  256
370
   -1
100
AcDbCircle
 10
13.8
 20
-5
 40
0.6000000000000074
100
AcDbArc
 50
225.5846914028069
 51
44.41529026775819
  0
ARC
  5
19E
100
AcDbEntity
  8
0
  6
ByLayer
 62
  256
370
   -1
100
AcDbCircle
 10
0
 20
-5
 40
0.5999999999999998
100
AcDbArc
 50
135
 51
314.415308597193
  0
ARC
  5
19F
100
AcDbEntity
  8
0
  6
ByLayer
 62
  256
370
   -1
100
AcDbCircle
 10
-1.500000000000001
 20
23.3303061543301
 40
1.5
100
AcDbArc
 50
359.9999999999999
 51
44.41530859719286
  0
ARC
  5
1A0
100
AcDbEntity
  8
0
  6
ByLayer
 62
  256
370
   -1
100
AcDbCircle
 10
1.469693845669922
 20
26.3
 40
1.5
100
AcDbArc
 50
225.5846914028067
 51
270
  0
LINE
  5
1A1
100
AcDbEntity
  8
0
  6
ByLayer
 62
  256
370
   -1
100
AcDbLine
 10
1.469693845669922
 20
24.8
 11
12.33030615433011
 21
24.8
  0
ARC
  5
1A2
100
AcDbEntity
  8
0
  6
ByLayer
 62
  256
370
   -1
100
AcDbCircle
 10
12.33030615433011
 20
26.3
 40
1.5
100
AcDbArc
 50
270.0000000000001
 51
314.4153085971927
  0
ARC
  5
1A3
100
AcDbEntity
  8
0
  6
ByLayer
 62
  256
370
   -1
100
AcDbCircle
 10
15.3
 20
23.33030615433015
 40
1.5
100
AcDbArc
 50
135.5846914028081
 51
180
  0
LINE
  5
1A4
100
AcDbEntity
  8
0
  6
ByLayer
 62
  256
370
   -1
100
AcDbLine
 10
13.8
 20
23.33030615433015
 11
13.8
 21
13.46969384566984
  0
ARC
  5
1A5
100
AcDbEntity
  8
0
  6
ByLayer
 62
  256
370
   -1
100
AcDbCircle
 10
15.3
 20
13.46969384566984
 40
1.5
100
AcDbArc
 50
180
 51
224.4153085971917
  0
ARC
  5
1A6
100
AcDbEntity
  8
0
  6
ByLayer
 62
  256
370
   -1
100
AcDbCircle
 10
12.33030615433008
 20
10.5
 40
1.5
100
AcDbArc
 50
45.58469140280688
 51
90
  0
LINE
  5
1A7
100
AcDbEntity
  8
0
  6
ByLayer
 62
  256
370
   -1
100
AcDbLine
 10
12.33030615433008
 20
12
 11
1.469693845669907
 21
12
  0
ARC
  5
1A8
100
AcDbEntity
  8
0
  6
ByLayer
 62
  256
370
   -1
100
AcDbCircle
 10
1.469693845669907
 20
10.5
 40
1.5
100
AcDbArc
 50
90.00000000000001
 51
134.415308597193
  0
LINE
  5
1A9
100
AcDbEntity
  8
0
  6
ByLayer
 62
  256
370
   -1
100
AcDbLine
 10
0
 20
13.46969384566991
 11
0
 21
23.3303061543301
  0
ARC
  5
1AA
100
AcDbEntity
  8
0
  6
ByLayer
 62
  256
370
   -1
100
AcDbCircle
 10
-1.5
 20
13.46969384566991
 40
1.5
100
AcDbArc
 50
315.584691402807
 51
0
  0
ARC
  5
1AB
100
AcDbEntity
  8
0
  6
ByLayer
 62
  256
370
   -1
100
AcDbCircle
 10
0
 20
24.8
 40
0.5999999999999994
100
AcDbArc
 50
44.99999999999995
 51
224.9999999999999
  0
ARC
  5
1AC
100
AcDbEntity
  8
0
  6
ByLayer
 62
  256
370
   -1
100
AcDbCircle
 10
13.8
 20
24.8
 40
0.5999999999999593
100
AcDbArc
 50
315.5846914028081
 51
134.4152982727294
  0
ARC
  5
1AD
100
AcDbEntity
  8
0
  6
ByLayer
 62
  256
370
   -1
100
AcDbCircle
 10
13.8
 20
12
 40
0.6000000000000074
100
AcDbArc
 50
225.5846914028069
 51
44.41529026775819
  0
ARC
  5
1AE
100
AcDbEntity
  8
0
  6
ByLayer
 62
  256
370
   -1
100
AcDbCircle
 10
0
 20
12
 40
0.5999999999999998
100
AcDbArc
 50
135
 51
314.415308597193
  0
ARC
  5
1AF
100
AcDbEntity
  8
0
  6
ByLayer
 62
  256
370
   -1
100
AcDbCircle
 10
-1.500000000000001
 20
40.3303061543301
 40
1.5
100
AcDbArc
 50
359.9999999999999
 51
44.41530859719286
  0
ARC
  5
1B0
100
AcDbEntity
  8
0
  6
ByLayer
 62
  256
370
   -1
100
AcDbCircle
 10
1.469693845669922
 20
43.3
 40
1.5
100
AcDbArc
 50
225.5846914028067
 51
270
  0
LINE
  5
1B1
100
AcDbEntity
  8
0
  6
ByLayer
 62
  256
370
   -1
100
AcDbLine
 10
1.469693845669922
 20
41.8
 11
12.33030615433011
 21
41.8
  0
ARC
  5
1B2
100
AcDbEntity
  8
0
  6
ByLayer
 62
  256
370
   -1
100
AcDbCircle
 10
12.33030615433011
 20
43.3
 40
1.5
100
AcDbArc
 50
270.0000000000001
 51
314.4153085971927
  0
ARC
  5
1B3
100
AcDbEntity
  8
0
  6
ByLayer
 62
  256
370
   -1
100
AcDbCircle
 10
15.3
 20
40.33030615433015
 40
1.5
100
AcDbArc
 50
135.5846914028081
 51
180
  0
LINE
  5
1B4
100
AcDbEntity
  8
0
  6
ByLayer
 62
  256
370
   -1
100
AcDbLine
 10
13.8
 20
40.33030615433015
 11
13.8
 21
30.46969384566984
  0
ARC
  5
1B5
100
AcDbEntity
  8
0
  6
ByLayer
 62
  256
370
   -1
100
AcDbCircle
 10
15.3
 20
30.46969384566984
 40
1.5
100
AcDbArc
 50
180
 51
224.4153085971917
  0
ARC
  5
1B6
100
AcDbEntity
  8
0
  6
ByLayer
 62
  256
370
   -1
100
AcDbCircle
 10
12.33030615433008
 20
27.5
 40
1.5
100
AcDbArc
 50
45.58469140280688
 51
90
  0
LINE
  5
1B7
100
AcDbEntity
  8
0
  6
ByLayer
 62
  256
370
   -1
100
AcDbLine
 10
12.33030615433008
 20
29
 11
1.469693845669907
 21
29
  0
ARC
  5
1B8
100
AcDbEntity
  8
0
  6
ByLayer
 62
  256
370
   -1
100
AcDbCircle
 10
1.469693845669907
 20
27.5
 40
1.5
100
AcDbArc
 50
90.00000000000001
 51
134.415308597193
  0
LINE
  5
1B9
100
AcDbEntity
  8
0
  6
ByLayer
 62
  256
370
   -1
100
AcDbLine
 10
0
 20
30.46969384566991
 11
0
 21
40.3303061543301
  0
ARC
  5
1BA
100
AcDbEntity
  8
0
  6
ByLayer
 62
  256
370
   -1
100
AcDbCircle
 10
-1.5
 20
30.46969384566991
 40
1.5
100
AcDbArc
 50
315.584691402807
 51
0
  0
ARC
  5
1BB
100
AcDbEntity
  8
0
  6
ByLayer
 62
  256
370
   -1
100
AcDbCircle
 10
0
 20
41.8
 40
0.5999999999999994
100
AcDbArc
 50
44.99999999999995
 51
224.9999999999999
  0
ARC
  5
1BC
100
AcDbEntity
  8
0
  6
ByLayer
 62
  256
370
   -1
100
AcDbCircle
 10
13.8
 20
41.8
 40
0.5999999999999593
100
AcDbArc
 50
315.5846914028081
 51
134.4152982727294
  0
ARC
  5
1BD
100
AcDbEntity
  8
0
  6
ByLayer
 62
  256
370
   -1
100
AcDbCircle
 10
13.8
 20
29
 40
0.6000000000000074
100
AcDbArc
 50
225.5846914028069
 51
44.41529026775819
  0
ARC
  5
1BE
100
AcDbEntity
  8
0
  6
ByLayer
 62
  256
370
   -1
100
AcDbCircle
 10
0
 20
29
 40
0.5999999999999998
100
AcDbArc
 50
135
 51
314.415308597193
  0
ARC
  5
1BF
100
AcDbEntity
  8
0
  6
ByLayer
 62
  256
370
   -1
100
AcDbCircle
 10
-1.500000000000001
 20
57.3303061543301
 40
1.5
100
AcDbArc
 50
359.9999999999999
 51
44.41530859719286
  0
ARC
  5
1C0
100
AcDbEntity
  8
0
  6
ByLayer
 62
  256
370
   -1
100
AcDbCircle
 10
1.469693845669922
 20
60.3
 40
1.5
100
AcDbArc
 50
225.5846914028067
 51
270
  0
LINE
  5
1C1
100
AcDbEntity
  8
0
  6
ByLayer
 62
  256
370
   -1
100
AcDbLine
 10
1.469693845669922
 20
58.8
 11
12.33030615433011
 21
58.8
  0
ARC
  5
1C2
100
AcDbEntity
  8
0
  6
ByLayer
 62
  256
370
   -1
100
AcDbCircle
 10
12.33030615433011
 20
60.3
 40
1.5
100
AcDbArc
 50
270.0000000000001
 51
314.4153085971927
  0
ARC
  5
1C3
100
AcDbEntity
  8
0
  6
ByLayer
 62
  256
370
   -1
100
AcDbCircle
 10
15.3
 20
57.33030615433015
 40
1.5
100
AcDbArc
 50
135.5846914028081
 51
180
  0
LINE
  5
1C4
100
AcDbEntity
  8
0
  6
ByLayer
 62
  256
370
   -1
100
AcDbLine
 10
13.8
 20
57.33030615433015
 11
13.8
 21
47.46969384566984
  0
ARC
  5
1C5
100
AcDbEntity
  8
0
  6
ByLayer
 62
  256
370
   -1
100
AcDbCircle
 10
15.3
 20
47.46969384566984
 40
1.5
100
AcDbArc
 50
180
 51
224.4153085971917
  0
ARC
  5
1C6
100
AcDbEntity
  8
0
  6
ByLayer
 62
  256
370
   -1
100
AcDbCircle
 10
12.33030615433008
 20
44.5
 40
1.5
100
AcDbArc
 50
45.58469140280688
 51
90
  0
LINE
  5
1C7
100
AcDbEntity
  8
0
  6
ByLayer
 62
  256
370
   -1
100
AcDbLine
 10
12.33030615433008
 20
46
 11
1.469693845669907
 21
46
  0
ARC
  5
1C8
100
AcDbEntity
  8
0
  6
ByLayer
 62
  256
370
   -1
100
AcDbCircle
 10
1.469693845669907
 20
44.5
 40
1.5
100
AcDbArc
 50
90.00000000000001
 51
134.415308597193
  0
LINE
  5
1C9
100
AcDbEntity
  8
0
  6
ByLayer
 62
  256
370
   -1
100
AcDbLine
 10
0
 20
47.46969384566991
 11
0
 21
57.3303061543301
  0
ARC
  5
1CA
100
AcDbEntity
  8
0
  6
ByLayer
 62
  256
370
   -1
100
AcDbCircle
 10
-1.5
 20
47.46969384566991
 40
1.5
100
AcDbArc
 50
315.584691402807
 51
0
  0
ARC
  5
1CB
100
AcDbEntity
  8
0
  6
ByLayer
 62
  256
370
   -1
100
AcDbCircle
 10
0
 20
58.8
 40
0.5999999999999994
100
AcDbArc
 50
44.99999999999995
 51
224.9999999999999
  0
ARC
  5
1CC
100
AcDbEntity
  8
0
  6
ByLayer
 62
  256
370
   -1
100
AcDbCircle
 10
13.8
 20
58.8
 40
0.5999999999999593
100
AcDbArc
 50
315.5846914028081
 51
134.4152982727294
  0
ARC
  5
1CD
100
AcDbEntity
  8
0
  6
ByLayer
 62
  256
370
   -1
100
AcDbCircle
 10
13.8
 20
46
 40
0.6000000000000074
100
AcDbArc
 50
225.5846914028069
 51
44.41529026775819
  0
ARC
  5
1CE
100
AcDbEntity
  8
0
  6
ByLayer
 62
  256
370
   -1
100
AcDbCircle
 10
0
 20
46
 40
0.5999999999999998
100
AcDbArc
 50
135
 51
314.415308597193
  0
POINT
  5
1CF
100
AcDbEntity
  8
0
  6
ByLayer
 62
  256
370
   -1
100
AcDbPoint
 10
114.9
 20
-28
  0
ARC
  5
1D0
100
AcDbEntity
  8
0
  6
ByLayer
 62
  256
370
   -1
100
AcDbCircle
 10
111.2902171459979
 20
7.457409295202147
 40
1.5
100
AcDbArc
 50
331.9999999999999
 51
16.41530859719287
  0
ARC
  5
1D1
100
AcDbEntity
  8
0
  6
ByLayer
 62
  256
370
   -1
100
AcDbCircle
 10
115.3064879892824
 20
8.685306517042051
 40
1.5
100
AcDbArc
 50
197.5846914028067
 51
242
  0
LINE
  5
1D2
100
AcDbEntity
  8
0
  6
ByLayer
 62
  256
370
   -1
100
AcDbLine
 10
114.6022806451035
 20
7.360885127753654
 11
124.1916321400091
 21
2.262136494395278
  0
ARC
  5
1D3
100
AcDbEntity
  8
0
  6
ByLayer
 62
  256
370
   -1
100
AcDbCircle
 10
124.8958394841879
 20
3.586557883683675
 40
1.5
100
AcDbArc
 50
242.0000000000001
 51
286.4153085971927
  0
ARC
  5
1D4
100
AcDbEntity
  8
0
  6
ByLayer
 62
  256
370
   -1
100
AcDbCircle
 10
126.1237367060278
 20
-0.4297129596007778
 40
1.5
100
AcDbArc
 50
107.5846914028081
 51
152
  0
LINE
  5
1D5
100
AcDbEntity
  8
0
  6
ByLayer
 62
  256
370
   -1
100
AcDbLine
 10
124.7993153167395
 20
0.2744943845780625
 11
120.1700382461669
 21
-8.431909517468664
  0
ARC
  5
1D6
100
AcDbEntity
  8
0
  6
ByLayer
 62
  256
370
   -1
100
AcDbCircle
 10
121.4944596354553
 20
-9.136116861647501
 40
1.5
100
AcDbArc
 50
152
 51
196.4153085971917
  0
ARC
  5
1D7
100
AcDbEntity
  8
0
  6
ByLayer
 62
  256
370
   -1
100
AcDbCircle
 10
117.4781887921708
 20
-10.36401408348737
 40
1.5
100
AcDbArc
 50
17.58469140280689
 51
62.00000000000001
  0
LINE
  5
1D8
100
AcDbEntity
  8
0
  6
ByLayer
 62
  256
370
   -1
100
AcDbLine
 10
118.1823961363497
 20
-9.03959269419898
 11
108.5930446414441
 21
-3.940844060840597
  0
ARC
  5
1D9
100
AcDbEntity
  8
0
  6
ByLayer
 62
  256
370
   -1
100
AcDbCircle
 10
107.8888372972653
 20
-5.265265450128989
 40
1.5
100
AcDbArc
 50
62.00000000000001
 51
106.415308597193
  0
LINE
  5
1DA
100
AcDbEntity
  8
0
  6
ByLayer
 62
  256
370
   -1
100
AcDbLine
 10
107.9853614647137
 20
-1.953201951023313
 11
112.6146385352862
 21
6.753201951023307
  0
ARC
  5
1DB
100
AcDbEntity
  8
0
  6
ByLayer
 62
  256
370
   -1
100
AcDbCircle
 10
106.6609400754254
 20
-1.24899460684448
 40
1.5
100
AcDbArc
 50
287.584691402807
 51
332
  0
ARC
  5
1DC
100
AcDbEntity
  8
0
  6
ByLayer
 62
  256
370
   -1
100
AcDbCircle
 10
113.3046180018297
 20
8.050864594297117
 40
0.5999999999999994
100
AcDbArc
 50
16.99999999999996
 51
196.9999999999999
  0
ARC
  5
1DD
100
AcDbEntity
  8
0
  6
ByLayer
 62
  256
370
   -1
100
AcDbCircle
 10
125.4892947832829
 20
1.57215702785183
 40
0.5999999999999593
100
AcDbArc
 50
287.5846914028081
 51
106.4152982727294
  0
ARC
  5
1DE
100
AcDbEntity
  8
0
  6
ByLayer
 62
  256
370
   -1
100
AcDbCircle
 10
119.4800587796235
 20
-9.729572160742432
 40
0.6000000000000074
100
AcDbArc
 50
197.5846914028069
 51
16.41529026775817
  0
ARC
  5
1DF
100
AcDbEntity
  8
0
  6
ByLayer
 62
  256
370
   -1
100
AcDbCircle
 10
107.2953819981703
 20
-3.250864594297138
 40
0.5999999999999998
100
AcDbArc
 50
107
 51
286.415308597193
  0
ARC
  5
1E0
100
AcDbEntity
  8
0
  6
ByLayer
 62
  256
370
   -1
100
AcDbCircle
 10
127.1832738174585
 20
-0.993078834943887
 40
1.5
100
AcDbArc
 50
331.9999999999999
 51
16.41530859719287
  0
ARC
  5
1E1
100
AcDbEntity
  8
0
  6
ByLayer
 62
  256
370
   -1
100
AcDbCircle
 10
131.199544660743
 20
0.2348183868960163
 40
1.5
100
AcDbArc
 50
197.5846914028067
 51
242
  0
LINE
  5
1E2
100
AcDbEntity
  8
0
  6
ByLayer
 62
  256
370
   -1
100
AcDbLine
 10
130.4953373165642
 20
-1.08960300239238
 11
140.0846888114698
 21
-6.188351635750763
  0
ARC
  5
1E3
100
AcDbEntity
  8
0
  6
ByLayer
 62
  256
370
   -1
100
AcDbCircle
 10
140.7888961556486
 20
-4.863930246462367
 40
1.5
100
AcDbArc
 50
242.0000000000001
 51
286.4153085971927
  0
ARC
  5
1E4
100
AcDbEntity
  8
0
  6
ByLayer
 62
  256
370
   -1
100
AcDbCircle
 10
142.0167933774885
 20
-8.880201089746819
 40
1.5
100
AcDbArc
 50
107.5846914028081
 51
152
  0
LINE
  5
1E5
100
AcDbEntity
  8
0
  6
ByLayer
 62
  256
370
   -1
100
AcDbLine
 10
140.6923719882002
 20
-8.175993745567979
 11
136.0630949176276
 21
-16.8823976476147
  0
ARC
  5
1E6
100
AcDbEntity
  8
0
  6
ByLayer
 62
  256
370
   -1
100
AcDbCircle
 10
137.387516306916
 20
-17.58660499179354
 40
1.5
100
AcDbArc
 50
152
 51
196.4153085971917
  0
ARC
  5
1E7
100
AcDbEntity
  8
0
  6
ByLayer
 62
  256
370
   -1
100
AcDbCircle
 10
133.3712454636315
 20
-18.81450221363341
 40
1.5
100
AcDbArc
 50
17.58469140280689
 51
62.00000000000001
  0
LINE
  5
1E8
100
AcDbEntity
  8
0
  6
ByLayer
 62
  256
370
   -1
100
AcDbLine
 10
134.0754528078104
 20
-17.49008082434502
 11
124.4861013129048
 21
-12.39133219098663
  0
ARC
  5
1E9
100
AcDbEntity
  8
0
  6
ByLayer
 62
  256
370
   -1
100
AcDbCircle
 10
123.781893968726
 20
-13.71575358027502
 40
1.5
100
AcDbArc
 50
62.00000000000001
 51
106.415308597193
  0
LINE
  5
1EA
100
AcDbEntity
  8
0
  6
ByLayer
 62
  256
370
   -1
100
AcDbLine
 10
123.8784181361744
 20
-10.40369008116935
 11
128.5076952067469
 21
-1.697286179122727
  0
ARC
  5
1EB
100
AcDbEntity
  8
0
  6
ByLayer
 62
  256
370
   -1
100
AcDbCircle
 10
122.553996746886
 20
-9.699482736990511
 40
1.5
100
AcDbArc
 50
287.584691402807
 51
332
  0
ARC
  5
1EC
100
AcDbEntity
  8
0
  6
ByLayer
 62
  256
370
   -1
100
AcDbCircle
 10
129.1976746732904
 20
-0.3996235358489173
 40
0.5999999999999994
100
AcDbArc
 50
16.99999999999996
 51
196.9999999999999
  0
ARC
  5
1ED
100
AcDbEntity
  8
0
  6
ByLayer
 62
  256
370
   -1
100
AcDbCircle
 10
141.3823514547436
 20
-6.878331102294212
 40
0.5999999999999593
100
AcDbArc
 50
287.5846914028081
 51
106.4152982727294
  0
ARC
  5
1EE
100
AcDbEntity
  8
0
  6
ByLayer
 62
  256
370
   -1
100
AcDbCircle
 10
135.3731154510842
 20
-18.18006029088847
 40
0.6000000000000074
100
AcDbArc
 50
197.5846914028069
 51
16.41529026775817
  0
ARC
  5
1EF
100
AcDbEntity
  8
0
  6
ByLayer
 62
  256
370
   -1
100
AcDbCircle
 10
123.188438669631
 20
-11.70135272444318
 40
0.5999999999999998
100
AcDbArc
 50
107
 51
286.415308597193
  0
CIRCLE
  5
1F0
100
AcDbEntity
  8
construction
  6
ByLayer
 62
  256
370
   -1
100
AcDbCircle
 10
0
 20
58.8
 40
4
  0
CIRCLE
  5
1F1
100
AcDbEntity
  8
construction
  6
ByLayer
 62
  256
370
   -1
100
AcDbCircle
 10
24.90000000000001
 20
63.8
 40
4
  0
CIRCLE
  5
1F2
100
AcDbEntity
  8
construction
  6
ByLayer
 62
  256
370
   -1
100
AcDbCircle
 10
42.90000000000002
 20
68.8
 40
4
  0
CIRCLE
  5
1F3
100
AcDbEntity
  8
construction
  6
ByLayer
 62
  256
370
   -1
100
AcDbCircle
 10
60.90000000000002
 20
73.8
 40
4
  0
CIRCLE
  5
1F4
100
AcDbEntity
  8
construction
  6
ByLayer
 62
  256
370
   -1
100
AcDbCircle
 10
78.90000000000002
 20
68.8
 40
4
  0
CIRCLE
  5
1F5
100
AcDbEntity
  8
construction
  6
ByLayer
 62
  256
370
   -1
100
AcDbCircle
 10
96.90000000000001
 20
65.8
 40
4
  0
CIRCLE
  5
1F6
100
AcDbEntity
  8
construction
  6
ByLayer
 62
  256
370
   -1
100
AcDbCircle
 10
103.8
 20
25.4
 40
4
  0
CIRCLE
  5
1F7
100
AcDbEntity
  8
construction
  6
ByLayer
 62
  256
370
   -1
100
AcDbCircle
 10
119.3969563925563
 20
4.811510811074466
 40
4
  0
CIRCLE
  5
1F8
100
AcDbEntity
  8
construction
  6
ByLayer
 62
  256
370
   -1
100
AcDbCircle
 10
135.290013064017
 20
-3.638977319071572
 40
4
  0
CIRCLE
  5
1F9
100
AcDbEntity
  8
construction
  6
ByLayer
 62
  256
370
   -1
100
AcDbCircle
 10
123.188438669631
 20
-11.70135272444318
 40
4
  0
CIRCLE
  5
1FA
100
AcDbEntity
  8
construction
  6
ByLayer
 62
  256
370
   -1
100
AcDbCircle
 10
107.2953819981703
 20
-3.250864594297138
 40
4
  0
CIRCLE
  5
1FB
100
AcDbEntity
  8
construction
  6
ByLayer
 62
  256
370
   -1
100
AcDbCircle
 10
96.90000000000001
 20
2
 40
4
  0
CIRCLE
  5
1FC
100
AcDbEntity
  8
construction
  6
ByLayer
 62
  256
370
   -1
100
AcDbCircle
 10
78.90000000000001
 20
5
 40
4
  0
CIRCLE
  5
1FD
100
AcDbEntity
  8
construction
  6
ByLayer
 62
  256
370
   -1
100
AcDbCircle
 10
60.9
 20
10
 40
4
  0
CIRCLE
  5
1FE
100
AcDbEntity
  8
construction
  6
ByLayer
 62
  256
370
   -1
100
AcDbCircle
 10
42.9
 20
5
 40
4
  0
CIRCLE
  5
1FF
100
AcDbEntity
  8
construction
  6
ByLayer
 62
  256
370
   -1
100
AcDbCircle
 10
24.9
 20
0
 40
4
  0
CIRCLE
  5
200
100
AcDbEntity
  8
construction
  6
ByLayer
 62
  256
370
   -1
100
AcDbCircle
 10
13.8
 20
-5
 40
4
  0
LINE
  5
201
100
AcDbEntity
  8
outline
  6
ByLayer
 62
  256
370
   -1
100
AcDbLine
 10
-4
 20
58.8
 11
-4
 21
-4.999999999999999
  0
CIRCLE
  5
202
100
AcDbEntity
  8
construction
  6
ByLayer
 62
  256
370
   -1
100
AcDbCircle
 10
59.21167397241011
 20
-49.20197749209711
 40
127.013199045133
  0
CIRCLE
  5
203
100
AcDbEntity
  8
construction
  6
ByLayer
 62
  256
370
   -1
100
AcDbCircle
 10
2.212814302144028e-08
 20
58.61828922962225
 40
4.004125201220178
  0
ARC
  5
204
100
AcDbEntity
  8
outline
  6
ByLayer
 62
  256
370
   -1
100
AcDbCircle
 10
2.212814302144028e-08
 20
58.61828922962225
 40
4.004125201220177
100
AcDbArc
 50
118.7742819518325
 51
177.3989731970118
  0
CIRCLE
  5
205
100
AcDbEntity
  8
construction
  6
ByLayer
 62
  256
370
   -1
100
AcDbCircle
 10
103.8000000000003
 20
65.42727480398729
 40
4.017327976620861
  0
ARC
  5
206
100
AcDbEntity
  8
outline
  6
ByLayer
 62
  256
370
   -1
100
AcDbCircle
 10
59.21167397241008
 20
-49.20197749209703
 40
127.0131990451329
100
AcDbArc
 50
68.74502981848313
 51
118.7742775321466
  0
ARC
  5
207
100
AcDbEntity
  8
outline
  6
ByLayer
 62
  256
370
   -1
100
AcDbCircle
 10
197.7725374017171
 20
68.32902843695406
 40
90
100
AcDbArc
 50
181.7686589047606
 51
231.9661964767591
  0
ARC
  5
208
100
AcDbEntity
  8
outline
  6
ByLayer
 62
  256
370
   -1
100
AcDbCircle
 10
103.8000000000003
 20
65.42727480398729
 40
4.017327976621011
100
AcDbArc
 50
1.768673663992657
 51
68.74502981848288
  0
CIRCLE
  5
209
100
AcDbEntity
  8
construction
  6
ByLayer
 62
  256
370
   -1
100
AcDbCircle
 10
135.3731154510842
 20
-18.18006029088847
 40
4.00001
  0
CIRCLE
  5
20A
100
AcDbEntity
  8
construction
  6
ByLayer
 62
  256
370
   -1
100
AcDbCircle
 10
55.88176793158591
 20
-184.1232112478786
 40
180
  0
CIRCLE
  5
20B
100
AcDbEntity
  8
construction
  6
ByLayer
 62
  256
370
   -1
100
AcDbCircle
 10
135.6939813781002
 20
-10.94296329119958
 40
10.68662170579455
  0
ARC
  5
20C
100
AcDbEntity
  8
construction
  6
ByLayer
 62
  256
370
   -1
100
AcDbCircle
 10
0
 20
0
 40
8
100
AcDbArc
 50
0
 51
0
  0
CIRCLE
  5
20D
100
AcDbEntity
  8
construction
  6
ByLayer
 62
  256
370
   -1
100
AcDbCircle
 10
0
 20
-5
 40
4.00001
  0
CIRCLE
  5
20E
100
AcDbEntity
  8
construction
  6
ByLayer
 62
  256
370
   -1
100
AcDbCircle
 10
6.130161841196962
 20
50.66345296332986
 40
60
  0
ARC
  5
20F
100
AcDbEntity
  8
outline
  6
ByLayer
 62
  256
370
   -1
100
AcDbCircle
 10
55.88176793158591
 20
-184.1232112478786
 40
180
100
AcDbArc
 50
65.25681496126478
 51
101.9640759717844
  0
ARC
  5
210
100
AcDbEntity
  8
outline
  6
ByLayer
 62
  256
370
   -1
100
AcDbCircle
 10
6.130161841196962
 20
50.66345296332986
 40
60.00000000000001
100
AcDbArc
 50
263.715396570105
 51
281.9640759717844
  0
ARC
  5
211
100
AcDbEntity
  8
outline
  6
ByLayer
 62
  256
370
   -1
100
AcDbCircle
 10
0
 20
-5
 40
4.000010000000001
100
AcDbArc
 50
179.8718828756323
 51
263.7153854141614
  0
ARC
  5
212
100
AcDbEntity
  8
outline
  6
ByLayer
 62
  256
370
   -1
100
AcDbCircle
 10
135.6939813781002
 20
-10.94296329119958
 40
10.68662170579459
100
AcDbArc
 50
245.2568116927918
 51
51.67424096860853
  0
ENDSEC
  0
SECTION
  2
OBJECTS
  0
DICTIONARY
  5
C
330
0
100
AcDbDictionary
281
    1
  3
ACAD_GROUP
350
D
  0
DICTIONARY
  5
D
330
C
100
AcDbDictionary
281
    1
  0
ENDSEC
  0
EOF
