%TF.GenerationSoftware,KiCad,Pcbnew,(6.0.5)*%
%TF.CreationDate,2023-05-21T00:40:20-05:00*%
%TF.ProjectId,pcb,7063622e-6b69-4636-9164-5f7063625858,rev?*%
%TF.SameCoordinates,Original*%
%TF.FileFunction,Legend,Bot*%
%TF.FilePolarity,Positive*%
%FSLAX46Y46*%
G04 Gerber Fmt 4.6, Leading zero omitted, Abs format (unit mm)*
G04 Created by KiCad (PCBNEW (6.0.5)) date 2023-05-21 00:40:20*
%MOMM*%
%LPD*%
G01*
G04 APERTURE LIST*
%ADD10C,0.120000*%
G04 APERTURE END LIST*
D10*
%TO.C,K40*%
X146502053Y-103986642D02*
X147264053Y-103986642D01*
X147264053Y-103986642D02*
X147264053Y-105986642D01*
X147264053Y-105986642D02*
X146502053Y-105986642D01*
X146502053Y-105986642D02*
X146502053Y-103986642D01*
G36*
X146502053Y-103986642D02*
G01*
X147264053Y-103986642D01*
X147264053Y-105986642D01*
X146502053Y-105986642D01*
X146502053Y-103986642D01*
G37*
%TO.C,K50*%
X164502061Y-101697091D02*
X165264061Y-101697091D01*
X165264061Y-101697091D02*
X165264061Y-103697091D01*
X165264061Y-103697091D02*
X164502061Y-103697091D01*
X164502061Y-103697091D02*
X164502061Y-101697091D01*
G36*
X164502061Y-101697091D02*
G01*
X165264061Y-101697091D01*
X165264061Y-103697091D01*
X164502061Y-103697091D01*
X164502061Y-101697091D01*
G37*
%TO.C,K60*%
X186758008Y-113315014D02*
X187394162Y-113734481D01*
X187394162Y-113734481D02*
X186293200Y-115404176D01*
X186293200Y-115404176D02*
X185657046Y-114984710D01*
X185657046Y-114984710D02*
X186758008Y-113315014D01*
G36*
X186758008Y-113315014D02*
G01*
X187394162Y-113734481D01*
X186293200Y-115404176D01*
X185657046Y-114984710D01*
X186758008Y-113315014D01*
G37*
%TO.C,K03*%
X64397394Y-68807353D02*
X65146391Y-68667182D01*
X65146391Y-68667182D02*
X65514294Y-70633053D01*
X65514294Y-70633053D02*
X64765297Y-70773224D01*
X64765297Y-70773224D02*
X64397394Y-68807353D01*
G36*
X64397394Y-68807353D02*
G01*
X65146391Y-68667182D01*
X65514294Y-70633053D01*
X64765297Y-70773224D01*
X64397394Y-68807353D01*
G37*
%TO.C,K31*%
X125867373Y-82842845D02*
X126627055Y-82783457D01*
X126627055Y-82783457D02*
X126782930Y-84777373D01*
X126782930Y-84777373D02*
X126023247Y-84836761D01*
X126023247Y-84836761D02*
X125867373Y-82842845D01*
G36*
X125867373Y-82842845D02*
G01*
X126627055Y-82783457D01*
X126782930Y-84777373D01*
X126023247Y-84836761D01*
X125867373Y-82842845D01*
G37*
%TO.C,K02*%
X67528245Y-85536911D02*
X68277242Y-85396740D01*
X68277242Y-85396740D02*
X68645145Y-87362611D01*
X68645145Y-87362611D02*
X67896148Y-87502782D01*
X67896148Y-87502782D02*
X67528245Y-85536911D01*
G36*
X67528245Y-85536911D02*
G01*
X68277242Y-85396740D01*
X68645145Y-87362611D01*
X67896148Y-87502782D01*
X67528245Y-85536911D01*
G37*
%TO.C,K43*%
X146502052Y-48926641D02*
X147264052Y-48926641D01*
X147264052Y-48926641D02*
X147264052Y-50926641D01*
X147264052Y-50926641D02*
X146502052Y-50926641D01*
X146502052Y-50926641D02*
X146502052Y-48926641D01*
G36*
X146502052Y-48926641D02*
G01*
X147264052Y-48926641D01*
X147264052Y-50926641D01*
X146502052Y-50926641D01*
X146502052Y-48926641D01*
G37*
%TO.C,K21*%
X106034325Y-88386027D02*
X106788228Y-88275238D01*
X106788228Y-88275238D02*
X107079013Y-90253986D01*
X107079013Y-90253986D02*
X106325110Y-90364775D01*
X106325110Y-90364775D02*
X106034325Y-88386027D01*
G36*
X106034325Y-88386027D02*
G01*
X106788228Y-88275238D01*
X107079013Y-90253986D01*
X106325110Y-90364775D01*
X106034325Y-88386027D01*
G37*
%TO.C,K53*%
X164502060Y-50637090D02*
X165264060Y-50637090D01*
X165264060Y-50637090D02*
X165264060Y-52637090D01*
X165264060Y-52637090D02*
X164502060Y-52637090D01*
X164502060Y-52637090D02*
X164502060Y-50637090D01*
G36*
X164502060Y-50637090D02*
G01*
X165264060Y-50637090D01*
X165264060Y-52637090D01*
X164502060Y-52637090D01*
X164502060Y-50637090D01*
G37*
%TO.C,K22*%
X103559746Y-71546881D02*
X104313649Y-71436092D01*
X104313649Y-71436092D02*
X104604434Y-73414840D01*
X104604434Y-73414840D02*
X103850531Y-73525629D01*
X103850531Y-73525629D02*
X103559746Y-71546881D01*
G36*
X103559746Y-71546881D02*
G01*
X104313649Y-71436092D01*
X104604434Y-73414840D01*
X103850531Y-73525629D01*
X103559746Y-71546881D01*
G37*
%TO.C,K01*%
X70659097Y-102266471D02*
X71408094Y-102126300D01*
X71408094Y-102126300D02*
X71775997Y-104092171D01*
X71775997Y-104092171D02*
X71027000Y-104232342D01*
X71027000Y-104232342D02*
X70659097Y-102266471D01*
G36*
X70659097Y-102266471D02*
G01*
X71408094Y-102126300D01*
X71775997Y-104092171D01*
X71027000Y-104232342D01*
X70659097Y-102266471D01*
G37*
%TO.C,K42*%
X146502052Y-65946642D02*
X147264052Y-65946642D01*
X147264052Y-65946642D02*
X147264052Y-67946642D01*
X147264052Y-67946642D02*
X146502052Y-67946642D01*
X146502052Y-67946642D02*
X146502052Y-65946642D01*
G36*
X146502052Y-65946642D02*
G01*
X147264052Y-65946642D01*
X147264052Y-67946642D01*
X146502052Y-67946642D01*
X146502052Y-65946642D01*
G37*
%TO.C,K12*%
X84908365Y-80554797D02*
X85657362Y-80414626D01*
X85657362Y-80414626D02*
X86025265Y-82380497D01*
X86025265Y-82380497D02*
X85276268Y-82520668D01*
X85276268Y-82520668D02*
X84908365Y-80554797D01*
G36*
X84908365Y-80554797D02*
G01*
X85657362Y-80414626D01*
X86025265Y-82380497D01*
X85276268Y-82520668D01*
X84908365Y-80554797D01*
G37*
%TO.C,K41*%
X146502053Y-82966642D02*
X147264053Y-82966642D01*
X147264053Y-82966642D02*
X147264053Y-84966642D01*
X147264053Y-84966642D02*
X146502053Y-84966642D01*
X146502053Y-84966642D02*
X146502053Y-82966642D01*
G36*
X146502053Y-82966642D02*
G01*
X147264053Y-82966642D01*
X147264053Y-84966642D01*
X146502053Y-84966642D01*
X146502053Y-82966642D01*
G37*
%TO.C,K11*%
X88039217Y-97284358D02*
X88788214Y-97144187D01*
X88788214Y-97144187D02*
X89156117Y-99110058D01*
X89156117Y-99110058D02*
X88407120Y-99250229D01*
X88407120Y-99250229D02*
X88039217Y-97284358D01*
G36*
X88039217Y-97284358D02*
G01*
X88788214Y-97144187D01*
X89156117Y-99110058D01*
X88407120Y-99250229D01*
X88039217Y-97284358D01*
G37*
%TO.C,K51*%
X164502061Y-84677091D02*
X165264061Y-84677091D01*
X165264061Y-84677091D02*
X165264061Y-86677091D01*
X165264061Y-86677091D02*
X164502061Y-86677091D01*
X164502061Y-86677091D02*
X164502061Y-84677091D01*
G36*
X164502061Y-84677091D02*
G01*
X165264061Y-84677091D01*
X165264061Y-86677091D01*
X164502061Y-86677091D01*
X164502061Y-84677091D01*
G37*
%TO.C,K33*%
X123214393Y-48906386D02*
X123974075Y-48846998D01*
X123974075Y-48846998D02*
X124129950Y-50840914D01*
X124129950Y-50840914D02*
X123370267Y-50900302D01*
X123370267Y-50900302D02*
X123214393Y-48906386D01*
G36*
X123214393Y-48906386D02*
G01*
X123974075Y-48846998D01*
X124129950Y-50840914D01*
X123370267Y-50900302D01*
X123214393Y-48906386D01*
G37*
%TO.C,K00*%
X73789948Y-118996030D02*
X74538945Y-118855859D01*
X74538945Y-118855859D02*
X74906848Y-120821730D01*
X74906848Y-120821730D02*
X74157851Y-120961901D01*
X74157851Y-120961901D02*
X73789948Y-118996030D01*
G36*
X73789948Y-118996030D02*
G01*
X74538945Y-118855859D01*
X74906848Y-120821730D01*
X74157851Y-120961901D01*
X73789948Y-118996030D01*
G37*
%TO.C,K20*%
X108508903Y-105225175D02*
X109262806Y-105114386D01*
X109262806Y-105114386D02*
X109553591Y-107093134D01*
X109553591Y-107093134D02*
X108799688Y-107203923D01*
X108799688Y-107203923D02*
X108508903Y-105225175D01*
G36*
X108508903Y-105225175D02*
G01*
X109262806Y-105114386D01*
X109553591Y-107093134D01*
X108799688Y-107203923D01*
X108508903Y-105225175D01*
G37*
%TO.C,K32*%
X124540883Y-65874615D02*
X125300565Y-65815227D01*
X125300565Y-65815227D02*
X125456440Y-67809143D01*
X125456440Y-67809143D02*
X124696757Y-67868531D01*
X124696757Y-67868531D02*
X124540883Y-65874615D01*
G36*
X124540883Y-65874615D02*
G01*
X125300565Y-65815227D01*
X125456440Y-67809143D01*
X124696757Y-67868531D01*
X124540883Y-65874615D01*
G37*
%TO.C,K13*%
X81777512Y-63825237D02*
X82526509Y-63685066D01*
X82526509Y-63685066D02*
X82894412Y-65650937D01*
X82894412Y-65650937D02*
X82145415Y-65791108D01*
X82145415Y-65791108D02*
X81777512Y-63825237D01*
G36*
X81777512Y-63825237D02*
G01*
X82526509Y-63685066D01*
X82894412Y-65650937D01*
X82145415Y-65791108D01*
X81777512Y-63825237D01*
G37*
%TO.C,K23*%
X101085169Y-54707735D02*
X101839072Y-54596946D01*
X101839072Y-54596946D02*
X102129857Y-56575694D01*
X102129857Y-56575694D02*
X101375954Y-56686483D01*
X101375954Y-56686483D02*
X101085169Y-54707735D01*
G36*
X101085169Y-54707735D02*
G01*
X101839072Y-54596946D01*
X102129857Y-56575694D01*
X101375954Y-56686483D01*
X101085169Y-54707735D01*
G37*
%TO.C,K30*%
X127643840Y-108036066D02*
X128403522Y-107976678D01*
X128403522Y-107976678D02*
X128559397Y-109970594D01*
X128559397Y-109970594D02*
X127799714Y-110029982D01*
X127799714Y-110029982D02*
X127643840Y-108036066D01*
G36*
X127643840Y-108036066D02*
G01*
X128403522Y-107976678D01*
X128559397Y-109970594D01*
X127799714Y-110029982D01*
X127643840Y-108036066D01*
G37*
%TO.C,K10*%
X91170068Y-114013915D02*
X91919065Y-113873744D01*
X91919065Y-113873744D02*
X92286968Y-115839615D01*
X92286968Y-115839615D02*
X91537971Y-115979786D01*
X91537971Y-115979786D02*
X91170068Y-114013915D01*
G36*
X91170068Y-114013915D02*
G01*
X91919065Y-113873744D01*
X92286968Y-115839615D01*
X91537971Y-115979786D01*
X91170068Y-114013915D01*
G37*
%TO.C,K52*%
X164502061Y-67657090D02*
X165264061Y-67657090D01*
X165264061Y-67657090D02*
X165264061Y-69657090D01*
X165264061Y-69657090D02*
X164502061Y-69657090D01*
X164502061Y-69657090D02*
X164502061Y-67657090D01*
G36*
X164502061Y-67657090D02*
G01*
X165264061Y-67657090D01*
X165264061Y-69657090D01*
X164502061Y-69657090D01*
X164502061Y-67657090D01*
G37*
%TO.C,JP3*%
X186560000Y-65770000D02*
X189360000Y-65770000D01*
X186560000Y-63770000D02*
X186560000Y-65770000D01*
X189360000Y-65770000D02*
X189360000Y-63770000D01*
X189360000Y-63770000D02*
X186560000Y-63770000D01*
%TO.C,JP2*%
X186560000Y-69580000D02*
X189360000Y-69580000D01*
X189360000Y-67580000D02*
X186560000Y-67580000D01*
X186560000Y-67580000D02*
X186560000Y-69580000D01*
X189360000Y-69580000D02*
X189360000Y-67580000D01*
%TD*%
M02*
