%TF.GenerationSoftware,KiCad,Pcbnew,(6.0.5)*%
%TF.CreationDate,2023-05-21T00:40:20-05:00*%
%TF.ProjectId,pcb,7063622e-6b69-4636-9164-5f7063625858,rev?*%
%TF.SameCoordinates,Original*%
%TF.FileFunction,Paste,Bot*%
%TF.FilePolarity,Positive*%
%FSLAX46Y46*%
G04 Gerber Fmt 4.6, Leading zero omitted, Abs format (unit mm)*
G04 Created by KiCad (PCBNEW (6.0.5)) date 2023-05-21 00:40:20*
%MOMM*%
%LPD*%
G01*
G04 APERTURE LIST*
G04 Aperture macros list*
%AMRotRect*
0 Rectangle, with rotation*
0 The origin of the aperture is its center*
0 $1 length*
0 $2 width*
0 $3 Rotation angle, in degrees counterclockwise*
0 Add horizontal line*
21,1,$1,$2,0,0,$3*%
%AMFreePoly0*
4,1,41,7.525000,7.514000,5.069000,7.514000,5.069000,8.108000,1.999998,8.108000,1.983525,8.111277,1.751167,8.094658,1.507402,8.041630,1.273664,7.954450,1.054713,7.834894,0.855004,7.685394,0.678605,7.508994,0.529105,7.309286,0.409549,7.090334,0.322369,6.856597,0.269342,6.612831,0.252723,6.380474,0.256000,6.364000,0.256000,1.300000,1.300000,1.300000,1.300000,-1.300000,
-1.300000,-1.300000,-1.300000,1.300000,-0.256000,1.300000,-0.256000,6.364000,-0.239551,6.635931,-0.190445,6.903896,-0.109397,7.163988,0.002411,7.412415,0.143348,7.645554,0.311359,7.860004,0.503994,8.052640,0.718445,8.220651,0.951583,8.361588,1.200010,8.473396,1.460102,8.554444,1.728067,8.603551,1.999998,8.620000,5.069000,8.620000,5.069000,9.214000,7.525000,9.214000,
7.525000,7.514000,7.525000,7.514000,$1*%
%AMFreePoly1*
4,1,39,-2.928902,3.513997,-2.586136,3.463153,-2.250005,3.378957,-1.923745,3.262219,-1.610499,3.114065,-1.313282,2.935920,-1.034958,2.729501,-0.778206,2.496795,-0.545501,2.240044,-0.339081,1.961720,-0.160936,1.664503,-0.012782,1.351257,0.005558,1.300000,1.300000,1.300000,1.300000,-1.300000,-1.300000,-1.300000,-1.300000,1.300000,-0.549080,1.300000,-0.656882,1.511573,-0.829226,1.776960,
-1.028367,2.022879,-1.252123,2.246634,-1.498041,2.445775,-1.763429,2.618119,-2.045377,2.761779,-2.340798,2.875180,-2.646453,2.957080,-2.958996,3.006582,-3.258515,3.022279,-3.275000,3.019000,-3.372967,3.038487,-3.456019,3.093981,-3.511513,3.177033,-3.531000,3.275000,-3.511513,3.372967,-3.456019,3.456019,-3.372967,3.511513,-3.275000,3.531000,-2.928902,3.513997,-2.928902,3.513997,
$1*%
G04 Aperture macros list end*
%ADD10FreePoly0,0.000000*%
%ADD11FreePoly1,0.000000*%
%ADD12R,2.456000X1.700000*%
%ADD13FreePoly0,326.600000*%
%ADD14FreePoly1,326.600000*%
%ADD15RotRect,2.456000X1.700000X146.600000*%
%ADD16RotRect,1.250000X2.500000X101.200000*%
%ADD17FreePoly0,10.600000*%
%ADD18FreePoly1,10.600000*%
%ADD19RotRect,2.456000X1.700000X190.600000*%
%ADD20FreePoly0,4.470000*%
%ADD21FreePoly1,4.470000*%
%ADD22RotRect,2.456000X1.700000X184.470000*%
%ADD23FreePoly0,8.360000*%
%ADD24FreePoly1,8.360000*%
%ADD25RotRect,2.456000X1.700000X188.360000*%
G04 APERTURE END LIST*
D10*
%TO.C,K40*%
X142545053Y-113350642D03*
D11*
X154095053Y-115550642D03*
D12*
X153498053Y-104986642D03*
%TD*%
D10*
%TO.C,K50*%
X160545061Y-111061091D03*
D11*
X172095061Y-113261091D03*
D12*
X171498061Y-102697091D03*
%TD*%
D13*
%TO.C,K60*%
X178299813Y-118954277D03*
D14*
X186731248Y-127148995D03*
D15*
X192048123Y-118001025D03*
%TD*%
D16*
%TO.C,SW2*%
X193104419Y-62912810D03*
X193590005Y-65365197D03*
X194075591Y-67817585D03*
%TD*%
D17*
%TO.C,K03*%
X62230440Y-78739455D03*
D18*
X73988036Y-78777275D03*
D19*
X71457961Y-68503365D03*
%TD*%
D20*
%TO.C,K31*%
X122652212Y-92486759D03*
D21*
X134338542Y-93779894D03*
D22*
X132920030Y-83294555D03*
%TD*%
D17*
%TO.C,K02*%
X65361291Y-95469013D03*
D18*
X77118887Y-95506833D03*
D19*
X74588812Y-85232923D03*
%TD*%
D10*
%TO.C,K43*%
X142545052Y-58290641D03*
D11*
X154095052Y-60490641D03*
D12*
X153498052Y-49926641D03*
%TD*%
D23*
%TO.C,K21*%
X103480826Y-98225843D03*
D24*
X115227960Y-98723185D03*
D25*
X113101378Y-88358236D03*
%TD*%
D10*
%TO.C,K53*%
X160545060Y-60001090D03*
D11*
X172095060Y-62201090D03*
D12*
X171498060Y-51637090D03*
%TD*%
D23*
%TO.C,K22*%
X101006247Y-81386697D03*
D24*
X112753381Y-81884039D03*
D25*
X110626799Y-71519090D03*
%TD*%
D17*
%TO.C,K01*%
X68492143Y-112198573D03*
D18*
X80249739Y-112236393D03*
D19*
X77719664Y-101962483D03*
%TD*%
D10*
%TO.C,K42*%
X142545052Y-75310642D03*
D11*
X154095052Y-77510642D03*
D12*
X153498052Y-66946642D03*
%TD*%
D17*
%TO.C,K12*%
X82741411Y-90486899D03*
D18*
X94499007Y-90524719D03*
D19*
X91968932Y-80250809D03*
%TD*%
D10*
%TO.C,K41*%
X142545053Y-92330642D03*
D11*
X154095053Y-94530642D03*
D12*
X153498053Y-83966642D03*
%TD*%
D17*
%TO.C,K11*%
X85872263Y-107216460D03*
D18*
X97629859Y-107254280D03*
D19*
X95099784Y-96980370D03*
%TD*%
D10*
%TO.C,K51*%
X160545061Y-94041091D03*
D11*
X172095061Y-96241091D03*
D12*
X171498061Y-85677091D03*
%TD*%
D20*
%TO.C,K33*%
X119999232Y-58550300D03*
D21*
X131685562Y-59843435D03*
D22*
X130267050Y-49358096D03*
%TD*%
D17*
%TO.C,K00*%
X71622994Y-128928132D03*
D18*
X83380590Y-128965952D03*
D19*
X80850515Y-118692042D03*
%TD*%
D23*
%TO.C,K20*%
X105955404Y-115064991D03*
D24*
X117702538Y-115562333D03*
D25*
X115575956Y-105197384D03*
%TD*%
D20*
%TO.C,K32*%
X121325722Y-75518529D03*
D21*
X133012052Y-76811664D03*
D22*
X131593540Y-66326325D03*
%TD*%
D17*
%TO.C,K13*%
X79610558Y-73757339D03*
D18*
X91368154Y-73795159D03*
D19*
X88838079Y-63521249D03*
%TD*%
D23*
%TO.C,K23*%
X98531670Y-64547551D03*
D24*
X110278804Y-65044893D03*
D25*
X108152222Y-54679944D03*
%TD*%
D20*
%TO.C,K30*%
X124428679Y-117679980D03*
D21*
X136115009Y-118973115D03*
D22*
X134696497Y-108487776D03*
%TD*%
D17*
%TO.C,K10*%
X89003114Y-123946017D03*
D18*
X100760710Y-123983837D03*
D19*
X98230635Y-113709927D03*
%TD*%
D10*
%TO.C,K52*%
X160545061Y-77021090D03*
D11*
X172095061Y-79221090D03*
D12*
X171498061Y-68657090D03*
%TD*%
M02*
