%TF.GenerationSoftware,KiCad,Pcbnew,(6.0.5)*%
%TF.CreationDate,2023-05-21T00:40:20-05:00*%
%TF.ProjectId,pcb,7063622e-6b69-4636-9164-5f7063625858,rev?*%
%TF.SameCoordinates,Original*%
%TF.FileFunction,Soldermask,Bot*%
%TF.FilePolarity,Negative*%
%FSLAX46Y46*%
G04 Gerber Fmt 4.6, Leading zero omitted, Abs format (unit mm)*
G04 Created by KiCad (PCBNEW (6.0.5)) date 2023-05-21 00:40:20*
%MOMM*%
%LPD*%
G01*
G04 APERTURE LIST*
G04 Aperture macros list*
%AMRoundRect*
0 Rectangle with rounded corners*
0 $1 Rounding radius*
0 $2 $3 $4 $5 $6 $7 $8 $9 X,Y pos of 4 corners*
0 Add a 4 corners polygon primitive as box body*
4,1,4,$2,$3,$4,$5,$6,$7,$8,$9,$2,$3,0*
0 Add four circle primitives for the rounded corners*
1,1,$1+$1,$2,$3*
1,1,$1+$1,$4,$5*
1,1,$1+$1,$6,$7*
1,1,$1+$1,$8,$9*
0 Add four rect primitives between the rounded corners*
20,1,$1+$1,$2,$3,$4,$5,0*
20,1,$1+$1,$4,$5,$6,$7,0*
20,1,$1+$1,$6,$7,$8,$9,0*
20,1,$1+$1,$8,$9,$2,$3,0*%
%AMRotRect*
0 Rectangle, with rotation*
0 The origin of the aperture is its center*
0 $1 length*
0 $2 width*
0 $3 Rotation angle, in degrees counterclockwise*
0 Add horizontal line*
21,1,$1,$2,0,0,$3*%
%AMFreePoly0*
4,1,39,-2.928902,3.513997,-2.586136,3.463153,-2.250005,3.378957,-1.923745,3.262219,-1.610499,3.114065,-1.313282,2.935920,-1.034958,2.729501,-0.778206,2.496795,-0.545501,2.240044,-0.339081,1.961720,-0.160936,1.664503,-0.012782,1.351257,0.005558,1.300000,1.300000,1.300000,1.300000,-1.300000,-1.300000,-1.300000,-1.300000,1.300000,-0.549080,1.300000,-0.656882,1.511573,-0.829226,1.776960,
-1.028367,2.022879,-1.252123,2.246634,-1.498041,2.445775,-1.763429,2.618119,-2.045377,2.761779,-2.340798,2.875180,-2.646453,2.957080,-2.958996,3.006582,-3.258515,3.022279,-3.275000,3.019000,-3.372967,3.038487,-3.456019,3.093981,-3.511513,3.177033,-3.531000,3.275000,-3.511513,3.372967,-3.456019,3.456019,-3.372967,3.511513,-3.275000,3.531000,-2.928902,3.513997,-2.928902,3.513997,
$1*%
%AMFreePoly1*
4,1,15,1.000000,0.000000,0.500000,-0.750000,-0.500000,-0.750000,-0.500000,-0.127000,-2.540000,-0.127000,-2.576070,-0.121770,-2.636138,-0.082984,-2.665733,-0.017894,-2.655473,0.052868,-2.608611,0.106872,-2.540000,0.127000,-0.500000,0.127000,-0.500000,0.750000,0.500000,0.750000,1.000000,0.000000,1.000000,0.000000,$1*%
%AMFreePoly2*
4,1,6,0.500000,-0.750000,-0.650000,-0.750000,-0.150000,0.000000,-0.650000,0.750000,0.500000,0.750000,0.500000,-0.750000,0.500000,-0.750000,$1*%
%AMFreePoly3*
4,1,6,1.000000,0.000000,0.500000,-0.750000,-0.500000,-0.750000,-0.500000,0.750000,0.500000,0.750000,1.000000,0.000000,1.000000,0.000000,$1*%
G04 Aperture macros list end*
%ADD10C,3.000000*%
%ADD11C,1.701800*%
%ADD12C,3.429000*%
%ADD13C,0.600000*%
%ADD14FreePoly0,0.000000*%
%ADD15R,2.456000X1.700000*%
%ADD16FreePoly0,326.600000*%
%ADD17RotRect,2.456000X1.700000X146.600000*%
%ADD18O,1.600000X1.600000*%
%ADD19FreePoly1,180.000000*%
%ADD20FreePoly1,0.000000*%
%ADD21R,1.600000X1.600000*%
%ADD22FreePoly2,0.000000*%
%ADD23FreePoly2,180.000000*%
%ADD24C,0.900000*%
%ADD25RotRect,1.250000X2.500000X101.200000*%
%ADD26FreePoly0,10.600000*%
%ADD27RotRect,2.456000X1.700000X190.600000*%
%ADD28FreePoly0,4.470000*%
%ADD29RotRect,2.456000X1.700000X184.470000*%
%ADD30FreePoly0,8.360000*%
%ADD31RotRect,2.456000X1.700000X188.360000*%
%ADD32RoundRect,0.250000X0.350000X0.625000X-0.350000X0.625000X-0.350000X-0.625000X0.350000X-0.625000X0*%
%ADD33O,1.200000X1.750000*%
%ADD34FreePoly3,180.000000*%
%ADD35C,2.000000*%
G04 APERTURE END LIST*
%TO.C,K40*%
G36*
X141218853Y-112039042D02*
G01*
X143860453Y-112039042D01*
X143860453Y-114680642D01*
X141218853Y-114680642D01*
X141218853Y-112039042D01*
G37*
G36*
X147619653Y-104114242D02*
G01*
X150058053Y-104114242D01*
X150058053Y-105841442D01*
X147619653Y-105841442D01*
X147619653Y-104114242D01*
G37*
%TO.C,K50*%
G36*
X159218861Y-109749491D02*
G01*
X161860461Y-109749491D01*
X161860461Y-112391091D01*
X159218861Y-112391091D01*
X159218861Y-109749491D01*
G37*
G36*
X165619661Y-101824691D02*
G01*
X168058061Y-101824691D01*
X168058061Y-103551891D01*
X165619661Y-103551891D01*
X165619661Y-101824691D01*
G37*
%TO.C,K60*%
G36*
X187620792Y-114036758D02*
G01*
X189656485Y-115379050D01*
X188705695Y-116821000D01*
X186670002Y-115478707D01*
X187620792Y-114036758D01*
G37*
G36*
X177914648Y-117129243D02*
G01*
X180119983Y-118583393D01*
X178665833Y-120788727D01*
X176460498Y-119334576D01*
X177914648Y-117129243D01*
G37*
%TO.C,K03*%
G36*
X60685600Y-77694193D02*
G01*
X63282122Y-77208267D01*
X63768048Y-79804789D01*
X61171526Y-80290715D01*
X60685600Y-77694193D01*
G37*
G36*
X65519395Y-68727191D02*
G01*
X67916185Y-68278644D01*
X68233905Y-69976370D01*
X65837116Y-70424917D01*
X65519395Y-68727191D01*
G37*
%TO.C,K31*%
G36*
X121227824Y-91282509D02*
G01*
X123861389Y-91076630D01*
X124067268Y-93710195D01*
X121433703Y-93916074D01*
X121227824Y-91282509D01*
G37*
G36*
X126991519Y-82882954D02*
G01*
X129422502Y-82692912D01*
X129557115Y-84414860D01*
X127126132Y-84604901D01*
X126991519Y-82882954D01*
G37*
%TO.C,K02*%
G36*
X63816451Y-94423751D02*
G01*
X66412973Y-93937825D01*
X66898899Y-96534347D01*
X64302377Y-97020273D01*
X63816451Y-94423751D01*
G37*
G36*
X68650246Y-85456749D02*
G01*
X71047036Y-85008202D01*
X71364756Y-86705928D01*
X68967967Y-87154475D01*
X68650246Y-85456749D01*
G37*
%TO.C,K43*%
G36*
X141218852Y-56979041D02*
G01*
X143860452Y-56979041D01*
X143860452Y-59620641D01*
X141218852Y-59620641D01*
X141218852Y-56979041D01*
G37*
G36*
X147619652Y-49054241D02*
G01*
X150058052Y-49054241D01*
X150058052Y-50781441D01*
X147619652Y-50781441D01*
X147619652Y-49054241D01*
G37*
%TO.C,K21*%
G36*
X101978021Y-97121000D02*
G01*
X104591552Y-96736931D01*
X104975620Y-99350462D01*
X102362090Y-99734530D01*
X101978021Y-97121000D01*
G37*
G36*
X107158602Y-88349781D02*
G01*
X109571091Y-87995256D01*
X109822213Y-89704103D01*
X107409723Y-90058628D01*
X107158602Y-88349781D01*
G37*
%TO.C,K53*%
G36*
X165619660Y-50764690D02*
G01*
X168058060Y-50764690D01*
X168058060Y-52491890D01*
X165619660Y-52491890D01*
X165619660Y-50764690D01*
G37*
G36*
X159218860Y-58689490D02*
G01*
X161860460Y-58689490D01*
X161860460Y-61331090D01*
X159218860Y-61331090D01*
X159218860Y-58689490D01*
G37*
%TO.C,K22*%
G36*
X104684023Y-71510635D02*
G01*
X107096512Y-71156110D01*
X107347634Y-72864957D01*
X104935144Y-73219482D01*
X104684023Y-71510635D01*
G37*
G36*
X99503442Y-80281854D02*
G01*
X102116973Y-79897785D01*
X102501041Y-82511316D01*
X99887511Y-82895384D01*
X99503442Y-80281854D01*
G37*
%TO.C,K01*%
G36*
X71781098Y-102186309D02*
G01*
X74177888Y-101737762D01*
X74495608Y-103435488D01*
X72098819Y-103884035D01*
X71781098Y-102186309D01*
G37*
G36*
X66947303Y-111153311D02*
G01*
X69543825Y-110667385D01*
X70029751Y-113263907D01*
X67433229Y-113749833D01*
X66947303Y-111153311D01*
G37*
%TO.C,K42*%
G36*
X141218852Y-73999042D02*
G01*
X143860452Y-73999042D01*
X143860452Y-76640642D01*
X141218852Y-76640642D01*
X141218852Y-73999042D01*
G37*
G36*
X147619652Y-66074242D02*
G01*
X150058052Y-66074242D01*
X150058052Y-67801442D01*
X147619652Y-67801442D01*
X147619652Y-66074242D01*
G37*
%TO.C,K12*%
G36*
X86030366Y-80474635D02*
G01*
X88427156Y-80026088D01*
X88744876Y-81723814D01*
X86348087Y-82172361D01*
X86030366Y-80474635D01*
G37*
G36*
X81196571Y-89441637D02*
G01*
X83793093Y-88955711D01*
X84279019Y-91552233D01*
X81682497Y-92038159D01*
X81196571Y-89441637D01*
G37*
%TO.C,K41*%
G36*
X147619653Y-83094242D02*
G01*
X150058053Y-83094242D01*
X150058053Y-84821442D01*
X147619653Y-84821442D01*
X147619653Y-83094242D01*
G37*
G36*
X141218853Y-91019042D02*
G01*
X143860453Y-91019042D01*
X143860453Y-93660642D01*
X141218853Y-93660642D01*
X141218853Y-91019042D01*
G37*
%TO.C,K11*%
G36*
X84327423Y-106171198D02*
G01*
X86923945Y-105685272D01*
X87409871Y-108281794D01*
X84813349Y-108767720D01*
X84327423Y-106171198D01*
G37*
G36*
X89161218Y-97204196D02*
G01*
X91558008Y-96755649D01*
X91875728Y-98453375D01*
X89478939Y-98901922D01*
X89161218Y-97204196D01*
G37*
%TO.C,K51*%
G36*
X159218861Y-92729491D02*
G01*
X161860461Y-92729491D01*
X161860461Y-95371091D01*
X159218861Y-95371091D01*
X159218861Y-92729491D01*
G37*
G36*
X165619661Y-84804691D02*
G01*
X168058061Y-84804691D01*
X168058061Y-86531891D01*
X165619661Y-86531891D01*
X165619661Y-84804691D01*
G37*
%TO.C,K33*%
G36*
X124338539Y-48946495D02*
G01*
X126769522Y-48756453D01*
X126904135Y-50478401D01*
X124473152Y-50668442D01*
X124338539Y-48946495D01*
G37*
G36*
X118574844Y-57346050D02*
G01*
X121208409Y-57140171D01*
X121414288Y-59773736D01*
X118780723Y-59979615D01*
X118574844Y-57346050D01*
G37*
%TO.C,K00*%
G36*
X70078154Y-127882870D02*
G01*
X72674676Y-127396944D01*
X73160602Y-129993466D01*
X70564080Y-130479392D01*
X70078154Y-127882870D01*
G37*
G36*
X74911949Y-118915868D02*
G01*
X77308739Y-118467321D01*
X77626459Y-120165047D01*
X75229670Y-120613594D01*
X74911949Y-118915868D01*
G37*
%TO.C,K20*%
G36*
X109633180Y-105188929D02*
G01*
X112045669Y-104834404D01*
X112296791Y-106543251D01*
X109884301Y-106897776D01*
X109633180Y-105188929D01*
G37*
G36*
X104452599Y-113960148D02*
G01*
X107066130Y-113576079D01*
X107450198Y-116189610D01*
X104836668Y-116573678D01*
X104452599Y-113960148D01*
G37*
%TO.C,K32*%
G36*
X125665029Y-65914724D02*
G01*
X128096012Y-65724682D01*
X128230625Y-67446630D01*
X125799642Y-67636671D01*
X125665029Y-65914724D01*
G37*
G36*
X119901334Y-74314279D02*
G01*
X122534899Y-74108400D01*
X122740778Y-76741965D01*
X120107213Y-76947844D01*
X119901334Y-74314279D01*
G37*
%TO.C,K13*%
G36*
X78065718Y-72712077D02*
G01*
X80662240Y-72226151D01*
X81148166Y-74822673D01*
X78551644Y-75308599D01*
X78065718Y-72712077D01*
G37*
G36*
X82899513Y-63745075D02*
G01*
X85296303Y-63296528D01*
X85614023Y-64994254D01*
X83217234Y-65442801D01*
X82899513Y-63745075D01*
G37*
%TO.C,K23*%
G36*
X102209446Y-54671489D02*
G01*
X104621935Y-54316964D01*
X104873057Y-56025811D01*
X102460567Y-56380336D01*
X102209446Y-54671489D01*
G37*
G36*
X97028865Y-63442708D02*
G01*
X99642396Y-63058639D01*
X100026464Y-65672170D01*
X97412934Y-66056238D01*
X97028865Y-63442708D01*
G37*
%TO.C,K30*%
G36*
X123004291Y-116475730D02*
G01*
X125637856Y-116269851D01*
X125843735Y-118903416D01*
X123210170Y-119109295D01*
X123004291Y-116475730D01*
G37*
G36*
X128767986Y-108076175D02*
G01*
X131198969Y-107886133D01*
X131333582Y-109608081D01*
X128902599Y-109798122D01*
X128767986Y-108076175D01*
G37*
%TO.C,K10*%
G36*
X92292069Y-113933753D02*
G01*
X94688859Y-113485206D01*
X95006579Y-115182932D01*
X92609790Y-115631479D01*
X92292069Y-113933753D01*
G37*
G36*
X87458274Y-122900755D02*
G01*
X90054796Y-122414829D01*
X90540722Y-125011351D01*
X87944200Y-125497277D01*
X87458274Y-122900755D01*
G37*
%TO.C,K52*%
G36*
X165619661Y-67784690D02*
G01*
X168058061Y-67784690D01*
X168058061Y-69511890D01*
X165619661Y-69511890D01*
X165619661Y-67784690D01*
G37*
G36*
X159218861Y-75709490D02*
G01*
X161860461Y-75709490D01*
X161860461Y-78351090D01*
X159218861Y-78351090D01*
X159218861Y-75709490D01*
G37*
%TD*%
D10*
%TO.C,K40*%
X145820053Y-113350642D03*
D11*
X145320053Y-109600642D03*
D10*
X155820053Y-113350642D03*
D12*
X150820053Y-109600642D03*
D10*
X150820053Y-115550642D03*
D13*
X150070053Y-104986642D03*
D11*
X156320053Y-109600642D03*
D14*
X154095053Y-115550642D03*
D13*
X150820053Y-112275642D03*
X152270053Y-104986642D03*
D15*
X153498053Y-104986642D03*
%TD*%
D11*
%TO.C,K50*%
X163320061Y-107311091D03*
X174320061Y-107311091D03*
D10*
X168820061Y-113261091D03*
X163820061Y-111061091D03*
X173820061Y-111061091D03*
D12*
X168820061Y-107311091D03*
D13*
X168070061Y-102697091D03*
X168820061Y-109986091D03*
D14*
X172095061Y-113261091D03*
D15*
X171498061Y-102697091D03*
D13*
X170270061Y-102697091D03*
%TD*%
D10*
%TO.C,K60*%
X183997122Y-125346171D03*
X189382419Y-126261909D03*
D11*
X191864145Y-123406470D03*
D12*
X187272482Y-120378826D03*
D10*
X181033940Y-120757102D03*
D11*
X182680819Y-117351182D03*
D13*
X189186264Y-116113977D03*
D16*
X186731248Y-127148995D03*
D13*
X185799946Y-122612044D03*
D17*
X192048123Y-118001025D03*
D13*
X191022930Y-117325035D03*
%TD*%
D18*
%TO.C,U1*%
X180823676Y-96005284D03*
X196063676Y-101085284D03*
D19*
X193703676Y-88385284D03*
X193703676Y-103625284D03*
X193703676Y-101085284D03*
X193703676Y-83305284D03*
D18*
X180823676Y-93465284D03*
D19*
X193703676Y-93465284D03*
D20*
X183183676Y-101085284D03*
X183183676Y-80765284D03*
D18*
X196063676Y-83305284D03*
D20*
X183183676Y-98545284D03*
X183183676Y-83305284D03*
X183183676Y-90925284D03*
D18*
X196063676Y-98545284D03*
D19*
X193703676Y-75685284D03*
D18*
X180823676Y-101085284D03*
X180823676Y-85845284D03*
D19*
X193703676Y-96005284D03*
D18*
X180823676Y-78225284D03*
X196063676Y-90925284D03*
X180823676Y-103625284D03*
D19*
X193778676Y-98545284D03*
X193693351Y-85832943D03*
D18*
X196063676Y-78225284D03*
D21*
X180823676Y-75685284D03*
D18*
X196063676Y-103625284D03*
X196063676Y-80765284D03*
D19*
X193703676Y-80765284D03*
D20*
X183183676Y-85845284D03*
D18*
X180823676Y-80765284D03*
X196063676Y-96005284D03*
D20*
X183183676Y-78225284D03*
X183183676Y-93465284D03*
D19*
X193703676Y-90925284D03*
D18*
X180823676Y-98545284D03*
D20*
X183183676Y-75685284D03*
D18*
X196063676Y-85845284D03*
X196063676Y-93465284D03*
X180823676Y-83305284D03*
X180823676Y-88385284D03*
X180823676Y-90925284D03*
D20*
X183183676Y-96005284D03*
D19*
X193703676Y-78225284D03*
D18*
X196063676Y-88385284D03*
X196063676Y-75685284D03*
D20*
X183183676Y-88385284D03*
X183183676Y-103625284D03*
D22*
X184633676Y-75685284D03*
X184633676Y-78225284D03*
X184633676Y-80765284D03*
X184633676Y-83305284D03*
X184633676Y-85845284D03*
X184633676Y-88385284D03*
X184633676Y-90925284D03*
X184633676Y-93465284D03*
X184633676Y-96005284D03*
X184633676Y-98545284D03*
X184633676Y-101085284D03*
X184633676Y-103625284D03*
D23*
X192253676Y-103625284D03*
X192253676Y-101085284D03*
X192328676Y-98545284D03*
X192253676Y-96005284D03*
X192253676Y-93465284D03*
X192253676Y-90925284D03*
X192253676Y-88385284D03*
X192243351Y-85832943D03*
X192253676Y-83305284D03*
X192253676Y-80765284D03*
X192253676Y-78225284D03*
X192253676Y-75685284D03*
%TD*%
D24*
%TO.C,SW2*%
X195627235Y-61495805D03*
X196948029Y-68166301D03*
D25*
X193104419Y-62912810D03*
X193590005Y-65365197D03*
X194075591Y-67817585D03*
%TD*%
D11*
%TO.C,K03*%
X75080556Y-72519518D03*
D12*
X69674412Y-73531250D03*
D13*
X68088459Y-69133950D03*
D11*
X64268268Y-74542982D03*
D10*
X65449553Y-78137014D03*
X75278906Y-76297501D03*
X70768923Y-79379715D03*
D13*
X70166482Y-76160602D03*
D26*
X73988036Y-78777275D03*
D27*
X71457961Y-68503365D03*
D13*
X70250917Y-68729257D03*
%TD*%
%TO.C,K31*%
X129502458Y-83561723D03*
D10*
X125917251Y-92231515D03*
D12*
X130609778Y-88103236D03*
D11*
X125126507Y-88531890D03*
D10*
X131073504Y-94035138D03*
X135886834Y-91452144D03*
D11*
X136093049Y-87674582D03*
D28*
X134338542Y-93779894D03*
D13*
X130818260Y-90770099D03*
D29*
X132920030Y-83294555D03*
D13*
X131695766Y-83390262D03*
%TD*%
%TO.C,K02*%
X71219310Y-85863508D03*
D10*
X68580404Y-94866572D03*
D12*
X72805263Y-90260808D03*
D10*
X73899774Y-96109273D03*
D11*
X78211407Y-89249076D03*
X67399119Y-91272540D03*
D10*
X78409757Y-93027059D03*
D26*
X77118887Y-95506833D03*
D13*
X73297333Y-92890160D03*
D27*
X74588812Y-85232923D03*
D13*
X73381768Y-85458815D03*
%TD*%
D10*
%TO.C,K43*%
X150820052Y-60490641D03*
X145820052Y-58290641D03*
X155820052Y-58290641D03*
D13*
X150070052Y-49926641D03*
D11*
X145320052Y-54540641D03*
D12*
X150820052Y-54540641D03*
D11*
X156320052Y-54540641D03*
D13*
X150820052Y-57215641D03*
D14*
X154095052Y-60490641D03*
D15*
X153498052Y-49926641D03*
D13*
X152270052Y-49926641D03*
%TD*%
D11*
%TO.C,K21*%
X116564232Y-92512911D03*
D10*
X111987759Y-99199345D03*
D11*
X105681118Y-94112227D03*
D13*
X109709804Y-88856641D03*
D10*
X106721026Y-97749684D03*
X116614767Y-96295760D03*
D12*
X111122675Y-93312569D03*
D30*
X115227960Y-98723185D03*
D13*
X111511600Y-95959145D03*
D31*
X113101378Y-88358236D03*
D13*
X111886427Y-88536778D03*
%TD*%
D10*
%TO.C,K53*%
X163820060Y-60001090D03*
D11*
X163320060Y-56251090D03*
X174320060Y-56251090D03*
D12*
X168820060Y-56251090D03*
D10*
X168820060Y-62201090D03*
D13*
X168070060Y-51637090D03*
D10*
X173820060Y-60001090D03*
D14*
X172095060Y-62201090D03*
D13*
X168820060Y-58926090D03*
D15*
X171498060Y-51637090D03*
D13*
X170270060Y-51637090D03*
%TD*%
D10*
%TO.C,K22*%
X109513180Y-82360199D03*
D13*
X107235225Y-72017495D03*
D11*
X114089653Y-75673765D03*
D12*
X108648096Y-76473423D03*
D11*
X103206539Y-77273081D03*
D10*
X104246447Y-80910538D03*
X114140188Y-79456614D03*
D13*
X109037021Y-79119999D03*
D30*
X112753381Y-81884039D03*
D31*
X110626799Y-71519090D03*
D13*
X109411848Y-71697632D03*
%TD*%
D11*
%TO.C,K01*%
X70529971Y-108002100D03*
D10*
X71711256Y-111596132D03*
X81540609Y-109756619D03*
X77030626Y-112838833D03*
D13*
X74350162Y-102593068D03*
D11*
X81342259Y-105978636D03*
D12*
X75936115Y-106990368D03*
D13*
X76428185Y-109619720D03*
D26*
X80249739Y-112236393D03*
D13*
X76512620Y-102188375D03*
D27*
X77719664Y-101962483D03*
%TD*%
D10*
%TO.C,K42*%
X155820052Y-75310642D03*
D12*
X150820052Y-71560642D03*
D11*
X156320052Y-71560642D03*
D13*
X150070052Y-66946642D03*
D10*
X150820052Y-77510642D03*
D11*
X145320052Y-71560642D03*
D10*
X145820052Y-75310642D03*
D14*
X154095052Y-77510642D03*
D13*
X150820052Y-74235642D03*
X152270052Y-66946642D03*
D15*
X153498052Y-66946642D03*
%TD*%
D10*
%TO.C,K12*%
X91279894Y-91127159D03*
D11*
X84779239Y-86290426D03*
D10*
X85960524Y-89884458D03*
D12*
X90185383Y-85278694D03*
D11*
X95591527Y-84266962D03*
D13*
X88599430Y-80881394D03*
D10*
X95789877Y-88044945D03*
D26*
X94499007Y-90524719D03*
D13*
X90677453Y-87908046D03*
X90761888Y-80476701D03*
D27*
X91968932Y-80250809D03*
%TD*%
D32*
%TO.C,J1*%
X183547633Y-69186054D03*
D33*
X181547633Y-69186054D03*
%TD*%
D12*
%TO.C,K41*%
X150820053Y-88580642D03*
D10*
X145820053Y-92330642D03*
D13*
X150070053Y-83966642D03*
D10*
X150820053Y-94530642D03*
D11*
X156320053Y-88580642D03*
X145320053Y-88580642D03*
D10*
X155820053Y-92330642D03*
D14*
X154095053Y-94530642D03*
D13*
X150820053Y-91255642D03*
D15*
X153498053Y-83966642D03*
D13*
X152270053Y-83966642D03*
%TD*%
D12*
%TO.C,K11*%
X93316235Y-102008255D03*
D10*
X94410746Y-107856720D03*
X89091376Y-106614019D03*
D11*
X98722379Y-100996523D03*
D10*
X98920729Y-104774506D03*
D11*
X87910091Y-103019987D03*
D13*
X91730282Y-97610955D03*
D26*
X97629859Y-107254280D03*
D13*
X93808305Y-104637607D03*
X93892740Y-97206262D03*
D27*
X95099784Y-96980370D03*
%TD*%
D10*
%TO.C,K51*%
X173820061Y-94041091D03*
D13*
X168070061Y-85677091D03*
D11*
X163320061Y-90291091D03*
X174320061Y-90291091D03*
D10*
X168820061Y-96241091D03*
D12*
X168820061Y-90291091D03*
D10*
X163820061Y-94041091D03*
D13*
X168820061Y-92966091D03*
D14*
X172095061Y-96241091D03*
D15*
X171498061Y-85677091D03*
D13*
X170270061Y-85677091D03*
%TD*%
D11*
%TO.C,K33*%
X122473527Y-54595431D03*
D10*
X123264271Y-58295056D03*
X133233854Y-57515685D03*
X128420524Y-60098679D03*
D12*
X127956798Y-54166777D03*
D11*
X133440069Y-53738123D03*
D13*
X126849478Y-49625264D03*
X128165280Y-56833640D03*
D28*
X131685562Y-59843435D03*
D29*
X130267050Y-49358096D03*
D13*
X129042786Y-49453803D03*
%TD*%
D10*
%TO.C,K00*%
X74842107Y-128325691D03*
X80161477Y-129568392D03*
X84671460Y-126486178D03*
D12*
X79066966Y-123719927D03*
D11*
X73660822Y-124731659D03*
D13*
X77481013Y-119322627D03*
D11*
X84473110Y-122708195D03*
D13*
X79559036Y-126349279D03*
D26*
X83380590Y-128965952D03*
D27*
X80850515Y-118692042D03*
D13*
X79643471Y-118917934D03*
%TD*%
D12*
%TO.C,K20*%
X113597253Y-110151717D03*
D11*
X108155696Y-110951375D03*
D10*
X109195604Y-114588832D03*
D11*
X119038810Y-109352059D03*
D13*
X112184382Y-105695789D03*
D10*
X114462337Y-116038493D03*
X119089345Y-113134908D03*
D30*
X117702538Y-115562333D03*
D13*
X113986178Y-112798293D03*
D31*
X115575956Y-105197384D03*
D13*
X114361005Y-105375926D03*
%TD*%
%TO.C,K32*%
X128175968Y-66593493D03*
D10*
X134560344Y-74483914D03*
D11*
X134766559Y-70706352D03*
D10*
X124590761Y-75263285D03*
X129747014Y-77066908D03*
D11*
X123800017Y-71563660D03*
D12*
X129283288Y-71135006D03*
D13*
X129491770Y-73801869D03*
D28*
X133012052Y-76811664D03*
D29*
X131593540Y-66326325D03*
D13*
X130369276Y-66422032D03*
%TD*%
D10*
%TO.C,K13*%
X82829671Y-73154898D03*
X92659024Y-71315385D03*
D11*
X92460674Y-67537402D03*
D10*
X88149041Y-74397599D03*
D13*
X85468577Y-64151834D03*
D12*
X87054530Y-68549134D03*
D11*
X81648386Y-69560866D03*
D13*
X87546600Y-71178486D03*
D26*
X91368154Y-73795159D03*
D27*
X88838079Y-63521249D03*
D13*
X87631035Y-63747141D03*
%TD*%
D10*
%TO.C,K23*%
X101771870Y-64071392D03*
X107038603Y-65521053D03*
X111665611Y-62617468D03*
D13*
X104760648Y-55178349D03*
D11*
X100731962Y-60433935D03*
X111615076Y-58834619D03*
D12*
X106173519Y-59634277D03*
D13*
X106562444Y-62280853D03*
D30*
X110278804Y-65044893D03*
D31*
X108152222Y-54679944D03*
D13*
X106937271Y-54858486D03*
%TD*%
D11*
%TO.C,K30*%
X126902974Y-113725111D03*
D10*
X137663301Y-116645365D03*
X127693718Y-117424736D03*
D12*
X132386245Y-113296457D03*
D11*
X137869516Y-112867803D03*
D10*
X132849971Y-119228359D03*
D13*
X131278925Y-108754944D03*
X132594727Y-115963320D03*
D28*
X136115009Y-118973115D03*
D29*
X134696497Y-108487776D03*
D13*
X133472233Y-108583483D03*
%TD*%
%TO.C,K10*%
X94861133Y-114340512D03*
D10*
X102051580Y-121504063D03*
X97541597Y-124586277D03*
D12*
X96447086Y-118737812D03*
D10*
X92222227Y-123343576D03*
D11*
X101853230Y-117726080D03*
X91040942Y-119749544D03*
D13*
X96939156Y-121367164D03*
D26*
X100760710Y-123983837D03*
D13*
X97023591Y-113935819D03*
D27*
X98230635Y-113709927D03*
%TD*%
D10*
%TO.C,K52*%
X173820061Y-77021090D03*
D11*
X163320061Y-73271090D03*
D13*
X168070061Y-68657090D03*
D12*
X168820061Y-73271090D03*
D11*
X174320061Y-73271090D03*
D10*
X163820061Y-77021090D03*
X168820061Y-79221090D03*
D14*
X172095061Y-79221090D03*
D13*
X168820061Y-75946090D03*
D15*
X171498061Y-68657090D03*
D13*
X170270061Y-68657090D03*
%TD*%
D34*
%TO.C,JP3*%
X188685000Y-64770000D03*
D23*
X187235000Y-64770000D03*
%TD*%
D34*
%TO.C,JP2*%
X188685000Y-68580000D03*
D23*
X187235000Y-68580000D03*
%TD*%
D35*
%TO.C,SW1*%
X134620000Y-98425000D03*
X128139771Y-98931591D03*
X128490488Y-103417903D03*
X134970717Y-102911312D03*
%TD*%
M02*
