%TF.GenerationSoftware,KiCad,Pcbnew,6.0.11-2627ca5db0~126~ubuntu22.04.1*%
%TF.CreationDate,2023-05-24T00:13:44-05:00*%
%TF.ProjectId,pcb,7063622e-6b69-4636-9164-5f7063625858,rev?*%
%TF.SameCoordinates,Original*%
%TF.FileFunction,Soldermask,Top*%
%TF.FilePolarity,Negative*%
%FSLAX46Y46*%
G04 Gerber Fmt 4.6, Leading zero omitted, Abs format (unit mm)*
G04 Created by KiCad (PCBNEW 6.0.11-2627ca5db0~126~ubuntu22.04.1) date 2023-05-24 00:13:44*
%MOMM*%
%LPD*%
G01*
G04 APERTURE LIST*
G04 Aperture macros list*
%AMRoundRect*
0 Rectangle with rounded corners*
0 $1 Rounding radius*
0 $2 $3 $4 $5 $6 $7 $8 $9 X,Y pos of 4 corners*
0 Add a 4 corners polygon primitive as box body*
4,1,4,$2,$3,$4,$5,$6,$7,$8,$9,$2,$3,0*
0 Add four circle primitives for the rounded corners*
1,1,$1+$1,$2,$3*
1,1,$1+$1,$4,$5*
1,1,$1+$1,$6,$7*
1,1,$1+$1,$8,$9*
0 Add four rect primitives between the rounded corners*
20,1,$1+$1,$2,$3,$4,$5,0*
20,1,$1+$1,$4,$5,$6,$7,0*
20,1,$1+$1,$6,$7,$8,$9,0*
20,1,$1+$1,$8,$9,$2,$3,0*%
%AMRotRect*
0 Rectangle, with rotation*
0 The origin of the aperture is its center*
0 $1 length*
0 $2 width*
0 $3 Rotation angle, in degrees counterclockwise*
0 Add horizontal line*
21,1,$1,$2,0,0,$3*%
%AMFreePoly0*
4,1,6,0.150000,0.000000,0.650000,-0.750000,-0.500000,-0.750000,-0.500000,0.750000,0.650000,0.750000,0.150000,0.000000,0.150000,0.000000,$1*%
%AMFreePoly1*
4,1,6,1.000000,0.000000,0.500000,-0.750000,-0.500000,-0.750000,-0.500000,0.750000,0.500000,0.750000,1.000000,0.000000,1.000000,0.000000,$1*%
%AMFreePoly2*
4,1,6,0.500000,-0.750000,-0.650000,-0.750000,-0.150000,0.000000,-0.650000,0.750000,0.500000,0.750000,0.500000,-0.750000,0.500000,-0.750000,$1*%
G04 Aperture macros list end*
%ADD10C,1.701800*%
%ADD11C,3.000000*%
%ADD12C,3.429000*%
%ADD13C,0.600000*%
%ADD14O,1.600000X1.600000*%
%ADD15R,1.600000X1.600000*%
%ADD16FreePoly0,0.000000*%
%ADD17FreePoly0,180.000000*%
%ADD18C,0.900000*%
%ADD19RotRect,1.250000X2.500000X101.200000*%
%ADD20RoundRect,0.250000X0.625000X-0.350000X0.625000X0.350000X-0.625000X0.350000X-0.625000X-0.350000X0*%
%ADD21O,1.750000X1.200000*%
%ADD22FreePoly1,180.000000*%
%ADD23FreePoly2,180.000000*%
%ADD24C,2.000000*%
G04 APERTURE END LIST*
%TO.C,K40*%
G36*
X158695699Y-104597528D02*
G01*
X161108699Y-104597528D01*
X161108699Y-106299328D01*
X158695699Y-106299328D01*
X158695699Y-104597528D01*
G37*
G36*
X165751299Y-104594528D02*
G01*
X163295299Y-104594528D01*
X163295299Y-106294528D01*
X165751299Y-106294528D01*
X165751299Y-104594528D01*
G37*
G36*
X171421099Y-112496928D02*
G01*
X168804899Y-112496928D01*
X168804899Y-115113128D01*
X171421099Y-115113128D01*
X171421099Y-112496928D01*
G37*
G36*
X159870299Y-114708528D02*
G01*
X157270299Y-114708528D01*
X157270299Y-117308528D01*
X159870299Y-117308528D01*
X159870299Y-114708528D01*
G37*
%TO.C,K50*%
G36*
X189421107Y-110207377D02*
G01*
X186804907Y-110207377D01*
X186804907Y-112823577D01*
X189421107Y-112823577D01*
X189421107Y-110207377D01*
G37*
G36*
X177870307Y-112418977D02*
G01*
X175270307Y-112418977D01*
X175270307Y-115018977D01*
X177870307Y-115018977D01*
X177870307Y-112418977D01*
G37*
G36*
X183751307Y-102304977D02*
G01*
X181295307Y-102304977D01*
X181295307Y-104004977D01*
X183751307Y-104004977D01*
X183751307Y-102304977D01*
G37*
G36*
X176695707Y-102307977D02*
G01*
X179108707Y-102307977D01*
X179108707Y-104009777D01*
X176695707Y-104009777D01*
X176695707Y-102307977D01*
G37*
%TO.C,K60*%
G36*
X197920990Y-127129609D02*
G01*
X195906502Y-125801299D01*
X196843310Y-124380556D01*
X198857798Y-125708866D01*
X197920990Y-127129609D01*
G37*
G36*
X191645684Y-113529725D02*
G01*
X193829813Y-114969893D01*
X195269981Y-112785764D01*
X193085852Y-111345597D01*
X191645684Y-113529725D01*
G37*
G36*
X192028985Y-123248143D02*
G01*
X194079372Y-124600124D01*
X195015189Y-123180882D01*
X192964803Y-121828902D01*
X192028985Y-123248143D01*
G37*
G36*
X202506288Y-118041869D02*
G01*
X204676892Y-119473119D01*
X206108142Y-117302514D01*
X203937538Y-115871264D01*
X202506288Y-118041869D01*
G37*
%TO.C,U1*%
G36*
X205228922Y-76893170D02*
G01*
X204228922Y-76893170D01*
X203728922Y-76143170D01*
X204228922Y-75393170D01*
X205228922Y-75393170D01*
X205228922Y-76893170D01*
G37*
G36*
X205228922Y-97213170D02*
G01*
X204228922Y-97213170D01*
X203728922Y-96463170D01*
X204228922Y-95713170D01*
X205228922Y-95713170D01*
X205228922Y-97213170D01*
G37*
G36*
X205228922Y-79433170D02*
G01*
X204228922Y-79433170D01*
X203728922Y-78683170D01*
X204228922Y-77933170D01*
X205228922Y-77933170D01*
X205228922Y-79433170D01*
G37*
G36*
X195208922Y-93923170D02*
G01*
X194708922Y-94673170D01*
X193708922Y-94673170D01*
X193708922Y-93173170D01*
X194708922Y-93173170D01*
X195208922Y-93923170D01*
G37*
G36*
X205228922Y-102293170D02*
G01*
X204228922Y-102293170D01*
X203728922Y-101543170D01*
X204228922Y-100793170D01*
X205228922Y-100793170D01*
X205228922Y-102293170D01*
G37*
G36*
X195208922Y-86290829D02*
G01*
X194708922Y-87040829D01*
X193708922Y-87040829D01*
X193708922Y-85540829D01*
X194708922Y-85540829D01*
X195208922Y-86290829D01*
G37*
G36*
X195208922Y-76143170D02*
G01*
X194708922Y-76893170D01*
X193708922Y-76893170D01*
X193708922Y-75393170D01*
X194708922Y-75393170D01*
X195208922Y-76143170D01*
G37*
G36*
X205228922Y-89593170D02*
G01*
X204228922Y-89593170D01*
X203728922Y-88843170D01*
X204228922Y-88093170D01*
X205228922Y-88093170D01*
X205228922Y-89593170D01*
G37*
G36*
X205228922Y-84513170D02*
G01*
X204228922Y-84513170D01*
X203728922Y-83763170D01*
X204228922Y-83013170D01*
X205228922Y-83013170D01*
X205228922Y-84513170D01*
G37*
G36*
X195208922Y-101543170D02*
G01*
X194708922Y-102293170D01*
X193708922Y-102293170D01*
X193708922Y-100793170D01*
X194708922Y-100793170D01*
X195208922Y-101543170D01*
G37*
G36*
X195208922Y-88843170D02*
G01*
X194708922Y-89593170D01*
X193708922Y-89593170D01*
X193708922Y-88093170D01*
X194708922Y-88093170D01*
X195208922Y-88843170D01*
G37*
G36*
X205228922Y-92133170D02*
G01*
X204228922Y-92133170D01*
X203728922Y-91383170D01*
X204228922Y-90633170D01*
X205228922Y-90633170D01*
X205228922Y-92133170D01*
G37*
G36*
X195208922Y-96463170D02*
G01*
X194708922Y-97213170D01*
X193708922Y-97213170D01*
X193708922Y-95713170D01*
X194708922Y-95713170D01*
X195208922Y-96463170D01*
G37*
G36*
X195208922Y-104083170D02*
G01*
X194708922Y-104833170D01*
X193708922Y-104833170D01*
X193708922Y-103333170D01*
X194708922Y-103333170D01*
X195208922Y-104083170D01*
G37*
G36*
X205228922Y-87053170D02*
G01*
X204228922Y-87053170D01*
X203728922Y-86303170D01*
X204228922Y-85553170D01*
X205228922Y-85553170D01*
X205228922Y-87053170D01*
G37*
G36*
X205228922Y-94673170D02*
G01*
X204228922Y-94673170D01*
X203728922Y-93923170D01*
X204228922Y-93173170D01*
X205228922Y-93173170D01*
X205228922Y-94673170D01*
G37*
G36*
X195208922Y-78683170D02*
G01*
X194708922Y-79433170D01*
X193708922Y-79433170D01*
X193708922Y-77933170D01*
X194708922Y-77933170D01*
X195208922Y-78683170D01*
G37*
G36*
X205228922Y-81973170D02*
G01*
X204228922Y-81973170D01*
X203728922Y-81223170D01*
X204228922Y-80473170D01*
X205228922Y-80473170D01*
X205228922Y-81973170D01*
G37*
G36*
X195208922Y-83763170D02*
G01*
X194708922Y-84513170D01*
X193708922Y-84513170D01*
X193708922Y-83013170D01*
X194708922Y-83013170D01*
X195208922Y-83763170D01*
G37*
G36*
X205228922Y-104833170D02*
G01*
X204228922Y-104833170D01*
X203728922Y-104083170D01*
X204228922Y-103333170D01*
X205228922Y-103333170D01*
X205228922Y-104833170D01*
G37*
G36*
X195208922Y-81223170D02*
G01*
X194708922Y-81973170D01*
X193708922Y-81973170D01*
X193708922Y-80473170D01*
X194708922Y-80473170D01*
X195208922Y-81223170D01*
G37*
G36*
X205302922Y-99753170D02*
G01*
X204302922Y-99753170D01*
X203802922Y-99003170D01*
X204302922Y-98253170D01*
X205302922Y-98253170D01*
X205302922Y-99753170D01*
G37*
G36*
X195208922Y-99003170D02*
G01*
X194708922Y-99753170D01*
X193708922Y-99753170D01*
X193708922Y-98253170D01*
X194708922Y-98253170D01*
X195208922Y-99003170D01*
G37*
G36*
X195208922Y-91383170D02*
G01*
X194708922Y-92133170D01*
X193708922Y-92133170D01*
X193708922Y-90633170D01*
X194708922Y-90633170D01*
X195208922Y-91383170D01*
G37*
%TO.C,K31*%
G36*
X138069390Y-83362204D02*
G01*
X140475050Y-83174141D01*
X140607683Y-84870765D01*
X138202023Y-85058827D01*
X138069390Y-83362204D01*
G37*
G36*
X151371739Y-90245795D02*
G01*
X148763497Y-90449694D01*
X148967396Y-93057936D01*
X151575638Y-92854037D01*
X151371739Y-90245795D01*
G37*
G36*
X145103295Y-82809320D02*
G01*
X142654765Y-83000733D01*
X142787258Y-84695562D01*
X145235788Y-84504149D01*
X145103295Y-82809320D01*
G37*
G36*
X140028439Y-93350904D02*
G01*
X137436347Y-93553540D01*
X137638984Y-96145632D01*
X140231075Y-95942995D01*
X140028439Y-93350904D01*
G37*
%TO.C,K02*%
G36*
X72906770Y-77450291D02*
G01*
X75219202Y-76760924D01*
X75705387Y-78391798D01*
X73392955Y-79081164D01*
X72906770Y-77450291D01*
G37*
G36*
X76921011Y-86804320D02*
G01*
X74429372Y-87547110D01*
X75172162Y-90038749D01*
X77663801Y-89295959D01*
X76921011Y-86804320D01*
G37*
G36*
X87358575Y-81384965D02*
G01*
X84851411Y-82132383D01*
X85598829Y-84639547D01*
X88105993Y-83892129D01*
X87358575Y-81384965D01*
G37*
G36*
X79667454Y-75431713D02*
G01*
X77313813Y-76133363D01*
X77799484Y-77762512D01*
X80153124Y-77060861D01*
X79667454Y-75431713D01*
G37*
%TO.C,K43*%
G36*
X159870298Y-59648527D02*
G01*
X157270298Y-59648527D01*
X157270298Y-62248527D01*
X159870298Y-62248527D01*
X159870298Y-59648527D01*
G37*
G36*
X171421098Y-57436927D02*
G01*
X168804898Y-57436927D01*
X168804898Y-60053127D01*
X171421098Y-60053127D01*
X171421098Y-57436927D01*
G37*
G36*
X158695698Y-49537527D02*
G01*
X161108698Y-49537527D01*
X161108698Y-51239327D01*
X158695698Y-51239327D01*
X158695698Y-49537527D01*
G37*
G36*
X165751298Y-49534527D02*
G01*
X163295298Y-49534527D01*
X163295298Y-51234527D01*
X165751298Y-51234527D01*
X165751298Y-49534527D01*
G37*
%TO.C,K21*%
G36*
X120869983Y-98658194D02*
G01*
X118297610Y-99036214D01*
X118675630Y-101608587D01*
X121248003Y-101230567D01*
X120869983Y-98658194D01*
G37*
G36*
X125217993Y-87796613D02*
G01*
X122788091Y-88153696D01*
X123035258Y-89835632D01*
X125465160Y-89478548D01*
X125217993Y-87796613D01*
G37*
G36*
X131976495Y-94790697D02*
G01*
X129388095Y-95171072D01*
X129768470Y-97759473D01*
X132356870Y-97379097D01*
X131976495Y-94790697D01*
G37*
G36*
X118237802Y-88825411D02*
G01*
X120625161Y-88474579D01*
X120872590Y-90158296D01*
X118485230Y-90509128D01*
X118237802Y-88825411D01*
G37*
%TO.C,K53*%
G36*
X189421107Y-59147376D02*
G01*
X186804907Y-59147376D01*
X186804907Y-61763576D01*
X189421107Y-61763576D01*
X189421107Y-59147376D01*
G37*
G36*
X183751307Y-51244976D02*
G01*
X181295307Y-51244976D01*
X181295307Y-52944976D01*
X183751307Y-52944976D01*
X183751307Y-51244976D01*
G37*
G36*
X177870307Y-61358976D02*
G01*
X175270307Y-61358976D01*
X175270307Y-63958976D01*
X177870307Y-63958976D01*
X177870307Y-61358976D01*
G37*
G36*
X176695707Y-51247976D02*
G01*
X179108707Y-51247976D01*
X179108707Y-52949776D01*
X176695707Y-52949776D01*
X176695707Y-51247976D01*
G37*
%TO.C,K22*%
G36*
X118395404Y-81819048D02*
G01*
X115823031Y-82197068D01*
X116201051Y-84769441D01*
X118773424Y-84391421D01*
X118395404Y-81819048D01*
G37*
G36*
X115763223Y-71986265D02*
G01*
X118150582Y-71635433D01*
X118398011Y-73319150D01*
X116010651Y-73669982D01*
X115763223Y-71986265D01*
G37*
G36*
X129501916Y-77951551D02*
G01*
X126913516Y-78331926D01*
X127293891Y-80920327D01*
X129882291Y-80539951D01*
X129501916Y-77951551D01*
G37*
G36*
X122743414Y-70957467D02*
G01*
X120313512Y-71314550D01*
X120560679Y-72996486D01*
X122990581Y-72639402D01*
X122743414Y-70957467D01*
G37*
%TO.C,K01*%
G36*
X77769186Y-93760941D02*
G01*
X80081618Y-93071574D01*
X80567803Y-94702448D01*
X78255371Y-95391814D01*
X77769186Y-93760941D01*
G37*
G36*
X84529870Y-91742363D02*
G01*
X82176229Y-92444013D01*
X82661900Y-94073162D01*
X85015540Y-93371511D01*
X84529870Y-91742363D01*
G37*
G36*
X92220991Y-97695615D02*
G01*
X89713827Y-98443033D01*
X90461245Y-100950197D01*
X92968409Y-100202779D01*
X92220991Y-97695615D01*
G37*
G36*
X81783427Y-103114970D02*
G01*
X79291788Y-103857760D01*
X80034578Y-106349399D01*
X82526217Y-105606609D01*
X81783427Y-103114970D01*
G37*
%TO.C,K42*%
G36*
X159870299Y-76668528D02*
G01*
X157270299Y-76668528D01*
X157270299Y-79268528D01*
X159870299Y-79268528D01*
X159870299Y-76668528D01*
G37*
G36*
X158695699Y-66557528D02*
G01*
X161108699Y-66557528D01*
X161108699Y-68259328D01*
X158695699Y-68259328D01*
X158695699Y-66557528D01*
G37*
G36*
X165751299Y-66554528D02*
G01*
X163295299Y-66554528D01*
X163295299Y-68254528D01*
X165751299Y-68254528D01*
X165751299Y-66554528D01*
G37*
G36*
X171421099Y-74456928D02*
G01*
X168804899Y-74456928D01*
X168804899Y-77073128D01*
X171421099Y-77073128D01*
X171421099Y-74456928D01*
G37*
%TO.C,K12*%
G36*
X94170817Y-81661930D02*
G01*
X91679178Y-82404720D01*
X92421968Y-84896359D01*
X94913607Y-84153569D01*
X94170817Y-81661930D01*
G37*
G36*
X96917260Y-70289323D02*
G01*
X94563619Y-70990973D01*
X95049290Y-72620122D01*
X97402930Y-71918471D01*
X96917260Y-70289323D01*
G37*
G36*
X104608381Y-76242575D02*
G01*
X102101217Y-76989993D01*
X102848635Y-79497157D01*
X105355799Y-78749739D01*
X104608381Y-76242575D01*
G37*
G36*
X90156576Y-72307901D02*
G01*
X92469008Y-71618534D01*
X92955193Y-73249408D01*
X90642761Y-73938774D01*
X90156576Y-72307901D01*
G37*
%TO.C,K41*%
G36*
X158695700Y-83577528D02*
G01*
X161108700Y-83577528D01*
X161108700Y-85279328D01*
X158695700Y-85279328D01*
X158695700Y-83577528D01*
G37*
G36*
X165751300Y-83574528D02*
G01*
X163295300Y-83574528D01*
X163295300Y-85274528D01*
X165751300Y-85274528D01*
X165751300Y-83574528D01*
G37*
G36*
X171421100Y-91476928D02*
G01*
X168804900Y-91476928D01*
X168804900Y-94093128D01*
X171421100Y-94093128D01*
X171421100Y-91476928D01*
G37*
G36*
X159870300Y-93688528D02*
G01*
X157270300Y-93688528D01*
X157270300Y-96288528D01*
X159870300Y-96288528D01*
X159870300Y-93688528D01*
G37*
%TO.C,K11*%
G36*
X109470797Y-92553225D02*
G01*
X106963633Y-93300643D01*
X107711051Y-95807807D01*
X110218215Y-95060389D01*
X109470797Y-92553225D01*
G37*
G36*
X101779676Y-86599973D02*
G01*
X99426035Y-87301623D01*
X99911706Y-88930772D01*
X102265346Y-88229121D01*
X101779676Y-86599973D01*
G37*
G36*
X95018992Y-88618551D02*
G01*
X97331424Y-87929184D01*
X97817609Y-89560058D01*
X95505177Y-90249424D01*
X95018992Y-88618551D01*
G37*
G36*
X99033233Y-97972580D02*
G01*
X96541594Y-98715370D01*
X97284384Y-101207009D01*
X99776023Y-100464219D01*
X99033233Y-97972580D01*
G37*
%TO.C,K51*%
G36*
X183751307Y-85284978D02*
G01*
X181295307Y-85284978D01*
X181295307Y-86984978D01*
X183751307Y-86984978D01*
X183751307Y-85284978D01*
G37*
G36*
X176695707Y-85287978D02*
G01*
X179108707Y-85287978D01*
X179108707Y-86989778D01*
X176695707Y-86989778D01*
X176695707Y-85287978D01*
G37*
G36*
X177870307Y-95398978D02*
G01*
X175270307Y-95398978D01*
X175270307Y-97998978D01*
X177870307Y-97998978D01*
X177870307Y-95398978D01*
G37*
G36*
X189421107Y-93187378D02*
G01*
X186804907Y-93187378D01*
X186804907Y-95803578D01*
X189421107Y-95803578D01*
X189421107Y-93187378D01*
G37*
%TO.C,K33*%
G36*
X137375459Y-59414445D02*
G01*
X134783367Y-59617081D01*
X134986004Y-62209173D01*
X137578095Y-62006536D01*
X137375459Y-59414445D01*
G37*
G36*
X148718759Y-56309336D02*
G01*
X146110517Y-56513235D01*
X146314416Y-59121477D01*
X148922658Y-58917578D01*
X148718759Y-56309336D01*
G37*
G36*
X142450315Y-48872861D02*
G01*
X140001785Y-49064274D01*
X140134278Y-50759103D01*
X142582808Y-50567690D01*
X142450315Y-48872861D01*
G37*
G36*
X135416410Y-49425745D02*
G01*
X137822070Y-49237682D01*
X137954703Y-50934306D01*
X135549043Y-51122368D01*
X135416410Y-49425745D01*
G37*
%TO.C,K00*%
G36*
X85027872Y-120757359D02*
G01*
X87381513Y-120055709D01*
X86895842Y-118426560D01*
X84542202Y-119128211D01*
X85027872Y-120757359D01*
G37*
G36*
X91788556Y-118738781D02*
G01*
X89476124Y-119428148D01*
X88989939Y-117797274D01*
X91302371Y-117107908D01*
X91788556Y-118738781D01*
G37*
G36*
X77336751Y-114804107D02*
G01*
X79843915Y-114056689D01*
X79096497Y-111549525D01*
X76589333Y-112296943D01*
X77336751Y-114804107D01*
G37*
G36*
X87774315Y-109384752D02*
G01*
X90265954Y-108641962D01*
X89523164Y-106150323D01*
X87031525Y-106893113D01*
X87774315Y-109384752D01*
G37*
%TO.C,K20*%
G36*
X127692570Y-104635761D02*
G01*
X125262668Y-104992844D01*
X125509835Y-106674780D01*
X127939737Y-106317696D01*
X127692570Y-104635761D01*
G37*
G36*
X134451072Y-111629845D02*
G01*
X131862672Y-112010220D01*
X132243047Y-114598621D01*
X134831447Y-114218245D01*
X134451072Y-111629845D01*
G37*
G36*
X123344560Y-115497342D02*
G01*
X120772187Y-115875362D01*
X121150207Y-118447735D01*
X123722580Y-118069715D01*
X123344560Y-115497342D01*
G37*
G36*
X120712379Y-105664559D02*
G01*
X123099738Y-105313727D01*
X123347167Y-106997444D01*
X120959807Y-107348276D01*
X120712379Y-105664559D01*
G37*
%TO.C,K32*%
G36*
X150045250Y-73277565D02*
G01*
X147437008Y-73481464D01*
X147640907Y-76089706D01*
X150249149Y-75885807D01*
X150045250Y-73277565D01*
G37*
G36*
X138701950Y-76382674D02*
G01*
X136109858Y-76585310D01*
X136312495Y-79177402D01*
X138904586Y-78974765D01*
X138701950Y-76382674D01*
G37*
G36*
X143776806Y-65841090D02*
G01*
X141328276Y-66032503D01*
X141460769Y-67727332D01*
X143909299Y-67535919D01*
X143776806Y-65841090D01*
G37*
G36*
X136742901Y-66393974D02*
G01*
X139148561Y-66205911D01*
X139281194Y-67902535D01*
X136875534Y-68090597D01*
X136742901Y-66393974D01*
G37*
%TO.C,K23*%
G36*
X113288645Y-55147119D02*
G01*
X115676004Y-54796287D01*
X115923433Y-56480004D01*
X113536073Y-56830836D01*
X113288645Y-55147119D01*
G37*
G36*
X115920826Y-64979902D02*
G01*
X113348453Y-65357922D01*
X113726473Y-67930295D01*
X116298846Y-67552275D01*
X115920826Y-64979902D01*
G37*
G36*
X120268836Y-54118321D02*
G01*
X117838934Y-54475404D01*
X118086101Y-56157340D01*
X120516003Y-55800256D01*
X120268836Y-54118321D01*
G37*
G36*
X127027338Y-61112405D02*
G01*
X124438938Y-61492780D01*
X124819313Y-64081181D01*
X127407713Y-63700805D01*
X127027338Y-61112405D01*
G37*
%TO.C,K30*%
G36*
X146879763Y-108002541D02*
G01*
X144431233Y-108193954D01*
X144563726Y-109888783D01*
X147012256Y-109697370D01*
X146879763Y-108002541D01*
G37*
G36*
X141804907Y-118544125D02*
G01*
X139212815Y-118746761D01*
X139415452Y-121338853D01*
X142007543Y-121136216D01*
X141804907Y-118544125D01*
G37*
G36*
X153148207Y-115439016D02*
G01*
X150539965Y-115642915D01*
X150743864Y-118251157D01*
X153352106Y-118047258D01*
X153148207Y-115439016D01*
G37*
G36*
X139845858Y-108555425D02*
G01*
X142251518Y-108367362D01*
X142384151Y-110063986D01*
X139978491Y-110252048D01*
X139845858Y-108555425D01*
G37*
%TO.C,K10*%
G36*
X106642093Y-102910623D02*
G01*
X104288452Y-103612273D01*
X104774123Y-105241422D01*
X107127763Y-104539771D01*
X106642093Y-102910623D01*
G37*
G36*
X114333214Y-108863875D02*
G01*
X111826050Y-109611293D01*
X112573468Y-112118457D01*
X115080632Y-111371039D01*
X114333214Y-108863875D01*
G37*
G36*
X99881409Y-104929201D02*
G01*
X102193841Y-104239834D01*
X102680026Y-105870708D01*
X100367594Y-106560074D01*
X99881409Y-104929201D01*
G37*
G36*
X103895650Y-114283230D02*
G01*
X101404011Y-115026020D01*
X102146801Y-117517659D01*
X104638440Y-116774869D01*
X103895650Y-114283230D01*
G37*
%TO.C,K52*%
G36*
X189421108Y-76167376D02*
G01*
X186804908Y-76167376D01*
X186804908Y-78783576D01*
X189421108Y-78783576D01*
X189421108Y-76167376D01*
G37*
G36*
X176695708Y-68267976D02*
G01*
X179108708Y-68267976D01*
X179108708Y-69969776D01*
X176695708Y-69969776D01*
X176695708Y-68267976D01*
G37*
G36*
X183751308Y-68264976D02*
G01*
X181295308Y-68264976D01*
X181295308Y-69964976D01*
X183751308Y-69964976D01*
X183751308Y-68264976D01*
G37*
G36*
X177870308Y-78378976D02*
G01*
X175270308Y-78378976D01*
X175270308Y-80978976D01*
X177870308Y-80978976D01*
X177870308Y-78378976D01*
G37*
%TD*%
D10*
%TO.C,K40*%
X156345299Y-110058528D03*
D11*
X156845299Y-113808528D03*
X166845299Y-113808528D03*
X161845299Y-116008528D03*
D10*
X167345299Y-110058528D03*
D12*
X161845299Y-110058528D03*
D13*
X161095299Y-105444528D03*
X161845299Y-112733528D03*
X163295299Y-105444528D03*
%TD*%
D12*
%TO.C,K50*%
X179845307Y-107768977D03*
D11*
X179845307Y-113718977D03*
D13*
X179095307Y-103154977D03*
D11*
X184845307Y-111518977D03*
X174845307Y-111518977D03*
D10*
X174345307Y-107768977D03*
X185345307Y-107768977D03*
D13*
X179845307Y-110443977D03*
X181295307Y-103154977D03*
%TD*%
D10*
%TO.C,K60*%
X202889391Y-123864356D03*
D12*
X198297728Y-120836712D03*
D10*
X193706065Y-117809068D03*
D11*
X196187791Y-114953629D03*
X204536270Y-120458436D03*
D13*
X196383946Y-125101561D03*
D11*
X201573088Y-115869367D03*
D13*
X199770264Y-118603494D03*
X194547280Y-123890503D03*
%TD*%
D14*
%TO.C,U1*%
X191848922Y-96463170D03*
X207088922Y-101543170D03*
X191848922Y-93923170D03*
X207088922Y-83763170D03*
X207088922Y-99003170D03*
X191848922Y-101543170D03*
X191848922Y-86303170D03*
X191848922Y-78683170D03*
X207088922Y-91383170D03*
X191848922Y-104083170D03*
X207088922Y-78683170D03*
D15*
X191848922Y-76143170D03*
D14*
X207088922Y-104083170D03*
X207088922Y-81223170D03*
X191848922Y-81223170D03*
X207088922Y-96463170D03*
X191848922Y-99003170D03*
X207088922Y-86303170D03*
X207088922Y-93923170D03*
X191848922Y-83763170D03*
X191848922Y-88843170D03*
X191848922Y-91383170D03*
X207088922Y-88843170D03*
X207088922Y-76143170D03*
D16*
X203278922Y-76143170D03*
X203278922Y-78683170D03*
X203278922Y-81223170D03*
X203278922Y-83763170D03*
X203278922Y-86303170D03*
X203278922Y-88843170D03*
X203278922Y-91383170D03*
X203278922Y-93923170D03*
X203278922Y-96463170D03*
X203355122Y-99003170D03*
X203278922Y-101543170D03*
X203278922Y-104083170D03*
D17*
X195658922Y-104083170D03*
X195658922Y-101543170D03*
X195658922Y-99003170D03*
X195658922Y-96463170D03*
X195658922Y-93923170D03*
X195658922Y-91383170D03*
X195658922Y-88843170D03*
X195669247Y-86290829D03*
X195658922Y-83763170D03*
X195658922Y-81223170D03*
X195658922Y-78683170D03*
X195658922Y-76143170D03*
%TD*%
D18*
%TO.C,SW2*%
X206652482Y-61953691D03*
X207973276Y-68624187D03*
D19*
X205100838Y-68275471D03*
X204615252Y-65823083D03*
X204129666Y-63370696D03*
%TD*%
D10*
%TO.C,K31*%
X136151753Y-88989776D03*
D11*
X136942497Y-92689401D03*
D12*
X141635024Y-88561122D03*
D11*
X146912080Y-91910030D03*
D13*
X140527704Y-84019609D03*
D11*
X142098750Y-94493024D03*
D10*
X147118295Y-88132468D03*
D13*
X141843506Y-91227985D03*
X142721012Y-83848148D03*
%TD*%
D10*
%TO.C,K02*%
X82756021Y-80212600D03*
D13*
X75448339Y-77576452D03*
D10*
X72214473Y-83355172D03*
D11*
X79185093Y-87485905D03*
D12*
X77485247Y-81783886D03*
D11*
X73764966Y-86806037D03*
X83348191Y-83949154D03*
D13*
X78249463Y-84347399D03*
X77556649Y-76947938D03*
%TD*%
D10*
%TO.C,K43*%
X167345298Y-54998527D03*
D11*
X156845298Y-58748527D03*
X166845298Y-58748527D03*
D13*
X161095298Y-50384527D03*
D10*
X156345298Y-54998527D03*
D11*
X161845298Y-60948527D03*
D12*
X161845298Y-54998527D03*
D13*
X161845298Y-57673527D03*
X163295298Y-50384527D03*
%TD*%
D11*
%TO.C,K21*%
X117746273Y-98207570D03*
D12*
X122147922Y-93770455D03*
D11*
X123013006Y-99657231D03*
D13*
X120735051Y-89314527D03*
D11*
X127640014Y-96753646D03*
D10*
X127589479Y-92970797D03*
X116706365Y-94570113D03*
D13*
X122536847Y-96417031D03*
X122911674Y-88994664D03*
%TD*%
D11*
%TO.C,K53*%
X184845307Y-60458976D03*
D10*
X185345307Y-56708976D03*
D12*
X179845307Y-56708976D03*
D10*
X174345307Y-56708976D03*
D13*
X179095307Y-52094976D03*
D11*
X179845307Y-62658976D03*
X174845307Y-60458976D03*
D13*
X179845307Y-59383976D03*
X181295307Y-52094976D03*
%TD*%
%TO.C,K22*%
X118260472Y-72475381D03*
D11*
X120538427Y-82818085D03*
D12*
X119673343Y-76931309D03*
D11*
X115271694Y-81368424D03*
D10*
X125114900Y-76131651D03*
D11*
X125165435Y-79914500D03*
D10*
X114231786Y-77730967D03*
D13*
X120062268Y-79577885D03*
X120437095Y-72155518D03*
%TD*%
%TO.C,K01*%
X80310755Y-93887102D03*
D11*
X88210607Y-100259804D03*
X78627382Y-103116687D03*
D10*
X77076889Y-99665822D03*
X87618437Y-96523250D03*
D12*
X82347663Y-98094536D03*
D11*
X84047509Y-103796555D03*
D13*
X83111879Y-100658049D03*
X82419065Y-93258588D03*
%TD*%
D11*
%TO.C,K42*%
X166845299Y-75768528D03*
D10*
X167345299Y-72018528D03*
D12*
X161845299Y-72018528D03*
D13*
X161095299Y-67404528D03*
D11*
X161845299Y-77968528D03*
X156845299Y-75768528D03*
D10*
X156345299Y-72018528D03*
D13*
X161845299Y-74693528D03*
X163295299Y-67404528D03*
%TD*%
D11*
%TO.C,K12*%
X100597997Y-78806764D03*
D13*
X92698145Y-72434062D03*
D11*
X91014772Y-81663647D03*
D10*
X100005827Y-75070210D03*
D12*
X94735053Y-76641496D03*
D10*
X89464279Y-78212782D03*
D11*
X96434899Y-82343515D03*
D13*
X95499269Y-79205009D03*
X94806455Y-71805548D03*
%TD*%
D20*
%TO.C,J1*%
X192876000Y-66532000D03*
D21*
X192876000Y-64532000D03*
%TD*%
D11*
%TO.C,K41*%
X161845300Y-94988528D03*
D13*
X161095300Y-84424528D03*
D11*
X156845300Y-92788528D03*
X166845300Y-92788528D03*
D10*
X167345300Y-89038528D03*
X156345300Y-89038528D03*
D12*
X161845300Y-89038528D03*
D13*
X161845300Y-91713528D03*
X163295300Y-84424528D03*
%TD*%
D12*
%TO.C,K11*%
X99597469Y-92952146D03*
D10*
X94326695Y-94523432D03*
D13*
X97560561Y-88744712D03*
D11*
X105460413Y-95117414D03*
X95877188Y-97974297D03*
X101297315Y-98654165D03*
D10*
X104868243Y-91380860D03*
D13*
X100361685Y-95515659D03*
X99668871Y-88116198D03*
%TD*%
D10*
%TO.C,K51*%
X174345307Y-90748978D03*
D11*
X174845307Y-94498978D03*
D10*
X185345307Y-90748978D03*
D11*
X179845307Y-96698978D03*
D13*
X179095307Y-86134978D03*
D11*
X184845307Y-94498978D03*
D12*
X179845307Y-90748978D03*
D13*
X179845307Y-93423978D03*
X181295307Y-86134978D03*
%TD*%
D11*
%TO.C,K33*%
X139445770Y-60556565D03*
D10*
X133498773Y-55053317D03*
D11*
X134289517Y-58752942D03*
D13*
X137874724Y-50083150D03*
D10*
X144465315Y-54196009D03*
D11*
X144259100Y-57973571D03*
D12*
X138982044Y-54624663D03*
D13*
X139190526Y-57291526D03*
X140068032Y-49911689D03*
%TD*%
D11*
%TO.C,K00*%
X81347135Y-112239918D03*
X90930360Y-109383035D03*
D13*
X89246987Y-118612620D03*
D12*
X87210079Y-114405186D03*
D10*
X81939305Y-115976472D03*
D11*
X85510233Y-108703167D03*
D10*
X92480853Y-112833900D03*
D13*
X86445863Y-111841673D03*
X87138677Y-119241134D03*
%TD*%
D22*
%TO.C,JP4*%
X197458940Y-67285120D03*
D23*
X196008940Y-67285120D03*
%TD*%
D12*
%TO.C,K20*%
X124622499Y-110609603D03*
D11*
X120220850Y-115046718D03*
D10*
X130064056Y-109809945D03*
D11*
X130114591Y-113592794D03*
X125487583Y-116496379D03*
D10*
X119180942Y-111409261D03*
D13*
X123209628Y-106153675D03*
X125011424Y-113256179D03*
X125386251Y-105833812D03*
%TD*%
D11*
%TO.C,K32*%
X140772261Y-77524794D03*
D13*
X139201215Y-67051379D03*
D11*
X135616008Y-75721171D03*
D10*
X134825264Y-72021546D03*
D11*
X145585591Y-74941800D03*
D10*
X145791806Y-71164238D03*
D12*
X140308535Y-71592892D03*
D13*
X140517017Y-74259755D03*
X141394523Y-66879918D03*
%TD*%
D11*
%TO.C,K23*%
X122690857Y-63075354D03*
D13*
X115785894Y-55636235D03*
D10*
X122640322Y-59292505D03*
D11*
X112797116Y-64529278D03*
D10*
X111757208Y-60891821D03*
D11*
X118063849Y-65978939D03*
D12*
X117198765Y-60092163D03*
D13*
X117587690Y-62738739D03*
X117962517Y-55316372D03*
%TD*%
D11*
%TO.C,K30*%
X143875218Y-119686245D03*
D13*
X142304172Y-109212830D03*
D11*
X148688548Y-117103251D03*
D12*
X143411492Y-113754343D03*
D10*
X137928221Y-114182997D03*
X148894763Y-113325689D03*
D11*
X138718965Y-117882622D03*
D13*
X143619974Y-116421206D03*
X144497480Y-109041369D03*
%TD*%
D10*
%TO.C,K10*%
X109730660Y-107691510D03*
X99189112Y-110834082D03*
D11*
X100739605Y-114284947D03*
X110322830Y-111428064D03*
D12*
X104459886Y-109262796D03*
D13*
X102422978Y-105055362D03*
D11*
X106159732Y-114964815D03*
D13*
X105224102Y-111826309D03*
X104531288Y-104426848D03*
%TD*%
D22*
%TO.C,JP1*%
X197458940Y-63983120D03*
D23*
X196008940Y-63983120D03*
%TD*%
D11*
%TO.C,K52*%
X179845308Y-79678976D03*
D10*
X174345308Y-73728976D03*
D11*
X184845308Y-77478976D03*
D10*
X185345308Y-73728976D03*
D13*
X179095308Y-69114976D03*
D11*
X174845308Y-77478976D03*
D12*
X179845308Y-73728976D03*
D13*
X179845308Y-76403976D03*
X181295308Y-69114976D03*
%TD*%
D24*
%TO.C,SW1*%
X145645247Y-98882886D03*
X139165018Y-99389477D03*
X139515735Y-103875789D03*
X145995964Y-103369198D03*
%TD*%
M02*
