%TF.GenerationSoftware,KiCad,Pcbnew,(6.0.5)*%
%TF.CreationDate,2023-05-21T00:40:20-05:00*%
%TF.ProjectId,pcb,7063622e-6b69-4636-9164-5f7063625858,rev?*%
%TF.SameCoordinates,Original*%
%TF.FileFunction,Copper,L2,Bot*%
%TF.FilePolarity,Positive*%
%FSLAX46Y46*%
G04 Gerber Fmt 4.6, Leading zero omitted, Abs format (unit mm)*
G04 Created by KiCad (PCBNEW (6.0.5)) date 2023-05-21 00:40:20*
%MOMM*%
%LPD*%
G01*
G04 APERTURE LIST*
G04 Aperture macros list*
%AMRoundRect*
0 Rectangle with rounded corners*
0 $1 Rounding radius*
0 $2 $3 $4 $5 $6 $7 $8 $9 X,Y pos of 4 corners*
0 Add a 4 corners polygon primitive as box body*
4,1,4,$2,$3,$4,$5,$6,$7,$8,$9,$2,$3,0*
0 Add four circle primitives for the rounded corners*
1,1,$1+$1,$2,$3*
1,1,$1+$1,$4,$5*
1,1,$1+$1,$6,$7*
1,1,$1+$1,$8,$9*
0 Add four rect primitives between the rounded corners*
20,1,$1+$1,$2,$3,$4,$5,0*
20,1,$1+$1,$4,$5,$6,$7,0*
20,1,$1+$1,$6,$7,$8,$9,0*
20,1,$1+$1,$8,$9,$2,$3,0*%
%AMRotRect*
0 Rectangle, with rotation*
0 The origin of the aperture is its center*
0 $1 length*
0 $2 width*
0 $3 Rotation angle, in degrees counterclockwise*
0 Add horizontal line*
21,1,$1,$2,0,0,$3*%
%AMFreePoly0*
4,1,41,7.525000,7.514000,5.069000,7.514000,5.069000,8.108000,1.999998,8.108000,1.983525,8.111277,1.751167,8.094658,1.507402,8.041630,1.273664,7.954450,1.054713,7.834894,0.855004,7.685394,0.678605,7.508994,0.529105,7.309286,0.409549,7.090334,0.322369,6.856597,0.269342,6.612831,0.252723,6.380474,0.256000,6.364000,0.256000,1.300000,1.300000,1.300000,1.300000,-1.300000,
-1.300000,-1.300000,-1.300000,1.300000,-0.256000,1.300000,-0.256000,6.364000,-0.239551,6.635931,-0.190445,6.903896,-0.109397,7.163988,0.002411,7.412415,0.143348,7.645554,0.311359,7.860004,0.503994,8.052640,0.718445,8.220651,0.951583,8.361588,1.200010,8.473396,1.460102,8.554444,1.728067,8.603551,1.999998,8.620000,5.069000,8.620000,5.069000,9.214000,7.525000,9.214000,
7.525000,7.514000,7.525000,7.514000,$1*%
%AMFreePoly1*
4,1,39,-2.928902,3.513997,-2.586136,3.463153,-2.250005,3.378957,-1.923745,3.262219,-1.610499,3.114065,-1.313282,2.935920,-1.034958,2.729501,-0.778206,2.496795,-0.545501,2.240044,-0.339081,1.961720,-0.160936,1.664503,-0.012782,1.351257,0.005558,1.300000,1.300000,1.300000,1.300000,-1.300000,-1.300000,-1.300000,-1.300000,1.300000,-0.549080,1.300000,-0.656882,1.511573,-0.829226,1.776960,
-1.028367,2.022879,-1.252123,2.246634,-1.498041,2.445775,-1.763429,2.618119,-2.045377,2.761779,-2.340798,2.875180,-2.646453,2.957080,-2.958996,3.006582,-3.258515,3.022279,-3.275000,3.019000,-3.372967,3.038487,-3.456019,3.093981,-3.511513,3.177033,-3.531000,3.275000,-3.511513,3.372967,-3.456019,3.456019,-3.372967,3.511513,-3.275000,3.531000,-2.928902,3.513997,-2.928902,3.513997,
$1*%
%AMFreePoly2*
4,1,15,1.000000,0.000000,0.500000,-0.750000,-0.500000,-0.750000,-0.500000,-0.127000,-2.540000,-0.127000,-2.576070,-0.121770,-2.636138,-0.082984,-2.665733,-0.017894,-2.655473,0.052868,-2.608611,0.106872,-2.540000,0.127000,-0.500000,0.127000,-0.500000,0.750000,0.500000,0.750000,1.000000,0.000000,1.000000,0.000000,$1*%
%AMFreePoly3*
4,1,6,0.500000,-0.750000,-0.650000,-0.750000,-0.150000,0.000000,-0.650000,0.750000,0.500000,0.750000,0.500000,-0.750000,0.500000,-0.750000,$1*%
%AMFreePoly4*
4,1,6,1.000000,0.000000,0.500000,-0.750000,-0.500000,-0.750000,-0.500000,0.750000,0.500000,0.750000,1.000000,0.000000,1.000000,0.000000,$1*%
G04 Aperture macros list end*
%TA.AperFunction,SMDPad,CuDef*%
%ADD10FreePoly0,0.000000*%
%TD*%
%TA.AperFunction,ComponentPad*%
%ADD11C,0.600000*%
%TD*%
%TA.AperFunction,SMDPad,CuDef*%
%ADD12FreePoly1,0.000000*%
%TD*%
%TA.AperFunction,SMDPad,CuDef*%
%ADD13R,2.456000X1.700000*%
%TD*%
%TA.AperFunction,SMDPad,CuDef*%
%ADD14FreePoly0,326.600000*%
%TD*%
%TA.AperFunction,SMDPad,CuDef*%
%ADD15FreePoly1,326.600000*%
%TD*%
%TA.AperFunction,SMDPad,CuDef*%
%ADD16RotRect,2.456000X1.700000X146.600000*%
%TD*%
%TA.AperFunction,ComponentPad*%
%ADD17O,1.600000X1.600000*%
%TD*%
%TA.AperFunction,SMDPad,CuDef*%
%ADD18FreePoly2,180.000000*%
%TD*%
%TA.AperFunction,SMDPad,CuDef*%
%ADD19FreePoly2,0.000000*%
%TD*%
%TA.AperFunction,ComponentPad*%
%ADD20R,1.600000X1.600000*%
%TD*%
%TA.AperFunction,SMDPad,CuDef*%
%ADD21FreePoly3,0.000000*%
%TD*%
%TA.AperFunction,SMDPad,CuDef*%
%ADD22FreePoly3,180.000000*%
%TD*%
%TA.AperFunction,SMDPad,CuDef*%
%ADD23RotRect,1.250000X2.500000X101.200000*%
%TD*%
%TA.AperFunction,SMDPad,CuDef*%
%ADD24FreePoly0,10.600000*%
%TD*%
%TA.AperFunction,SMDPad,CuDef*%
%ADD25FreePoly1,10.600000*%
%TD*%
%TA.AperFunction,SMDPad,CuDef*%
%ADD26RotRect,2.456000X1.700000X190.600000*%
%TD*%
%TA.AperFunction,SMDPad,CuDef*%
%ADD27FreePoly0,4.470000*%
%TD*%
%TA.AperFunction,SMDPad,CuDef*%
%ADD28FreePoly1,4.470000*%
%TD*%
%TA.AperFunction,SMDPad,CuDef*%
%ADD29RotRect,2.456000X1.700000X184.470000*%
%TD*%
%TA.AperFunction,SMDPad,CuDef*%
%ADD30FreePoly0,8.360000*%
%TD*%
%TA.AperFunction,SMDPad,CuDef*%
%ADD31FreePoly1,8.360000*%
%TD*%
%TA.AperFunction,SMDPad,CuDef*%
%ADD32RotRect,2.456000X1.700000X188.360000*%
%TD*%
%TA.AperFunction,ComponentPad*%
%ADD33RoundRect,0.250000X0.350000X0.625000X-0.350000X0.625000X-0.350000X-0.625000X0.350000X-0.625000X0*%
%TD*%
%TA.AperFunction,ComponentPad*%
%ADD34O,1.200000X1.750000*%
%TD*%
%TA.AperFunction,SMDPad,CuDef*%
%ADD35FreePoly4,180.000000*%
%TD*%
%TA.AperFunction,ComponentPad*%
%ADD36C,2.000000*%
%TD*%
%TA.AperFunction,ViaPad*%
%ADD37C,0.800000*%
%TD*%
%TA.AperFunction,Conductor*%
%ADD38C,1.000000*%
%TD*%
%TA.AperFunction,Conductor*%
%ADD39C,0.250000*%
%TD*%
G04 APERTURE END LIST*
D10*
%TO.P,K40,*%
%TO.N,*%
X142545053Y-113350642D03*
D11*
X150070053Y-104986642D03*
D12*
%TO.P,K40,1,A*%
%TO.N,Col4*%
X154095053Y-115550642D03*
D11*
X150820053Y-112275642D03*
%TO.P,K40,2,B*%
%TO.N,Row0*%
X152270053Y-104986642D03*
D13*
X153498053Y-104986642D03*
%TD*%
D10*
%TO.P,K50,*%
%TO.N,*%
X160545061Y-111061091D03*
D11*
X168070061Y-102697091D03*
%TO.P,K50,1,A*%
%TO.N,Col5*%
X168820061Y-109986091D03*
D12*
X172095061Y-113261091D03*
D13*
%TO.P,K50,2,B*%
%TO.N,Row0*%
X171498061Y-102697091D03*
D11*
X170270061Y-102697091D03*
%TD*%
D14*
%TO.P,K60,*%
%TO.N,*%
X178299813Y-118954277D03*
D11*
X189186264Y-116113977D03*
D15*
%TO.P,K60,1,A*%
%TO.N,Col6*%
X186731248Y-127148995D03*
D11*
X185799946Y-122612044D03*
D16*
%TO.P,K60,2,B*%
%TO.N,Row0*%
X192048123Y-118001025D03*
D11*
X191022930Y-117325035D03*
%TD*%
D17*
%TO.P,U1,*%
%TO.N,*%
X180823676Y-96005284D03*
X196063676Y-101085284D03*
D18*
X193703676Y-88385284D03*
X193703676Y-103625284D03*
X193703676Y-101085284D03*
X193703676Y-83305284D03*
D17*
X180823676Y-93465284D03*
D18*
X193703676Y-93465284D03*
D19*
X183183676Y-101085284D03*
X183183676Y-80765284D03*
D17*
X196063676Y-83305284D03*
D19*
X183183676Y-98545284D03*
X183183676Y-83305284D03*
X183183676Y-90925284D03*
D17*
X196063676Y-98545284D03*
D18*
X193703676Y-75685284D03*
D17*
X180823676Y-101085284D03*
X180823676Y-85845284D03*
D18*
X193703676Y-96005284D03*
D17*
X180823676Y-78225284D03*
X196063676Y-90925284D03*
X180823676Y-103625284D03*
D18*
X193778676Y-98545284D03*
X193693351Y-85832943D03*
D17*
X196063676Y-78225284D03*
D20*
X180823676Y-75685284D03*
D17*
X196063676Y-103625284D03*
X196063676Y-80765284D03*
D18*
X193703676Y-80765284D03*
D19*
X183183676Y-85845284D03*
D17*
X180823676Y-80765284D03*
X196063676Y-96005284D03*
D19*
X183183676Y-78225284D03*
X183183676Y-93465284D03*
D18*
X193703676Y-90925284D03*
D17*
X180823676Y-98545284D03*
D19*
X183183676Y-75685284D03*
D17*
X196063676Y-85845284D03*
X196063676Y-93465284D03*
X180823676Y-83305284D03*
X180823676Y-88385284D03*
X180823676Y-90925284D03*
D19*
X183183676Y-96005284D03*
D18*
X193703676Y-78225284D03*
D17*
X196063676Y-88385284D03*
X196063676Y-75685284D03*
D19*
X183183676Y-88385284D03*
X183183676Y-103625284D03*
D21*
%TO.P,U1,1,TX0/P0.06*%
%TO.N,unconnected-(U1-Pad1)*%
X184633676Y-75685284D03*
%TO.P,U1,2,RX1/P0.08*%
%TO.N,unconnected-(U1-Pad2)*%
X184633676Y-78225284D03*
%TO.P,U1,3,GND*%
%TO.N,GND*%
X184633676Y-80765284D03*
%TO.P,U1,4,GND*%
X184633676Y-83305284D03*
%TO.P,U1,5,P0.17*%
%TO.N,unconnected-(U1-Pad5)*%
X184633676Y-85845284D03*
%TO.P,U1,6,P0.20*%
%TO.N,unconnected-(U1-Pad6)*%
X184633676Y-88385284D03*
%TO.P,U1,7,P0.22*%
%TO.N,unconnected-(U1-Pad7)*%
X184633676Y-90925284D03*
%TO.P,U1,8,P0.24*%
%TO.N,unconnected-(U1-Pad8)*%
X184633676Y-93465284D03*
%TO.P,U1,9,P1.00*%
%TO.N,Row3*%
X184633676Y-96005284D03*
%TO.P,U1,10,P0.11*%
%TO.N,Row2*%
X184633676Y-98545284D03*
%TO.P,U1,11,P1.04*%
%TO.N,Row1*%
X184633676Y-101085284D03*
%TO.P,U1,12,P1.06*%
%TO.N,Row0*%
X184633676Y-103625284D03*
D22*
%TO.P,U1,13,NFC1/P0.09*%
%TO.N,unconnected-(U1-Pad13)*%
X192253676Y-103625284D03*
%TO.P,U1,14,NFC2/P0.10*%
%TO.N,Col6*%
X192253676Y-101085284D03*
%TO.P,U1,15,P1.11*%
%TO.N,Col0*%
X192328676Y-98545284D03*
%TO.P,U1,16,P1.13*%
%TO.N,Col1*%
X192253676Y-96005284D03*
%TO.P,U1,17,P1.15*%
%TO.N,Col2*%
X192253676Y-93465284D03*
%TO.P,U1,18,AIN0/P0.02*%
%TO.N,Col3*%
X192253676Y-90925284D03*
%TO.P,U1,19,AIN5/P0.29*%
%TO.N,Col4*%
X192253676Y-88385284D03*
%TO.P,U1,20,AIN7/P0.31*%
%TO.N,Col5*%
X192243351Y-85832943D03*
%TO.P,U1,21,VCC*%
%TO.N,unconnected-(U1-Pad21)*%
X192253676Y-83305284D03*
%TO.P,U1,22,RST*%
%TO.N,Net-(U1-Pad22)*%
X192253676Y-80765284D03*
%TO.P,U1,23,GND*%
%TO.N,GND*%
X192253676Y-78225284D03*
%TO.P,U1,24,BATIN/P0.04*%
%TO.N,Net-(U1-Pad24)*%
X192253676Y-75685284D03*
%TD*%
D23*
%TO.P,SW2,1,A*%
%TO.N,GND*%
X193104419Y-62912810D03*
%TO.P,SW2,2,B*%
%TO.N,Net-(SW2-Pad2)*%
X193590005Y-65365197D03*
%TO.P,SW2,3,C*%
%TO.N,unconnected-(SW2-Pad3)*%
X194075591Y-67817585D03*
%TD*%
D11*
%TO.P,K03,*%
%TO.N,*%
X68088459Y-69133950D03*
D24*
X62230440Y-78739455D03*
D11*
%TO.P,K03,1,A*%
%TO.N,Col0*%
X70166482Y-76160602D03*
D25*
X73988036Y-78777275D03*
D26*
%TO.P,K03,2,B*%
%TO.N,Row3*%
X71457961Y-68503365D03*
D11*
X70250917Y-68729257D03*
%TD*%
%TO.P,K31,*%
%TO.N,*%
X129502458Y-83561723D03*
D27*
X122652212Y-92486759D03*
D28*
%TO.P,K31,1,A*%
%TO.N,Col3*%
X134338542Y-93779894D03*
D11*
X130818260Y-90770099D03*
D29*
%TO.P,K31,2,B*%
%TO.N,Row1*%
X132920030Y-83294555D03*
D11*
X131695766Y-83390262D03*
%TD*%
%TO.P,K02,*%
%TO.N,*%
X71219310Y-85863508D03*
D24*
X65361291Y-95469013D03*
D25*
%TO.P,K02,1,A*%
%TO.N,Col0*%
X77118887Y-95506833D03*
D11*
X73297333Y-92890160D03*
D26*
%TO.P,K02,2,B*%
%TO.N,Row2*%
X74588812Y-85232923D03*
D11*
X73381768Y-85458815D03*
%TD*%
%TO.P,K43,*%
%TO.N,*%
X150070052Y-49926641D03*
D10*
X142545052Y-58290641D03*
D11*
%TO.P,K43,1,A*%
%TO.N,Col4*%
X150820052Y-57215641D03*
D12*
X154095052Y-60490641D03*
D13*
%TO.P,K43,2,B*%
%TO.N,Row3*%
X153498052Y-49926641D03*
D11*
X152270052Y-49926641D03*
%TD*%
%TO.P,K21,*%
%TO.N,*%
X109709804Y-88856641D03*
D30*
X103480826Y-98225843D03*
D31*
%TO.P,K21,1,A*%
%TO.N,Col2*%
X115227960Y-98723185D03*
D11*
X111511600Y-95959145D03*
D32*
%TO.P,K21,2,B*%
%TO.N,Row1*%
X113101378Y-88358236D03*
D11*
X111886427Y-88536778D03*
%TD*%
D10*
%TO.P,K53,*%
%TO.N,*%
X160545060Y-60001090D03*
D11*
X168070060Y-51637090D03*
D12*
%TO.P,K53,1,A*%
%TO.N,Col5*%
X172095060Y-62201090D03*
D11*
X168820060Y-58926090D03*
D13*
%TO.P,K53,2,B*%
%TO.N,Row3*%
X171498060Y-51637090D03*
D11*
X170270060Y-51637090D03*
%TD*%
%TO.P,K22,*%
%TO.N,*%
X107235225Y-72017495D03*
D30*
X101006247Y-81386697D03*
D11*
%TO.P,K22,1,A*%
%TO.N,Col2*%
X109037021Y-79119999D03*
D31*
X112753381Y-81884039D03*
D32*
%TO.P,K22,2,B*%
%TO.N,Row2*%
X110626799Y-71519090D03*
D11*
X109411848Y-71697632D03*
%TD*%
D24*
%TO.P,K01,*%
%TO.N,*%
X68492143Y-112198573D03*
D11*
X74350162Y-102593068D03*
%TO.P,K01,1,A*%
%TO.N,Col0*%
X76428185Y-109619720D03*
D25*
X80249739Y-112236393D03*
D11*
%TO.P,K01,2,B*%
%TO.N,Row1*%
X76512620Y-102188375D03*
D26*
X77719664Y-101962483D03*
%TD*%
D10*
%TO.P,K42,*%
%TO.N,*%
X142545052Y-75310642D03*
D11*
X150070052Y-66946642D03*
D12*
%TO.P,K42,1,A*%
%TO.N,Col4*%
X154095052Y-77510642D03*
D11*
X150820052Y-74235642D03*
%TO.P,K42,2,B*%
%TO.N,Row2*%
X152270052Y-66946642D03*
D13*
X153498052Y-66946642D03*
%TD*%
D24*
%TO.P,K12,*%
%TO.N,*%
X82741411Y-90486899D03*
D11*
X88599430Y-80881394D03*
D25*
%TO.P,K12,1,A*%
%TO.N,Col1*%
X94499007Y-90524719D03*
D11*
X90677453Y-87908046D03*
%TO.P,K12,2,B*%
%TO.N,Row2*%
X90761888Y-80476701D03*
D26*
X91968932Y-80250809D03*
%TD*%
D33*
%TO.P,J1,1,Pin_1*%
%TO.N,Net-(J1-Pad1)*%
X183547633Y-69186054D03*
D34*
%TO.P,J1,2,Pin_2*%
%TO.N,Net-(J1-Pad2)*%
X181547633Y-69186054D03*
%TD*%
D11*
%TO.P,K41,*%
%TO.N,*%
X150070053Y-83966642D03*
D10*
X142545053Y-92330642D03*
D12*
%TO.P,K41,1,A*%
%TO.N,Col4*%
X154095053Y-94530642D03*
D11*
X150820053Y-91255642D03*
D13*
%TO.P,K41,2,B*%
%TO.N,Row1*%
X153498053Y-83966642D03*
D11*
X152270053Y-83966642D03*
%TD*%
D24*
%TO.P,K11,*%
%TO.N,*%
X85872263Y-107216460D03*
D11*
X91730282Y-97610955D03*
D25*
%TO.P,K11,1,A*%
%TO.N,Col1*%
X97629859Y-107254280D03*
D11*
X93808305Y-104637607D03*
%TO.P,K11,2,B*%
%TO.N,Row1*%
X93892740Y-97206262D03*
D26*
X95099784Y-96980370D03*
%TD*%
D11*
%TO.P,K51,*%
%TO.N,*%
X168070061Y-85677091D03*
D10*
X160545061Y-94041091D03*
D11*
%TO.P,K51,1,A*%
%TO.N,Col5*%
X168820061Y-92966091D03*
D12*
X172095061Y-96241091D03*
D13*
%TO.P,K51,2,B*%
%TO.N,Row1*%
X171498061Y-85677091D03*
D11*
X170270061Y-85677091D03*
%TD*%
D27*
%TO.P,K33,*%
%TO.N,*%
X119999232Y-58550300D03*
D11*
X126849478Y-49625264D03*
%TO.P,K33,1,A*%
%TO.N,Col3*%
X128165280Y-56833640D03*
D28*
X131685562Y-59843435D03*
D29*
%TO.P,K33,2,B*%
%TO.N,Row3*%
X130267050Y-49358096D03*
D11*
X129042786Y-49453803D03*
%TD*%
%TO.P,K00,*%
%TO.N,*%
X77481013Y-119322627D03*
D24*
X71622994Y-128928132D03*
D11*
%TO.P,K00,1,A*%
%TO.N,Col0*%
X79559036Y-126349279D03*
D25*
X83380590Y-128965952D03*
D26*
%TO.P,K00,2,B*%
%TO.N,Row0*%
X80850515Y-118692042D03*
D11*
X79643471Y-118917934D03*
%TD*%
D30*
%TO.P,K20,*%
%TO.N,*%
X105955404Y-115064991D03*
D11*
X112184382Y-105695789D03*
D31*
%TO.P,K20,1,A*%
%TO.N,Col2*%
X117702538Y-115562333D03*
D11*
X113986178Y-112798293D03*
D32*
%TO.P,K20,2,B*%
%TO.N,Row0*%
X115575956Y-105197384D03*
D11*
X114361005Y-105375926D03*
%TD*%
%TO.P,K32,*%
%TO.N,*%
X128175968Y-66593493D03*
D27*
X121325722Y-75518529D03*
D11*
%TO.P,K32,1,A*%
%TO.N,Col3*%
X129491770Y-73801869D03*
D28*
X133012052Y-76811664D03*
D29*
%TO.P,K32,2,B*%
%TO.N,Row2*%
X131593540Y-66326325D03*
D11*
X130369276Y-66422032D03*
%TD*%
%TO.P,K13,*%
%TO.N,*%
X85468577Y-64151834D03*
D24*
X79610558Y-73757339D03*
D11*
%TO.P,K13,1,A*%
%TO.N,Col1*%
X87546600Y-71178486D03*
D25*
X91368154Y-73795159D03*
D26*
%TO.P,K13,2,B*%
%TO.N,Row3*%
X88838079Y-63521249D03*
D11*
X87631035Y-63747141D03*
%TD*%
%TO.P,K23,*%
%TO.N,*%
X104760648Y-55178349D03*
D30*
X98531670Y-64547551D03*
D11*
%TO.P,K23,1,A*%
%TO.N,Col2*%
X106562444Y-62280853D03*
D31*
X110278804Y-65044893D03*
D32*
%TO.P,K23,2,B*%
%TO.N,Row3*%
X108152222Y-54679944D03*
D11*
X106937271Y-54858486D03*
%TD*%
D27*
%TO.P,K30,*%
%TO.N,*%
X124428679Y-117679980D03*
D11*
X131278925Y-108754944D03*
%TO.P,K30,1,A*%
%TO.N,Col3*%
X132594727Y-115963320D03*
D28*
X136115009Y-118973115D03*
D29*
%TO.P,K30,2,B*%
%TO.N,Row0*%
X134696497Y-108487776D03*
D11*
X133472233Y-108583483D03*
%TD*%
%TO.P,K10,*%
%TO.N,*%
X94861133Y-114340512D03*
D24*
X89003114Y-123946017D03*
D11*
%TO.P,K10,1,A*%
%TO.N,Col1*%
X96939156Y-121367164D03*
D25*
X100760710Y-123983837D03*
D11*
%TO.P,K10,2,B*%
%TO.N,Row0*%
X97023591Y-113935819D03*
D26*
X98230635Y-113709927D03*
%TD*%
D11*
%TO.P,K52,*%
%TO.N,*%
X168070061Y-68657090D03*
D10*
X160545061Y-77021090D03*
D12*
%TO.P,K52,1,A*%
%TO.N,Col5*%
X172095061Y-79221090D03*
D11*
X168820061Y-75946090D03*
D13*
%TO.P,K52,2,B*%
%TO.N,Row2*%
X171498061Y-68657090D03*
D11*
X170270061Y-68657090D03*
%TD*%
D35*
%TO.P,JP3,1,A*%
%TO.N,Net-(SW2-Pad2)*%
X188685000Y-64770000D03*
D22*
%TO.P,JP3,2,B*%
%TO.N,Net-(J1-Pad2)*%
X187235000Y-64770000D03*
%TD*%
D35*
%TO.P,JP2,1,A*%
%TO.N,Net-(U1-Pad24)*%
X188685000Y-68580000D03*
D22*
%TO.P,JP2,2,B*%
%TO.N,Net-(J1-Pad1)*%
X187235000Y-68580000D03*
%TD*%
D36*
%TO.P,SW1,1,1*%
%TO.N,Net-(U1-Pad22)*%
X134620000Y-98425000D03*
X128139771Y-98931591D03*
%TO.P,SW1,2,2*%
%TO.N,GND*%
X128490488Y-103417903D03*
X134970717Y-102911312D03*
%TD*%
D37*
%TO.N,GND*%
X186055000Y-81280000D03*
X173990000Y-99695000D03*
X190500000Y-77470000D03*
X172085000Y-99695000D03*
X191135000Y-69215000D03*
X196287633Y-66101053D03*
X186055000Y-83820000D03*
%TO.N,Col0*%
X190500000Y-97790000D03*
%TO.N,Row0*%
X186055000Y-104140000D03*
%TO.N,Row1*%
X186055000Y-101600000D03*
%TO.N,Row2*%
X186055000Y-99060000D03*
%TO.N,Row3*%
X126258680Y-52213081D03*
X186055000Y-96520000D03*
%TO.N,Col1*%
X190500000Y-95250000D03*
%TO.N,Col2*%
X190500000Y-92710000D03*
%TO.N,Col3*%
X190500000Y-90170000D03*
%TO.N,Col4*%
X190500000Y-87630000D03*
X155575000Y-100330000D03*
X155575000Y-97155000D03*
%TO.N,Col5*%
X190500000Y-85090000D03*
%TO.N,Col6*%
X190500000Y-100330000D03*
%TO.N,unconnected-(U1-Pad1)*%
X186055000Y-76200000D03*
%TO.N,unconnected-(U1-Pad2)*%
X186055000Y-78740000D03*
%TO.N,unconnected-(U1-Pad5)*%
X186055000Y-86360000D03*
%TO.N,unconnected-(U1-Pad6)*%
X186055000Y-88900000D03*
%TO.N,unconnected-(U1-Pad7)*%
X186055000Y-91440000D03*
%TO.N,unconnected-(U1-Pad8)*%
X186055000Y-93980000D03*
%TO.N,unconnected-(U1-Pad13)*%
X190500000Y-102870000D03*
%TO.N,unconnected-(U1-Pad21)*%
X190500000Y-82550000D03*
%TO.N,Net-(U1-Pad24)*%
X191135000Y-73660000D03*
X186690000Y-73660000D03*
%TO.N,Net-(U1-Pad22)*%
X173990000Y-98425000D03*
X172085000Y-98425000D03*
X190500000Y-80010000D03*
%TO.N,Net-(SW2-Pad2)*%
X191741776Y-65365198D03*
%TD*%
D38*
%TO.N,GND*%
X189935480Y-76905480D02*
X190500000Y-77470000D01*
D39*
X142875000Y-98979124D02*
X171369124Y-98979124D01*
X184633676Y-83305284D02*
X185540284Y-83305284D01*
D38*
X191255284Y-78225284D02*
X192004156Y-78225284D01*
D39*
X184633676Y-80765284D02*
X184633676Y-83305284D01*
D38*
X194378687Y-62912810D02*
X196287632Y-64821755D01*
D39*
X177614520Y-85275480D02*
X178460205Y-84429795D01*
X134933106Y-103015916D02*
X138969898Y-98979124D01*
X185445205Y-84429795D02*
X186055000Y-83820000D01*
D38*
X191135000Y-69215000D02*
X189935480Y-70414520D01*
X196287633Y-66101053D02*
X196287632Y-64821755D01*
X193104419Y-62912811D02*
X194378687Y-62912810D01*
D39*
X138969898Y-98979124D02*
X142875000Y-98979124D01*
X171369124Y-98979124D02*
X172085000Y-99695000D01*
X178460205Y-84429795D02*
X185445205Y-84429795D01*
D38*
X189935480Y-70414520D02*
X189935480Y-76905480D01*
D39*
X173990000Y-99695000D02*
X177614520Y-96070480D01*
X185540284Y-83305284D02*
X186055000Y-83820000D01*
D38*
X190500000Y-77470000D02*
X191255284Y-78225284D01*
D39*
X185540284Y-80765284D02*
X186055000Y-81280000D01*
X177614520Y-96070480D02*
X177614520Y-85275480D01*
X184633676Y-80765284D02*
X185540284Y-80765284D01*
%TO.N,Col0*%
X80249739Y-112236393D02*
X80075265Y-112116928D01*
X121120842Y-122245094D02*
X172394905Y-122245095D01*
X75103008Y-79540712D02*
X73988036Y-78777274D01*
X83197366Y-122792539D02*
X82314464Y-124081986D01*
X189230000Y-105410000D02*
X189230000Y-99060000D01*
X82314464Y-124081986D02*
X83206116Y-128846487D01*
X79459476Y-102819291D02*
X78233860Y-96270271D01*
X83206116Y-128846487D02*
X83380590Y-128965952D01*
X172394905Y-122245095D02*
X189230000Y-105410000D01*
X75422727Y-87256312D02*
X76305630Y-85966865D01*
X83772899Y-129234572D02*
X121120842Y-122245094D01*
X83380590Y-128965952D02*
X83772899Y-129234572D01*
X76944413Y-95387368D02*
X75422727Y-87256312D01*
X76305630Y-85966865D02*
X75103008Y-79540712D01*
X191255284Y-98545284D02*
X190500000Y-97790000D01*
X81364711Y-112999830D02*
X83197366Y-122792539D01*
X192328676Y-98545284D02*
X191255284Y-98545284D01*
X77118887Y-95506833D02*
X76944413Y-95387368D01*
X80075265Y-112116928D02*
X78576573Y-104108738D01*
X78233860Y-96270271D02*
X77118887Y-95506833D01*
X78576573Y-104108738D02*
X79459476Y-102819291D01*
X189230000Y-99060000D02*
X190500000Y-97790000D01*
X80249739Y-112236393D02*
X81364711Y-112999830D01*
%TO.N,Row0*%
X184633676Y-103625284D02*
X185540284Y-103625284D01*
X185540284Y-103625284D02*
X186055000Y-104140000D01*
%TO.N,Row1*%
X185540284Y-101085284D02*
X186055000Y-101600000D01*
X184633676Y-101085284D02*
X185540284Y-101085284D01*
%TO.N,Row2*%
X185540284Y-98545284D02*
X186055000Y-99060000D01*
X184633676Y-98545284D02*
X185540284Y-98545284D01*
%TO.N,Row3*%
X126258680Y-52213081D02*
X128150769Y-49669092D01*
X185540284Y-96005284D02*
X186055000Y-96520000D01*
X128150769Y-49669092D02*
X130267049Y-49358097D01*
X184633676Y-96005284D02*
X185540284Y-96005284D01*
%TO.N,Col1*%
X97629859Y-107254279D02*
X98796253Y-108052926D01*
X97455385Y-107134814D02*
X97629859Y-107254279D01*
X188780480Y-96969520D02*
X190500000Y-95250000D01*
X188780480Y-105223802D02*
X188780480Y-96969520D01*
X94499007Y-90524719D02*
X95613980Y-91288157D01*
X94324533Y-90405254D02*
X94499007Y-90524719D01*
X98796253Y-108052926D02*
X100686561Y-118153696D01*
X100760710Y-123983837D02*
X102570397Y-125222956D01*
X93804515Y-87626562D02*
X94324533Y-90405254D01*
X100586236Y-123864372D02*
X100760710Y-123983837D01*
X94687418Y-86337115D02*
X93804515Y-87626562D01*
X120884452Y-121795573D02*
X172208707Y-121795575D01*
X191255284Y-96005284D02*
X190500000Y-95250000D01*
X192253676Y-96005284D02*
X191255284Y-96005284D01*
X100686561Y-118153696D02*
X99768449Y-119494566D01*
X95613980Y-91288157D02*
X97818270Y-103066676D01*
X96935367Y-104356123D02*
X97455385Y-107134814D01*
X172208707Y-121795575D02*
X188780480Y-105223802D01*
X91368154Y-73795159D02*
X92483128Y-74558598D01*
X92483128Y-74558598D02*
X94687418Y-86337115D01*
X97818270Y-103066676D02*
X96935367Y-104356123D01*
X99768449Y-119494566D02*
X100586236Y-123864372D01*
X102570397Y-125222956D02*
X120884452Y-121795573D01*
%TO.N,Col2*%
X112753382Y-81884039D02*
X113837662Y-82690473D01*
X110278804Y-65044892D02*
X111400306Y-65879009D01*
X111400306Y-65879009D02*
X113098051Y-77431920D01*
X113098051Y-77431920D02*
X112137742Y-78723094D01*
X172022511Y-121346053D02*
X188330960Y-105037604D01*
X117837884Y-109608299D02*
X116868064Y-110912260D01*
X112137742Y-78723094D02*
X112583710Y-81757846D01*
X123486257Y-121346053D02*
X172022511Y-121346053D01*
X115058288Y-98596993D02*
X115227958Y-98723186D01*
X115227958Y-98723186D02*
X116362248Y-99566811D01*
X117702537Y-115562333D02*
X123486257Y-121346053D01*
X188330960Y-94879040D02*
X190500000Y-92710000D01*
X192253676Y-93465284D02*
X191255284Y-93465284D01*
X112583710Y-81757846D02*
X112753382Y-81884039D01*
X116868064Y-110912260D02*
X117532865Y-115436141D01*
X188330960Y-105037604D02*
X188330960Y-94879040D01*
X117532865Y-115436141D02*
X117702537Y-115562333D01*
X113837662Y-82690473D02*
X115579900Y-94546145D01*
X116362248Y-99566811D02*
X117837884Y-109608299D01*
X191255284Y-93465284D02*
X190500000Y-92710000D01*
X115579900Y-94546145D02*
X114647273Y-95800099D01*
X114647273Y-95800099D02*
X115058288Y-98596993D01*
%TO.N,Col3*%
X192253676Y-90925284D02*
X191255284Y-90925284D01*
X132715000Y-103505000D02*
X136525000Y-107315000D01*
X136525000Y-115132692D02*
X135788780Y-115868912D01*
X134338542Y-95531458D02*
X132715000Y-97155000D01*
X135788780Y-118646886D02*
X136115009Y-118973115D01*
X134736847Y-78536458D02*
X133012051Y-76811665D01*
X134338542Y-93779894D02*
X134338542Y-95531458D01*
X187881440Y-92788560D02*
X190500000Y-90170000D01*
X133422633Y-61580504D02*
X131685562Y-59843435D01*
X187881440Y-104851406D02*
X187881440Y-92788560D01*
X132685822Y-73707462D02*
X133422632Y-72970650D01*
X134012312Y-90675690D02*
X134736846Y-89951157D01*
X135788780Y-115868912D02*
X135788780Y-118646886D01*
X133422632Y-72970650D02*
X133422633Y-61580504D01*
X134338540Y-93779893D02*
X134012312Y-93453664D01*
X134012312Y-93453664D02*
X134012312Y-90675690D01*
X173759733Y-118973113D02*
X187881440Y-104851406D01*
X134736846Y-89951157D02*
X134736847Y-78536458D01*
X136115009Y-118973115D02*
X173759733Y-118973113D01*
X132715000Y-97155000D02*
X132715000Y-103505000D01*
X133012051Y-76811665D02*
X132685821Y-76485434D01*
X191255284Y-90925284D02*
X190500000Y-90170000D01*
X136525000Y-107315000D02*
X136525000Y-115132692D01*
X132685821Y-76485434D02*
X132685822Y-73707462D01*
%TO.N,Col4*%
X155575000Y-100330000D02*
X155575000Y-108612687D01*
X154095054Y-77510643D02*
X153945532Y-77361121D01*
X155575000Y-96010589D02*
X155575000Y-97155000D01*
X154095053Y-94530642D02*
X155575000Y-96010589D01*
X153945532Y-91554190D02*
X155050564Y-90449156D01*
X154095053Y-94530642D02*
X153945531Y-94381120D01*
X153945532Y-110242155D02*
X153945532Y-115401121D01*
X154095053Y-115550642D02*
X153945532Y-115401121D01*
X155050565Y-61446153D02*
X154095054Y-60490641D01*
X155575000Y-108612687D02*
X153945532Y-110242155D01*
X155050564Y-73429156D02*
X155050565Y-61446153D01*
X190500000Y-87630000D02*
X187431920Y-90698080D01*
X191255284Y-88385284D02*
X190500000Y-87630000D01*
X176546486Y-115550642D02*
X154095054Y-115550642D01*
X153945531Y-94381120D02*
X153945532Y-91554190D01*
X187431920Y-104665208D02*
X176546486Y-115550642D01*
X155050565Y-78466154D02*
X154095054Y-77510643D01*
X187431920Y-90698080D02*
X187431920Y-104665208D01*
X155050564Y-90449156D02*
X155050565Y-78466154D01*
X153945532Y-77361121D02*
X153945531Y-74534188D01*
X153945531Y-74534188D02*
X155050564Y-73429156D01*
X192253676Y-88385284D02*
X191255284Y-88385284D01*
%TO.N,Col5*%
X172095061Y-113261091D02*
X178200320Y-113261090D01*
X191242943Y-85832943D02*
X190500000Y-85090000D01*
X173050572Y-92159605D02*
X171945540Y-93264637D01*
X171945540Y-110009025D02*
X171945540Y-113111569D01*
X173050572Y-63156602D02*
X173050572Y-75139607D01*
X172095060Y-79221091D02*
X173050572Y-80176602D01*
X173050572Y-80176602D02*
X173050572Y-92159605D01*
X171945539Y-76244638D02*
X171945539Y-79071570D01*
X171945539Y-96091570D02*
X172095060Y-96241092D01*
X173050571Y-108903993D02*
X171945540Y-110009025D01*
X172095061Y-62201091D02*
X173050572Y-63156602D01*
X186982400Y-104479010D02*
X186982400Y-88607600D01*
X172095060Y-96241092D02*
X173050571Y-97196603D01*
X171945540Y-113111569D02*
X172095061Y-113261091D01*
X171945540Y-93264637D02*
X171945539Y-96091570D01*
X186982400Y-88607600D02*
X190500000Y-85090000D01*
X171945539Y-79071570D02*
X172095060Y-79221091D01*
X192243351Y-85832943D02*
X191242943Y-85832943D01*
X178200320Y-113261090D02*
X186982400Y-104479010D01*
X173050571Y-97196603D02*
X173050571Y-108903993D01*
X173050572Y-75139607D02*
X171945539Y-76244638D01*
%TO.N,Col6*%
X186731248Y-125719737D02*
X193865745Y-118585240D01*
X191255284Y-101085284D02*
X190500000Y-100330000D01*
X186731248Y-127148995D02*
X186731248Y-125719737D01*
X189775489Y-101054511D02*
X190500000Y-100330000D01*
X189775489Y-103170103D02*
X189775489Y-101054511D01*
X193865745Y-118585240D02*
X193865745Y-107260359D01*
X192253676Y-101085284D02*
X191255284Y-101085284D01*
X193865745Y-107260359D02*
X189775489Y-103170103D01*
%TO.N,unconnected-(U1-Pad1)*%
X184633676Y-75685284D02*
X185540284Y-75685284D01*
X185540284Y-75685284D02*
X186055000Y-76200000D01*
%TO.N,unconnected-(U1-Pad2)*%
X184633676Y-78225284D02*
X185540284Y-78225284D01*
X185540284Y-78225284D02*
X186055000Y-78740000D01*
%TO.N,unconnected-(U1-Pad5)*%
X184633676Y-85845284D02*
X185540284Y-85845284D01*
X185540284Y-85845284D02*
X186055000Y-86360000D01*
%TO.N,unconnected-(U1-Pad6)*%
X185540284Y-88385284D02*
X186055000Y-88900000D01*
X184633676Y-88385284D02*
X185540284Y-88385284D01*
%TO.N,unconnected-(U1-Pad7)*%
X185540284Y-90925284D02*
X186055000Y-91440000D01*
X184633676Y-90925284D02*
X185540284Y-90925284D01*
%TO.N,unconnected-(U1-Pad8)*%
X185540284Y-93465284D02*
X186055000Y-93980000D01*
X184633676Y-93465284D02*
X185540284Y-93465284D01*
%TO.N,unconnected-(U1-Pad13)*%
X191255284Y-103625284D02*
X190500000Y-102870000D01*
X192253676Y-103625284D02*
X191255284Y-103625284D01*
%TO.N,unconnected-(U1-Pad21)*%
X192253676Y-83305284D02*
X191255284Y-83305284D01*
X191255284Y-83305284D02*
X190500000Y-82550000D01*
D38*
%TO.N,Net-(U1-Pad24)*%
X188685000Y-68580000D02*
X188685000Y-71665000D01*
X192004156Y-74529156D02*
X192004156Y-75685284D01*
X191135000Y-73660000D02*
X192004156Y-74529156D01*
X188685000Y-71665000D02*
X186690000Y-73660000D01*
%TO.N,Net-(J1-Pad2)*%
X181547633Y-69186054D02*
X181547633Y-67861054D01*
X184638687Y-64770000D02*
X186985480Y-64770000D01*
X181547633Y-67861054D02*
X184638687Y-64770000D01*
D39*
%TO.N,Net-(U1-Pad22)*%
X189954511Y-79464511D02*
X190500000Y-80010000D01*
X177165000Y-81280000D02*
X178980489Y-79464511D01*
X177165000Y-95250000D02*
X177165000Y-81280000D01*
X178980489Y-79464511D02*
X189954511Y-79464511D01*
X191255284Y-80765284D02*
X190500000Y-80010000D01*
X192253676Y-80765284D02*
X191255284Y-80765284D01*
X173990000Y-98425000D02*
X177165000Y-95250000D01*
X171980396Y-98529604D02*
X172085000Y-98425000D01*
X134582389Y-98529604D02*
X171980396Y-98529604D01*
D38*
%TO.N,Net-(J1-Pad1)*%
X186985480Y-68829520D02*
X186985480Y-68580000D01*
X183547633Y-69186054D02*
X186628946Y-69186054D01*
X186628946Y-69186054D02*
X186985480Y-68829520D01*
%TO.N,Net-(SW2-Pad2)*%
X188685000Y-64770000D02*
X191146578Y-64770000D01*
X191146578Y-64770000D02*
X191741776Y-65365198D01*
X193590004Y-65365197D02*
X191741776Y-65365198D01*
%TD*%
M02*
