%TF.GenerationSoftware,KiCad,Pcbnew,6.0.11-2627ca5db0~126~ubuntu22.04.1*%
%TF.CreationDate,2023-06-02T23:20:51-05:00*%
%TF.ProjectId,pcb,7063622e-6b69-4636-9164-5f7063625858,rev?*%
%TF.SameCoordinates,Original*%
%TF.FileFunction,Copper,L1,Top*%
%TF.FilePolarity,Positive*%
%FSLAX46Y46*%
G04 Gerber Fmt 4.6, Leading zero omitted, Abs format (unit mm)*
G04 Created by KiCad (PCBNEW 6.0.11-2627ca5db0~126~ubuntu22.04.1) date 2023-06-02 23:20:51*
%MOMM*%
%LPD*%
G01*
G04 APERTURE LIST*
G04 Aperture macros list*
%AMRotRect*
0 Rectangle, with rotation*
0 The origin of the aperture is its center*
0 $1 length*
0 $2 width*
0 $3 Rotation angle, in degrees counterclockwise*
0 Add horizontal line*
21,1,$1,$2,0,0,$3*%
%AMFreePoly0*
4,1,11,-9.025000,7.692620,-1.188613,1.300000,1.300000,1.300000,1.300000,-1.300000,-1.300000,-1.300000,-1.300000,0.730114,-9.616019,7.514000,-11.418000,7.514000,-11.418000,9.214000,-9.025000,9.214000,-9.025000,7.692620,-9.025000,7.692620,$1*%
%AMFreePoly1*
4,1,39,3.372967,3.511513,3.456019,3.456019,3.511513,3.372967,3.531000,3.275000,3.511513,3.177033,3.456019,3.093981,3.372967,3.038487,3.275000,3.019000,3.258515,3.022279,2.958996,3.006582,2.646453,2.957080,2.340797,2.875180,2.045377,2.761779,1.763428,2.618119,1.498041,2.445774,1.252122,2.246633,1.028367,2.022878,0.829226,1.776959,0.656881,1.511572,0.549080,1.300000,
1.300000,1.300000,1.300000,-1.300000,-1.300000,-1.300000,-1.300000,1.300000,-0.005558,1.300000,0.012781,1.351255,0.160936,1.664502,0.339081,1.961718,0.545500,2.240043,0.778206,2.496794,1.034957,2.729500,1.313282,2.935919,1.610498,3.114064,1.923745,3.262219,2.250005,3.378956,2.586136,3.463153,2.928901,3.513997,3.275000,3.531000,3.372967,3.511513,3.372967,3.511513,
$1*%
%AMFreePoly2*
4,1,15,0.500000,0.127000,2.540000,0.127000,2.576070,0.121770,2.636138,0.082984,2.665733,0.017894,2.655473,-0.052868,2.608611,-0.106872,2.540000,-0.127000,0.500000,-0.127000,0.500000,-0.750000,-0.500000,-0.750000,-1.000000,0.000000,-0.500000,0.750000,0.500000,0.750000,0.500000,0.127000,0.500000,0.127000,$1*%
%AMFreePoly3*
4,1,6,0.150000,0.000000,0.650000,-0.750000,-0.500000,-0.750000,-0.500000,0.750000,0.650000,0.750000,0.150000,0.000000,0.150000,0.000000,$1*%
G04 Aperture macros list end*
%TA.AperFunction,SMDPad,CuDef*%
%ADD10FreePoly0,0.000000*%
%TD*%
%TA.AperFunction,ComponentPad*%
%ADD11C,0.600000*%
%TD*%
%TA.AperFunction,SMDPad,CuDef*%
%ADD12FreePoly1,0.000000*%
%TD*%
%TA.AperFunction,SMDPad,CuDef*%
%ADD13R,2.456000X1.700000*%
%TD*%
%TA.AperFunction,SMDPad,CuDef*%
%ADD14FreePoly0,146.600000*%
%TD*%
%TA.AperFunction,SMDPad,CuDef*%
%ADD15FreePoly1,146.600000*%
%TD*%
%TA.AperFunction,SMDPad,CuDef*%
%ADD16RotRect,2.456000X1.700000X146.600000*%
%TD*%
%TA.AperFunction,ComponentPad*%
%ADD17O,1.600000X1.600000*%
%TD*%
%TA.AperFunction,SMDPad,CuDef*%
%ADD18FreePoly2,0.000000*%
%TD*%
%TA.AperFunction,SMDPad,CuDef*%
%ADD19FreePoly2,180.000000*%
%TD*%
%TA.AperFunction,ComponentPad*%
%ADD20R,1.600000X1.600000*%
%TD*%
%TA.AperFunction,SMDPad,CuDef*%
%ADD21FreePoly3,0.000000*%
%TD*%
%TA.AperFunction,SMDPad,CuDef*%
%ADD22FreePoly3,180.000000*%
%TD*%
%TA.AperFunction,SMDPad,CuDef*%
%ADD23R,1.714000X1.200000*%
%TD*%
%TA.AperFunction,SMDPad,CuDef*%
%ADD24FreePoly0,4.470000*%
%TD*%
%TA.AperFunction,SMDPad,CuDef*%
%ADD25FreePoly1,4.470000*%
%TD*%
%TA.AperFunction,SMDPad,CuDef*%
%ADD26RotRect,2.456000X1.700000X4.470000*%
%TD*%
%TA.AperFunction,SMDPad,CuDef*%
%ADD27FreePoly0,16.600000*%
%TD*%
%TA.AperFunction,SMDPad,CuDef*%
%ADD28FreePoly1,16.600000*%
%TD*%
%TA.AperFunction,SMDPad,CuDef*%
%ADD29RotRect,2.456000X1.700000X16.600000*%
%TD*%
%TA.AperFunction,SMDPad,CuDef*%
%ADD30FreePoly0,8.360000*%
%TD*%
%TA.AperFunction,SMDPad,CuDef*%
%ADD31FreePoly1,8.360000*%
%TD*%
%TA.AperFunction,SMDPad,CuDef*%
%ADD32RotRect,2.456000X1.700000X8.360000*%
%TD*%
%TA.AperFunction,SMDPad,CuDef*%
%ADD33R,2.000000X1.500000*%
%TD*%
%TA.AperFunction,SMDPad,CuDef*%
%ADD34R,1.600000X2.000000*%
%TD*%
%TA.AperFunction,SMDPad,CuDef*%
%ADD35FreePoly0,196.600000*%
%TD*%
%TA.AperFunction,SMDPad,CuDef*%
%ADD36FreePoly1,196.600000*%
%TD*%
%TA.AperFunction,SMDPad,CuDef*%
%ADD37RotRect,2.456000X1.700000X196.600000*%
%TD*%
%TA.AperFunction,ComponentPad*%
%ADD38C,2.000000*%
%TD*%
%TA.AperFunction,ViaPad*%
%ADD39C,0.800000*%
%TD*%
%TA.AperFunction,Conductor*%
%ADD40C,0.250000*%
%TD*%
%TA.AperFunction,Conductor*%
%ADD41C,1.000000*%
%TD*%
G04 APERTURE END LIST*
D10*
%TO.P,K40,*%
%TO.N,*%
X170120299Y-113808528D03*
D11*
X161095299Y-105444528D03*
D12*
%TO.P,K40,1,A*%
%TO.N,Col4*%
X158570299Y-116008528D03*
D11*
X161845299Y-112733528D03*
D13*
%TO.P,K40,2,B*%
%TO.N,Row0*%
X164523299Y-105444528D03*
D11*
X163295299Y-105444528D03*
%TD*%
%TO.P,K50,*%
%TO.N,*%
X179095307Y-103154977D03*
D10*
X188120307Y-111518977D03*
D12*
%TO.P,K50,1,A*%
%TO.N,Col5*%
X176570307Y-113718977D03*
D11*
X179845307Y-110443977D03*
D13*
%TO.P,K50,2,B*%
%TO.N,Row0*%
X182523307Y-103154977D03*
D11*
X181295307Y-103154977D03*
%TD*%
%TO.P,K60,*%
%TO.N,*%
X196383946Y-125101561D03*
D14*
X193453665Y-113150804D03*
D15*
%TO.P,K60,1,A*%
%TO.N,Col6*%
X204307215Y-117672192D03*
D11*
X199770264Y-118603494D03*
D16*
%TO.P,K60,2,B*%
%TO.N,Row0*%
X193522087Y-123214513D03*
D11*
X194547280Y-123890503D03*
%TD*%
D17*
%TO.P,U1,*%
%TO.N,*%
X191848922Y-96463170D03*
D18*
X204728922Y-91383170D03*
D17*
X207088922Y-101543170D03*
D18*
X204728922Y-83763170D03*
D17*
X191848922Y-93923170D03*
D18*
X204728922Y-96463170D03*
D19*
X194208922Y-104083170D03*
X194208922Y-91383170D03*
D17*
X207088922Y-83763170D03*
D18*
X204728922Y-88843170D03*
D19*
X194208922Y-76143170D03*
D18*
X204728922Y-81223170D03*
D19*
X194219247Y-86290829D03*
D18*
X204802922Y-99003170D03*
D17*
X207088922Y-99003170D03*
X191848922Y-101543170D03*
X191848922Y-86303170D03*
D19*
X194208922Y-83763170D03*
D18*
X204728922Y-78683170D03*
D17*
X191848922Y-78683170D03*
X207088922Y-91383170D03*
X191848922Y-104083170D03*
D19*
X194211122Y-99003170D03*
D17*
X207088922Y-78683170D03*
D19*
X194208922Y-78683170D03*
D20*
X191848922Y-76143170D03*
D19*
X194208922Y-88843170D03*
D17*
X207088922Y-104083170D03*
X207088922Y-81223170D03*
D18*
X204728922Y-76143170D03*
D17*
X191848922Y-81223170D03*
X207088922Y-96463170D03*
D18*
X204728922Y-86303170D03*
D19*
X194208922Y-81223170D03*
D17*
X191848922Y-99003170D03*
D18*
X204728922Y-93923170D03*
D19*
X194208922Y-93923170D03*
D17*
X207088922Y-86303170D03*
X207088922Y-93923170D03*
D18*
X204728922Y-104083170D03*
D17*
X191848922Y-83763170D03*
X191848922Y-88843170D03*
X191848922Y-91383170D03*
X207088922Y-88843170D03*
X207088922Y-76143170D03*
D18*
X204728922Y-101543170D03*
D19*
X194208922Y-96463170D03*
X194208922Y-101543170D03*
D21*
%TO.P,U1,1,TX0/P0.06*%
%TO.N,unconnected-(U1-Pad1)*%
X203278922Y-76143170D03*
%TO.P,U1,2,RX1/P0.08*%
%TO.N,unconnected-(U1-Pad2)*%
X203278922Y-78683170D03*
%TO.P,U1,3,GND*%
%TO.N,GND*%
X203278922Y-81223170D03*
%TO.P,U1,4,GND*%
X203278922Y-83763170D03*
%TO.P,U1,5,P0.17*%
%TO.N,unconnected-(U1-Pad5)*%
X203278922Y-86303170D03*
%TO.P,U1,6,P0.20*%
%TO.N,unconnected-(U1-Pad6)*%
X203278922Y-88843170D03*
%TO.P,U1,7,P0.22*%
%TO.N,unconnected-(U1-Pad7)*%
X203278922Y-91383170D03*
%TO.P,U1,8,P0.24*%
%TO.N,unconnected-(U1-Pad8)*%
X203278922Y-93923170D03*
%TO.P,U1,9,P1.00*%
%TO.N,Row3*%
X203278922Y-96463170D03*
%TO.P,U1,10,P0.11*%
%TO.N,Row2*%
X203355122Y-99003170D03*
%TO.P,U1,11,P1.04*%
%TO.N,Row1*%
X203278922Y-101543170D03*
%TO.P,U1,12,P1.06*%
%TO.N,Row0*%
X203278922Y-104083170D03*
D22*
%TO.P,U1,13,NFC1/P0.09*%
%TO.N,unconnected-(U1-Pad13)*%
X195658922Y-104083170D03*
%TO.P,U1,14,NFC2/P0.10*%
%TO.N,Col6*%
X195658922Y-101543170D03*
%TO.P,U1,15,P1.11*%
%TO.N,Col0*%
X195658922Y-99003170D03*
%TO.P,U1,16,P1.13*%
%TO.N,Col1*%
X195658922Y-96463170D03*
%TO.P,U1,17,P1.15*%
%TO.N,Col2*%
X195658922Y-93923170D03*
%TO.P,U1,18,AIN0/P0.02*%
%TO.N,Col3*%
X195658922Y-91383170D03*
%TO.P,U1,19,AIN5/P0.29*%
%TO.N,Col4*%
X195658922Y-88843170D03*
%TO.P,U1,20,AIN7/P0.31*%
%TO.N,Col5*%
X195669247Y-86290829D03*
%TO.P,U1,21,VCC*%
%TO.N,unconnected-(U1-Pad21)*%
X195658922Y-83763170D03*
%TO.P,U1,22,RST*%
%TO.N,Net-(SW1-Pad1)*%
X195658922Y-81223170D03*
%TO.P,U1,23,GND*%
%TO.N,GND*%
X195658922Y-78683170D03*
%TO.P,U1,24,BATIN/P0.04*%
%TO.N,Net-(SW2-Pad3)*%
X195658922Y-76143170D03*
%TD*%
D23*
%TO.P,SW2,1,A*%
%TO.N,unconnected-(SW2-Pad1)*%
X206978000Y-65445000D03*
%TO.P,SW2,2,B*%
%TO.N,Net-(J1-Pad2)*%
X206978000Y-67945000D03*
%TO.P,SW2,3,C*%
%TO.N,Net-(SW2-Pad3)*%
X206978000Y-70445000D03*
%TO.P,SW2,4,A*%
%TO.N,unconnected-(SW2-Pad4)*%
X200692000Y-65445000D03*
%TO.P,SW2,5,B*%
%TO.N,Net-(J1-Pad1)*%
X200692000Y-67945000D03*
%TO.P,SW2,6,C*%
%TO.N,GND*%
X200692000Y-70445000D03*
%TD*%
D11*
%TO.P,K31,*%
%TO.N,*%
X140527704Y-84019609D03*
D24*
X150177118Y-91654786D03*
D25*
%TO.P,K31,1,A*%
%TO.N,Col3*%
X138833711Y-94748268D03*
D11*
X141843506Y-91227985D03*
D26*
%TO.P,K31,2,B*%
%TO.N,Row1*%
X143945276Y-83752441D03*
D11*
X142721012Y-83848148D03*
%TD*%
%TO.P,K02,*%
%TO.N,*%
X75448339Y-77576452D03*
D27*
X86486698Y-83013524D03*
D28*
%TO.P,K02,1,A*%
%TO.N,Col0*%
X76046586Y-88421535D03*
D11*
X78249463Y-84347399D03*
%TO.P,K02,2,B*%
%TO.N,Row2*%
X77556649Y-76947938D03*
D29*
X78733469Y-76597112D03*
%TD*%
D10*
%TO.P,K43,*%
%TO.N,*%
X170120298Y-58748527D03*
D11*
X161095298Y-50384527D03*
%TO.P,K43,1,A*%
%TO.N,Col4*%
X161845298Y-57673527D03*
D12*
X158570298Y-60948527D03*
D11*
%TO.P,K43,2,B*%
%TO.N,Row3*%
X163295298Y-50384527D03*
D13*
X164523298Y-50384527D03*
%TD*%
D11*
%TO.P,K21,*%
%TO.N,*%
X120735051Y-89314527D03*
D30*
X130880214Y-96277486D03*
D31*
%TO.P,K21,1,A*%
%TO.N,Col2*%
X119772806Y-100133391D03*
D11*
X122536847Y-96417031D03*
D32*
%TO.P,K21,2,B*%
%TO.N,Row1*%
X124126625Y-88816122D03*
D11*
X122911674Y-88994664D03*
%TD*%
D10*
%TO.P,K53,*%
%TO.N,*%
X188120307Y-60458976D03*
D11*
X179095307Y-52094976D03*
%TO.P,K53,1,A*%
%TO.N,Col5*%
X179845307Y-59383976D03*
D12*
X176570307Y-62658976D03*
D11*
%TO.P,K53,2,B*%
%TO.N,Row3*%
X181295307Y-52094976D03*
D13*
X182523307Y-52094976D03*
%TD*%
D30*
%TO.P,K22,*%
%TO.N,*%
X128405635Y-79438340D03*
D11*
X118260472Y-72475381D03*
D31*
%TO.P,K22,1,A*%
%TO.N,Col2*%
X117298227Y-83294245D03*
D11*
X120062268Y-79577885D03*
%TO.P,K22,2,B*%
%TO.N,Row2*%
X120437095Y-72155518D03*
D32*
X121652046Y-71976976D03*
%TD*%
D27*
%TO.P,K01,*%
%TO.N,*%
X91349114Y-99324174D03*
D11*
X80310755Y-93887102D03*
D28*
%TO.P,K01,1,A*%
%TO.N,Col0*%
X80909002Y-104732185D03*
D11*
X83111879Y-100658049D03*
D29*
%TO.P,K01,2,B*%
%TO.N,Row1*%
X83595885Y-92907762D03*
D11*
X82419065Y-93258588D03*
%TD*%
D33*
%TO.P,J2,*%
%TO.N,*%
X192659000Y-62435000D03*
X197231000Y-62435000D03*
D34*
%TO.P,J2,1,Pin_1*%
%TO.N,Net-(J2-Pad1)*%
X193929000Y-66435000D03*
%TO.P,J2,2,Pin_2*%
%TO.N,Net-(J2-Pad2)*%
X195961000Y-66421000D03*
%TD*%
D11*
%TO.P,K42,*%
%TO.N,*%
X161095299Y-67404528D03*
D10*
X170120299Y-75768528D03*
D11*
%TO.P,K42,1,A*%
%TO.N,Col4*%
X161845299Y-74693528D03*
D12*
X158570299Y-77968528D03*
D13*
%TO.P,K42,2,B*%
%TO.N,Row2*%
X164523299Y-67404528D03*
D11*
X163295299Y-67404528D03*
%TD*%
D27*
%TO.P,K12,*%
%TO.N,*%
X103736504Y-77871134D03*
D11*
X92698145Y-72434062D03*
D28*
%TO.P,K12,1,A*%
%TO.N,Col1*%
X93296392Y-83279145D03*
D11*
X95499269Y-79205009D03*
D29*
%TO.P,K12,2,B*%
%TO.N,Row2*%
X95983275Y-71454722D03*
D11*
X94806455Y-71805548D03*
%TD*%
D10*
%TO.P,K41,*%
%TO.N,*%
X170120300Y-92788528D03*
D11*
X161095300Y-84424528D03*
%TO.P,K41,1,A*%
%TO.N,Col4*%
X161845300Y-91713528D03*
D12*
X158570300Y-94988528D03*
D11*
%TO.P,K41,2,B*%
%TO.N,Row1*%
X163295300Y-84424528D03*
D13*
X164523300Y-84424528D03*
%TD*%
D11*
%TO.P,K11,*%
%TO.N,*%
X97560561Y-88744712D03*
D27*
X108598920Y-94181784D03*
D28*
%TO.P,K11,1,A*%
%TO.N,Col1*%
X98158808Y-99589795D03*
D11*
X100361685Y-95515659D03*
D29*
%TO.P,K11,2,B*%
%TO.N,Row1*%
X100845691Y-87765372D03*
D11*
X99668871Y-88116198D03*
%TD*%
D10*
%TO.P,K51,*%
%TO.N,*%
X188120307Y-94498978D03*
D11*
X179095307Y-86134978D03*
D12*
%TO.P,K51,1,A*%
%TO.N,Col5*%
X176570307Y-96698978D03*
D11*
X179845307Y-93423978D03*
%TO.P,K51,2,B*%
%TO.N,Row1*%
X181295307Y-86134978D03*
D13*
X182523307Y-86134978D03*
%TD*%
D24*
%TO.P,K33,*%
%TO.N,*%
X147524138Y-57718327D03*
D11*
X137874724Y-50083150D03*
D25*
%TO.P,K33,1,A*%
%TO.N,Col3*%
X136180731Y-60811809D03*
D11*
X139190526Y-57291526D03*
%TO.P,K33,2,B*%
%TO.N,Row3*%
X140068032Y-49911689D03*
D26*
X141292296Y-49815982D03*
%TD*%
D11*
%TO.P,K00,*%
%TO.N,*%
X89246987Y-118612620D03*
D35*
X78208628Y-113175548D03*
D11*
%TO.P,K00,1,A*%
%TO.N,Col0*%
X86445863Y-111841673D03*
D36*
X88648740Y-107767537D03*
D37*
%TO.P,K00,2,B*%
%TO.N,Row0*%
X85961857Y-119591960D03*
D11*
X87138677Y-119241134D03*
%TD*%
D30*
%TO.P,K20,*%
%TO.N,*%
X133354791Y-113116634D03*
D11*
X123209628Y-106153675D03*
%TO.P,K20,1,A*%
%TO.N,Col2*%
X125011424Y-113256179D03*
D31*
X122247383Y-116972539D03*
D11*
%TO.P,K20,2,B*%
%TO.N,Row0*%
X125386251Y-105833812D03*
D32*
X126601202Y-105655270D03*
%TD*%
D24*
%TO.P,K32,*%
%TO.N,*%
X148850629Y-74686556D03*
D11*
X139201215Y-67051379D03*
%TO.P,K32,1,A*%
%TO.N,Col3*%
X140517017Y-74259755D03*
D25*
X137507222Y-77780038D03*
D11*
%TO.P,K32,2,B*%
%TO.N,Row2*%
X141394523Y-66879918D03*
D26*
X142618787Y-66784211D03*
%TD*%
D30*
%TO.P,K23,*%
%TO.N,*%
X125931057Y-62599194D03*
D11*
X115785894Y-55636235D03*
D31*
%TO.P,K23,1,A*%
%TO.N,Col2*%
X114823649Y-66455099D03*
D11*
X117587690Y-62738739D03*
D32*
%TO.P,K23,2,B*%
%TO.N,Row3*%
X119177468Y-55137830D03*
D11*
X117962517Y-55316372D03*
%TD*%
%TO.P,K30,*%
%TO.N,*%
X142304172Y-109212830D03*
D24*
X151953586Y-116848007D03*
D11*
%TO.P,K30,1,A*%
%TO.N,Col3*%
X143619974Y-116421206D03*
D25*
X140610179Y-119941489D03*
D11*
%TO.P,K30,2,B*%
%TO.N,Row0*%
X144497480Y-109041369D03*
D26*
X145721744Y-108945662D03*
%TD*%
D11*
%TO.P,K10,*%
%TO.N,*%
X102422978Y-105055362D03*
D27*
X113461337Y-110492434D03*
D11*
%TO.P,K10,1,A*%
%TO.N,Col1*%
X105224102Y-111826309D03*
D28*
X103021225Y-115900445D03*
D11*
%TO.P,K10,2,B*%
%TO.N,Row0*%
X104531288Y-104426848D03*
D29*
X105708108Y-104076022D03*
%TD*%
D11*
%TO.P,K52,*%
%TO.N,*%
X179095308Y-69114976D03*
D10*
X188120308Y-77478976D03*
D11*
%TO.P,K52,1,A*%
%TO.N,Col5*%
X179845308Y-76403976D03*
D12*
X176570308Y-79678976D03*
D13*
%TO.P,K52,2,B*%
%TO.N,Row2*%
X182523308Y-69114976D03*
D11*
X181295308Y-69114976D03*
%TD*%
D38*
%TO.P,SW1,1,1*%
%TO.N,Net-(SW1-Pad1)*%
X145645247Y-98882886D03*
X139165018Y-99389477D03*
%TO.P,SW1,2,2*%
%TO.N,GND*%
X139515735Y-103875789D03*
X145995964Y-103369198D03*
%TD*%
D39*
%TO.N,GND*%
X197080246Y-81737886D03*
X185015246Y-100152886D03*
X183110247Y-100152886D03*
X200692000Y-72918366D03*
X197080247Y-84277887D03*
%TO.N,Col0*%
X201525246Y-98247886D03*
%TO.N,Row0*%
X197080246Y-104597886D03*
%TO.N,Row1*%
X197080247Y-102057886D03*
%TO.N,Row2*%
X197080246Y-99517887D03*
%TO.N,Row3*%
X137283927Y-52670967D03*
X197080247Y-96977886D03*
%TO.N,Col1*%
X201525247Y-95707886D03*
%TO.N,Col2*%
X201525246Y-93167886D03*
%TO.N,Col3*%
X201525247Y-90627886D03*
%TO.N,Col4*%
X201525246Y-88087886D03*
X166600247Y-100787886D03*
X166600247Y-97612886D03*
%TO.N,Col5*%
X201525247Y-85547886D03*
%TO.N,Col6*%
X201525247Y-100787886D03*
%TO.N,unconnected-(U1-Pad1)*%
X197080246Y-76657887D03*
%TO.N,unconnected-(U1-Pad2)*%
X197080247Y-79197886D03*
%TO.N,unconnected-(U1-Pad5)*%
X197080247Y-86817886D03*
%TO.N,unconnected-(U1-Pad6)*%
X197080246Y-89357886D03*
%TO.N,unconnected-(U1-Pad7)*%
X197080247Y-91897886D03*
%TO.N,unconnected-(U1-Pad8)*%
X197080246Y-94437886D03*
%TO.N,unconnected-(U1-Pad13)*%
X201525246Y-103327886D03*
%TO.N,unconnected-(U1-Pad21)*%
X201525247Y-83007886D03*
%TO.N,Net-(SW2-Pad3)*%
X202160247Y-74117886D03*
X206978000Y-73057000D03*
%TO.N,Net-(J1-Pad2)*%
X199390000Y-62865000D03*
%TO.N,Net-(J1-Pad1)*%
X198120000Y-66675000D03*
%TO.N,Net-(SW1-Pad1)*%
X185015247Y-98882886D03*
X183110246Y-98882886D03*
X201525247Y-80467886D03*
%TO.N,Net-(J2-Pad2)*%
X200660000Y-63500000D03*
%TO.N,Net-(J2-Pad1)*%
X198755000Y-68580000D03*
%TD*%
D40*
%TO.N,GND*%
X183110247Y-100152886D02*
X185015246Y-100152886D01*
D41*
X200692000Y-70445000D02*
X200692000Y-72918366D01*
D40*
X197080247Y-84277887D02*
X202764206Y-84277886D01*
X145451761Y-103980393D02*
X145958353Y-103473802D01*
X202764207Y-81737887D02*
X203278923Y-81223170D01*
X197080246Y-81737886D02*
X202764207Y-81737887D01*
X202764206Y-84277886D02*
X203278923Y-83763170D01*
X203278923Y-81223170D02*
X203278923Y-83763170D01*
X139478123Y-103980393D02*
X145451761Y-103980393D01*
%TO.N,Col0*%
X196339206Y-98247886D02*
X195583923Y-99003170D01*
X201525246Y-98247886D02*
X196339206Y-98247886D01*
%TO.N,Row0*%
X137069442Y-104116922D02*
X143918219Y-109210698D01*
X181348788Y-101980458D02*
X182523306Y-103154978D01*
X191337319Y-105207681D02*
X184576011Y-105207681D01*
X197080246Y-104597886D02*
X202764207Y-104597886D01*
X163348781Y-104270009D02*
X164523298Y-105444528D01*
X126601201Y-105655270D02*
X137069442Y-104116922D01*
X88031715Y-120711127D02*
X92860115Y-119271719D01*
X85961857Y-119591959D02*
X88031715Y-120711127D01*
X125021955Y-104076022D02*
X126601202Y-105655270D01*
X145721745Y-108945661D02*
X150397396Y-104270008D01*
X193522087Y-123214513D02*
X191327738Y-121020164D01*
X92860115Y-119271719D02*
X96277096Y-112952143D01*
X95007212Y-108692399D02*
X97142825Y-104742665D01*
X184576011Y-105207681D02*
X182523307Y-103154977D01*
X167987372Y-101980456D02*
X181348788Y-101980458D01*
X196470452Y-105207681D02*
X191337319Y-105207681D01*
X191327738Y-121020164D02*
X191327738Y-105217262D01*
X164523298Y-105444528D02*
X167987372Y-101980456D01*
X103458758Y-102859803D02*
X105708107Y-104076022D01*
X150397396Y-104270008D02*
X163348781Y-104270009D01*
X97142825Y-104742665D02*
X103458758Y-102859803D01*
X197080246Y-104597886D02*
X196470452Y-105207681D01*
X105708107Y-104076022D02*
X125021955Y-104076022D01*
X202764207Y-104597886D02*
X203278923Y-104083170D01*
X191327738Y-105217262D02*
X191337319Y-105207681D01*
X143918219Y-109210698D02*
X145721745Y-108945661D01*
X96277096Y-112952143D02*
X95007212Y-108692399D01*
%TO.N,Row1*%
X185722879Y-86243941D02*
X185613915Y-86134977D01*
X123075875Y-87765372D02*
X124126625Y-88816122D01*
X149479377Y-83752441D02*
X143945275Y-83752442D01*
X83595885Y-92907763D02*
X87293191Y-91805548D01*
X100845691Y-87765372D02*
X123075875Y-87765372D01*
X87293191Y-91805548D02*
X88593489Y-89400697D01*
X142166567Y-82429528D02*
X143945276Y-83752441D01*
X182523306Y-86134978D02*
X180812858Y-84424528D01*
X88593489Y-89400697D02*
X98938581Y-86316691D01*
X191340041Y-102667682D02*
X189744819Y-101072458D01*
X189744819Y-101072458D02*
X189744819Y-90265880D01*
X180812858Y-84424528D02*
X164523301Y-84424528D01*
X202764207Y-102057886D02*
X203278922Y-101543171D01*
X197080247Y-102057886D02*
X202764207Y-102057886D01*
X150162880Y-83068940D02*
X149479377Y-83752441D01*
X185613915Y-86134977D02*
X182523306Y-86134978D01*
X98938581Y-86316691D02*
X100697308Y-87267631D01*
X189744819Y-90265880D02*
X185722879Y-86243941D01*
X127245863Y-84622184D02*
X142166567Y-82429528D01*
X196470451Y-102667681D02*
X191340041Y-102667682D01*
X124126625Y-88816122D02*
X127245863Y-84622184D01*
X163167712Y-83068941D02*
X150162880Y-83068940D01*
X100697308Y-87267631D02*
X100845691Y-87765372D01*
X164523301Y-84424528D02*
X163167712Y-83068941D01*
X197080247Y-102057886D02*
X196470451Y-102667681D01*
%TO.N,Row2*%
X202764206Y-99517886D02*
X203278923Y-99003170D01*
X120028955Y-70353887D02*
X121652045Y-71976976D01*
X97084110Y-70353886D02*
X120028955Y-70353887D01*
X148667608Y-66784211D02*
X142618785Y-66784210D01*
X93422923Y-70070344D02*
X95983275Y-71454722D01*
X190804133Y-100127681D02*
X190194338Y-99517886D01*
X84136589Y-74986372D02*
X85520967Y-72426020D01*
X164523300Y-67404529D02*
X163042712Y-65923939D01*
X180812859Y-67404528D02*
X164523300Y-67404529D01*
X197080246Y-99517887D02*
X196470452Y-100127681D01*
X85520967Y-72426020D02*
X93422923Y-70070344D01*
X78733469Y-76597112D02*
X84136589Y-74986372D01*
X163042712Y-65923939D02*
X149527879Y-65923941D01*
X185706843Y-69114978D02*
X182523308Y-69114977D01*
X182523308Y-69114977D02*
X180812859Y-67404528D01*
X121652048Y-71976977D02*
X124738191Y-67827533D01*
X185722879Y-69098940D02*
X185706843Y-69114978D01*
X196470452Y-100127681D02*
X190804133Y-100127681D01*
X124738191Y-67827533D02*
X140840077Y-65461299D01*
X190194338Y-99517886D02*
X190194338Y-73570399D01*
X95983276Y-71454721D02*
X97084110Y-70353886D01*
X190194338Y-73570399D02*
X185722879Y-69098940D01*
X149527879Y-65923941D02*
X148667608Y-66784211D01*
X140840077Y-65461299D02*
X142618787Y-66784211D01*
X197080246Y-99517887D02*
X202764206Y-99517886D01*
%TO.N,Row3*%
X196470451Y-97587681D02*
X191340041Y-97587681D01*
X163348781Y-49210007D02*
X158567878Y-49210008D01*
X137066176Y-52509015D02*
X137283927Y-52670967D01*
X189743360Y-62084945D02*
X189777746Y-62050558D01*
X202764207Y-96977887D02*
X203278922Y-96463170D01*
X190643858Y-73384201D02*
X189743360Y-72483702D01*
X190643859Y-96891499D02*
X190643858Y-94123858D01*
X158567878Y-49210008D02*
X157961905Y-49815983D01*
X183312337Y-52094976D02*
X182523307Y-52094976D01*
X190643858Y-94123858D02*
X190643858Y-73384201D01*
X180812858Y-50384527D02*
X164523300Y-50384528D01*
X157961905Y-49815983D02*
X141292296Y-49815983D01*
X189777747Y-58560387D02*
X183312337Y-52094976D01*
X189777746Y-62050558D02*
X189777747Y-58560387D01*
X119177470Y-55137831D02*
X137066176Y-52509015D01*
X189743360Y-72483702D02*
X189743360Y-62084945D01*
X197080247Y-96977886D02*
X196470451Y-97587681D01*
X164523300Y-50384528D02*
X163348781Y-49210007D01*
X191340041Y-97587681D02*
X190643859Y-96891499D01*
X197080247Y-96977886D02*
X202764207Y-96977887D01*
X182523307Y-52094976D02*
X180812858Y-50384527D01*
%TO.N,Col1*%
X201525247Y-95707886D02*
X196414207Y-95707886D01*
X196414207Y-95707886D02*
X195658922Y-96463171D01*
%TO.N,Col2*%
X201525246Y-93167886D02*
X196414206Y-93167886D01*
X196414206Y-93167886D02*
X195658923Y-93923170D01*
%TO.N,Col3*%
X201525247Y-90627886D02*
X196414207Y-90627886D01*
X196414207Y-90627886D02*
X195658922Y-91383170D01*
%TO.N,Col4*%
X201525246Y-88087886D02*
X196414207Y-88087886D01*
X196414207Y-88087886D02*
X195658923Y-88843170D01*
X166600247Y-97612886D02*
X166600247Y-100787886D01*
%TO.N,Col5*%
X201525247Y-85547886D02*
X196412191Y-85547886D01*
X196412191Y-85547886D02*
X195669247Y-86290829D01*
%TO.N,Col6*%
X196414207Y-100787886D02*
X195658922Y-101543170D01*
X201525247Y-100787886D02*
X196414207Y-100787886D01*
%TO.N,unconnected-(U1-Pad1)*%
X202764207Y-76657886D02*
X203278923Y-76143170D01*
X197080246Y-76657887D02*
X202764207Y-76657886D01*
%TO.N,unconnected-(U1-Pad2)*%
X197080247Y-79197886D02*
X202764206Y-79197886D01*
X202764206Y-79197886D02*
X203278922Y-78683171D01*
%TO.N,unconnected-(U1-Pad5)*%
X202764207Y-86817886D02*
X203278923Y-86303171D01*
X197080247Y-86817886D02*
X202764207Y-86817886D01*
%TO.N,unconnected-(U1-Pad6)*%
X197080246Y-89357886D02*
X202764206Y-89357887D01*
X202764206Y-89357887D02*
X203278923Y-88843170D01*
%TO.N,unconnected-(U1-Pad7)*%
X197080247Y-91897886D02*
X202764207Y-91897886D01*
X202764207Y-91897886D02*
X203278922Y-91383170D01*
%TO.N,unconnected-(U1-Pad8)*%
X197080246Y-94437886D02*
X202764206Y-94437886D01*
X202764206Y-94437886D02*
X203278923Y-93923170D01*
%TO.N,unconnected-(U1-Pad13)*%
X196414206Y-103327887D02*
X195658923Y-104083170D01*
X201525246Y-103327886D02*
X196414206Y-103327887D01*
%TO.N,unconnected-(U1-Pad21)*%
X201525247Y-83007886D02*
X196414207Y-83007886D01*
X196414207Y-83007886D02*
X195658923Y-83763170D01*
D41*
%TO.N,Net-(SW2-Pad3)*%
X196006639Y-74117886D02*
X195908442Y-74216082D01*
X197715247Y-74117886D02*
X196006639Y-74117886D01*
X195908442Y-74216082D02*
X195908443Y-76143170D01*
X205917114Y-74117886D02*
X202160247Y-74117886D01*
X206978000Y-70445000D02*
X206978000Y-73057000D01*
X206978000Y-73057000D02*
X205917114Y-74117886D01*
X202160247Y-74117886D02*
X197715247Y-74117886D01*
%TO.N,Net-(J1-Pad2)*%
X200025000Y-62230000D02*
X199390000Y-62865000D01*
X208534511Y-64145489D02*
X208534511Y-66388489D01*
X206619022Y-62230000D02*
X200025000Y-62230000D01*
X208534511Y-66388489D02*
X206978000Y-67945000D01*
X206619022Y-62230000D02*
X208534511Y-64145489D01*
%TO.N,Net-(J1-Pad1)*%
X199422000Y-66675000D02*
X200692000Y-67945000D01*
X198120000Y-66675000D02*
X199422000Y-66675000D01*
D40*
%TO.N,Net-(SW1-Pad1)*%
X145101044Y-99494081D02*
X145607635Y-98987490D01*
X196414207Y-80467886D02*
X195658923Y-81223171D01*
X139127406Y-99494082D02*
X145101044Y-99494081D01*
X183110246Y-98882886D02*
X185015247Y-98882886D01*
X201525247Y-80467886D02*
X196414207Y-80467886D01*
D41*
%TO.N,Net-(J2-Pad2)*%
X198236511Y-64145489D02*
X195961000Y-66421000D01*
X200660000Y-63500000D02*
X200014511Y-64145489D01*
X200014511Y-64145489D02*
X198236511Y-64145489D01*
%TO.N,Net-(J2-Pad1)*%
X193929000Y-66435000D02*
X193929000Y-68435000D01*
X193929000Y-68435000D02*
X194074000Y-68580000D01*
X194074000Y-68580000D02*
X198755000Y-68580000D01*
%TD*%
M02*
