M48
; DRILL file {KiCad (6.0.5)} date Sun May 21 00:40:14 2023
; FORMAT={-:-/ absolute / metric / decimal}
; #@! TF.CreationDate,2023-05-21T00:40:14-05:00
; #@! TF.GenerationSoftware,Kicad,Pcbnew,(6.0.5)
; #@! TF.FileFunction,NonPlated,1,2,NPTH
FMAT,2
METRIC
; #@! TA.AperFunction,NonPlated,NPTH,ComponentDrill
T1C0.900
; #@! TA.AperFunction,NonPlated,NPTH,ComponentDrill
T2C1.702
; #@! TA.AperFunction,NonPlated,NPTH,ComponentDrill
T3C3.000
; #@! TA.AperFunction,NonPlated,NPTH,ComponentDrill
T4C3.429
%
G90
G05
T1
X195.627Y-61.496
X196.948Y-68.166
T2
X64.268Y-74.543
X67.399Y-91.273
X70.53Y-108.002
X73.661Y-124.732
X75.081Y-72.52
X78.211Y-89.249
X81.342Y-105.979
X81.648Y-69.561
X84.473Y-122.708
X84.779Y-86.29
X87.91Y-103.02
X91.041Y-119.75
X92.461Y-67.537
X95.592Y-84.267
X98.722Y-100.997
X100.732Y-60.434
X101.853Y-117.726
X103.207Y-77.273
X105.681Y-94.112
X108.156Y-110.951
X111.615Y-58.835
X114.09Y-75.674
X116.564Y-92.513
X119.039Y-109.352
X122.474Y-54.595
X123.8Y-71.564
X125.127Y-88.532
X126.903Y-113.725
X133.44Y-53.738
X134.767Y-70.706
X136.093Y-87.675
X137.87Y-112.868
X145.32Y-54.541
X145.32Y-71.561
X145.32Y-88.581
X145.32Y-109.601
X156.32Y-54.541
X156.32Y-71.561
X156.32Y-88.581
X156.32Y-109.601
X163.32Y-56.251
X163.32Y-73.271
X163.32Y-90.291
X163.32Y-107.311
X174.32Y-56.251
X174.32Y-73.271
X174.32Y-90.291
X174.32Y-107.311
X182.681Y-117.351
X191.864Y-123.406
T3
X65.45Y-78.137
X68.58Y-94.867
X70.769Y-79.38
X71.711Y-111.596
X73.9Y-96.109
X74.842Y-128.326
X75.279Y-76.298
X77.031Y-112.839
X78.41Y-93.027
X80.161Y-129.568
X81.541Y-109.757
X82.83Y-73.155
X84.671Y-126.486
X85.961Y-89.884
X88.149Y-74.398
X89.091Y-106.614
X91.28Y-91.127
X92.222Y-123.344
X92.659Y-71.315
X94.411Y-107.857
X95.79Y-88.045
X97.542Y-124.586
X98.921Y-104.775
X101.772Y-64.071
X102.052Y-121.504
X104.246Y-80.911
X106.721Y-97.75
X107.039Y-65.521
X109.196Y-114.589
X109.513Y-82.36
X111.666Y-62.617
X111.988Y-99.199
X114.14Y-79.457
X114.462Y-116.038
X116.615Y-96.296
X119.089Y-113.135
X123.264Y-58.295
X124.591Y-75.263
X125.917Y-92.232
X127.694Y-117.425
X128.421Y-60.099
X129.747Y-77.067
X131.074Y-94.035
X132.85Y-119.228
X133.234Y-57.516
X134.56Y-74.484
X135.887Y-91.452
X137.663Y-116.645
X145.82Y-58.291
X145.82Y-75.311
X145.82Y-92.331
X145.82Y-113.351
X150.82Y-60.491
X150.82Y-77.511
X150.82Y-94.531
X150.82Y-115.551
X155.82Y-58.291
X155.82Y-75.311
X155.82Y-92.331
X155.82Y-113.351
X163.82Y-60.001
X163.82Y-77.021
X163.82Y-94.041
X163.82Y-111.061
X168.82Y-62.201
X168.82Y-79.221
X168.82Y-96.241
X168.82Y-113.261
X173.82Y-60.001
X173.82Y-77.021
X173.82Y-94.041
X173.82Y-111.061
X181.034Y-120.757
X183.997Y-125.346
X189.382Y-126.262
T4
X69.674Y-73.531
X72.805Y-90.261
X75.936Y-106.99
X79.067Y-123.72
X87.055Y-68.549
X90.185Y-85.279
X93.316Y-102.008
X96.447Y-118.738
X106.174Y-59.634
X108.648Y-76.473
X111.123Y-93.313
X113.597Y-110.152
X127.957Y-54.167
X129.283Y-71.135
X130.61Y-88.103
X132.386Y-113.296
X150.82Y-54.541
X150.82Y-71.561
X150.82Y-88.581
X150.82Y-109.601
X168.82Y-56.251
X168.82Y-73.271
X168.82Y-90.291
X168.82Y-107.311
X187.272Y-120.379
T0
M30
