%TF.GenerationSoftware,KiCad,Pcbnew,6.0.11-2627ca5db0~126~ubuntu22.04.1*%
%TF.CreationDate,2023-05-24T00:13:44-05:00*%
%TF.ProjectId,pcb,7063622e-6b69-4636-9164-5f7063625858,rev?*%
%TF.SameCoordinates,Original*%
%TF.FileFunction,Legend,Top*%
%TF.FilePolarity,Positive*%
%FSLAX46Y46*%
G04 Gerber Fmt 4.6, Leading zero omitted, Abs format (unit mm)*
G04 Created by KiCad (PCBNEW 6.0.11-2627ca5db0~126~ubuntu22.04.1) date 2023-05-24 00:13:44*
%MOMM*%
%LPD*%
G01*
G04 APERTURE LIST*
%ADD10C,0.000000*%
%ADD11C,0.120000*%
G04 APERTURE END LIST*
D10*
G36*
X201246955Y-93538347D02*
G01*
X199308088Y-93538347D01*
X199308088Y-93551047D01*
X199739888Y-93766947D01*
X200785521Y-94342681D01*
X199744121Y-94905714D01*
X199278455Y-95130080D01*
X199278455Y-95142780D01*
X201246955Y-95142780D01*
X201246955Y-95748147D01*
X198292088Y-95748147D01*
X198292088Y-95066580D01*
X199676388Y-94342680D01*
X199676388Y-94334214D01*
X198292088Y-93618780D01*
X198292088Y-92932980D01*
X201246955Y-92932980D01*
X201246955Y-93538347D01*
G37*
G36*
X201246955Y-90069777D02*
G01*
X199308089Y-90069777D01*
X199308088Y-90082476D01*
X199739888Y-90298377D01*
X200785521Y-90874109D01*
X199744121Y-91437185D01*
X199278455Y-91661551D01*
X199278455Y-91674251D01*
X201246955Y-91674251D01*
X201246955Y-92279619D01*
X198292088Y-92279619D01*
X198292088Y-91598051D01*
X199676388Y-90874108D01*
X199676388Y-90865643D01*
X198292088Y-90150211D01*
X198292088Y-89464409D01*
X201246955Y-89464409D01*
X201246955Y-90069777D01*
G37*
G36*
X201246955Y-81201366D02*
G01*
X201246955Y-81946434D01*
X199024455Y-82674568D01*
X199024455Y-82056501D01*
X199921921Y-81781333D01*
X200726254Y-81573900D01*
X200726253Y-81540033D01*
X199921921Y-81332599D01*
X199024455Y-81065900D01*
X199024455Y-80473234D01*
X201246955Y-81201366D01*
G37*
G36*
X198292088Y-97117927D02*
G01*
X201246955Y-96156960D01*
X201246955Y-96825826D01*
X200544221Y-97037493D01*
X200544221Y-98023860D01*
X201246955Y-98235526D01*
X201246955Y-98887460D01*
X199998121Y-98475953D01*
X198292088Y-97913793D01*
X198292088Y-97545493D01*
X198876288Y-97545493D01*
X199998121Y-97871459D01*
X199998121Y-97194126D01*
X198876288Y-97524326D01*
X198876288Y-97545493D01*
X198292088Y-97545493D01*
X198292088Y-97117927D01*
G37*
G36*
X198863588Y-88167634D02*
G01*
X199468955Y-88167634D01*
X199468955Y-86995000D01*
X200036221Y-86995000D01*
X200036221Y-88167634D01*
X200675455Y-88167634D01*
X200675455Y-86800267D01*
X201246955Y-86800267D01*
X201246955Y-88811100D01*
X198292088Y-88811100D01*
X198292088Y-86800267D01*
X198863588Y-86800267D01*
X198863588Y-88167634D01*
G37*
G36*
X201246955Y-80036777D02*
G01*
X200734721Y-80036777D01*
X200734721Y-79240909D01*
X198753520Y-79240909D01*
X198753521Y-79279010D01*
X199540921Y-79880142D01*
X199223421Y-80286544D01*
X198292088Y-79579576D01*
X198292088Y-78605909D01*
X200734721Y-78605909D01*
X200734721Y-77979377D01*
X201246956Y-77979377D01*
X201246955Y-80036777D01*
G37*
G36*
X198292088Y-84838435D02*
G01*
X198292353Y-84813183D01*
X198293146Y-84788229D01*
X198294469Y-84763574D01*
X198296321Y-84739216D01*
X198298704Y-84715155D01*
X198301613Y-84691392D01*
X198305053Y-84667927D01*
X198309021Y-84644759D01*
X198313519Y-84621890D01*
X198318546Y-84599317D01*
X198324103Y-84577043D01*
X198330188Y-84555066D01*
X198336803Y-84533386D01*
X198343946Y-84512005D01*
X198351619Y-84490921D01*
X198359821Y-84470134D01*
X198368519Y-84449695D01*
X198377681Y-84429652D01*
X198387305Y-84410008D01*
X198397392Y-84390761D01*
X198407943Y-84371908D01*
X198418956Y-84353454D01*
X198430432Y-84335396D01*
X198442372Y-84317735D01*
X198454774Y-84300471D01*
X198467639Y-84283604D01*
X198480967Y-84267133D01*
X198494760Y-84251060D01*
X198509012Y-84235383D01*
X198523731Y-84220104D01*
X198538911Y-84205220D01*
X198554555Y-84190733D01*
X198570099Y-84176126D01*
X198586040Y-84161951D01*
X198602378Y-84148207D01*
X198619113Y-84134892D01*
X198636245Y-84122010D01*
X198653773Y-84109558D01*
X198671700Y-84097537D01*
X198690021Y-84085946D01*
X198708741Y-84074785D01*
X198727857Y-84064056D01*
X198747370Y-84053756D01*
X198767280Y-84043886D01*
X198787588Y-84034445D01*
X198808290Y-84025434D01*
X198829391Y-84016853D01*
X198850888Y-84008701D01*
X198872733Y-84001011D01*
X198894875Y-83993818D01*
X198917315Y-83987121D01*
X198940052Y-83980921D01*
X198963088Y-83975214D01*
X198986421Y-83970006D01*
X199010051Y-83965293D01*
X199033980Y-83961076D01*
X199058206Y-83957355D01*
X199082729Y-83954131D01*
X199107550Y-83951402D01*
X199132669Y-83949170D01*
X199158086Y-83947434D01*
X199183800Y-83946194D01*
X199209812Y-83945449D01*
X199236120Y-83945201D01*
X199273394Y-83945731D01*
X199310071Y-83947319D01*
X199346154Y-83949968D01*
X199381640Y-83953673D01*
X199416533Y-83958438D01*
X199450830Y-83964262D01*
X199484532Y-83971142D01*
X199517638Y-83979081D01*
X199550149Y-83988079D01*
X199582065Y-83998134D01*
X199613385Y-84009246D01*
X199644110Y-84021417D01*
X199674239Y-84034643D01*
X199703773Y-84048929D01*
X199732712Y-84064270D01*
X199761056Y-84080669D01*
X199788620Y-84097624D01*
X199815227Y-84115669D01*
X199840875Y-84134803D01*
X199865563Y-84155027D01*
X199889293Y-84176341D01*
X199912064Y-84198745D01*
X199933876Y-84222240D01*
X199954728Y-84246827D01*
X199974622Y-84272505D01*
X199993556Y-84299274D01*
X200011531Y-84327136D01*
X200028548Y-84356090D01*
X200044605Y-84386137D01*
X200059703Y-84417277D01*
X200073842Y-84449509D01*
X200087021Y-84482835D01*
X201246955Y-83902868D01*
X201246955Y-84618301D01*
X200163220Y-85134769D01*
X200163221Y-85596200D01*
X201246955Y-85596200D01*
X201246955Y-86239668D01*
X198292088Y-86239668D01*
X198292088Y-85596200D01*
X198850888Y-85596200D01*
X199621355Y-85596200D01*
X199621355Y-84918869D01*
X199621073Y-84901119D01*
X199620230Y-84883868D01*
X199618824Y-84867116D01*
X199616856Y-84850860D01*
X199614325Y-84835103D01*
X199611233Y-84819842D01*
X199607579Y-84805078D01*
X199603362Y-84790810D01*
X199598582Y-84777038D01*
X199593241Y-84763762D01*
X199587338Y-84750982D01*
X199580871Y-84738697D01*
X199573845Y-84726906D01*
X199566254Y-84715611D01*
X199558102Y-84704809D01*
X199549388Y-84694501D01*
X199539598Y-84684254D01*
X199529280Y-84674668D01*
X199518432Y-84665741D01*
X199507055Y-84657474D01*
X199495149Y-84649868D01*
X199482714Y-84642923D01*
X199469750Y-84636638D01*
X199456255Y-84631014D01*
X199442233Y-84626051D01*
X199427681Y-84621750D01*
X199412600Y-84618110D01*
X199396989Y-84615131D01*
X199380850Y-84612814D01*
X199364181Y-84611159D01*
X199346982Y-84610165D01*
X199329255Y-84609834D01*
X199142988Y-84609834D01*
X199125277Y-84610165D01*
X199108129Y-84611159D01*
X199091544Y-84612814D01*
X199075519Y-84615131D01*
X199060057Y-84618109D01*
X199045158Y-84621750D01*
X199030821Y-84626051D01*
X199017046Y-84631015D01*
X199003833Y-84636639D01*
X198991183Y-84642923D01*
X198979095Y-84649868D01*
X198967569Y-84657474D01*
X198956604Y-84665741D01*
X198946204Y-84674668D01*
X198936366Y-84684254D01*
X198927088Y-84694501D01*
X198917861Y-84704809D01*
X198909229Y-84715611D01*
X198901192Y-84726905D01*
X198893750Y-84738697D01*
X198886904Y-84750982D01*
X198880654Y-84763762D01*
X198874998Y-84777038D01*
X198869938Y-84790810D01*
X198865473Y-84805078D01*
X198861605Y-84819842D01*
X198858329Y-84835103D01*
X198855650Y-84850860D01*
X198853567Y-84867115D01*
X198852079Y-84883869D01*
X198851186Y-84901119D01*
X198850888Y-84918869D01*
X198850888Y-85596200D01*
X198292088Y-85596200D01*
X198292088Y-84838435D01*
G37*
G36*
X201246955Y-99296538D02*
G01*
X201246955Y-99940004D01*
X200036221Y-99940004D01*
X200036221Y-101066070D01*
X201246955Y-101066070D01*
X201246955Y-101709537D01*
X198292088Y-101709537D01*
X198292088Y-101066071D01*
X199468955Y-101066070D01*
X199468955Y-99940004D01*
X198292088Y-99940004D01*
X198292088Y-99296537D01*
X201246955Y-99296538D01*
G37*
D11*
%TO.C,K40*%
X161527799Y-106190528D02*
X162861299Y-106190528D01*
X162861299Y-104698528D02*
X162861299Y-106190528D01*
X161527799Y-104698528D02*
X162861299Y-104698528D01*
X161464299Y-104698528D02*
X161845299Y-104698528D01*
X161845299Y-104698528D02*
X161845299Y-106190528D01*
X161845299Y-106190528D02*
X161464299Y-106190528D01*
X161464299Y-106190528D02*
X161464299Y-104698528D01*
G36*
X161464299Y-104698528D02*
G01*
X161845299Y-104698528D01*
X161845299Y-106190528D01*
X161464299Y-106190528D01*
X161464299Y-104698528D01*
G37*
%TO.C,K50*%
X179527807Y-103900977D02*
X180861307Y-103900977D01*
X180861307Y-102408977D02*
X180861307Y-103900977D01*
X179527807Y-102408977D02*
X180861307Y-102408977D01*
X179464307Y-102408977D02*
X179845307Y-102408977D01*
X179845307Y-102408977D02*
X179845307Y-103900977D01*
X179845307Y-103900977D02*
X179464307Y-103900977D01*
X179464307Y-103900977D02*
X179464307Y-102408977D01*
G36*
X179464307Y-102408977D02*
G01*
X179845307Y-102408977D01*
X179845307Y-103900977D01*
X179464307Y-103900977D01*
X179464307Y-102408977D01*
G37*
%TO.C,K60*%
X195612215Y-125486274D02*
X194498946Y-124752208D01*
X196433533Y-124240681D02*
X195320263Y-123506615D01*
X194498946Y-124752208D02*
X195320263Y-123506615D01*
X195665228Y-125521230D02*
X195347151Y-125311497D01*
X195347151Y-125311497D02*
X196168468Y-124065904D01*
X196168468Y-124065904D02*
X196486545Y-124275638D01*
X196486545Y-124275638D02*
X195665228Y-125521230D01*
G36*
X195665228Y-125521230D02*
G01*
X195347151Y-125311497D01*
X196168468Y-124065904D01*
X196486545Y-124275638D01*
X195665228Y-125521230D01*
G37*
%TO.C,K31*%
X142230191Y-83138242D02*
X142346473Y-84625703D01*
X140900747Y-83242171D02*
X142230191Y-83138242D01*
X141017029Y-84729632D02*
X142346473Y-84625703D01*
X140837440Y-83247120D02*
X141217281Y-83217426D01*
X141217281Y-83217426D02*
X141333563Y-84704887D01*
X141333563Y-84704887D02*
X140953722Y-84734581D01*
X140953722Y-84734581D02*
X140837440Y-83247120D01*
G36*
X140837440Y-83247120D02*
G01*
X141217281Y-83217426D01*
X141333563Y-84704887D01*
X140953722Y-84734581D01*
X140837440Y-83247120D01*
G37*
%TO.C,K02*%
X75649690Y-76737983D02*
X76927613Y-76357018D01*
X76075937Y-78167800D02*
X77353860Y-77786835D01*
X76927613Y-76357018D02*
X77353860Y-77786835D01*
X75588836Y-76756124D02*
X75953957Y-76647277D01*
X75953957Y-76647277D02*
X76380204Y-78077094D01*
X76380204Y-78077094D02*
X76015083Y-78185942D01*
X76015083Y-78185942D02*
X75588836Y-76756124D01*
G36*
X75588836Y-76756124D02*
G01*
X75953957Y-76647277D01*
X76380204Y-78077094D01*
X76015083Y-78185942D01*
X75588836Y-76756124D01*
G37*
%TO.C,K43*%
X161527798Y-51130527D02*
X162861298Y-51130527D01*
X162861298Y-49638527D02*
X162861298Y-51130527D01*
X161527798Y-49638527D02*
X162861298Y-49638527D01*
X161464298Y-49638527D02*
X161845298Y-49638527D01*
X161845298Y-49638527D02*
X161845298Y-51130527D01*
X161845298Y-51130527D02*
X161464298Y-51130527D01*
X161464298Y-51130527D02*
X161464298Y-49638527D01*
G36*
X161464298Y-49638527D02*
G01*
X161845298Y-49638527D01*
X161845298Y-51130527D01*
X161464298Y-51130527D01*
X161464298Y-49638527D01*
G37*
%TO.C,K21*%
X121271418Y-89989718D02*
X122590748Y-89795837D01*
X121054493Y-88513572D02*
X122373823Y-88319691D01*
X122373823Y-88319691D02*
X122590748Y-89795837D01*
X120991667Y-88522804D02*
X121368619Y-88467410D01*
X121368619Y-88467410D02*
X121585544Y-89943556D01*
X121585544Y-89943556D02*
X121208593Y-89998951D01*
X121208593Y-89998951D02*
X120991667Y-88522804D01*
G36*
X120991667Y-88522804D02*
G01*
X121368619Y-88467410D01*
X121585544Y-89943556D01*
X121208593Y-89998951D01*
X120991667Y-88522804D01*
G37*
%TO.C,K53*%
X179527807Y-51348976D02*
X180861307Y-51348976D01*
X179527807Y-52840976D02*
X180861307Y-52840976D01*
X180861307Y-51348976D02*
X180861307Y-52840976D01*
X179464307Y-51348976D02*
X179845307Y-51348976D01*
X179845307Y-51348976D02*
X179845307Y-52840976D01*
X179845307Y-52840976D02*
X179464307Y-52840976D01*
X179464307Y-52840976D02*
X179464307Y-51348976D01*
G36*
X179464307Y-51348976D02*
G01*
X179845307Y-51348976D01*
X179845307Y-52840976D01*
X179464307Y-52840976D01*
X179464307Y-51348976D01*
G37*
%TO.C,K22*%
X118579914Y-71674426D02*
X119899244Y-71480545D01*
X118796839Y-73150572D02*
X120116169Y-72956691D01*
X119899244Y-71480545D02*
X120116169Y-72956691D01*
X118517088Y-71683658D02*
X118894040Y-71628264D01*
X118894040Y-71628264D02*
X119110965Y-73104410D01*
X119110965Y-73104410D02*
X118734014Y-73159805D01*
X118734014Y-73159805D02*
X118517088Y-71683658D01*
G36*
X118517088Y-71683658D02*
G01*
X118894040Y-71628264D01*
X119110965Y-73104410D01*
X118734014Y-73159805D01*
X118517088Y-71683658D01*
G37*
%TO.C,K01*%
X80512106Y-93048633D02*
X81790029Y-92667668D01*
X80938353Y-94478450D02*
X82216276Y-94097485D01*
X81790029Y-92667668D02*
X82216276Y-94097485D01*
X80451252Y-93066774D02*
X80816373Y-92957927D01*
X80816373Y-92957927D02*
X81242620Y-94387744D01*
X81242620Y-94387744D02*
X80877499Y-94496592D01*
X80877499Y-94496592D02*
X80451252Y-93066774D01*
G36*
X80451252Y-93066774D02*
G01*
X80816373Y-92957927D01*
X81242620Y-94387744D01*
X80877499Y-94496592D01*
X80451252Y-93066774D01*
G37*
%TO.C,K42*%
X161527799Y-66658528D02*
X162861299Y-66658528D01*
X161527799Y-68150528D02*
X162861299Y-68150528D01*
X162861299Y-66658528D02*
X162861299Y-68150528D01*
X161464299Y-66658528D02*
X161845299Y-66658528D01*
X161845299Y-66658528D02*
X161845299Y-68150528D01*
X161845299Y-68150528D02*
X161464299Y-68150528D01*
X161464299Y-68150528D02*
X161464299Y-66658528D01*
G36*
X161464299Y-66658528D02*
G01*
X161845299Y-66658528D01*
X161845299Y-68150528D01*
X161464299Y-68150528D01*
X161464299Y-66658528D01*
G37*
%TO.C,K12*%
X92899496Y-71595593D02*
X94177419Y-71214628D01*
X93325743Y-73025410D02*
X94603666Y-72644445D01*
X94177419Y-71214628D02*
X94603666Y-72644445D01*
X92838642Y-71613734D02*
X93203763Y-71504887D01*
X93203763Y-71504887D02*
X93630010Y-72934704D01*
X93630010Y-72934704D02*
X93264889Y-73043552D01*
X93264889Y-73043552D02*
X92838642Y-71613734D01*
G36*
X92838642Y-71613734D02*
G01*
X93203763Y-71504887D01*
X93630010Y-72934704D01*
X93264889Y-73043552D01*
X92838642Y-71613734D01*
G37*
%TO.C,K41*%
X161527800Y-85170528D02*
X162861300Y-85170528D01*
X161527800Y-83678528D02*
X162861300Y-83678528D01*
X162861300Y-83678528D02*
X162861300Y-85170528D01*
X161464300Y-83678528D02*
X161845300Y-83678528D01*
X161845300Y-83678528D02*
X161845300Y-85170528D01*
X161845300Y-85170528D02*
X161464300Y-85170528D01*
X161464300Y-85170528D02*
X161464300Y-83678528D01*
G36*
X161464300Y-83678528D02*
G01*
X161845300Y-83678528D01*
X161845300Y-85170528D01*
X161464300Y-85170528D01*
X161464300Y-83678528D01*
G37*
%TO.C,K11*%
X99039835Y-87525278D02*
X99466082Y-88955095D01*
X97761912Y-87906243D02*
X99039835Y-87525278D01*
X98188159Y-89336060D02*
X99466082Y-88955095D01*
X97701058Y-87924384D02*
X98066179Y-87815537D01*
X98066179Y-87815537D02*
X98492426Y-89245354D01*
X98492426Y-89245354D02*
X98127305Y-89354202D01*
X98127305Y-89354202D02*
X97701058Y-87924384D01*
G36*
X97701058Y-87924384D02*
G01*
X98066179Y-87815537D01*
X98492426Y-89245354D01*
X98127305Y-89354202D01*
X97701058Y-87924384D01*
G37*
%TO.C,K51*%
X179527807Y-86880978D02*
X180861307Y-86880978D01*
X180861307Y-85388978D02*
X180861307Y-86880978D01*
X179527807Y-85388978D02*
X180861307Y-85388978D01*
X179464307Y-85388978D02*
X179845307Y-85388978D01*
X179845307Y-85388978D02*
X179845307Y-86880978D01*
X179845307Y-86880978D02*
X179464307Y-86880978D01*
X179464307Y-86880978D02*
X179464307Y-85388978D01*
G36*
X179464307Y-85388978D02*
G01*
X179845307Y-85388978D01*
X179845307Y-86880978D01*
X179464307Y-86880978D01*
X179464307Y-85388978D01*
G37*
%TO.C,K33*%
X139577211Y-49201783D02*
X139693493Y-50689244D01*
X138364049Y-50793173D02*
X139693493Y-50689244D01*
X138247767Y-49305712D02*
X139577211Y-49201783D01*
X138184460Y-49310661D02*
X138564301Y-49280967D01*
X138564301Y-49280967D02*
X138680583Y-50768428D01*
X138680583Y-50768428D02*
X138300742Y-50798122D01*
X138300742Y-50798122D02*
X138184460Y-49310661D01*
G36*
X138184460Y-49310661D02*
G01*
X138564301Y-49280967D01*
X138680583Y-50768428D01*
X138300742Y-50798122D01*
X138184460Y-49310661D01*
G37*
%TO.C,K00*%
X89045636Y-119451089D02*
X87767713Y-119832054D01*
X87767713Y-119832054D02*
X87341466Y-118402237D01*
X88619389Y-118021272D02*
X87341466Y-118402237D01*
X89106490Y-119432948D02*
X88741369Y-119541795D01*
X88741369Y-119541795D02*
X88315122Y-118111978D01*
X88315122Y-118111978D02*
X88680243Y-118003130D01*
X88680243Y-118003130D02*
X89106490Y-119432948D01*
G36*
X89106490Y-119432948D02*
G01*
X88741369Y-119541795D01*
X88315122Y-118111978D01*
X88680243Y-118003130D01*
X89106490Y-119432948D01*
G37*
%TO.C,JP4*%
X195333940Y-66285120D02*
X198133940Y-66285120D01*
X195333940Y-68285120D02*
X195333940Y-66285120D01*
X198133940Y-66285120D02*
X198133940Y-68285120D01*
X198133940Y-68285120D02*
X195333940Y-68285120D01*
%TO.C,K20*%
X123745995Y-106828866D02*
X125065325Y-106634985D01*
X124848400Y-105158839D02*
X125065325Y-106634985D01*
X123529070Y-105352720D02*
X124848400Y-105158839D01*
X123466244Y-105361952D02*
X123843196Y-105306558D01*
X123843196Y-105306558D02*
X124060121Y-106782704D01*
X124060121Y-106782704D02*
X123683170Y-106838099D01*
X123683170Y-106838099D02*
X123466244Y-105361952D01*
G36*
X123466244Y-105361952D02*
G01*
X123843196Y-105306558D01*
X124060121Y-106782704D01*
X123683170Y-106838099D01*
X123466244Y-105361952D01*
G37*
%TO.C,K32*%
X139690540Y-67761402D02*
X141019984Y-67657473D01*
X140903702Y-66170012D02*
X141019984Y-67657473D01*
X139574258Y-66273941D02*
X140903702Y-66170012D01*
X139510951Y-66278890D02*
X139890792Y-66249196D01*
X139890792Y-66249196D02*
X140007074Y-67736657D01*
X140007074Y-67736657D02*
X139627233Y-67766351D01*
X139627233Y-67766351D02*
X139510951Y-66278890D01*
G36*
X139510951Y-66278890D02*
G01*
X139890792Y-66249196D01*
X140007074Y-67736657D01*
X139627233Y-67766351D01*
X139510951Y-66278890D01*
G37*
%TO.C,K23*%
X116105336Y-54835280D02*
X117424666Y-54641399D01*
X116322261Y-56311426D02*
X117641591Y-56117545D01*
X117424666Y-54641399D02*
X117641591Y-56117545D01*
X116042510Y-54844512D02*
X116419462Y-54789118D01*
X116419462Y-54789118D02*
X116636387Y-56265264D01*
X116636387Y-56265264D02*
X116259436Y-56320659D01*
X116259436Y-56320659D02*
X116042510Y-54844512D01*
G36*
X116042510Y-54844512D02*
G01*
X116419462Y-54789118D01*
X116636387Y-56265264D01*
X116259436Y-56320659D01*
X116042510Y-54844512D01*
G37*
%TO.C,K30*%
X142793497Y-109922853D02*
X144122941Y-109818924D01*
X142677215Y-108435392D02*
X144006659Y-108331463D01*
X144006659Y-108331463D02*
X144122941Y-109818924D01*
X142613908Y-108440341D02*
X142993749Y-108410647D01*
X142993749Y-108410647D02*
X143110031Y-109898108D01*
X143110031Y-109898108D02*
X142730190Y-109927802D01*
X142730190Y-109927802D02*
X142613908Y-108440341D01*
G36*
X142613908Y-108440341D02*
G01*
X142993749Y-108410647D01*
X143110031Y-109898108D01*
X142730190Y-109927802D01*
X142613908Y-108440341D01*
G37*
%TO.C,K10*%
X102624329Y-104216893D02*
X103902252Y-103835928D01*
X103050576Y-105646710D02*
X104328499Y-105265745D01*
X103902252Y-103835928D02*
X104328499Y-105265745D01*
X102563475Y-104235034D02*
X102928596Y-104126187D01*
X102928596Y-104126187D02*
X103354843Y-105556004D01*
X103354843Y-105556004D02*
X102989722Y-105664852D01*
X102989722Y-105664852D02*
X102563475Y-104235034D01*
G36*
X102563475Y-104235034D02*
G01*
X102928596Y-104126187D01*
X103354843Y-105556004D01*
X102989722Y-105664852D01*
X102563475Y-104235034D01*
G37*
%TO.C,JP1*%
X198133940Y-64983120D02*
X195333940Y-64983120D01*
X198133940Y-62983120D02*
X198133940Y-64983120D01*
X195333940Y-62983120D02*
X198133940Y-62983120D01*
X195333940Y-64983120D02*
X195333940Y-62983120D01*
%TO.C,K52*%
X179527808Y-69860976D02*
X180861308Y-69860976D01*
X179527808Y-68368976D02*
X180861308Y-68368976D01*
X180861308Y-68368976D02*
X180861308Y-69860976D01*
X179464308Y-68368976D02*
X179845308Y-68368976D01*
X179845308Y-68368976D02*
X179845308Y-69860976D01*
X179845308Y-69860976D02*
X179464308Y-69860976D01*
X179464308Y-69860976D02*
X179464308Y-68368976D01*
G36*
X179464308Y-68368976D02*
G01*
X179845308Y-68368976D01*
X179845308Y-69860976D01*
X179464308Y-69860976D01*
X179464308Y-68368976D01*
G37*
%TD*%
M02*
