M48
; DRILL file {KiCad 6.0.11-2627ca5db0~126~ubuntu22.04.1} date Wed 24 May 2023 12:13:46 AM CDT
; FORMAT={-:-/ absolute / metric / decimal}
; #@! TF.CreationDate,2023-05-24T00:13:46-05:00
; #@! TF.GenerationSoftware,Kicad,Pcbnew,6.0.11-2627ca5db0~126~ubuntu22.04.1
; #@! TF.FileFunction,Plated,1,2,PTH
FMAT,2
METRIC
; #@! TA.AperFunction,Plated,PTH,ViaDrill
T1C0.400
; #@! TA.AperFunction,Plated,PTH,ComponentDrill
T2C0.400
; #@! TA.AperFunction,Plated,PTH,ComponentDrill
T3C0.750
; #@! TA.AperFunction,Plated,PTH,ComponentDrill
T4C0.800
; #@! TA.AperFunction,Plated,PTH,ComponentDrill
T5C1.100
%
G90
G05
T1
X137.284Y-52.671
X166.6Y-97.613
X166.6Y-100.788
X183.11Y-98.883
X183.11Y-100.153
X185.015Y-100.153
X185.015Y-98.883
X197.08Y-76.658
X197.08Y-81.738
X197.08Y-89.358
X197.08Y-94.438
X197.08Y-99.518
X197.08Y-104.598
X197.08Y-79.198
X197.08Y-84.278
X197.08Y-86.818
X197.08Y-91.898
X197.08Y-96.978
X197.08Y-102.058
X197.715Y-74.118
X201.525Y-88.088
X201.525Y-93.168
X201.525Y-98.248
X201.525Y-103.328
X201.525Y-77.928
X201.525Y-80.468
X201.525Y-83.008
X201.525Y-85.548
X201.525Y-90.628
X201.525Y-95.708
X201.525Y-100.788
X202.16Y-69.673
X202.16Y-74.118
X202.767Y-65.823
X207.313Y-66.559
T2
X75.448Y-77.576
X77.557Y-76.948
X78.249Y-84.347
X80.311Y-93.887
X82.419Y-93.259
X83.112Y-100.658
X86.446Y-111.842
X87.139Y-119.241
X89.247Y-118.613
X92.698Y-72.434
X94.806Y-71.806
X95.499Y-79.205
X97.561Y-88.745
X99.669Y-88.116
X100.362Y-95.516
X102.423Y-105.055
X104.531Y-104.427
X105.224Y-111.826
X115.786Y-55.636
X117.588Y-62.739
X117.963Y-55.316
X118.26Y-72.475
X120.062Y-79.578
X120.437Y-72.156
X120.735Y-89.315
X122.537Y-96.417
X122.912Y-88.995
X123.21Y-106.154
X125.011Y-113.256
X125.386Y-105.834
X137.875Y-50.083
X139.191Y-57.292
X139.201Y-67.051
X140.068Y-49.912
X140.517Y-74.26
X140.528Y-84.02
X141.395Y-66.88
X141.844Y-91.228
X142.304Y-109.213
X142.721Y-83.848
X143.62Y-116.421
X144.497Y-109.041
X161.095Y-50.385
X161.095Y-67.405
X161.095Y-105.445
X161.095Y-84.425
X161.845Y-57.674
X161.845Y-74.694
X161.845Y-112.734
X161.845Y-91.714
X163.295Y-50.385
X163.295Y-67.405
X163.295Y-105.445
X163.295Y-84.425
X179.095Y-52.095
X179.095Y-86.135
X179.095Y-103.155
X179.095Y-69.115
X179.845Y-59.384
X179.845Y-93.424
X179.845Y-110.444
X179.845Y-76.404
X181.295Y-52.095
X181.295Y-86.135
X181.295Y-103.155
X181.295Y-69.115
X194.547Y-123.891
X196.384Y-125.102
X199.77Y-118.603
T3
X192.876Y-64.532
X192.876Y-66.532
T4
X191.849Y-76.143
X191.849Y-78.683
X191.849Y-81.223
X191.849Y-83.763
X191.849Y-86.303
X191.849Y-88.843
X191.849Y-91.383
X191.849Y-93.923
X191.849Y-96.463
X191.849Y-99.003
X191.849Y-101.543
X191.849Y-104.083
X207.089Y-76.143
X207.089Y-78.683
X207.089Y-81.223
X207.089Y-83.763
X207.089Y-86.303
X207.089Y-88.843
X207.089Y-91.383
X207.089Y-93.923
X207.089Y-96.463
X207.089Y-99.003
X207.089Y-101.543
X207.089Y-104.083
T5
X139.165Y-99.389
X139.516Y-103.876
X145.645Y-98.883
X145.996Y-103.369
T0
M30
