%TF.GenerationSoftware,KiCad,Pcbnew,(6.0.5)*%
%TF.CreationDate,2023-05-21T00:40:20-05:00*%
%TF.ProjectId,pcb,7063622e-6b69-4636-9164-5f7063625858,rev?*%
%TF.SameCoordinates,Original*%
%TF.FileFunction,Copper,L1,Top*%
%TF.FilePolarity,Positive*%
%FSLAX46Y46*%
G04 Gerber Fmt 4.6, Leading zero omitted, Abs format (unit mm)*
G04 Created by KiCad (PCBNEW (6.0.5)) date 2023-05-21 00:40:20*
%MOMM*%
%LPD*%
G01*
G04 APERTURE LIST*
G04 Aperture macros list*
%AMRoundRect*
0 Rectangle with rounded corners*
0 $1 Rounding radius*
0 $2 $3 $4 $5 $6 $7 $8 $9 X,Y pos of 4 corners*
0 Add a 4 corners polygon primitive as box body*
4,1,4,$2,$3,$4,$5,$6,$7,$8,$9,$2,$3,0*
0 Add four circle primitives for the rounded corners*
1,1,$1+$1,$2,$3*
1,1,$1+$1,$4,$5*
1,1,$1+$1,$6,$7*
1,1,$1+$1,$8,$9*
0 Add four rect primitives between the rounded corners*
20,1,$1+$1,$2,$3,$4,$5,0*
20,1,$1+$1,$4,$5,$6,$7,0*
20,1,$1+$1,$6,$7,$8,$9,0*
20,1,$1+$1,$8,$9,$2,$3,0*%
%AMRotRect*
0 Rectangle, with rotation*
0 The origin of the aperture is its center*
0 $1 length*
0 $2 width*
0 $3 Rotation angle, in degrees counterclockwise*
0 Add horizontal line*
21,1,$1,$2,0,0,$3*%
%AMFreePoly0*
4,1,11,-9.025000,7.692620,-1.188613,1.300000,1.300000,1.300000,1.300000,-1.300000,-1.300000,-1.300000,-1.300000,0.730114,-9.616019,7.514000,-11.418000,7.514000,-11.418000,9.214000,-9.025000,9.214000,-9.025000,7.692620,-9.025000,7.692620,$1*%
%AMFreePoly1*
4,1,39,3.372967,3.511513,3.456019,3.456019,3.511513,3.372967,3.531000,3.275000,3.511513,3.177033,3.456019,3.093981,3.372967,3.038487,3.275000,3.019000,3.258515,3.022279,2.958996,3.006582,2.646453,2.957080,2.340797,2.875180,2.045377,2.761779,1.763428,2.618119,1.498041,2.445774,1.252122,2.246633,1.028367,2.022878,0.829226,1.776959,0.656881,1.511572,0.549080,1.300000,
1.300000,1.300000,1.300000,-1.300000,-1.300000,-1.300000,-1.300000,1.300000,-0.005558,1.300000,0.012781,1.351255,0.160936,1.664502,0.339081,1.961718,0.545500,2.240043,0.778206,2.496794,1.034957,2.729500,1.313282,2.935919,1.610498,3.114064,1.923745,3.262219,2.250005,3.378956,2.586136,3.463153,2.928901,3.513997,3.275000,3.531000,3.372967,3.511513,3.372967,3.511513,
$1*%
%AMFreePoly2*
4,1,15,0.500000,0.127000,2.540000,0.127000,2.576070,0.121770,2.636138,0.082984,2.665733,0.017894,2.655473,-0.052868,2.608611,-0.106872,2.540000,-0.127000,0.500000,-0.127000,0.500000,-0.750000,-0.500000,-0.750000,-1.000000,0.000000,-0.500000,0.750000,0.500000,0.750000,0.500000,0.127000,0.500000,0.127000,$1*%
%AMFreePoly3*
4,1,6,0.150000,0.000000,0.650000,-0.750000,-0.500000,-0.750000,-0.500000,0.750000,0.650000,0.750000,0.150000,0.000000,0.150000,0.000000,$1*%
%AMFreePoly4*
4,1,6,1.000000,0.000000,0.500000,-0.750000,-0.500000,-0.750000,-0.500000,0.750000,0.500000,0.750000,1.000000,0.000000,1.000000,0.000000,$1*%
%AMFreePoly5*
4,1,6,0.500000,-0.750000,-0.650000,-0.750000,-0.150000,0.000000,-0.650000,0.750000,0.500000,0.750000,0.500000,-0.750000,0.500000,-0.750000,$1*%
G04 Aperture macros list end*
%TA.AperFunction,ComponentPad*%
%ADD10C,0.600000*%
%TD*%
%TA.AperFunction,SMDPad,CuDef*%
%ADD11FreePoly0,0.000000*%
%TD*%
%TA.AperFunction,SMDPad,CuDef*%
%ADD12FreePoly1,0.000000*%
%TD*%
%TA.AperFunction,SMDPad,CuDef*%
%ADD13R,2.456000X1.700000*%
%TD*%
%TA.AperFunction,SMDPad,CuDef*%
%ADD14FreePoly0,326.600000*%
%TD*%
%TA.AperFunction,SMDPad,CuDef*%
%ADD15FreePoly1,326.600000*%
%TD*%
%TA.AperFunction,SMDPad,CuDef*%
%ADD16RotRect,2.456000X1.700000X326.600000*%
%TD*%
%TA.AperFunction,ComponentPad*%
%ADD17O,1.600000X1.600000*%
%TD*%
%TA.AperFunction,SMDPad,CuDef*%
%ADD18FreePoly2,0.000000*%
%TD*%
%TA.AperFunction,SMDPad,CuDef*%
%ADD19FreePoly2,180.000000*%
%TD*%
%TA.AperFunction,ComponentPad*%
%ADD20R,1.600000X1.600000*%
%TD*%
%TA.AperFunction,SMDPad,CuDef*%
%ADD21FreePoly3,0.000000*%
%TD*%
%TA.AperFunction,SMDPad,CuDef*%
%ADD22FreePoly3,180.000000*%
%TD*%
%TA.AperFunction,SMDPad,CuDef*%
%ADD23RotRect,1.250000X2.500000X101.200000*%
%TD*%
%TA.AperFunction,SMDPad,CuDef*%
%ADD24FreePoly0,10.600000*%
%TD*%
%TA.AperFunction,SMDPad,CuDef*%
%ADD25FreePoly1,10.600000*%
%TD*%
%TA.AperFunction,SMDPad,CuDef*%
%ADD26RotRect,2.456000X1.700000X10.600000*%
%TD*%
%TA.AperFunction,SMDPad,CuDef*%
%ADD27FreePoly0,4.470000*%
%TD*%
%TA.AperFunction,SMDPad,CuDef*%
%ADD28FreePoly1,4.470000*%
%TD*%
%TA.AperFunction,SMDPad,CuDef*%
%ADD29RotRect,2.456000X1.700000X4.470000*%
%TD*%
%TA.AperFunction,SMDPad,CuDef*%
%ADD30FreePoly0,8.360000*%
%TD*%
%TA.AperFunction,SMDPad,CuDef*%
%ADD31FreePoly1,8.360000*%
%TD*%
%TA.AperFunction,SMDPad,CuDef*%
%ADD32RotRect,2.456000X1.700000X8.360000*%
%TD*%
%TA.AperFunction,ComponentPad*%
%ADD33RoundRect,0.250000X0.350000X0.625000X-0.350000X0.625000X-0.350000X-0.625000X0.350000X-0.625000X0*%
%TD*%
%TA.AperFunction,ComponentPad*%
%ADD34O,1.200000X1.750000*%
%TD*%
%TA.AperFunction,SMDPad,CuDef*%
%ADD35FreePoly4,180.000000*%
%TD*%
%TA.AperFunction,SMDPad,CuDef*%
%ADD36FreePoly5,180.000000*%
%TD*%
%TA.AperFunction,ComponentPad*%
%ADD37C,2.000000*%
%TD*%
%TA.AperFunction,ViaPad*%
%ADD38C,0.800000*%
%TD*%
%TA.AperFunction,Conductor*%
%ADD39C,0.250000*%
%TD*%
%TA.AperFunction,Conductor*%
%ADD40C,1.000000*%
%TD*%
G04 APERTURE END LIST*
D10*
%TO.P,K40,*%
%TO.N,*%
X150070053Y-104986642D03*
D11*
X159095053Y-113350642D03*
D12*
%TO.P,K40,1,A*%
%TO.N,Col4*%
X147545053Y-115550642D03*
D10*
X150820053Y-112275642D03*
D13*
%TO.P,K40,2,B*%
%TO.N,Row0*%
X153498053Y-104986642D03*
D10*
X152270053Y-104986642D03*
%TD*%
D11*
%TO.P,K50,*%
%TO.N,*%
X177095061Y-111061091D03*
D10*
X168070061Y-102697091D03*
%TO.P,K50,1,A*%
%TO.N,Col5*%
X168820061Y-109986091D03*
D12*
X165545061Y-113261091D03*
D10*
%TO.P,K50,2,B*%
%TO.N,Row0*%
X170270061Y-102697091D03*
D13*
X171498061Y-102697091D03*
%TD*%
D10*
%TO.P,K60,*%
%TO.N,*%
X189186264Y-116113977D03*
D14*
X192116545Y-128064734D03*
D10*
%TO.P,K60,1,A*%
%TO.N,Col6*%
X185799946Y-122612044D03*
D15*
X181262995Y-123543346D03*
D16*
%TO.P,K60,2,B*%
%TO.N,Row0*%
X192048123Y-118001025D03*
D10*
X191022930Y-117325035D03*
%TD*%
D17*
%TO.P,U1,*%
%TO.N,*%
X180823676Y-96005284D03*
D18*
X193703676Y-90925284D03*
D17*
X196063676Y-101085284D03*
D18*
X193703676Y-83305284D03*
D17*
X180823676Y-93465284D03*
D18*
X193703676Y-96005284D03*
D19*
X183183676Y-103625284D03*
X183183676Y-90925284D03*
D17*
X196063676Y-83305284D03*
D18*
X193703676Y-88385284D03*
D19*
X183183676Y-75685284D03*
D18*
X193703676Y-80765284D03*
D19*
X183194001Y-85832943D03*
D18*
X193703676Y-98545284D03*
D17*
X196063676Y-98545284D03*
X180823676Y-101085284D03*
X180823676Y-85845284D03*
D19*
X183183676Y-83305284D03*
D18*
X193703676Y-78225284D03*
D17*
X180823676Y-78225284D03*
X196063676Y-90925284D03*
X180823676Y-103625284D03*
X196063676Y-78225284D03*
D19*
X183108676Y-98545284D03*
X183183676Y-78225284D03*
D20*
X180823676Y-75685284D03*
D19*
X183183676Y-88385284D03*
D17*
X196063676Y-103625284D03*
X196063676Y-80765284D03*
D18*
X193703676Y-75685284D03*
D17*
X180823676Y-80765284D03*
X196063676Y-96005284D03*
D18*
X193703676Y-85845284D03*
D19*
X183183676Y-80765284D03*
D17*
X180823676Y-98545284D03*
D18*
X193703676Y-93465284D03*
D19*
X183183676Y-93465284D03*
D17*
X196063676Y-85845284D03*
X196063676Y-93465284D03*
D18*
X193703676Y-103625284D03*
D17*
X180823676Y-83305284D03*
X180823676Y-88385284D03*
X180823676Y-90925284D03*
X196063676Y-88385284D03*
X196063676Y-75685284D03*
D18*
X193703676Y-101085284D03*
D19*
X183183676Y-96005284D03*
X183183676Y-101085284D03*
D21*
%TO.P,U1,1,TX0/P0.06*%
%TO.N,unconnected-(U1-Pad1)*%
X192253676Y-75685284D03*
%TO.P,U1,2,RX1/P0.08*%
%TO.N,unconnected-(U1-Pad2)*%
X192253676Y-78225284D03*
%TO.P,U1,3,GND*%
%TO.N,GND*%
X192253676Y-80765284D03*
%TO.P,U1,4,GND*%
X192253676Y-83305284D03*
%TO.P,U1,5,P0.17*%
%TO.N,unconnected-(U1-Pad5)*%
X192253676Y-85845284D03*
%TO.P,U1,6,P0.20*%
%TO.N,unconnected-(U1-Pad6)*%
X192253676Y-88385284D03*
%TO.P,U1,7,P0.22*%
%TO.N,unconnected-(U1-Pad7)*%
X192253676Y-90925284D03*
%TO.P,U1,8,P0.24*%
%TO.N,unconnected-(U1-Pad8)*%
X192253676Y-93465284D03*
%TO.P,U1,9,P1.00*%
%TO.N,Row3*%
X192253676Y-96005284D03*
%TO.P,U1,10,P0.11*%
%TO.N,Row2*%
X192253676Y-98545284D03*
%TO.P,U1,11,P1.04*%
%TO.N,Row1*%
X192253676Y-101085284D03*
%TO.P,U1,12,P1.06*%
%TO.N,Row0*%
X192253676Y-103625284D03*
D22*
%TO.P,U1,13,NFC1/P0.09*%
%TO.N,unconnected-(U1-Pad13)*%
X184633676Y-103625284D03*
%TO.P,U1,14,NFC2/P0.10*%
%TO.N,Col6*%
X184633676Y-101085284D03*
%TO.P,U1,15,P1.11*%
%TO.N,Col0*%
X184558676Y-98545284D03*
%TO.P,U1,16,P1.13*%
%TO.N,Col1*%
X184633676Y-96005284D03*
%TO.P,U1,17,P1.15*%
%TO.N,Col2*%
X184633676Y-93465284D03*
%TO.P,U1,18,AIN0/P0.02*%
%TO.N,Col3*%
X184633676Y-90925284D03*
%TO.P,U1,19,AIN5/P0.29*%
%TO.N,Col4*%
X184633676Y-88385284D03*
%TO.P,U1,20,AIN7/P0.31*%
%TO.N,Col5*%
X184644001Y-85832943D03*
%TO.P,U1,21,VCC*%
%TO.N,unconnected-(U1-Pad21)*%
X184633676Y-83305284D03*
%TO.P,U1,22,RST*%
%TO.N,Net-(U1-Pad22)*%
X184633676Y-80765284D03*
%TO.P,U1,23,GND*%
%TO.N,GND*%
X184633676Y-78225284D03*
%TO.P,U1,24,BATIN/P0.04*%
%TO.N,Net-(U1-Pad24)*%
X184633676Y-75685284D03*
%TD*%
D23*
%TO.P,SW2,1,A*%
%TO.N,GND*%
X194075591Y-67817585D03*
%TO.P,SW2,2,B*%
%TO.N,Net-(SW2-Pad2)*%
X193590005Y-65365197D03*
%TO.P,SW2,3,C*%
%TO.N,unconnected-(SW2-Pad3)*%
X193104419Y-62912810D03*
%TD*%
D10*
%TO.P,K03,*%
%TO.N,*%
X68088459Y-69133950D03*
D24*
X78498020Y-75695060D03*
D10*
%TO.P,K03,1,A*%
%TO.N,Col0*%
X70166482Y-76160602D03*
D25*
X67549809Y-79982156D03*
D10*
%TO.P,K03,2,B*%
%TO.N,Row3*%
X70250917Y-68729257D03*
D26*
X71457961Y-68503365D03*
%TD*%
D10*
%TO.P,K31,*%
%TO.N,*%
X129502458Y-83561723D03*
D27*
X139151872Y-91196900D03*
D28*
%TO.P,K31,1,A*%
%TO.N,Col3*%
X127808465Y-94290382D03*
D10*
X130818260Y-90770099D03*
D29*
%TO.P,K31,2,B*%
%TO.N,Row1*%
X132920030Y-83294555D03*
D10*
X131695766Y-83390262D03*
%TD*%
%TO.P,K02,*%
%TO.N,*%
X71219310Y-85863508D03*
D24*
X81628871Y-92424618D03*
D25*
%TO.P,K02,1,A*%
%TO.N,Col0*%
X70680660Y-96711714D03*
D10*
X73297333Y-92890160D03*
D26*
%TO.P,K02,2,B*%
%TO.N,Row2*%
X74588812Y-85232923D03*
D10*
X73381768Y-85458815D03*
%TD*%
D11*
%TO.P,K43,*%
%TO.N,*%
X159095052Y-58290641D03*
D10*
X150070052Y-49926641D03*
%TO.P,K43,1,A*%
%TO.N,Col4*%
X150820052Y-57215641D03*
D12*
X147545052Y-60490641D03*
D10*
%TO.P,K43,2,B*%
%TO.N,Row3*%
X152270052Y-49926641D03*
D13*
X153498052Y-49926641D03*
%TD*%
D10*
%TO.P,K21,*%
%TO.N,*%
X109709804Y-88856641D03*
D30*
X119854967Y-95819600D03*
D31*
%TO.P,K21,1,A*%
%TO.N,Col2*%
X108747559Y-99675505D03*
D10*
X111511600Y-95959145D03*
D32*
%TO.P,K21,2,B*%
%TO.N,Row1*%
X113101378Y-88358236D03*
D10*
X111886427Y-88536778D03*
%TD*%
%TO.P,K53,*%
%TO.N,*%
X168070060Y-51637090D03*
D11*
X177095060Y-60001090D03*
D12*
%TO.P,K53,1,A*%
%TO.N,Col5*%
X165545060Y-62201090D03*
D10*
X168820060Y-58926090D03*
D13*
%TO.P,K53,2,B*%
%TO.N,Row3*%
X171498060Y-51637090D03*
D10*
X170270060Y-51637090D03*
%TD*%
%TO.P,K22,*%
%TO.N,*%
X107235225Y-72017495D03*
D30*
X117380388Y-78980454D03*
D10*
%TO.P,K22,1,A*%
%TO.N,Col2*%
X109037021Y-79119999D03*
D31*
X106272980Y-82836359D03*
D32*
%TO.P,K22,2,B*%
%TO.N,Row2*%
X110626799Y-71519090D03*
D10*
X109411848Y-71697632D03*
%TD*%
%TO.P,K01,*%
%TO.N,*%
X74350162Y-102593068D03*
D24*
X84759723Y-109154178D03*
D10*
%TO.P,K01,1,A*%
%TO.N,Col0*%
X76428185Y-109619720D03*
D25*
X73811512Y-113441274D03*
D10*
%TO.P,K01,2,B*%
%TO.N,Row1*%
X76512620Y-102188375D03*
D26*
X77719664Y-101962483D03*
%TD*%
D10*
%TO.P,K42,*%
%TO.N,*%
X150070052Y-66946642D03*
D11*
X159095052Y-75310642D03*
D10*
%TO.P,K42,1,A*%
%TO.N,Col4*%
X150820052Y-74235642D03*
D12*
X147545052Y-77510642D03*
D10*
%TO.P,K42,2,B*%
%TO.N,Row2*%
X152270052Y-66946642D03*
D13*
X153498052Y-66946642D03*
%TD*%
D24*
%TO.P,K12,*%
%TO.N,*%
X99008991Y-87442504D03*
D10*
X88599430Y-80881394D03*
D25*
%TO.P,K12,1,A*%
%TO.N,Col1*%
X88060780Y-91729600D03*
D10*
X90677453Y-87908046D03*
D26*
%TO.P,K12,2,B*%
%TO.N,Row2*%
X91968932Y-80250809D03*
D10*
X90761888Y-80476701D03*
%TD*%
D33*
%TO.P,J1,1,Pin_1*%
%TO.N,Net-(J1-Pad1)*%
X183547633Y-69186054D03*
D34*
%TO.P,J1,2,Pin_2*%
%TO.N,Net-(J1-Pad2)*%
X181547633Y-69186054D03*
%TD*%
D11*
%TO.P,K41,*%
%TO.N,*%
X159095053Y-92330642D03*
D10*
X150070053Y-83966642D03*
D12*
%TO.P,K41,1,A*%
%TO.N,Col4*%
X147545053Y-94530642D03*
D10*
X150820053Y-91255642D03*
D13*
%TO.P,K41,2,B*%
%TO.N,Row1*%
X153498053Y-83966642D03*
D10*
X152270053Y-83966642D03*
%TD*%
D24*
%TO.P,K11,*%
%TO.N,*%
X102139843Y-104172065D03*
D10*
X91730282Y-97610955D03*
%TO.P,K11,1,A*%
%TO.N,Col1*%
X93808305Y-104637607D03*
D25*
X91191632Y-108459161D03*
D10*
%TO.P,K11,2,B*%
%TO.N,Row1*%
X93892740Y-97206262D03*
D26*
X95099784Y-96980370D03*
%TD*%
D11*
%TO.P,K51,*%
%TO.N,*%
X177095061Y-94041091D03*
D10*
X168070061Y-85677091D03*
%TO.P,K51,1,A*%
%TO.N,Col5*%
X168820061Y-92966091D03*
D12*
X165545061Y-96241091D03*
D13*
%TO.P,K51,2,B*%
%TO.N,Row1*%
X171498061Y-85677091D03*
D10*
X170270061Y-85677091D03*
%TD*%
D27*
%TO.P,K33,*%
%TO.N,*%
X136498892Y-57260441D03*
D10*
X126849478Y-49625264D03*
%TO.P,K33,1,A*%
%TO.N,Col3*%
X128165280Y-56833640D03*
D28*
X125155485Y-60353923D03*
D10*
%TO.P,K33,2,B*%
%TO.N,Row3*%
X129042786Y-49453803D03*
D29*
X130267050Y-49358096D03*
%TD*%
D24*
%TO.P,K00,*%
%TO.N,*%
X87890574Y-125883737D03*
D10*
X77481013Y-119322627D03*
%TO.P,K00,1,A*%
%TO.N,Col0*%
X79559036Y-126349279D03*
D25*
X76942363Y-130170833D03*
D10*
%TO.P,K00,2,B*%
%TO.N,Row0*%
X79643471Y-118917934D03*
D26*
X80850515Y-118692042D03*
%TD*%
D35*
%TO.P,JP4,1,A*%
%TO.N,Net-(U1-Pad24)*%
X188685000Y-68580000D03*
D36*
%TO.P,JP4,2,B*%
%TO.N,Net-(J1-Pad2)*%
X187235000Y-68580000D03*
%TD*%
D30*
%TO.P,K20,*%
%TO.N,*%
X122329545Y-112658748D03*
D10*
X112184382Y-105695789D03*
D31*
%TO.P,K20,1,A*%
%TO.N,Col2*%
X111222137Y-116514653D03*
D10*
X113986178Y-112798293D03*
D32*
%TO.P,K20,2,B*%
%TO.N,Row0*%
X115575956Y-105197384D03*
D10*
X114361005Y-105375926D03*
%TD*%
%TO.P,K32,*%
%TO.N,*%
X128175968Y-66593493D03*
D27*
X137825382Y-74228670D03*
D10*
%TO.P,K32,1,A*%
%TO.N,Col3*%
X129491770Y-73801869D03*
D28*
X126481975Y-77322152D03*
D10*
%TO.P,K32,2,B*%
%TO.N,Row2*%
X130369276Y-66422032D03*
D29*
X131593540Y-66326325D03*
%TD*%
D24*
%TO.P,K13,*%
%TO.N,*%
X95878138Y-70712944D03*
D10*
X85468577Y-64151834D03*
%TO.P,K13,1,A*%
%TO.N,Col1*%
X87546600Y-71178486D03*
D25*
X84929927Y-75000040D03*
D10*
%TO.P,K13,2,B*%
%TO.N,Row3*%
X87631035Y-63747141D03*
D26*
X88838079Y-63521249D03*
%TD*%
D10*
%TO.P,K23,*%
%TO.N,*%
X104760648Y-55178349D03*
D30*
X114905811Y-62141308D03*
D31*
%TO.P,K23,1,A*%
%TO.N,Col2*%
X103798403Y-65997213D03*
D10*
X106562444Y-62280853D03*
D32*
%TO.P,K23,2,B*%
%TO.N,Row3*%
X108152222Y-54679944D03*
D10*
X106937271Y-54858486D03*
%TD*%
D27*
%TO.P,K30,*%
%TO.N,*%
X140928339Y-116390121D03*
D10*
X131278925Y-108754944D03*
D28*
%TO.P,K30,1,A*%
%TO.N,Col3*%
X129584932Y-119483603D03*
D10*
X132594727Y-115963320D03*
D29*
%TO.P,K30,2,B*%
%TO.N,Row0*%
X134696497Y-108487776D03*
D10*
X133472233Y-108583483D03*
%TD*%
%TO.P,K10,*%
%TO.N,*%
X94861133Y-114340512D03*
D24*
X105270694Y-120901622D03*
D25*
%TO.P,K10,1,A*%
%TO.N,Col1*%
X94322483Y-125188718D03*
D10*
X96939156Y-121367164D03*
D26*
%TO.P,K10,2,B*%
%TO.N,Row0*%
X98230635Y-113709927D03*
D10*
X97023591Y-113935819D03*
%TD*%
D35*
%TO.P,JP1,1,A*%
%TO.N,Net-(SW2-Pad2)*%
X188595000Y-64770000D03*
D36*
%TO.P,JP1,2,B*%
%TO.N,Net-(J1-Pad1)*%
X187145000Y-64770000D03*
%TD*%
D10*
%TO.P,K52,*%
%TO.N,*%
X168070061Y-68657090D03*
D11*
X177095061Y-77021090D03*
D12*
%TO.P,K52,1,A*%
%TO.N,Col5*%
X165545061Y-79221090D03*
D10*
X168820061Y-75946090D03*
D13*
%TO.P,K52,2,B*%
%TO.N,Row2*%
X171498061Y-68657090D03*
D10*
X170270061Y-68657090D03*
%TD*%
D37*
%TO.P,SW1,1,1*%
%TO.N,Net-(U1-Pad22)*%
X134620000Y-98425000D03*
X128139771Y-98931591D03*
%TO.P,SW1,2,2*%
%TO.N,GND*%
X128490488Y-103417903D03*
X134970717Y-102911312D03*
%TD*%
D38*
%TO.N,GND*%
X186055000Y-81280000D03*
X173990000Y-99695000D03*
X190500000Y-77470000D03*
X172085000Y-99695000D03*
X191135000Y-69215000D03*
X196287633Y-66101053D03*
X186055000Y-83820000D03*
%TO.N,Col0*%
X190500000Y-97790000D03*
%TO.N,Row0*%
X186055000Y-104140000D03*
%TO.N,Row1*%
X186055000Y-101600000D03*
%TO.N,Row2*%
X186055000Y-99060000D03*
%TO.N,Row3*%
X126258680Y-52213081D03*
X186055000Y-96520000D03*
%TO.N,Col1*%
X190500000Y-95250000D03*
%TO.N,Col2*%
X190500000Y-92710000D03*
%TO.N,Col3*%
X190500000Y-90170000D03*
%TO.N,Col4*%
X190500000Y-87630000D03*
X155575000Y-100330000D03*
X155575000Y-97155000D03*
%TO.N,Col5*%
X190500000Y-85090000D03*
%TO.N,Col6*%
X190500000Y-100330000D03*
%TO.N,unconnected-(U1-Pad1)*%
X186055000Y-76200000D03*
%TO.N,unconnected-(U1-Pad2)*%
X186055000Y-78740000D03*
%TO.N,unconnected-(U1-Pad5)*%
X186055000Y-86360000D03*
%TO.N,unconnected-(U1-Pad6)*%
X186055000Y-88900000D03*
%TO.N,unconnected-(U1-Pad7)*%
X186055000Y-91440000D03*
%TO.N,unconnected-(U1-Pad8)*%
X186055000Y-93980000D03*
%TO.N,unconnected-(U1-Pad13)*%
X190500000Y-102870000D03*
%TO.N,unconnected-(U1-Pad21)*%
X190500000Y-82550000D03*
%TO.N,Net-(U1-Pad24)*%
X191135000Y-73660000D03*
X186690000Y-73660000D03*
%TO.N,Net-(U1-Pad22)*%
X173990000Y-98425000D03*
X172085000Y-98425000D03*
X190500000Y-80010000D03*
%TO.N,Net-(SW2-Pad2)*%
X191741776Y-65365198D03*
%TD*%
D39*
%TO.N,GND*%
X172085000Y-99695000D02*
X173990000Y-99695000D01*
X186055000Y-83820000D02*
X191738960Y-83820000D01*
D40*
X194075591Y-67817585D02*
X192532415Y-67817585D01*
D39*
X134426515Y-103522507D02*
X134933106Y-103015916D01*
X191738960Y-81280000D02*
X192253676Y-80765284D01*
D40*
X194571100Y-67817585D02*
X196287633Y-66101053D01*
D39*
X186055000Y-81280000D02*
X191738960Y-81280000D01*
D40*
X192532415Y-67817585D02*
X191135000Y-69215000D01*
D39*
X191738960Y-83820000D02*
X192253676Y-83305284D01*
X192253676Y-80765284D02*
X192253676Y-83305284D01*
X128452877Y-103522507D02*
X134426515Y-103522507D01*
D40*
X185388960Y-77470000D02*
X184883196Y-77975764D01*
X184883196Y-77975764D02*
X184883196Y-78225284D01*
X194075591Y-67817586D02*
X194571100Y-67817585D01*
X190500000Y-77470000D02*
X185388960Y-77470000D01*
D39*
%TO.N,Col0*%
X185313960Y-97790000D02*
X184558676Y-98545284D01*
X190500000Y-97790000D02*
X185313960Y-97790000D01*
%TO.N,Row0*%
X126044195Y-103659036D02*
X132892973Y-108752811D01*
X80850515Y-118692042D02*
X83147211Y-115337802D01*
X170323541Y-101522572D02*
X171498060Y-102697091D01*
X186055000Y-104140000D02*
X191738960Y-104140000D01*
X152323534Y-103812123D02*
X153498052Y-104986642D01*
X115575955Y-105197384D02*
X126044195Y-103659036D01*
X134696498Y-108487775D02*
X139372150Y-103812122D01*
X192048123Y-110133123D02*
X192048123Y-118001025D01*
X113940697Y-104077698D02*
X115575956Y-105197384D01*
X103486329Y-106034180D02*
X113940697Y-104077698D01*
X173550765Y-104749795D02*
X171498061Y-102697091D01*
X156962125Y-101522570D02*
X170323541Y-101522572D01*
X185445205Y-104749795D02*
X173550765Y-104749795D01*
X153498052Y-104986642D02*
X156962125Y-101522570D01*
X139372150Y-103812122D02*
X152323534Y-103812123D01*
X98230635Y-113709927D02*
X103486329Y-106034180D01*
X186055000Y-104140000D02*
X185445205Y-104749795D01*
X83147211Y-115337802D02*
X96860104Y-112771504D01*
X96860104Y-112771504D02*
X98230635Y-113709927D01*
X191738960Y-104140000D02*
X192253676Y-103625284D01*
X132892973Y-108752811D02*
X134696498Y-108487775D01*
X186055000Y-104140000D02*
X192048123Y-110133123D01*
%TO.N,Row1*%
X174697632Y-85786054D02*
X174588668Y-85677091D01*
X138454131Y-83294555D02*
X132920029Y-83294555D01*
X80016359Y-98608245D02*
X93729253Y-96041946D01*
X100345090Y-89319794D02*
X111466119Y-87238550D01*
X131141321Y-81971642D02*
X132920030Y-83294555D01*
X171498060Y-85677092D02*
X169787611Y-83966642D01*
X111466119Y-87238550D02*
X113101379Y-88358236D01*
X180314795Y-102209795D02*
X178719572Y-100614572D01*
X178719572Y-100614572D02*
X178719572Y-89807994D01*
X169787611Y-83966642D02*
X153498054Y-83966642D01*
X95099785Y-96980369D02*
X100345090Y-89319794D01*
X191738960Y-101600000D02*
X192253676Y-101085284D01*
X186055000Y-101600000D02*
X191738960Y-101600000D01*
X139137633Y-82611054D02*
X138454131Y-83294555D01*
X77719664Y-101962483D02*
X80016359Y-98608245D01*
X174588668Y-85677091D02*
X171498060Y-85677092D01*
X93729253Y-96041946D02*
X95099785Y-96980369D01*
X178719572Y-89807994D02*
X174697632Y-85786054D01*
X116220617Y-84164298D02*
X131141321Y-81971642D01*
X185445205Y-102209795D02*
X180314795Y-102209795D01*
X113101378Y-88358236D02*
X116220617Y-84164298D01*
X152142465Y-82611055D02*
X139137633Y-82611054D01*
X153498054Y-83966642D02*
X152142465Y-82611055D01*
X186055000Y-101600000D02*
X185445205Y-102209795D01*
%TO.N,Row2*%
X191738960Y-99060000D02*
X192253676Y-98545284D01*
X76885508Y-81878684D02*
X90598401Y-79312386D01*
X108991540Y-70399404D02*
X110626800Y-71519090D01*
X137642361Y-66326325D02*
X131593539Y-66326324D01*
X179778887Y-99669795D02*
X179169092Y-99060000D01*
X153498053Y-66946643D02*
X152017465Y-65466053D01*
X169787612Y-66946642D02*
X153498053Y-66946643D01*
X186055000Y-99060000D02*
X185445205Y-99669795D01*
X91968932Y-80250808D02*
X97203845Y-72605411D01*
X90598401Y-79312386D02*
X91968932Y-80250808D01*
X152017465Y-65466053D02*
X138502632Y-65466055D01*
X174681596Y-68657092D02*
X171498061Y-68657090D01*
X171498061Y-68657090D02*
X169787612Y-66946642D01*
X110626801Y-71519091D02*
X113712945Y-67369647D01*
X97203845Y-72605411D02*
X108991540Y-70399404D01*
X74588812Y-85232923D02*
X76885508Y-81878684D01*
X174697633Y-68641054D02*
X174681596Y-68657092D01*
X185445205Y-99669795D02*
X179778887Y-99669795D01*
X113712945Y-67369647D02*
X129814831Y-65003413D01*
X179169092Y-99060000D02*
X179169092Y-73112513D01*
X179169092Y-73112513D02*
X174697633Y-68641054D01*
X138502632Y-65466055D02*
X137642361Y-66326325D01*
X129814831Y-65003413D02*
X131593540Y-66326325D01*
X186055000Y-99060000D02*
X191738960Y-99060000D01*
%TO.N,Row3*%
X178718113Y-72025815D02*
X179076149Y-72383851D01*
X152323534Y-48752121D02*
X147542632Y-48752122D01*
X179618612Y-96433612D02*
X180314795Y-97129795D01*
X73754658Y-65149124D02*
X87467548Y-62582826D01*
X179618612Y-72926315D02*
X179076149Y-72383851D01*
X126040929Y-52051129D02*
X126258680Y-52213081D01*
X191738960Y-96520000D02*
X192253676Y-96005284D01*
X178752500Y-61592672D02*
X178718113Y-61627059D01*
X185445205Y-97129795D02*
X186055000Y-96520000D01*
X180314795Y-97129795D02*
X185445205Y-97129795D01*
X102393535Y-53929739D02*
X106055653Y-53244392D01*
X87467548Y-62582826D02*
X88838080Y-63521249D01*
X147542632Y-48752122D02*
X146936658Y-49358097D01*
X180568572Y-94800480D02*
X179618612Y-93850520D01*
X178752500Y-58102500D02*
X178752500Y-61592672D01*
X189644819Y-97129795D02*
X191224511Y-95550103D01*
X106055653Y-53244392D02*
X108152223Y-54679944D01*
X190199897Y-94525489D02*
X189924906Y-94800480D01*
X169787612Y-49926641D02*
X153498053Y-49926642D01*
X146936658Y-49358097D02*
X130267050Y-49358096D01*
X71457962Y-68503364D02*
X73754658Y-65149124D01*
X180314795Y-97129795D02*
X189644819Y-97129795D01*
X189924906Y-94800480D02*
X180568572Y-94800480D01*
X108152223Y-54679945D02*
X126040929Y-52051129D01*
X178718113Y-61627059D02*
X178718113Y-72025815D01*
X179618612Y-93850520D02*
X179618612Y-72926315D01*
X153498053Y-49926642D02*
X152323534Y-48752121D01*
X186055000Y-96520000D02*
X191738960Y-96520000D01*
X172287090Y-51637090D02*
X178752500Y-58102500D01*
X191224511Y-95550103D02*
X191224511Y-94949897D01*
X171498060Y-51637090D02*
X172287090Y-51637090D01*
X190800103Y-94525489D02*
X190199897Y-94525489D01*
X171498060Y-51637090D02*
X169787612Y-49926641D01*
X96853149Y-62021270D02*
X102393535Y-53929739D01*
X88838080Y-63521249D02*
X96853149Y-62021270D01*
X191224511Y-94949897D02*
X190800103Y-94525489D01*
%TO.N,Col1*%
X190500000Y-95250000D02*
X185388960Y-95250000D01*
X185388960Y-95250000D02*
X184633676Y-96005284D01*
%TO.N,Col2*%
X190500000Y-92710000D02*
X185388960Y-92710000D01*
X185388960Y-92710000D02*
X184633676Y-93465284D01*
%TO.N,Col3*%
X190500000Y-90170000D02*
X185388960Y-90170000D01*
X185388960Y-90170000D02*
X184633676Y-90925284D01*
%TO.N,Col4*%
X190500000Y-87630000D02*
X185388960Y-87630000D01*
X185388960Y-87630000D02*
X184633676Y-88385284D01*
X155575000Y-97155000D02*
X155575000Y-100330000D01*
%TO.N,Col5*%
X190500000Y-85090000D02*
X185386944Y-85090000D01*
X185386944Y-85090000D02*
X184644001Y-85832943D01*
%TO.N,Col6*%
X185388960Y-100330000D02*
X184633676Y-101085284D01*
X190500000Y-100330000D02*
X185388960Y-100330000D01*
%TO.N,unconnected-(U1-Pad1)*%
X191738960Y-76200000D02*
X192253676Y-75685284D01*
X186055000Y-76200000D02*
X191738960Y-76200000D01*
%TO.N,unconnected-(U1-Pad2)*%
X186055000Y-78740000D02*
X191738960Y-78740000D01*
X191738960Y-78740000D02*
X192253676Y-78225284D01*
%TO.N,unconnected-(U1-Pad5)*%
X191738960Y-86360000D02*
X192253676Y-85845284D01*
X186055000Y-86360000D02*
X191738960Y-86360000D01*
%TO.N,unconnected-(U1-Pad6)*%
X186055000Y-88900000D02*
X191738960Y-88900000D01*
X191738960Y-88900000D02*
X192253676Y-88385284D01*
%TO.N,unconnected-(U1-Pad7)*%
X186055000Y-91440000D02*
X191738960Y-91440000D01*
X191738960Y-91440000D02*
X192253676Y-90925284D01*
%TO.N,unconnected-(U1-Pad8)*%
X186055000Y-93980000D02*
X191738960Y-93980000D01*
X191738960Y-93980000D02*
X192253676Y-93465284D01*
%TO.N,unconnected-(U1-Pad13)*%
X185388960Y-102870000D02*
X184633676Y-103625284D01*
X190500000Y-102870000D02*
X185388960Y-102870000D01*
%TO.N,unconnected-(U1-Pad21)*%
X190500000Y-82550000D02*
X185388960Y-82550000D01*
X185388960Y-82550000D02*
X184633676Y-83305284D01*
D40*
%TO.N,Net-(U1-Pad24)*%
X188685000Y-71665000D02*
X186690000Y-73660000D01*
X184981392Y-73660000D02*
X184883196Y-73758196D01*
X186690000Y-73660000D02*
X184981392Y-73660000D01*
X184883196Y-73758196D02*
X184883196Y-75685284D01*
X188685000Y-68580000D02*
X188685000Y-71665000D01*
X191135000Y-73660000D02*
X186690000Y-73660000D01*
%TO.N,Net-(J1-Pad2)*%
X181797153Y-70760574D02*
X184804906Y-70760574D01*
X181547633Y-70511054D02*
X181797153Y-70760574D01*
X184804906Y-70760574D02*
X186985480Y-68580000D01*
X181547633Y-69186054D02*
X181547633Y-70511054D01*
D39*
%TO.N,Net-(U1-Pad22)*%
X134075798Y-99036195D02*
X134582389Y-98529604D01*
X185388960Y-80010000D02*
X184633676Y-80765284D01*
X128102160Y-99036195D02*
X134075798Y-99036195D01*
X172085000Y-98425000D02*
X173990000Y-98425000D01*
X190500000Y-80010000D02*
X185388960Y-80010000D01*
D40*
%TO.N,Net-(J1-Pad1)*%
X186895480Y-65838207D02*
X186895480Y-64770000D01*
X183547633Y-69186054D02*
X186895480Y-65838207D01*
%TO.N,Net-(SW2-Pad2)*%
X188595000Y-64770000D02*
X191146578Y-64770000D01*
X191146578Y-64770000D02*
X191741776Y-65365198D01*
X191741776Y-65365198D02*
X193590004Y-65365197D01*
%TD*%
M02*
