M48
; DRILL file {KiCad (6.0.5)} date Sun May 21 00:40:14 2023
; FORMAT={-:-/ absolute / metric / decimal}
; #@! TF.CreationDate,2023-05-21T00:40:14-05:00
; #@! TF.GenerationSoftware,Kicad,Pcbnew,(6.0.5)
; #@! TF.FileFunction,Plated,1,2,PTH
FMAT,2
METRIC
; #@! TA.AperFunction,Plated,PTH,ViaDrill
T1C0.400
; #@! TA.AperFunction,Plated,PTH,ComponentDrill
T2C0.400
; #@! TA.AperFunction,Plated,PTH,ComponentDrill
T3C0.750
; #@! TA.AperFunction,Plated,PTH,ComponentDrill
T4C0.800
; #@! TA.AperFunction,Plated,PTH,ComponentDrill
T5C1.100
%
G90
G05
T1
X126.259Y-52.213
X155.575Y-97.155
X155.575Y-100.33
X172.085Y-98.425
X172.085Y-99.695
X173.99Y-98.425
X173.99Y-99.695
X186.055Y-76.2
X186.055Y-78.74
X186.055Y-81.28
X186.055Y-83.82
X186.055Y-86.36
X186.055Y-88.9
X186.055Y-91.44
X186.055Y-93.98
X186.055Y-96.52
X186.055Y-99.06
X186.055Y-101.6
X186.055Y-104.14
X186.69Y-73.66
X190.5Y-77.47
X190.5Y-80.01
X190.5Y-82.55
X190.5Y-85.09
X190.5Y-87.63
X190.5Y-90.17
X190.5Y-92.71
X190.5Y-95.25
X190.5Y-97.79
X190.5Y-100.33
X190.5Y-102.87
X191.135Y-69.215
X191.135Y-73.66
X191.742Y-65.365
X196.288Y-66.101
T2
X68.088Y-69.134
X70.166Y-76.161
X70.251Y-68.729
X71.219Y-85.864
X73.297Y-92.89
X73.382Y-85.459
X74.35Y-102.593
X76.428Y-109.62
X76.513Y-102.188
X77.481Y-119.323
X79.559Y-126.349
X79.643Y-118.918
X85.469Y-64.152
X87.547Y-71.178
X87.631Y-63.747
X88.599Y-80.881
X90.677Y-87.908
X90.762Y-80.477
X91.73Y-97.611
X93.808Y-104.638
X93.893Y-97.206
X94.861Y-114.341
X96.939Y-121.367
X97.024Y-113.936
X104.761Y-55.178
X106.562Y-62.281
X106.937Y-54.858
X107.235Y-72.017
X109.037Y-79.12
X109.412Y-71.698
X109.71Y-88.857
X111.512Y-95.959
X111.886Y-88.537
X112.184Y-105.696
X113.986Y-112.798
X114.361Y-105.376
X126.849Y-49.625
X128.165Y-56.834
X128.176Y-66.593
X129.043Y-49.454
X129.492Y-73.802
X129.502Y-83.562
X130.369Y-66.422
X130.818Y-90.77
X131.279Y-108.755
X131.696Y-83.39
X132.595Y-115.963
X133.472Y-108.583
X150.07Y-49.927
X150.07Y-66.947
X150.07Y-83.967
X150.07Y-104.987
X150.82Y-57.216
X150.82Y-74.236
X150.82Y-91.256
X150.82Y-112.276
X152.27Y-49.927
X152.27Y-66.947
X152.27Y-83.967
X152.27Y-104.987
X168.07Y-51.637
X168.07Y-68.657
X168.07Y-85.677
X168.07Y-102.697
X168.82Y-58.926
X168.82Y-75.946
X168.82Y-92.966
X168.82Y-109.986
X170.27Y-51.637
X170.27Y-68.657
X170.27Y-85.677
X170.27Y-102.697
X185.8Y-122.612
X189.186Y-116.114
X191.023Y-117.325
T3
X181.548Y-69.186
X183.548Y-69.186
T4
X180.824Y-75.685
X180.824Y-78.225
X180.824Y-80.765
X180.824Y-83.305
X180.824Y-85.845
X180.824Y-88.385
X180.824Y-90.925
X180.824Y-93.465
X180.824Y-96.005
X180.824Y-98.545
X180.824Y-101.085
X180.824Y-103.625
X196.064Y-75.685
X196.064Y-78.225
X196.064Y-80.765
X196.064Y-83.305
X196.064Y-85.845
X196.064Y-88.385
X196.064Y-90.925
X196.064Y-93.465
X196.064Y-96.005
X196.064Y-98.545
X196.064Y-101.085
X196.064Y-103.625
T5
X128.14Y-98.932
X128.49Y-103.418
X134.62Y-98.425
X134.971Y-102.911
T0
M30
