M48
; DRILL file {KiCad 6.0.11-2627ca5db0~126~ubuntu22.04.1} date Fri 02 Jun 2023 11:19:57 PM CDT
; FORMAT={-:-/ absolute / metric / decimal}
; #@! TF.CreationDate,2023-06-02T23:19:57-05:00
; #@! TF.GenerationSoftware,Kicad,Pcbnew,6.0.11-2627ca5db0~126~ubuntu22.04.1
; #@! TF.FileFunction,NonPlated,1,2,NPTH
FMAT,2
METRIC
; #@! TA.AperFunction,NonPlated,NPTH,ComponentDrill
T1C1.702
; #@! TA.AperFunction,NonPlated,NPTH,ComponentDrill
T2C3.000
; #@! TA.AperFunction,NonPlated,NPTH,ComponentDrill
T3C3.429
%
G90
G05
T1
X72.214Y-83.355
X77.077Y-99.666
X81.939Y-115.976
X82.756Y-80.213
X87.618Y-96.523
X89.464Y-78.213
X92.481Y-112.834
X94.327Y-94.523
X99.189Y-110.834
X100.006Y-75.07
X104.868Y-91.381
X109.731Y-107.692
X111.757Y-60.892
X114.232Y-77.731
X116.706Y-94.57
X119.181Y-111.409
X122.64Y-59.293
X125.115Y-76.132
X127.589Y-92.971
X130.064Y-109.81
X133.499Y-55.053
X134.825Y-72.022
X136.152Y-88.99
X137.928Y-114.183
X144.465Y-54.196
X145.792Y-71.164
X147.118Y-88.132
X148.895Y-113.326
X156.345Y-54.999
X156.345Y-72.019
X156.345Y-110.059
X156.345Y-89.039
X167.345Y-54.999
X167.345Y-72.019
X167.345Y-110.059
X167.345Y-89.039
X174.345Y-56.709
X174.345Y-90.749
X174.345Y-107.769
X174.345Y-73.729
X185.345Y-56.709
X185.345Y-90.749
X185.345Y-107.769
X185.345Y-73.729
X193.706Y-117.809
X202.889Y-123.864
T2
X73.765Y-86.806
X78.627Y-103.117
X79.185Y-87.486
X81.347Y-112.24
X83.348Y-83.949
X84.048Y-103.797
X85.51Y-108.703
X88.211Y-100.26
X90.93Y-109.383
X91.015Y-81.664
X95.877Y-97.974
X96.435Y-82.344
X100.598Y-78.807
X100.74Y-114.285
X101.297Y-98.654
X105.46Y-95.117
X106.16Y-114.965
X110.323Y-111.428
X112.797Y-64.529
X115.272Y-81.368
X117.746Y-98.208
X118.064Y-65.979
X120.221Y-115.047
X120.538Y-82.818
X122.691Y-63.075
X123.013Y-99.657
X125.165Y-79.914
X125.488Y-116.496
X127.64Y-96.754
X130.115Y-113.593
X134.29Y-58.753
X135.616Y-75.721
X136.942Y-92.689
X138.719Y-117.883
X139.446Y-60.557
X140.772Y-77.525
X142.099Y-94.493
X143.875Y-119.686
X144.259Y-57.974
X145.586Y-74.942
X146.912Y-91.91
X148.689Y-117.103
X156.845Y-58.749
X156.845Y-75.769
X156.845Y-113.809
X156.845Y-92.789
X161.845Y-60.949
X161.845Y-77.969
X161.845Y-116.009
X161.845Y-94.989
X166.845Y-58.749
X166.845Y-75.769
X166.845Y-113.809
X166.845Y-92.789
X174.845Y-60.459
X174.845Y-94.499
X174.845Y-111.519
X174.845Y-77.479
X179.845Y-62.659
X179.845Y-96.699
X179.845Y-113.719
X179.845Y-79.679
X184.845Y-60.459
X184.845Y-94.499
X184.845Y-111.519
X184.845Y-77.479
X196.188Y-114.954
X201.573Y-115.869
X204.536Y-120.458
T3
X77.485Y-81.784
X82.348Y-98.095
X87.21Y-114.405
X94.735Y-76.641
X99.597Y-92.952
X104.46Y-109.263
X117.199Y-60.092
X119.673Y-76.931
X122.148Y-93.77
X124.622Y-110.61
X138.982Y-54.625
X140.309Y-71.593
X141.635Y-88.561
X143.411Y-113.754
X161.845Y-54.999
X161.845Y-72.019
X161.845Y-110.059
X161.845Y-89.039
X179.845Y-56.709
X179.845Y-90.749
X179.845Y-107.769
X179.845Y-73.729
X198.298Y-120.837
T0
M30
